<?xml version="1.0" encoding="utf-8" standalone="no"?>
<!DOCTYPE svg PUBLIC "-//W3C//DTD SVG 1.1//EN"
  "http://www.w3.org/Graphics/SVG/1.1/DTD/svg11.dtd">
<!-- Created with matplotlib (https://matplotlib.org/) -->
<svg height="339.90375pt" version="1.1" viewBox="0 0 411.765625 339.90375" width="411.765625pt" xmlns="http://www.w3.org/2000/svg" xmlns:xlink="http://www.w3.org/1999/xlink">
 <metadata>
  <rdf:RDF xmlns:cc="http://creativecommons.org/ns#" xmlns:dc="http://purl.org/dc/elements/1.1/" xmlns:rdf="http://www.w3.org/1999/02/22-rdf-syntax-ns#">
   <cc:Work>
    <dc:type rdf:resource="http://purl.org/dc/dcmitype/StillImage"/>
    <dc:date>2022-03-16T21:57:27.456431</dc:date>
    <dc:format>image/svg+xml</dc:format>
    <dc:creator>
     <cc:Agent>
      <dc:title>Matplotlib v3.3.2, https://matplotlib.org/</dc:title>
     </cc:Agent>
    </dc:creator>
   </cc:Work>
  </rdf:RDF>
 </metadata>
 <defs>
  <style type="text/css">*{stroke-linecap:butt;stroke-linejoin:round;}</style>
 </defs>
 <g id="figure_1">
  <g id="patch_1">
   <path d="M 0 339.90375 
L 411.765625 339.90375 
L 411.765625 0 
L 0 0 
z
" style="fill:#ffffff;"/>
  </g>
  <g id="axes_1">
   <g id="patch_2">
    <path d="M 40.773438 302.3475 
L 397.893438 302.3475 
L 397.893438 36.2355 
L 40.773438 36.2355 
z
" style="fill:#ffffff;"/>
   </g>
   <g id="matplotlib.axis_1">
    <g id="xtick_1">
     <g id="line2d_1">
      <defs>
       <path d="M 0 0 
L 0 3.5 
" id="m0d1f77f51b" style="stroke:#000000;stroke-width:0.8;"/>
      </defs>
      <g>
       <use style="stroke:#000000;stroke-width:0.8;" x="56.843756" xlink:href="#m0d1f77f51b" y="302.3475"/>
      </g>
     </g>
     <g id="text_1">
      <!-- 0 -->
      <g transform="translate(53.662506 316.945937)scale(0.1 -0.1)">
       <defs>
        <path d="M 31.78125 66.40625 
Q 24.171875 66.40625 20.328125 58.90625 
Q 16.5 51.421875 16.5 36.375 
Q 16.5 21.390625 20.328125 13.890625 
Q 24.171875 6.390625 31.78125 6.390625 
Q 39.453125 6.390625 43.28125 13.890625 
Q 47.125 21.390625 47.125 36.375 
Q 47.125 51.421875 43.28125 58.90625 
Q 39.453125 66.40625 31.78125 66.40625 
z
M 31.78125 74.21875 
Q 44.046875 74.21875 50.515625 64.515625 
Q 56.984375 54.828125 56.984375 36.375 
Q 56.984375 17.96875 50.515625 8.265625 
Q 44.046875 -1.421875 31.78125 -1.421875 
Q 19.53125 -1.421875 13.0625 8.265625 
Q 6.59375 17.96875 6.59375 36.375 
Q 6.59375 54.828125 13.0625 64.515625 
Q 19.53125 74.21875 31.78125 74.21875 
z
" id="DejaVuSans-48"/>
       </defs>
       <use xlink:href="#DejaVuSans-48"/>
      </g>
     </g>
    </g>
    <g id="xtick_2">
     <g id="line2d_2">
      <g>
       <use style="stroke:#000000;stroke-width:0.8;" x="97.445876" xlink:href="#m0d1f77f51b" y="302.3475"/>
      </g>
     </g>
     <g id="text_2">
      <!-- 250 -->
      <g transform="translate(87.902126 316.945937)scale(0.1 -0.1)">
       <defs>
        <path d="M 19.1875 8.296875 
L 53.609375 8.296875 
L 53.609375 0 
L 7.328125 0 
L 7.328125 8.296875 
Q 12.9375 14.109375 22.625 23.890625 
Q 32.328125 33.6875 34.8125 36.53125 
Q 39.546875 41.84375 41.421875 45.53125 
Q 43.3125 49.21875 43.3125 52.78125 
Q 43.3125 58.59375 39.234375 62.25 
Q 35.15625 65.921875 28.609375 65.921875 
Q 23.96875 65.921875 18.8125 64.3125 
Q 13.671875 62.703125 7.8125 59.421875 
L 7.8125 69.390625 
Q 13.765625 71.78125 18.9375 73 
Q 24.125 74.21875 28.421875 74.21875 
Q 39.75 74.21875 46.484375 68.546875 
Q 53.21875 62.890625 53.21875 53.421875 
Q 53.21875 48.921875 51.53125 44.890625 
Q 49.859375 40.875 45.40625 35.40625 
Q 44.1875 33.984375 37.640625 27.21875 
Q 31.109375 20.453125 19.1875 8.296875 
z
" id="DejaVuSans-50"/>
        <path d="M 10.796875 72.90625 
L 49.515625 72.90625 
L 49.515625 64.59375 
L 19.828125 64.59375 
L 19.828125 46.734375 
Q 21.96875 47.46875 24.109375 47.828125 
Q 26.265625 48.1875 28.421875 48.1875 
Q 40.625 48.1875 47.75 41.5 
Q 54.890625 34.8125 54.890625 23.390625 
Q 54.890625 11.625 47.5625 5.09375 
Q 40.234375 -1.421875 26.90625 -1.421875 
Q 22.3125 -1.421875 17.546875 -0.640625 
Q 12.796875 0.140625 7.71875 1.703125 
L 7.71875 11.625 
Q 12.109375 9.234375 16.796875 8.0625 
Q 21.484375 6.890625 26.703125 6.890625 
Q 35.15625 6.890625 40.078125 11.328125 
Q 45.015625 15.765625 45.015625 23.390625 
Q 45.015625 31 40.078125 35.4375 
Q 35.15625 39.890625 26.703125 39.890625 
Q 22.75 39.890625 18.8125 39.015625 
Q 14.890625 38.140625 10.796875 36.28125 
z
" id="DejaVuSans-53"/>
       </defs>
       <use xlink:href="#DejaVuSans-50"/>
       <use x="63.623047" xlink:href="#DejaVuSans-53"/>
       <use x="127.246094" xlink:href="#DejaVuSans-48"/>
      </g>
     </g>
    </g>
    <g id="xtick_3">
     <g id="line2d_3">
      <g>
       <use style="stroke:#000000;stroke-width:0.8;" x="138.047995" xlink:href="#m0d1f77f51b" y="302.3475"/>
      </g>
     </g>
     <g id="text_3">
      <!-- 500 -->
      <g transform="translate(128.504245 316.945937)scale(0.1 -0.1)">
       <use xlink:href="#DejaVuSans-53"/>
       <use x="63.623047" xlink:href="#DejaVuSans-48"/>
       <use x="127.246094" xlink:href="#DejaVuSans-48"/>
      </g>
     </g>
    </g>
    <g id="xtick_4">
     <g id="line2d_4">
      <g>
       <use style="stroke:#000000;stroke-width:0.8;" x="178.650114" xlink:href="#m0d1f77f51b" y="302.3475"/>
      </g>
     </g>
     <g id="text_4">
      <!-- 750 -->
      <g transform="translate(169.106364 316.945937)scale(0.1 -0.1)">
       <defs>
        <path d="M 8.203125 72.90625 
L 55.078125 72.90625 
L 55.078125 68.703125 
L 28.609375 0 
L 18.3125 0 
L 43.21875 64.59375 
L 8.203125 64.59375 
z
" id="DejaVuSans-55"/>
       </defs>
       <use xlink:href="#DejaVuSans-55"/>
       <use x="63.623047" xlink:href="#DejaVuSans-53"/>
       <use x="127.246094" xlink:href="#DejaVuSans-48"/>
      </g>
     </g>
    </g>
    <g id="xtick_5">
     <g id="line2d_5">
      <g>
       <use style="stroke:#000000;stroke-width:0.8;" x="219.252233" xlink:href="#m0d1f77f51b" y="302.3475"/>
      </g>
     </g>
     <g id="text_5">
      <!-- 1000 -->
      <g transform="translate(206.527233 316.945937)scale(0.1 -0.1)">
       <defs>
        <path d="M 12.40625 8.296875 
L 28.515625 8.296875 
L 28.515625 63.921875 
L 10.984375 60.40625 
L 10.984375 69.390625 
L 28.421875 72.90625 
L 38.28125 72.90625 
L 38.28125 8.296875 
L 54.390625 8.296875 
L 54.390625 0 
L 12.40625 0 
z
" id="DejaVuSans-49"/>
       </defs>
       <use xlink:href="#DejaVuSans-49"/>
       <use x="63.623047" xlink:href="#DejaVuSans-48"/>
       <use x="127.246094" xlink:href="#DejaVuSans-48"/>
       <use x="190.869141" xlink:href="#DejaVuSans-48"/>
      </g>
     </g>
    </g>
    <g id="xtick_6">
     <g id="line2d_6">
      <g>
       <use style="stroke:#000000;stroke-width:0.8;" x="259.854353" xlink:href="#m0d1f77f51b" y="302.3475"/>
      </g>
     </g>
     <g id="text_6">
      <!-- 1250 -->
      <g transform="translate(247.129353 316.945937)scale(0.1 -0.1)">
       <use xlink:href="#DejaVuSans-49"/>
       <use x="63.623047" xlink:href="#DejaVuSans-50"/>
       <use x="127.246094" xlink:href="#DejaVuSans-53"/>
       <use x="190.869141" xlink:href="#DejaVuSans-48"/>
      </g>
     </g>
    </g>
    <g id="xtick_7">
     <g id="line2d_7">
      <g>
       <use style="stroke:#000000;stroke-width:0.8;" x="300.456472" xlink:href="#m0d1f77f51b" y="302.3475"/>
      </g>
     </g>
     <g id="text_7">
      <!-- 1500 -->
      <g transform="translate(287.731472 316.945937)scale(0.1 -0.1)">
       <use xlink:href="#DejaVuSans-49"/>
       <use x="63.623047" xlink:href="#DejaVuSans-53"/>
       <use x="127.246094" xlink:href="#DejaVuSans-48"/>
       <use x="190.869141" xlink:href="#DejaVuSans-48"/>
      </g>
     </g>
    </g>
    <g id="xtick_8">
     <g id="line2d_8">
      <g>
       <use style="stroke:#000000;stroke-width:0.8;" x="341.058591" xlink:href="#m0d1f77f51b" y="302.3475"/>
      </g>
     </g>
     <g id="text_8">
      <!-- 1750 -->
      <g transform="translate(328.333591 316.945937)scale(0.1 -0.1)">
       <use xlink:href="#DejaVuSans-49"/>
       <use x="63.623047" xlink:href="#DejaVuSans-55"/>
       <use x="127.246094" xlink:href="#DejaVuSans-53"/>
       <use x="190.869141" xlink:href="#DejaVuSans-48"/>
      </g>
     </g>
    </g>
    <g id="xtick_9">
     <g id="line2d_9">
      <g>
       <use style="stroke:#000000;stroke-width:0.8;" x="381.66071" xlink:href="#m0d1f77f51b" y="302.3475"/>
      </g>
     </g>
     <g id="text_9">
      <!-- 2000 -->
      <g transform="translate(368.93571 316.945937)scale(0.1 -0.1)">
       <use xlink:href="#DejaVuSans-50"/>
       <use x="63.623047" xlink:href="#DejaVuSans-48"/>
       <use x="127.246094" xlink:href="#DejaVuSans-48"/>
       <use x="190.869141" xlink:href="#DejaVuSans-48"/>
      </g>
     </g>
    </g>
    <g id="text_10">
     <!-- Tempo discreto -->
     <g transform="translate(181.40375 330.624062)scale(0.1 -0.1)">
      <defs>
       <path d="M -0.296875 72.90625 
L 61.375 72.90625 
L 61.375 64.59375 
L 35.5 64.59375 
L 35.5 0 
L 25.59375 0 
L 25.59375 64.59375 
L -0.296875 64.59375 
z
" id="DejaVuSans-84"/>
       <path d="M 56.203125 29.59375 
L 56.203125 25.203125 
L 14.890625 25.203125 
Q 15.484375 15.921875 20.484375 11.0625 
Q 25.484375 6.203125 34.421875 6.203125 
Q 39.59375 6.203125 44.453125 7.46875 
Q 49.3125 8.734375 54.109375 11.28125 
L 54.109375 2.78125 
Q 49.265625 0.734375 44.1875 -0.34375 
Q 39.109375 -1.421875 33.890625 -1.421875 
Q 20.796875 -1.421875 13.15625 6.1875 
Q 5.515625 13.8125 5.515625 26.8125 
Q 5.515625 40.234375 12.765625 48.109375 
Q 20.015625 56 32.328125 56 
Q 43.359375 56 49.78125 48.890625 
Q 56.203125 41.796875 56.203125 29.59375 
z
M 47.21875 32.234375 
Q 47.125 39.59375 43.09375 43.984375 
Q 39.0625 48.390625 32.421875 48.390625 
Q 24.90625 48.390625 20.390625 44.140625 
Q 15.875 39.890625 15.1875 32.171875 
z
" id="DejaVuSans-101"/>
       <path d="M 52 44.1875 
Q 55.375 50.25 60.0625 53.125 
Q 64.75 56 71.09375 56 
Q 79.640625 56 84.28125 50.015625 
Q 88.921875 44.046875 88.921875 33.015625 
L 88.921875 0 
L 79.890625 0 
L 79.890625 32.71875 
Q 79.890625 40.578125 77.09375 44.375 
Q 74.3125 48.1875 68.609375 48.1875 
Q 61.625 48.1875 57.5625 43.546875 
Q 53.515625 38.921875 53.515625 30.90625 
L 53.515625 0 
L 44.484375 0 
L 44.484375 32.71875 
Q 44.484375 40.625 41.703125 44.40625 
Q 38.921875 48.1875 33.109375 48.1875 
Q 26.21875 48.1875 22.15625 43.53125 
Q 18.109375 38.875 18.109375 30.90625 
L 18.109375 0 
L 9.078125 0 
L 9.078125 54.6875 
L 18.109375 54.6875 
L 18.109375 46.1875 
Q 21.1875 51.21875 25.484375 53.609375 
Q 29.78125 56 35.6875 56 
Q 41.65625 56 45.828125 52.96875 
Q 50 49.953125 52 44.1875 
z
" id="DejaVuSans-109"/>
       <path d="M 18.109375 8.203125 
L 18.109375 -20.796875 
L 9.078125 -20.796875 
L 9.078125 54.6875 
L 18.109375 54.6875 
L 18.109375 46.390625 
Q 20.953125 51.265625 25.265625 53.625 
Q 29.59375 56 35.59375 56 
Q 45.5625 56 51.78125 48.09375 
Q 58.015625 40.1875 58.015625 27.296875 
Q 58.015625 14.40625 51.78125 6.484375 
Q 45.5625 -1.421875 35.59375 -1.421875 
Q 29.59375 -1.421875 25.265625 0.953125 
Q 20.953125 3.328125 18.109375 8.203125 
z
M 48.6875 27.296875 
Q 48.6875 37.203125 44.609375 42.84375 
Q 40.53125 48.484375 33.40625 48.484375 
Q 26.265625 48.484375 22.1875 42.84375 
Q 18.109375 37.203125 18.109375 27.296875 
Q 18.109375 17.390625 22.1875 11.75 
Q 26.265625 6.109375 33.40625 6.109375 
Q 40.53125 6.109375 44.609375 11.75 
Q 48.6875 17.390625 48.6875 27.296875 
z
" id="DejaVuSans-112"/>
       <path d="M 30.609375 48.390625 
Q 23.390625 48.390625 19.1875 42.75 
Q 14.984375 37.109375 14.984375 27.296875 
Q 14.984375 17.484375 19.15625 11.84375 
Q 23.34375 6.203125 30.609375 6.203125 
Q 37.796875 6.203125 41.984375 11.859375 
Q 46.1875 17.53125 46.1875 27.296875 
Q 46.1875 37.015625 41.984375 42.703125 
Q 37.796875 48.390625 30.609375 48.390625 
z
M 30.609375 56 
Q 42.328125 56 49.015625 48.375 
Q 55.71875 40.765625 55.71875 27.296875 
Q 55.71875 13.875 49.015625 6.21875 
Q 42.328125 -1.421875 30.609375 -1.421875 
Q 18.84375 -1.421875 12.171875 6.21875 
Q 5.515625 13.875 5.515625 27.296875 
Q 5.515625 40.765625 12.171875 48.375 
Q 18.84375 56 30.609375 56 
z
" id="DejaVuSans-111"/>
       <path id="DejaVuSans-32"/>
       <path d="M 45.40625 46.390625 
L 45.40625 75.984375 
L 54.390625 75.984375 
L 54.390625 0 
L 45.40625 0 
L 45.40625 8.203125 
Q 42.578125 3.328125 38.25 0.953125 
Q 33.9375 -1.421875 27.875 -1.421875 
Q 17.96875 -1.421875 11.734375 6.484375 
Q 5.515625 14.40625 5.515625 27.296875 
Q 5.515625 40.1875 11.734375 48.09375 
Q 17.96875 56 27.875 56 
Q 33.9375 56 38.25 53.625 
Q 42.578125 51.265625 45.40625 46.390625 
z
M 14.796875 27.296875 
Q 14.796875 17.390625 18.875 11.75 
Q 22.953125 6.109375 30.078125 6.109375 
Q 37.203125 6.109375 41.296875 11.75 
Q 45.40625 17.390625 45.40625 27.296875 
Q 45.40625 37.203125 41.296875 42.84375 
Q 37.203125 48.484375 30.078125 48.484375 
Q 22.953125 48.484375 18.875 42.84375 
Q 14.796875 37.203125 14.796875 27.296875 
z
" id="DejaVuSans-100"/>
       <path d="M 9.421875 54.6875 
L 18.40625 54.6875 
L 18.40625 0 
L 9.421875 0 
z
M 9.421875 75.984375 
L 18.40625 75.984375 
L 18.40625 64.59375 
L 9.421875 64.59375 
z
" id="DejaVuSans-105"/>
       <path d="M 44.28125 53.078125 
L 44.28125 44.578125 
Q 40.484375 46.53125 36.375 47.5 
Q 32.28125 48.484375 27.875 48.484375 
Q 21.1875 48.484375 17.84375 46.4375 
Q 14.5 44.390625 14.5 40.28125 
Q 14.5 37.15625 16.890625 35.375 
Q 19.28125 33.59375 26.515625 31.984375 
L 29.59375 31.296875 
Q 39.15625 29.25 43.1875 25.515625 
Q 47.21875 21.78125 47.21875 15.09375 
Q 47.21875 7.46875 41.1875 3.015625 
Q 35.15625 -1.421875 24.609375 -1.421875 
Q 20.21875 -1.421875 15.453125 -0.5625 
Q 10.6875 0.296875 5.421875 2 
L 5.421875 11.28125 
Q 10.40625 8.6875 15.234375 7.390625 
Q 20.0625 6.109375 24.8125 6.109375 
Q 31.15625 6.109375 34.5625 8.28125 
Q 37.984375 10.453125 37.984375 14.40625 
Q 37.984375 18.0625 35.515625 20.015625 
Q 33.0625 21.96875 24.703125 23.78125 
L 21.578125 24.515625 
Q 13.234375 26.265625 9.515625 29.90625 
Q 5.8125 33.546875 5.8125 39.890625 
Q 5.8125 47.609375 11.28125 51.796875 
Q 16.75 56 26.8125 56 
Q 31.78125 56 36.171875 55.265625 
Q 40.578125 54.546875 44.28125 53.078125 
z
" id="DejaVuSans-115"/>
       <path d="M 48.78125 52.59375 
L 48.78125 44.1875 
Q 44.96875 46.296875 41.140625 47.34375 
Q 37.3125 48.390625 33.40625 48.390625 
Q 24.65625 48.390625 19.8125 42.84375 
Q 14.984375 37.3125 14.984375 27.296875 
Q 14.984375 17.28125 19.8125 11.734375 
Q 24.65625 6.203125 33.40625 6.203125 
Q 37.3125 6.203125 41.140625 7.25 
Q 44.96875 8.296875 48.78125 10.40625 
L 48.78125 2.09375 
Q 45.015625 0.34375 40.984375 -0.53125 
Q 36.96875 -1.421875 32.421875 -1.421875 
Q 20.0625 -1.421875 12.78125 6.34375 
Q 5.515625 14.109375 5.515625 27.296875 
Q 5.515625 40.671875 12.859375 48.328125 
Q 20.21875 56 33.015625 56 
Q 37.15625 56 41.109375 55.140625 
Q 45.0625 54.296875 48.78125 52.59375 
z
" id="DejaVuSans-99"/>
       <path d="M 41.109375 46.296875 
Q 39.59375 47.171875 37.8125 47.578125 
Q 36.03125 48 33.890625 48 
Q 26.265625 48 22.1875 43.046875 
Q 18.109375 38.09375 18.109375 28.8125 
L 18.109375 0 
L 9.078125 0 
L 9.078125 54.6875 
L 18.109375 54.6875 
L 18.109375 46.1875 
Q 20.953125 51.171875 25.484375 53.578125 
Q 30.03125 56 36.53125 56 
Q 37.453125 56 38.578125 55.875 
Q 39.703125 55.765625 41.0625 55.515625 
z
" id="DejaVuSans-114"/>
       <path d="M 18.3125 70.21875 
L 18.3125 54.6875 
L 36.8125 54.6875 
L 36.8125 47.703125 
L 18.3125 47.703125 
L 18.3125 18.015625 
Q 18.3125 11.328125 20.140625 9.421875 
Q 21.96875 7.515625 27.59375 7.515625 
L 36.8125 7.515625 
L 36.8125 0 
L 27.59375 0 
Q 17.1875 0 13.234375 3.875 
Q 9.28125 7.765625 9.28125 18.015625 
L 9.28125 47.703125 
L 2.6875 47.703125 
L 2.6875 54.6875 
L 9.28125 54.6875 
L 9.28125 70.21875 
z
" id="DejaVuSans-116"/>
      </defs>
      <use xlink:href="#DejaVuSans-84"/>
      <use x="44.083984" xlink:href="#DejaVuSans-101"/>
      <use x="105.607422" xlink:href="#DejaVuSans-109"/>
      <use x="203.019531" xlink:href="#DejaVuSans-112"/>
      <use x="266.496094" xlink:href="#DejaVuSans-111"/>
      <use x="327.677734" xlink:href="#DejaVuSans-32"/>
      <use x="359.464844" xlink:href="#DejaVuSans-100"/>
      <use x="422.941406" xlink:href="#DejaVuSans-105"/>
      <use x="450.724609" xlink:href="#DejaVuSans-115"/>
      <use x="502.824219" xlink:href="#DejaVuSans-99"/>
      <use x="557.804688" xlink:href="#DejaVuSans-114"/>
      <use x="596.667969" xlink:href="#DejaVuSans-101"/>
      <use x="658.191406" xlink:href="#DejaVuSans-116"/>
      <use x="697.400391" xlink:href="#DejaVuSans-111"/>
     </g>
    </g>
   </g>
   <g id="matplotlib.axis_2">
    <g id="ytick_1">
     <g id="line2d_10">
      <defs>
       <path d="M 0 0 
L -3.5 0 
" id="me5ba737ece" style="stroke:#000000;stroke-width:0.8;"/>
      </defs>
      <g>
       <use style="stroke:#000000;stroke-width:0.8;" x="40.773438" xlink:href="#me5ba737ece" y="273.274658"/>
      </g>
     </g>
     <g id="text_11">
      <!-- 2 -->
      <g transform="translate(27.410938 277.073877)scale(0.1 -0.1)">
       <use xlink:href="#DejaVuSans-50"/>
      </g>
     </g>
    </g>
    <g id="ytick_2">
     <g id="line2d_11">
      <g>
       <use style="stroke:#000000;stroke-width:0.8;" x="40.773438" xlink:href="#me5ba737ece" y="239.320974"/>
      </g>
     </g>
     <g id="text_12">
      <!-- 4 -->
      <g transform="translate(27.410938 243.120192)scale(0.1 -0.1)">
       <defs>
        <path d="M 37.796875 64.3125 
L 12.890625 25.390625 
L 37.796875 25.390625 
z
M 35.203125 72.90625 
L 47.609375 72.90625 
L 47.609375 25.390625 
L 58.015625 25.390625 
L 58.015625 17.1875 
L 47.609375 17.1875 
L 47.609375 0 
L 37.796875 0 
L 37.796875 17.1875 
L 4.890625 17.1875 
L 4.890625 26.703125 
z
" id="DejaVuSans-52"/>
       </defs>
       <use xlink:href="#DejaVuSans-52"/>
      </g>
     </g>
    </g>
    <g id="ytick_3">
     <g id="line2d_12">
      <g>
       <use style="stroke:#000000;stroke-width:0.8;" x="40.773438" xlink:href="#me5ba737ece" y="205.367289"/>
      </g>
     </g>
     <g id="text_13">
      <!-- 6 -->
      <g transform="translate(27.410938 209.166508)scale(0.1 -0.1)">
       <defs>
        <path d="M 33.015625 40.375 
Q 26.375 40.375 22.484375 35.828125 
Q 18.609375 31.296875 18.609375 23.390625 
Q 18.609375 15.53125 22.484375 10.953125 
Q 26.375 6.390625 33.015625 6.390625 
Q 39.65625 6.390625 43.53125 10.953125 
Q 47.40625 15.53125 47.40625 23.390625 
Q 47.40625 31.296875 43.53125 35.828125 
Q 39.65625 40.375 33.015625 40.375 
z
M 52.59375 71.296875 
L 52.59375 62.3125 
Q 48.875 64.0625 45.09375 64.984375 
Q 41.3125 65.921875 37.59375 65.921875 
Q 27.828125 65.921875 22.671875 59.328125 
Q 17.53125 52.734375 16.796875 39.40625 
Q 19.671875 43.65625 24.015625 45.921875 
Q 28.375 48.1875 33.59375 48.1875 
Q 44.578125 48.1875 50.953125 41.515625 
Q 57.328125 34.859375 57.328125 23.390625 
Q 57.328125 12.15625 50.6875 5.359375 
Q 44.046875 -1.421875 33.015625 -1.421875 
Q 20.359375 -1.421875 13.671875 8.265625 
Q 6.984375 17.96875 6.984375 36.375 
Q 6.984375 53.65625 15.1875 63.9375 
Q 23.390625 74.21875 37.203125 74.21875 
Q 40.921875 74.21875 44.703125 73.484375 
Q 48.484375 72.75 52.59375 71.296875 
z
" id="DejaVuSans-54"/>
       </defs>
       <use xlink:href="#DejaVuSans-54"/>
      </g>
     </g>
    </g>
    <g id="ytick_4">
     <g id="line2d_13">
      <g>
       <use style="stroke:#000000;stroke-width:0.8;" x="40.773438" xlink:href="#me5ba737ece" y="171.413605"/>
      </g>
     </g>
     <g id="text_14">
      <!-- 8 -->
      <g transform="translate(27.410938 175.212824)scale(0.1 -0.1)">
       <defs>
        <path d="M 31.78125 34.625 
Q 24.75 34.625 20.71875 30.859375 
Q 16.703125 27.09375 16.703125 20.515625 
Q 16.703125 13.921875 20.71875 10.15625 
Q 24.75 6.390625 31.78125 6.390625 
Q 38.8125 6.390625 42.859375 10.171875 
Q 46.921875 13.96875 46.921875 20.515625 
Q 46.921875 27.09375 42.890625 30.859375 
Q 38.875 34.625 31.78125 34.625 
z
M 21.921875 38.8125 
Q 15.578125 40.375 12.03125 44.71875 
Q 8.5 49.078125 8.5 55.328125 
Q 8.5 64.0625 14.71875 69.140625 
Q 20.953125 74.21875 31.78125 74.21875 
Q 42.671875 74.21875 48.875 69.140625 
Q 55.078125 64.0625 55.078125 55.328125 
Q 55.078125 49.078125 51.53125 44.71875 
Q 48 40.375 41.703125 38.8125 
Q 48.828125 37.15625 52.796875 32.3125 
Q 56.78125 27.484375 56.78125 20.515625 
Q 56.78125 9.90625 50.3125 4.234375 
Q 43.84375 -1.421875 31.78125 -1.421875 
Q 19.734375 -1.421875 13.25 4.234375 
Q 6.78125 9.90625 6.78125 20.515625 
Q 6.78125 27.484375 10.78125 32.3125 
Q 14.796875 37.15625 21.921875 38.8125 
z
M 18.3125 54.390625 
Q 18.3125 48.734375 21.84375 45.5625 
Q 25.390625 42.390625 31.78125 42.390625 
Q 38.140625 42.390625 41.71875 45.5625 
Q 45.3125 48.734375 45.3125 54.390625 
Q 45.3125 60.0625 41.71875 63.234375 
Q 38.140625 66.40625 31.78125 66.40625 
Q 25.390625 66.40625 21.84375 63.234375 
Q 18.3125 60.0625 18.3125 54.390625 
z
" id="DejaVuSans-56"/>
       </defs>
       <use xlink:href="#DejaVuSans-56"/>
      </g>
     </g>
    </g>
    <g id="ytick_5">
     <g id="line2d_14">
      <g>
       <use style="stroke:#000000;stroke-width:0.8;" x="40.773438" xlink:href="#me5ba737ece" y="137.459921"/>
      </g>
     </g>
     <g id="text_15">
      <!-- 10 -->
      <g transform="translate(21.048438 141.25914)scale(0.1 -0.1)">
       <use xlink:href="#DejaVuSans-49"/>
       <use x="63.623047" xlink:href="#DejaVuSans-48"/>
      </g>
     </g>
    </g>
    <g id="ytick_6">
     <g id="line2d_15">
      <g>
       <use style="stroke:#000000;stroke-width:0.8;" x="40.773438" xlink:href="#me5ba737ece" y="103.506237"/>
      </g>
     </g>
     <g id="text_16">
      <!-- 12 -->
      <g transform="translate(21.048438 107.305456)scale(0.1 -0.1)">
       <use xlink:href="#DejaVuSans-49"/>
       <use x="63.623047" xlink:href="#DejaVuSans-50"/>
      </g>
     </g>
    </g>
    <g id="ytick_7">
     <g id="line2d_16">
      <g>
       <use style="stroke:#000000;stroke-width:0.8;" x="40.773438" xlink:href="#me5ba737ece" y="69.552553"/>
      </g>
     </g>
     <g id="text_17">
      <!-- 14 -->
      <g transform="translate(21.048438 73.351771)scale(0.1 -0.1)">
       <use xlink:href="#DejaVuSans-49"/>
       <use x="63.623047" xlink:href="#DejaVuSans-52"/>
      </g>
     </g>
    </g>
    <g id="text_18">
     <!-- Numero de regiões -->
     <g transform="translate(14.96875 216.902437)rotate(-90)scale(0.1 -0.1)">
      <defs>
       <path d="M 9.8125 72.90625 
L 23.09375 72.90625 
L 55.421875 11.921875 
L 55.421875 72.90625 
L 64.984375 72.90625 
L 64.984375 0 
L 51.703125 0 
L 19.390625 60.984375 
L 19.390625 0 
L 9.8125 0 
z
" id="DejaVuSans-78"/>
       <path d="M 8.5 21.578125 
L 8.5 54.6875 
L 17.484375 54.6875 
L 17.484375 21.921875 
Q 17.484375 14.15625 20.5 10.265625 
Q 23.53125 6.390625 29.59375 6.390625 
Q 36.859375 6.390625 41.078125 11.03125 
Q 45.3125 15.671875 45.3125 23.6875 
L 45.3125 54.6875 
L 54.296875 54.6875 
L 54.296875 0 
L 45.3125 0 
L 45.3125 8.40625 
Q 42.046875 3.421875 37.71875 1 
Q 33.40625 -1.421875 27.6875 -1.421875 
Q 18.265625 -1.421875 13.375 4.4375 
Q 8.5 10.296875 8.5 21.578125 
z
M 31.109375 56 
z
" id="DejaVuSans-117"/>
       <path d="M 45.40625 27.984375 
Q 45.40625 37.75 41.375 43.109375 
Q 37.359375 48.484375 30.078125 48.484375 
Q 22.859375 48.484375 18.828125 43.109375 
Q 14.796875 37.75 14.796875 27.984375 
Q 14.796875 18.265625 18.828125 12.890625 
Q 22.859375 7.515625 30.078125 7.515625 
Q 37.359375 7.515625 41.375 12.890625 
Q 45.40625 18.265625 45.40625 27.984375 
z
M 54.390625 6.78125 
Q 54.390625 -7.171875 48.1875 -13.984375 
Q 42 -20.796875 29.203125 -20.796875 
Q 24.46875 -20.796875 20.265625 -20.09375 
Q 16.0625 -19.390625 12.109375 -17.921875 
L 12.109375 -9.1875 
Q 16.0625 -11.328125 19.921875 -12.34375 
Q 23.78125 -13.375 27.78125 -13.375 
Q 36.625 -13.375 41.015625 -8.765625 
Q 45.40625 -4.15625 45.40625 5.171875 
L 45.40625 9.625 
Q 42.625 4.78125 38.28125 2.390625 
Q 33.9375 0 27.875 0 
Q 17.828125 0 11.671875 7.65625 
Q 5.515625 15.328125 5.515625 27.984375 
Q 5.515625 40.671875 11.671875 48.328125 
Q 17.828125 56 27.875 56 
Q 33.9375 56 38.28125 53.609375 
Q 42.625 51.21875 45.40625 46.390625 
L 45.40625 54.6875 
L 54.390625 54.6875 
z
" id="DejaVuSans-103"/>
       <path d="M 30.609375 48.390625 
Q 23.390625 48.390625 19.1875 42.75 
Q 14.984375 37.109375 14.984375 27.296875 
Q 14.984375 17.484375 19.15625 11.84375 
Q 23.34375 6.203125 30.609375 6.203125 
Q 37.796875 6.203125 41.984375 11.859375 
Q 46.1875 17.53125 46.1875 27.296875 
Q 46.1875 37.015625 41.984375 42.703125 
Q 37.796875 48.390625 30.609375 48.390625 
z
M 30.609375 56 
Q 42.328125 56 49.015625 48.375 
Q 55.71875 40.765625 55.71875 27.296875 
Q 55.71875 13.875 49.015625 6.21875 
Q 42.328125 -1.421875 30.609375 -1.421875 
Q 18.84375 -1.421875 12.171875 6.21875 
Q 5.515625 13.875 5.515625 27.296875 
Q 5.515625 40.765625 12.171875 48.375 
Q 18.84375 56 30.609375 56 
z
M 30.4375 66.890625 
L 27.640625 69.578125 
Q 26.578125 70.5625 25.765625 71.015625 
Q 24.96875 71.484375 24.328125 71.484375 
Q 22.46875 71.484375 21.59375 69.703125 
Q 20.71875 67.921875 20.609375 63.921875 
L 14.515625 63.921875 
Q 14.609375 70.515625 17.09375 74.09375 
Q 19.59375 77.6875 24.03125 77.6875 
Q 25.890625 77.6875 27.453125 77 
Q 29.015625 76.3125 30.828125 74.703125 
L 33.609375 72.015625 
Q 34.671875 71.046875 35.484375 70.578125 
Q 36.296875 70.125 36.921875 70.125 
Q 38.78125 70.125 39.65625 71.90625 
Q 40.53125 73.6875 40.640625 77.6875 
L 46.734375 77.6875 
Q 46.640625 71.09375 44.140625 67.5 
Q 41.65625 63.921875 37.21875 63.921875 
Q 35.359375 63.921875 33.796875 64.59375 
Q 32.234375 65.28125 30.4375 66.890625 
z
" id="DejaVuSans-245"/>
      </defs>
      <use xlink:href="#DejaVuSans-78"/>
      <use x="74.804688" xlink:href="#DejaVuSans-117"/>
      <use x="138.183594" xlink:href="#DejaVuSans-109"/>
      <use x="235.595703" xlink:href="#DejaVuSans-101"/>
      <use x="297.119141" xlink:href="#DejaVuSans-114"/>
      <use x="335.982422" xlink:href="#DejaVuSans-111"/>
      <use x="397.164062" xlink:href="#DejaVuSans-32"/>
      <use x="428.951172" xlink:href="#DejaVuSans-100"/>
      <use x="492.427734" xlink:href="#DejaVuSans-101"/>
      <use x="553.951172" xlink:href="#DejaVuSans-32"/>
      <use x="585.738281" xlink:href="#DejaVuSans-114"/>
      <use x="624.601562" xlink:href="#DejaVuSans-101"/>
      <use x="686.125" xlink:href="#DejaVuSans-103"/>
      <use x="749.601562" xlink:href="#DejaVuSans-105"/>
      <use x="777.384766" xlink:href="#DejaVuSans-245"/>
      <use x="838.566406" xlink:href="#DejaVuSans-101"/>
      <use x="900.089844" xlink:href="#DejaVuSans-115"/>
     </g>
    </g>
   </g>
   <g id="line2d_17">
    <path clip-path="url(#pb73cf768b9)" d="M 57.006165 290.2515 
L 57.168573 290.2515 
L 57.330982 274.8915 
L 57.49339 273.274658 
L 57.655799 256.297816 
L 57.818207 257.914658 
L 57.980616 256.297816 
L 94.84734 256.297816 
L 95.009748 254.680974 
L 99.06996 254.680974 
L 99.232369 253.872553 
L 99.394777 253.872553 
L 99.557186 253.064132 
L 99.882003 249.830447 
L 100.044411 249.022026 
L 100.369228 249.022026 
L 100.531637 247.405184 
L 101.018862 247.405184 
L 101.181271 246.596763 
L 102.155721 246.596763 
L 102.31813 245.788342 
L 102.805355 245.788342 
L 102.967764 243.363079 
L 103.130172 243.363079 
L 103.292581 241.746237 
L 103.454989 241.746237 
L 103.617398 243.363079 
L 103.942215 243.363079 
L 104.104623 238.512553 
L 104.267032 237.704132 
L 104.42944 240.937816 
L 104.591849 240.129395 
L 104.754257 238.512553 
L 104.916665 234.470447 
L 105.079074 234.470447 
L 105.241482 232.045184 
L 105.403891 235.278868 
L 105.728708 235.278868 
L 105.891116 230.428342 
L 106.053525 229.619921 
L 106.215933 234.470447 
L 106.378342 229.619921 
L 106.54075 228.8115 
L 106.703159 228.8115 
L 106.865567 233.662026 
L 107.027976 232.045184 
L 107.190384 226.386237 
L 107.352793 229.619921 
L 107.515201 224.769395 
L 107.840018 224.769395 
L 108.002427 229.619921 
L 108.164835 224.769395 
L 108.327243 229.619921 
L 108.489652 229.619921 
L 108.65206 228.8115 
L 108.976877 228.8115 
L 109.139286 223.960974 
L 109.301694 228.8115 
L 109.464103 228.8115 
L 109.626511 228.003079 
L 109.951328 228.003079 
L 110.113737 223.152553 
L 110.276145 223.152553 
L 110.600962 219.918868 
L 110.763371 219.110447 
L 110.925779 219.110447 
L 111.088188 221.535711 
L 111.250596 221.535711 
L 111.413005 216.685184 
L 111.575413 221.535711 
L 111.737822 215.876763 
L 112.225047 215.876763 
L 112.387455 220.727289 
L 112.549864 220.727289 
L 112.712272 215.876763 
L 112.874681 219.918868 
L 113.199498 219.918868 
L 113.361906 215.068342 
L 113.524315 219.918868 
L 113.686723 219.918868 
L 113.849132 219.110447 
L 114.01154 213.4515 
L 114.173949 213.4515 
L 114.336357 218.302026 
L 114.498766 216.685184 
L 114.661174 211.834658 
L 114.823583 216.685184 
L 114.985991 211.026237 
L 115.1484 211.026237 
L 115.310808 215.876763 
L 115.473216 211.026237 
L 115.635625 215.876763 
L 115.798033 210.217816 
L 115.960442 210.217816 
L 116.12285 209.409395 
L 116.285259 214.259921 
L 116.447667 214.259921 
L 116.610076 213.4515 
L 116.934893 213.4515 
L 117.097301 208.600974 
L 117.25971 208.600974 
L 117.422118 213.4515 
L 117.746935 213.4515 
L 117.909344 208.600974 
L 119.208611 208.600974 
L 119.37102 213.4515 
L 119.533428 213.4515 
L 119.858245 208.600974 
L 120.507879 208.600974 
L 120.670288 206.984132 
L 120.832696 208.600974 
L 120.995105 208.600974 
L 121.157513 206.984132 
L 121.319922 208.600974 
L 121.807147 208.600974 
L 121.969556 206.984132 
L 122.456781 206.984132 
L 122.619189 208.600974 
L 122.781598 206.984132 
L 123.106415 206.984132 
L 123.268823 205.367289 
L 123.431232 206.984132 
L 123.59364 205.367289 
L 123.756049 206.984132 
L 124.243274 206.984132 
L 124.405683 205.367289 
L 124.568091 206.984132 
L 124.7305 205.367289 
L 124.892908 205.367289 
L 125.055317 206.984132 
L 125.217725 205.367289 
L 126.84181 205.367289 
L 127.004218 204.558868 
L 128.141078 204.558868 
L 128.303486 206.175711 
L 128.465895 204.558868 
L 128.628303 204.558868 
L 128.790712 206.175711 
L 129.115529 206.175711 
L 129.277937 204.558868 
L 129.602754 204.558868 
L 129.765162 206.175711 
L 129.927571 204.558868 
L 130.089979 204.558868 
L 130.252388 206.175711 
L 130.577205 206.175711 
L 130.739613 204.558868 
L 131.06443 204.558868 
L 131.226839 206.175711 
L 131.389247 204.558868 
L 131.551656 206.175711 
L 131.876473 206.175711 
L 132.038881 204.558868 
L 132.688515 204.558868 
L 132.850924 206.175711 
L 133.338149 206.175711 
L 133.500557 204.558868 
L 133.662966 204.558868 
L 133.825374 206.175711 
L 133.987783 204.558868 
L 134.150191 206.175711 
L 134.3126 206.175711 
L 134.475008 204.558868 
L 134.637417 204.558868 
L 134.799825 206.175711 
L 134.962234 206.175711 
L 135.124642 204.558868 
L 135.287051 204.558868 
L 135.449459 206.175711 
L 135.936685 206.175711 
L 136.099093 204.558868 
L 136.261502 206.175711 
L 136.42391 204.558868 
L 136.586318 206.175711 
L 136.748727 204.558868 
L 136.911135 206.175711 
L 137.398361 206.175711 
L 137.560769 204.558868 
L 137.723178 206.175711 
L 137.885586 204.558868 
L 138.047995 206.175711 
L 138.210403 204.558868 
L 138.372812 206.175711 
L 138.860037 206.175711 
L 139.022446 204.558868 
L 139.184854 204.558868 
L 139.347263 206.175711 
L 139.509671 204.558868 
L 139.834488 204.558868 
L 139.996897 206.175711 
L 140.159305 206.175711 
L 140.321713 204.558868 
L 140.484122 204.558868 
L 140.64653 206.175711 
L 140.808939 204.558868 
L 140.971347 206.175711 
L 141.133756 204.558868 
L 141.296164 206.175711 
L 141.458573 204.558868 
L 141.620981 206.175711 
L 141.78339 206.175711 
L 141.945798 204.558868 
L 142.108207 204.558868 
L 142.270615 206.175711 
L 142.920249 206.175711 
L 143.082658 204.558868 
L 143.245066 206.175711 
L 143.407475 204.558868 
L 143.569883 204.558868 
L 143.732291 206.175711 
L 143.8947 204.558868 
L 144.057108 206.175711 
L 144.219517 206.175711 
L 144.381925 204.558868 
L 144.544334 204.558868 
L 144.706742 206.175711 
L 144.869151 204.558868 
L 145.031559 204.558868 
L 145.193968 206.175711 
L 146.655644 206.175711 
L 146.818053 204.558868 
L 146.980461 206.175711 
L 147.142869 204.558868 
L 147.305278 206.175711 
L 147.467686 204.558868 
L 147.630095 206.175711 
L 147.954912 206.175711 
L 148.11732 204.558868 
L 148.279729 206.175711 
L 148.442137 204.558868 
L 149.416588 204.558868 
L 149.578997 206.175711 
L 149.903814 206.175711 
L 150.066222 204.558868 
L 150.228631 206.175711 
L 150.391039 204.558868 
L 150.553448 204.558868 
L 150.715856 206.175711 
L 151.203081 206.175711 
L 151.36549 204.558868 
L 151.527898 206.175711 
L 152.339941 206.175711 
L 152.502349 204.558868 
L 152.664758 206.175711 
L 153.151983 206.175711 
L 153.314392 204.558868 
L 153.639209 204.558868 
L 153.801617 206.175711 
L 153.964026 206.175711 
L 154.126434 204.558868 
L 154.288842 206.175711 
L 154.451251 204.558868 
L 154.613659 206.175711 
L 154.776068 204.558868 
L 154.938476 204.558868 
L 155.100885 206.175711 
L 155.263293 206.175711 
L 155.425702 204.558868 
L 155.912927 204.558868 
L 156.075336 206.175711 
L 156.237744 204.558868 
L 156.400153 206.175711 
L 156.562561 206.175711 
L 156.72497 204.558868 
L 157.374604 204.558868 
L 157.537012 206.175711 
L 157.861829 206.175711 
L 158.024237 204.558868 
L 158.186646 206.175711 
L 158.349054 204.558868 
L 158.673871 204.558868 
L 158.83628 206.175711 
L 158.998688 206.175711 
L 159.161097 204.558868 
L 159.323505 206.175711 
L 159.485914 204.558868 
L 159.648322 204.558868 
L 159.810731 206.175711 
L 159.973139 204.558868 
L 160.297956 204.558868 
L 160.460365 206.175711 
L 160.622773 206.175711 
L 160.785182 204.558868 
L 160.94759 204.558868 
L 161.109999 206.175711 
L 161.434815 202.942026 
L 161.597224 202.942026 
L 161.759632 204.558868 
L 161.922041 202.942026 
L 162.409266 202.942026 
L 162.571675 204.558868 
L 162.896492 204.558868 
L 163.0589 202.942026 
L 163.221309 204.558868 
L 163.546126 204.558868 
L 163.708534 202.942026 
L 163.870943 202.942026 
L 164.033351 204.558868 
L 164.19576 202.942026 
L 164.358168 204.558868 
L 164.520577 204.558868 
L 164.682985 202.942026 
L 164.845393 204.558868 
L 165.332619 204.558868 
L 165.495027 202.942026 
L 165.657436 204.558868 
L 166.30707 204.558868 
L 166.469478 202.942026 
L 166.631887 202.942026 
L 166.794295 204.558868 
L 166.956704 202.942026 
L 167.119112 202.942026 
L 167.281521 204.558868 
L 167.606338 204.558868 
L 167.768746 202.942026 
L 167.931155 202.942026 
L 168.093563 204.558868 
L 168.255971 204.558868 
L 168.41838 202.942026 
L 168.580788 202.942026 
L 168.743197 204.558868 
L 169.555239 204.558868 
L 169.717648 202.942026 
L 169.880056 202.942026 
L 170.042465 204.558868 
L 170.692099 204.558868 
L 170.854507 202.942026 
L 171.016916 204.558868 
L 171.179324 204.558868 
L 171.341733 202.942026 
L 171.504141 204.558868 
L 171.66655 202.942026 
L 171.991366 202.942026 
L 172.153775 204.558868 
L 172.316183 202.942026 
L 172.478592 204.558868 
L 172.641 202.942026 
L 172.965817 202.942026 
L 173.128226 204.558868 
L 173.290634 202.942026 
L 173.77786 202.942026 
L 173.940268 204.558868 
L 174.102677 202.942026 
L 174.265085 204.558868 
L 174.427494 204.558868 
L 174.589902 202.942026 
L 174.914719 202.942026 
L 175.077128 204.558868 
L 175.239536 202.942026 
L 175.401944 204.558868 
L 175.564353 202.942026 
L 176.051578 202.942026 
L 176.213987 201.325184 
L 176.376395 202.942026 
L 176.538804 202.942026 
L 176.701212 201.325184 
L 176.863621 202.942026 
L 177.026029 201.325184 
L 177.513255 201.325184 
L 177.675663 202.942026 
L 177.838072 201.325184 
L 178.162889 201.325184 
L 178.325297 202.942026 
L 178.812522 202.942026 
L 178.974931 201.325184 
L 179.137339 201.325184 
L 179.299748 202.942026 
L 179.624565 202.942026 
L 179.786973 201.325184 
L 179.949382 202.942026 
L 181.573467 202.942026 
L 181.735875 201.325184 
L 182.060692 201.325184 
L 182.223101 202.942026 
L 182.385509 202.942026 
L 182.547917 201.325184 
L 183.035143 201.325184 
L 183.197551 202.942026 
L 183.522368 202.942026 
L 183.684777 201.325184 
L 184.172002 201.325184 
L 184.334411 202.942026 
L 184.496819 201.325184 
L 184.821636 201.325184 
L 184.984045 199.708342 
L 185.308862 199.708342 
L 185.47127 201.325184 
L 185.633679 201.325184 
L 185.796087 199.708342 
L 185.958495 201.325184 
L 186.120904 201.325184 
L 186.283312 199.708342 
L 186.608129 199.708342 
L 186.770538 201.325184 
L 187.095355 201.325184 
L 187.257763 199.708342 
L 187.420172 201.325184 
L 188.069806 201.325184 
L 188.232214 199.708342 
L 188.394623 199.708342 
L 188.557031 201.325184 
L 188.71944 201.325184 
L 188.881848 199.708342 
L 189.369073 199.708342 
L 189.531482 201.325184 
L 189.856299 198.0915 
L 190.018707 199.708342 
L 190.181116 199.708342 
L 190.343524 198.0915 
L 190.668341 198.0915 
L 190.83075 199.708342 
L 191.155567 199.708342 
L 191.317975 198.0915 
L 191.480384 199.708342 
L 191.805201 199.708342 
L 191.967609 198.0915 
L 192.617243 198.0915 
L 192.779652 199.708342 
L 192.94206 198.0915 
L 193.104468 198.0915 
L 193.266877 199.708342 
L 193.429285 198.0915 
L 193.591694 199.708342 
L 193.754102 199.708342 
L 193.916511 198.0915 
L 194.078919 199.708342 
L 194.403736 199.708342 
L 194.566145 198.0915 
L 194.728553 199.708342 
L 194.890962 199.708342 
L 195.05337 198.0915 
L 195.215779 199.708342 
L 195.378187 198.0915 
L 195.540596 198.0915 
L 195.703004 199.708342 
L 195.865413 198.0915 
L 196.027821 199.708342 
L 196.19023 198.0915 
L 196.352638 198.0915 
L 196.515046 199.708342 
L 196.839863 199.708342 
L 197.002272 198.0915 
L 197.16468 199.708342 
L 197.327089 199.708342 
L 197.489497 198.0915 
L 197.651906 199.708342 
L 197.814314 199.708342 
L 197.976723 198.0915 
L 198.139131 199.708342 
L 198.30154 198.0915 
L 198.463948 199.708342 
L 198.788765 199.708342 
L 198.951174 198.0915 
L 199.113582 198.0915 
L 199.275991 199.708342 
L 199.438399 198.0915 
L 199.600808 199.708342 
L 199.925625 199.708342 
L 200.088033 198.0915 
L 200.250441 198.0915 
L 200.41285 199.708342 
L 201.224892 199.708342 
L 201.387301 198.0915 
L 201.549709 198.0915 
L 201.712118 199.708342 
L 202.036935 199.708342 
L 202.199343 196.474658 
L 202.52416 196.474658 
L 202.686569 198.0915 
L 203.011386 198.0915 
L 203.336203 194.857816 
L 203.498611 194.857816 
L 203.661019 196.474658 
L 204.148245 196.474658 
L 204.310653 194.857816 
L 204.473062 194.857816 
L 204.63547 196.474658 
L 204.797879 194.857816 
L 204.960287 196.474658 
L 205.285104 196.474658 
L 205.447513 194.857816 
L 205.609921 194.857816 
L 205.77233 196.474658 
L 205.934738 196.474658 
L 206.097147 194.857816 
L 206.259555 194.857816 
L 206.421964 193.240974 
L 206.584372 194.857816 
L 206.746781 193.240974 
L 207.234006 193.240974 
L 207.396414 191.624132 
L 207.558823 193.240974 
L 207.721231 191.624132 
L 207.88364 193.240974 
L 208.046048 191.624132 
L 208.208457 193.240974 
L 208.370865 191.624132 
L 208.533274 191.624132 
L 208.695682 193.240974 
L 208.858091 193.240974 
L 209.020499 191.624132 
L 209.182908 193.240974 
L 209.345316 191.624132 
L 209.507725 193.240974 
L 209.670133 191.624132 
L 209.99495 191.624132 
L 210.157359 193.240974 
L 210.319767 191.624132 
L 210.482176 191.624132 
L 210.644584 193.240974 
L 210.806992 191.624132 
L 210.969401 191.624132 
L 211.131809 190.007289 
L 211.456626 190.007289 
L 211.619035 191.624132 
L 211.781443 190.007289 
L 211.943852 191.624132 
L 212.268669 191.624132 
L 212.431077 186.773605 
L 212.593486 190.088132 
L 212.755894 188.390447 
L 213.730345 188.390447 
L 213.892754 186.692763 
L 214.704796 186.692763 
L 214.867204 184.995079 
L 215.029613 184.995079 
L 215.192021 183.297395 
L 215.679247 183.297395 
L 215.841655 181.599711 
L 216.491289 181.599711 
L 216.653698 179.902026 
L 218.277782 179.902026 
L 218.440191 178.204342 
L 220.226684 178.204342 
L 220.551501 174.808974 
L 221.850769 174.808974 
L 222.175586 171.413605 
L 222.337994 171.413605 
L 222.500403 169.715921 
L 223.150037 169.715921 
L 223.312445 168.018237 
L 223.474854 168.018237 
L 223.637262 166.320553 
L 225.098938 166.320553 
L 225.261347 164.622868 
L 228.347108 164.622868 
L 228.671925 161.2275 
L 230.945644 161.2275 
L 231.108052 159.529816 
L 232.569728 159.529816 
L 232.732137 157.832132 
L 234.193813 157.832132 
L 234.51863 154.436763 
L 235.330672 154.436763 
L 235.493081 152.739079 
L 236.62994 152.739079 
L 236.792349 151.041395 
L 237.441983 151.041395 
L 237.604391 149.343711 
L 238.578842 149.343711 
L 238.74125 147.646026 
L 239.228476 147.646026 
L 239.390884 145.948342 
L 240.040518 145.948342 
L 240.202927 144.250658 
L 247.511308 144.250658 
L 247.998534 139.157605 
L 249.297802 139.157605 
L 249.46021 137.459921 
L 250.759478 137.459921 
L 250.921886 135.762237 
L 254.332464 135.762237 
L 254.494873 134.064553 
L 258.555085 134.064553 
L 258.717493 132.366868 
L 260.828803 132.366868 
L 260.991212 130.669184 
L 261.15362 130.669184 
L 261.316029 128.9715 
L 261.965663 128.9715 
L 262.128071 127.273816 
L 262.452888 127.273816 
L 262.615297 125.576132 
L 263.427339 125.576132 
L 263.589747 123.878447 
L 263.914564 123.878447 
L 264.076973 122.180763 
L 266.5131 122.180763 
L 266.675509 118.785395 
L 268.462002 118.785395 
L 268.62441 117.087711 
L 273.98389 117.087711 
L 274.146298 115.390026 
L 274.633524 115.390026 
L 274.795932 114.541184 
L 276.582426 114.541184 
L 276.744834 112.8435 
L 277.881693 112.8435 
L 278.044102 111.145816 
L 278.368919 111.145816 
L 278.531327 107.750447 
L 280.480229 107.750447 
L 280.642638 106.052763 
L 287.626202 106.052763 
L 287.788611 104.355079 
L 292.011231 104.355079 
L 292.173639 102.657395 
L 294.609767 102.657395 
L 294.772175 97.564342 
L 295.096992 97.564342 
L 295.2594 95.866658 
L 298.345162 95.866658 
L 298.50757 94.168974 
L 299.157204 94.168974 
L 299.319612 92.471289 
L 299.644429 92.471289 
L 299.806838 91.622447 
L 301.593331 91.622447 
L 301.75574 89.924763 
L 309.22653 89.924763 
L 309.388938 88.227079 
L 309.876163 88.227079 
L 310.038572 86.529395 
L 311.662657 86.529395 
L 311.825065 84.831711 
L 318.158996 84.831711 
L 318.321404 83.134026 
L 318.971038 83.134026 
L 319.133447 81.436342 
L 324.980152 81.436342 
L 325.14256 79.738658 
L 331.314082 79.738658 
L 331.476491 78.040974 
L 331.801308 78.040974 
L 331.963716 74.645605 
L 336.348745 74.645605 
L 336.511154 72.947921 
L 338.460055 72.947921 
L 338.622464 71.250237 
L 339.272098 71.250237 
L 339.434506 69.552553 
L 340.571366 69.552553 
L 340.733774 67.854868 
L 344.631577 67.854868 
L 344.793986 66.157184 
L 347.067705 66.157184 
L 347.230113 64.4595 
L 351.290325 64.4595 
L 351.452734 62.761816 
L 353.239227 62.761816 
L 353.401635 61.064132 
L 359.897974 61.064132 
L 360.060383 59.366447 
L 362.658918 59.366447 
L 362.821327 57.668763 
L 365.744679 57.668763 
L 365.907088 55.971079 
L 367.85599 55.971079 
L 368.018398 54.273395 
L 368.343215 54.273395 
L 368.505624 53.424553 
L 375.976414 53.424553 
L 376.138822 51.726868 
L 381.335893 51.726868 
L 381.498302 48.3315 
L 381.66071 48.3315 
L 381.66071 48.3315 
" style="fill:none;stroke:#1f77b4;stroke-linecap:square;stroke-width:1.5;"/>
   </g>
   <g id="patch_3">
    <path d="M 40.773438 302.3475 
L 40.773438 36.2355 
" style="fill:none;stroke:#000000;stroke-linecap:square;stroke-linejoin:miter;stroke-width:0.8;"/>
   </g>
   <g id="patch_4">
    <path d="M 397.893438 302.3475 
L 397.893438 36.2355 
" style="fill:none;stroke:#000000;stroke-linecap:square;stroke-linejoin:miter;stroke-width:0.8;"/>
   </g>
   <g id="patch_5">
    <path d="M 40.773438 302.3475 
L 397.893438 302.3475 
" style="fill:none;stroke:#000000;stroke-linecap:square;stroke-linejoin:miter;stroke-width:0.8;"/>
   </g>
   <g id="patch_6">
    <path d="M 40.773438 36.2355 
L 397.893438 36.2355 
" style="fill:none;stroke:#000000;stroke-linecap:square;stroke-linejoin:miter;stroke-width:0.8;"/>
   </g>
   <g id="text_19">
    <!-- Número médio de regiões em função do -->
    <g transform="translate(98.508438 16.798125)scale(0.12 -0.12)">
     <defs>
      <path d="M 8.5 21.578125 
L 8.5 54.6875 
L 17.484375 54.6875 
L 17.484375 21.921875 
Q 17.484375 14.15625 20.5 10.265625 
Q 23.53125 6.390625 29.59375 6.390625 
Q 36.859375 6.390625 41.078125 11.03125 
Q 45.3125 15.671875 45.3125 23.6875 
L 45.3125 54.6875 
L 54.296875 54.6875 
L 54.296875 0 
L 45.3125 0 
L 45.3125 8.40625 
Q 42.046875 3.421875 37.71875 1 
Q 33.40625 -1.421875 27.6875 -1.421875 
Q 18.265625 -1.421875 13.375 4.4375 
Q 8.5 10.296875 8.5 21.578125 
z
M 31.109375 56 
z
M 37.78125 79.984375 
L 47.5 79.984375 
L 31.59375 61.625 
L 24.109375 61.625 
z
" id="DejaVuSans-250"/>
      <path d="M 56.203125 29.59375 
L 56.203125 25.203125 
L 14.890625 25.203125 
Q 15.484375 15.921875 20.484375 11.0625 
Q 25.484375 6.203125 34.421875 6.203125 
Q 39.59375 6.203125 44.453125 7.46875 
Q 49.3125 8.734375 54.109375 11.28125 
L 54.109375 2.78125 
Q 49.265625 0.734375 44.1875 -0.34375 
Q 39.109375 -1.421875 33.890625 -1.421875 
Q 20.796875 -1.421875 13.15625 6.1875 
Q 5.515625 13.8125 5.515625 26.8125 
Q 5.515625 40.234375 12.765625 48.109375 
Q 20.015625 56 32.328125 56 
Q 43.359375 56 49.78125 48.890625 
Q 56.203125 41.796875 56.203125 29.59375 
z
M 47.21875 32.234375 
Q 47.125 39.59375 43.09375 43.984375 
Q 39.0625 48.390625 32.421875 48.390625 
Q 24.90625 48.390625 20.390625 44.140625 
Q 15.875 39.890625 15.1875 32.171875 
z
M 38.53125 79.984375 
L 48.25 79.984375 
L 32.34375 61.625 
L 24.859375 61.625 
z
" id="DejaVuSans-233"/>
      <path d="M 37.109375 75.984375 
L 37.109375 68.5 
L 28.515625 68.5 
Q 23.6875 68.5 21.796875 66.546875 
Q 19.921875 64.59375 19.921875 59.515625 
L 19.921875 54.6875 
L 34.71875 54.6875 
L 34.71875 47.703125 
L 19.921875 47.703125 
L 19.921875 0 
L 10.890625 0 
L 10.890625 47.703125 
L 2.296875 47.703125 
L 2.296875 54.6875 
L 10.890625 54.6875 
L 10.890625 58.5 
Q 10.890625 67.625 15.140625 71.796875 
Q 19.390625 75.984375 28.609375 75.984375 
z
" id="DejaVuSans-102"/>
      <path d="M 54.890625 33.015625 
L 54.890625 0 
L 45.90625 0 
L 45.90625 32.71875 
Q 45.90625 40.484375 42.875 44.328125 
Q 39.84375 48.1875 33.796875 48.1875 
Q 26.515625 48.1875 22.3125 43.546875 
Q 18.109375 38.921875 18.109375 30.90625 
L 18.109375 0 
L 9.078125 0 
L 9.078125 54.6875 
L 18.109375 54.6875 
L 18.109375 46.1875 
Q 21.34375 51.125 25.703125 53.5625 
Q 30.078125 56 35.796875 56 
Q 45.21875 56 50.046875 50.171875 
Q 54.890625 44.34375 54.890625 33.015625 
z
" id="DejaVuSans-110"/>
      <path d="M 48.78125 52.59375 
L 48.78125 44.1875 
Q 44.96875 46.296875 41.140625 47.34375 
Q 37.3125 48.390625 33.40625 48.390625 
Q 24.65625 48.390625 19.8125 42.84375 
Q 14.984375 37.3125 14.984375 27.296875 
Q 14.984375 17.28125 19.8125 11.734375 
Q 24.65625 6.203125 33.40625 6.203125 
Q 37.3125 6.203125 41.140625 7.25 
Q 44.96875 8.296875 48.78125 10.40625 
L 48.78125 2.09375 
Q 45.015625 0.34375 40.984375 -0.53125 
Q 36.96875 -1.421875 32.421875 -1.421875 
Q 20.0625 -1.421875 12.78125 6.34375 
Q 5.515625 14.109375 5.515625 27.296875 
Q 5.515625 40.671875 12.859375 48.328125 
Q 20.21875 56 33.015625 56 
Q 37.15625 56 41.109375 55.140625 
Q 45.0625 54.296875 48.78125 52.59375 
z
M 36.109375 0 
Q 38.78125 -3.03125 40.09375 -5.59375 
Q 41.421875 -8.15625 41.421875 -10.5 
Q 41.421875 -14.84375 38.484375 -17.0625 
Q 35.5625 -19.28125 29.796875 -19.28125 
Q 27.5625 -19.28125 25.4375 -18.984375 
Q 23.3125 -18.703125 21.203125 -18.109375 
L 21.203125 -11.71875 
Q 22.875 -12.546875 24.671875 -12.90625 
Q 26.484375 -13.28125 28.78125 -13.28125 
Q 31.65625 -13.28125 33.125 -12.109375 
Q 34.59375 -10.9375 34.59375 -8.6875 
Q 34.59375 -7.234375 33.53125 -5.109375 
Q 32.484375 -2.984375 30.296875 0 
z
" id="DejaVuSans-231"/>
      <path d="M 34.28125 27.484375 
Q 23.390625 27.484375 19.1875 25 
Q 14.984375 22.515625 14.984375 16.5 
Q 14.984375 11.71875 18.140625 8.90625 
Q 21.296875 6.109375 26.703125 6.109375 
Q 34.1875 6.109375 38.703125 11.40625 
Q 43.21875 16.703125 43.21875 25.484375 
L 43.21875 27.484375 
z
M 52.203125 31.203125 
L 52.203125 0 
L 43.21875 0 
L 43.21875 8.296875 
Q 40.140625 3.328125 35.546875 0.953125 
Q 30.953125 -1.421875 24.3125 -1.421875 
Q 15.921875 -1.421875 10.953125 3.296875 
Q 6 8.015625 6 15.921875 
Q 6 25.140625 12.171875 29.828125 
Q 18.359375 34.515625 30.609375 34.515625 
L 43.21875 34.515625 
L 43.21875 35.40625 
Q 43.21875 41.609375 39.140625 45 
Q 35.0625 48.390625 27.6875 48.390625 
Q 23 48.390625 18.546875 47.265625 
Q 14.109375 46.140625 10.015625 43.890625 
L 10.015625 52.203125 
Q 14.9375 54.109375 19.578125 55.046875 
Q 24.21875 56 28.609375 56 
Q 40.484375 56 46.34375 49.84375 
Q 52.203125 43.703125 52.203125 31.203125 
z
M 28.8125 66.890625 
L 26.015625 69.578125 
Q 24.953125 70.5625 24.140625 71.015625 
Q 23.34375 71.484375 22.703125 71.484375 
Q 20.84375 71.484375 19.96875 69.703125 
Q 19.09375 67.921875 18.984375 63.921875 
L 12.890625 63.921875 
Q 12.984375 70.515625 15.46875 74.09375 
Q 17.96875 77.6875 22.40625 77.6875 
Q 24.265625 77.6875 25.828125 77 
Q 27.390625 76.3125 29.203125 74.703125 
L 31.984375 72.015625 
Q 33.046875 71.046875 33.859375 70.578125 
Q 34.671875 70.125 35.296875 70.125 
Q 37.15625 70.125 38.03125 71.90625 
Q 38.90625 73.6875 39.015625 77.6875 
L 45.109375 77.6875 
Q 45.015625 71.09375 42.515625 67.5 
Q 40.03125 63.921875 35.59375 63.921875 
Q 33.734375 63.921875 32.171875 64.59375 
Q 30.609375 65.28125 28.8125 66.890625 
z
" id="DejaVuSans-227"/>
     </defs>
     <use xlink:href="#DejaVuSans-78"/>
     <use x="74.804688" xlink:href="#DejaVuSans-250"/>
     <use x="138.183594" xlink:href="#DejaVuSans-109"/>
     <use x="235.595703" xlink:href="#DejaVuSans-101"/>
     <use x="297.119141" xlink:href="#DejaVuSans-114"/>
     <use x="335.982422" xlink:href="#DejaVuSans-111"/>
     <use x="397.164062" xlink:href="#DejaVuSans-32"/>
     <use x="428.951172" xlink:href="#DejaVuSans-109"/>
     <use x="526.363281" xlink:href="#DejaVuSans-233"/>
     <use x="587.886719" xlink:href="#DejaVuSans-100"/>
     <use x="651.363281" xlink:href="#DejaVuSans-105"/>
     <use x="679.146484" xlink:href="#DejaVuSans-111"/>
     <use x="740.328125" xlink:href="#DejaVuSans-32"/>
     <use x="772.115234" xlink:href="#DejaVuSans-100"/>
     <use x="835.591797" xlink:href="#DejaVuSans-101"/>
     <use x="897.115234" xlink:href="#DejaVuSans-32"/>
     <use x="928.902344" xlink:href="#DejaVuSans-114"/>
     <use x="967.765625" xlink:href="#DejaVuSans-101"/>
     <use x="1029.289062" xlink:href="#DejaVuSans-103"/>
     <use x="1092.765625" xlink:href="#DejaVuSans-105"/>
     <use x="1120.548828" xlink:href="#DejaVuSans-245"/>
     <use x="1181.730469" xlink:href="#DejaVuSans-101"/>
     <use x="1243.253906" xlink:href="#DejaVuSans-115"/>
     <use x="1295.353516" xlink:href="#DejaVuSans-32"/>
     <use x="1327.140625" xlink:href="#DejaVuSans-101"/>
     <use x="1388.664062" xlink:href="#DejaVuSans-109"/>
     <use x="1486.076172" xlink:href="#DejaVuSans-32"/>
     <use x="1517.863281" xlink:href="#DejaVuSans-102"/>
     <use x="1553.068359" xlink:href="#DejaVuSans-117"/>
     <use x="1616.447266" xlink:href="#DejaVuSans-110"/>
     <use x="1679.826172" xlink:href="#DejaVuSans-231"/>
     <use x="1734.806641" xlink:href="#DejaVuSans-227"/>
     <use x="1796.085938" xlink:href="#DejaVuSans-111"/>
     <use x="1857.267578" xlink:href="#DejaVuSans-32"/>
     <use x="1889.054688" xlink:href="#DejaVuSans-100"/>
     <use x="1952.53125" xlink:href="#DejaVuSans-111"/>
    </g>
    <!-- tempo discreto para o experimento GRASP_2ILS_4GA_VP_20R -->
    <g transform="translate(34.10125 30.2355)scale(0.12 -0.12)">
     <defs>
      <path d="M 34.28125 27.484375 
Q 23.390625 27.484375 19.1875 25 
Q 14.984375 22.515625 14.984375 16.5 
Q 14.984375 11.71875 18.140625 8.90625 
Q 21.296875 6.109375 26.703125 6.109375 
Q 34.1875 6.109375 38.703125 11.40625 
Q 43.21875 16.703125 43.21875 25.484375 
L 43.21875 27.484375 
z
M 52.203125 31.203125 
L 52.203125 0 
L 43.21875 0 
L 43.21875 8.296875 
Q 40.140625 3.328125 35.546875 0.953125 
Q 30.953125 -1.421875 24.3125 -1.421875 
Q 15.921875 -1.421875 10.953125 3.296875 
Q 6 8.015625 6 15.921875 
Q 6 25.140625 12.171875 29.828125 
Q 18.359375 34.515625 30.609375 34.515625 
L 43.21875 34.515625 
L 43.21875 35.40625 
Q 43.21875 41.609375 39.140625 45 
Q 35.0625 48.390625 27.6875 48.390625 
Q 23 48.390625 18.546875 47.265625 
Q 14.109375 46.140625 10.015625 43.890625 
L 10.015625 52.203125 
Q 14.9375 54.109375 19.578125 55.046875 
Q 24.21875 56 28.609375 56 
Q 40.484375 56 46.34375 49.84375 
Q 52.203125 43.703125 52.203125 31.203125 
z
" id="DejaVuSans-97"/>
      <path d="M 54.890625 54.6875 
L 35.109375 28.078125 
L 55.90625 0 
L 45.3125 0 
L 29.390625 21.484375 
L 13.484375 0 
L 2.875 0 
L 24.125 28.609375 
L 4.6875 54.6875 
L 15.28125 54.6875 
L 29.78125 35.203125 
L 44.28125 54.6875 
z
" id="DejaVuSans-120"/>
      <path d="M 59.515625 10.40625 
L 59.515625 29.984375 
L 43.40625 29.984375 
L 43.40625 38.09375 
L 69.28125 38.09375 
L 69.28125 6.78125 
Q 63.578125 2.734375 56.6875 0.65625 
Q 49.8125 -1.421875 42 -1.421875 
Q 24.90625 -1.421875 15.25 8.5625 
Q 5.609375 18.5625 5.609375 36.375 
Q 5.609375 54.25 15.25 64.234375 
Q 24.90625 74.21875 42 74.21875 
Q 49.125 74.21875 55.546875 72.453125 
Q 61.96875 70.703125 67.390625 67.28125 
L 67.390625 56.78125 
Q 61.921875 61.421875 55.765625 63.765625 
Q 49.609375 66.109375 42.828125 66.109375 
Q 29.4375 66.109375 22.71875 58.640625 
Q 16.015625 51.171875 16.015625 36.375 
Q 16.015625 21.625 22.71875 14.15625 
Q 29.4375 6.6875 42.828125 6.6875 
Q 48.046875 6.6875 52.140625 7.59375 
Q 56.25 8.5 59.515625 10.40625 
z
" id="DejaVuSans-71"/>
      <path d="M 44.390625 34.1875 
Q 47.5625 33.109375 50.5625 29.59375 
Q 53.5625 26.078125 56.59375 19.921875 
L 66.609375 0 
L 56 0 
L 46.6875 18.703125 
Q 43.0625 26.03125 39.671875 28.421875 
Q 36.28125 30.8125 30.421875 30.8125 
L 19.671875 30.8125 
L 19.671875 0 
L 9.8125 0 
L 9.8125 72.90625 
L 32.078125 72.90625 
Q 44.578125 72.90625 50.734375 67.671875 
Q 56.890625 62.453125 56.890625 51.90625 
Q 56.890625 45.015625 53.6875 40.46875 
Q 50.484375 35.9375 44.390625 34.1875 
z
M 19.671875 64.796875 
L 19.671875 38.921875 
L 32.078125 38.921875 
Q 39.203125 38.921875 42.84375 42.21875 
Q 46.484375 45.515625 46.484375 51.90625 
Q 46.484375 58.296875 42.84375 61.546875 
Q 39.203125 64.796875 32.078125 64.796875 
z
" id="DejaVuSans-82"/>
      <path d="M 34.1875 63.1875 
L 20.796875 26.90625 
L 47.609375 26.90625 
z
M 28.609375 72.90625 
L 39.796875 72.90625 
L 67.578125 0 
L 57.328125 0 
L 50.6875 18.703125 
L 17.828125 18.703125 
L 11.1875 0 
L 0.78125 0 
z
" id="DejaVuSans-65"/>
      <path d="M 53.515625 70.515625 
L 53.515625 60.890625 
Q 47.90625 63.578125 42.921875 64.890625 
Q 37.9375 66.21875 33.296875 66.21875 
Q 25.25 66.21875 20.875 63.09375 
Q 16.5 59.96875 16.5 54.203125 
Q 16.5 49.359375 19.40625 46.890625 
Q 22.3125 44.4375 30.421875 42.921875 
L 36.375 41.703125 
Q 47.40625 39.59375 52.65625 34.296875 
Q 57.90625 29 57.90625 20.125 
Q 57.90625 9.515625 50.796875 4.046875 
Q 43.703125 -1.421875 29.984375 -1.421875 
Q 24.8125 -1.421875 18.96875 -0.25 
Q 13.140625 0.921875 6.890625 3.21875 
L 6.890625 13.375 
Q 12.890625 10.015625 18.65625 8.296875 
Q 24.421875 6.59375 29.984375 6.59375 
Q 38.421875 6.59375 43.015625 9.90625 
Q 47.609375 13.234375 47.609375 19.390625 
Q 47.609375 24.75 44.3125 27.78125 
Q 41.015625 30.8125 33.5 32.328125 
L 27.484375 33.5 
Q 16.453125 35.6875 11.515625 40.375 
Q 6.59375 45.0625 6.59375 53.421875 
Q 6.59375 63.09375 13.40625 68.65625 
Q 20.21875 74.21875 32.171875 74.21875 
Q 37.3125 74.21875 42.625 73.28125 
Q 47.953125 72.359375 53.515625 70.515625 
z
" id="DejaVuSans-83"/>
      <path d="M 19.671875 64.796875 
L 19.671875 37.40625 
L 32.078125 37.40625 
Q 38.96875 37.40625 42.71875 40.96875 
Q 46.484375 44.53125 46.484375 51.125 
Q 46.484375 57.671875 42.71875 61.234375 
Q 38.96875 64.796875 32.078125 64.796875 
z
M 9.8125 72.90625 
L 32.078125 72.90625 
Q 44.34375 72.90625 50.609375 67.359375 
Q 56.890625 61.8125 56.890625 51.125 
Q 56.890625 40.328125 50.609375 34.8125 
Q 44.34375 29.296875 32.078125 29.296875 
L 19.671875 29.296875 
L 19.671875 0 
L 9.8125 0 
z
" id="DejaVuSans-80"/>
      <path d="M 50.984375 -16.609375 
L 50.984375 -23.578125 
L -0.984375 -23.578125 
L -0.984375 -16.609375 
z
" id="DejaVuSans-95"/>
      <path d="M 9.8125 72.90625 
L 19.671875 72.90625 
L 19.671875 0 
L 9.8125 0 
z
" id="DejaVuSans-73"/>
      <path d="M 9.8125 72.90625 
L 19.671875 72.90625 
L 19.671875 8.296875 
L 55.171875 8.296875 
L 55.171875 0 
L 9.8125 0 
z
" id="DejaVuSans-76"/>
      <path d="M 28.609375 0 
L 0.78125 72.90625 
L 11.078125 72.90625 
L 34.1875 11.53125 
L 57.328125 72.90625 
L 67.578125 72.90625 
L 39.796875 0 
z
" id="DejaVuSans-86"/>
     </defs>
     <use xlink:href="#DejaVuSans-116"/>
     <use x="39.208984" xlink:href="#DejaVuSans-101"/>
     <use x="100.732422" xlink:href="#DejaVuSans-109"/>
     <use x="198.144531" xlink:href="#DejaVuSans-112"/>
     <use x="261.621094" xlink:href="#DejaVuSans-111"/>
     <use x="322.802734" xlink:href="#DejaVuSans-32"/>
     <use x="354.589844" xlink:href="#DejaVuSans-100"/>
     <use x="418.066406" xlink:href="#DejaVuSans-105"/>
     <use x="445.849609" xlink:href="#DejaVuSans-115"/>
     <use x="497.949219" xlink:href="#DejaVuSans-99"/>
     <use x="552.929688" xlink:href="#DejaVuSans-114"/>
     <use x="591.792969" xlink:href="#DejaVuSans-101"/>
     <use x="653.316406" xlink:href="#DejaVuSans-116"/>
     <use x="692.525391" xlink:href="#DejaVuSans-111"/>
     <use x="753.707031" xlink:href="#DejaVuSans-32"/>
     <use x="785.494141" xlink:href="#DejaVuSans-112"/>
     <use x="848.970703" xlink:href="#DejaVuSans-97"/>
     <use x="910.25" xlink:href="#DejaVuSans-114"/>
     <use x="951.363281" xlink:href="#DejaVuSans-97"/>
     <use x="1012.642578" xlink:href="#DejaVuSans-32"/>
     <use x="1044.429688" xlink:href="#DejaVuSans-111"/>
     <use x="1105.611328" xlink:href="#DejaVuSans-32"/>
     <use x="1137.398438" xlink:href="#DejaVuSans-101"/>
     <use x="1197.171875" xlink:href="#DejaVuSans-120"/>
     <use x="1256.351562" xlink:href="#DejaVuSans-112"/>
     <use x="1319.828125" xlink:href="#DejaVuSans-101"/>
     <use x="1381.351562" xlink:href="#DejaVuSans-114"/>
     <use x="1422.464844" xlink:href="#DejaVuSans-105"/>
     <use x="1450.248047" xlink:href="#DejaVuSans-109"/>
     <use x="1547.660156" xlink:href="#DejaVuSans-101"/>
     <use x="1609.183594" xlink:href="#DejaVuSans-110"/>
     <use x="1672.5625" xlink:href="#DejaVuSans-116"/>
     <use x="1711.771484" xlink:href="#DejaVuSans-111"/>
     <use x="1772.953125" xlink:href="#DejaVuSans-32"/>
     <use x="1804.740234" xlink:href="#DejaVuSans-71"/>
     <use x="1882.230469" xlink:href="#DejaVuSans-82"/>
     <use x="1947.712891" xlink:href="#DejaVuSans-65"/>
     <use x="2016.121094" xlink:href="#DejaVuSans-83"/>
     <use x="2079.597656" xlink:href="#DejaVuSans-80"/>
     <use x="2139.900391" xlink:href="#DejaVuSans-95"/>
     <use x="2189.900391" xlink:href="#DejaVuSans-50"/>
     <use x="2253.523438" xlink:href="#DejaVuSans-73"/>
     <use x="2283.015625" xlink:href="#DejaVuSans-76"/>
     <use x="2338.728516" xlink:href="#DejaVuSans-83"/>
     <use x="2402.205078" xlink:href="#DejaVuSans-95"/>
     <use x="2452.205078" xlink:href="#DejaVuSans-52"/>
     <use x="2515.828125" xlink:href="#DejaVuSans-71"/>
     <use x="2593.318359" xlink:href="#DejaVuSans-65"/>
     <use x="2661.726562" xlink:href="#DejaVuSans-95"/>
     <use x="2711.726562" xlink:href="#DejaVuSans-86"/>
     <use x="2780.134766" xlink:href="#DejaVuSans-80"/>
     <use x="2840.4375" xlink:href="#DejaVuSans-95"/>
     <use x="2890.4375" xlink:href="#DejaVuSans-50"/>
     <use x="2954.060547" xlink:href="#DejaVuSans-48"/>
     <use x="3017.683594" xlink:href="#DejaVuSans-82"/>
    </g>
   </g>
   <g id="legend_1">
    <g id="patch_7">
     <path d="M 47.773438 58.913625 
L 116.604688 58.913625 
Q 118.604688 58.913625 118.604688 56.913625 
L 118.604688 43.2355 
Q 118.604688 41.2355 116.604688 41.2355 
L 47.773438 41.2355 
Q 45.773438 41.2355 45.773438 43.2355 
L 45.773438 56.913625 
Q 45.773438 58.913625 47.773438 58.913625 
z
" style="fill:#ffffff;opacity:0.8;stroke:#cccccc;stroke-linejoin:miter;"/>
    </g>
    <g id="line2d_18">
     <path d="M 49.773438 49.333937 
L 69.773438 49.333937 
" style="fill:none;stroke:#1f77b4;stroke-linecap:square;stroke-width:1.5;"/>
    </g>
    <g id="line2d_19"/>
    <g id="text_20">
     <!-- regions -->
     <g transform="translate(77.773438 52.833937)scale(0.1 -0.1)">
      <use xlink:href="#DejaVuSans-114"/>
      <use x="38.863281" xlink:href="#DejaVuSans-101"/>
      <use x="100.386719" xlink:href="#DejaVuSans-103"/>
      <use x="163.863281" xlink:href="#DejaVuSans-105"/>
      <use x="191.646484" xlink:href="#DejaVuSans-111"/>
      <use x="252.828125" xlink:href="#DejaVuSans-110"/>
      <use x="316.207031" xlink:href="#DejaVuSans-115"/>
     </g>
    </g>
   </g>
  </g>
 </g>
 <defs>
  <clipPath id="pb73cf768b9">
   <rect height="266.112" width="357.12" x="40.773438" y="36.2355"/>
  </clipPath>
 </defs>
</svg>
