<?xml version="1.0" encoding="utf-8" standalone="no"?>
<!DOCTYPE svg PUBLIC "-//W3C//DTD SVG 1.1//EN"
  "http://www.w3.org/Graphics/SVG/1.1/DTD/svg11.dtd">
<!-- Created with matplotlib (https://matplotlib.org/) -->
<svg height="339.90375pt" version="1.1" viewBox="0 0 414.634062 339.90375" width="414.634062pt" xmlns="http://www.w3.org/2000/svg" xmlns:xlink="http://www.w3.org/1999/xlink">
 <metadata>
  <rdf:RDF xmlns:cc="http://creativecommons.org/ns#" xmlns:dc="http://purl.org/dc/elements/1.1/" xmlns:rdf="http://www.w3.org/1999/02/22-rdf-syntax-ns#">
   <cc:Work>
    <dc:type rdf:resource="http://purl.org/dc/dcmitype/StillImage"/>
    <dc:date>2022-03-16T21:57:08.576934</dc:date>
    <dc:format>image/svg+xml</dc:format>
    <dc:creator>
     <cc:Agent>
      <dc:title>Matplotlib v3.3.2, https://matplotlib.org/</dc:title>
     </cc:Agent>
    </dc:creator>
   </cc:Work>
  </rdf:RDF>
 </metadata>
 <defs>
  <style type="text/css">*{stroke-linecap:butt;stroke-linejoin:round;}</style>
 </defs>
 <g id="figure_1">
  <g id="patch_1">
   <path d="M 0 339.90375 
L 414.634062 339.90375 
L 414.634062 0 
L 0 0 
z
" style="fill:#ffffff;"/>
  </g>
  <g id="axes_1">
   <g id="patch_2">
    <path d="M 50.314063 302.3475 
L 407.434062 302.3475 
L 407.434062 36.2355 
L 50.314063 36.2355 
z
" style="fill:#ffffff;"/>
   </g>
   <g id="matplotlib.axis_1">
    <g id="xtick_1">
     <g id="line2d_1">
      <defs>
       <path d="M 0 0 
L 0 3.5 
" id="mb4fbf37e82" style="stroke:#000000;stroke-width:0.8;"/>
      </defs>
      <g>
       <use style="stroke:#000000;stroke-width:0.8;" x="66.384381" xlink:href="#mb4fbf37e82" y="302.3475"/>
      </g>
     </g>
     <g id="text_1">
      <!-- 0 -->
      <g transform="translate(63.203131 316.945937)scale(0.1 -0.1)">
       <defs>
        <path d="M 31.78125 66.40625 
Q 24.171875 66.40625 20.328125 58.90625 
Q 16.5 51.421875 16.5 36.375 
Q 16.5 21.390625 20.328125 13.890625 
Q 24.171875 6.390625 31.78125 6.390625 
Q 39.453125 6.390625 43.28125 13.890625 
Q 47.125 21.390625 47.125 36.375 
Q 47.125 51.421875 43.28125 58.90625 
Q 39.453125 66.40625 31.78125 66.40625 
z
M 31.78125 74.21875 
Q 44.046875 74.21875 50.515625 64.515625 
Q 56.984375 54.828125 56.984375 36.375 
Q 56.984375 17.96875 50.515625 8.265625 
Q 44.046875 -1.421875 31.78125 -1.421875 
Q 19.53125 -1.421875 13.0625 8.265625 
Q 6.59375 17.96875 6.59375 36.375 
Q 6.59375 54.828125 13.0625 64.515625 
Q 19.53125 74.21875 31.78125 74.21875 
z
" id="DejaVuSans-48"/>
       </defs>
       <use xlink:href="#DejaVuSans-48"/>
      </g>
     </g>
    </g>
    <g id="xtick_2">
     <g id="line2d_2">
      <g>
       <use style="stroke:#000000;stroke-width:0.8;" x="106.986501" xlink:href="#mb4fbf37e82" y="302.3475"/>
      </g>
     </g>
     <g id="text_2">
      <!-- 250 -->
      <g transform="translate(97.442751 316.945937)scale(0.1 -0.1)">
       <defs>
        <path d="M 19.1875 8.296875 
L 53.609375 8.296875 
L 53.609375 0 
L 7.328125 0 
L 7.328125 8.296875 
Q 12.9375 14.109375 22.625 23.890625 
Q 32.328125 33.6875 34.8125 36.53125 
Q 39.546875 41.84375 41.421875 45.53125 
Q 43.3125 49.21875 43.3125 52.78125 
Q 43.3125 58.59375 39.234375 62.25 
Q 35.15625 65.921875 28.609375 65.921875 
Q 23.96875 65.921875 18.8125 64.3125 
Q 13.671875 62.703125 7.8125 59.421875 
L 7.8125 69.390625 
Q 13.765625 71.78125 18.9375 73 
Q 24.125 74.21875 28.421875 74.21875 
Q 39.75 74.21875 46.484375 68.546875 
Q 53.21875 62.890625 53.21875 53.421875 
Q 53.21875 48.921875 51.53125 44.890625 
Q 49.859375 40.875 45.40625 35.40625 
Q 44.1875 33.984375 37.640625 27.21875 
Q 31.109375 20.453125 19.1875 8.296875 
z
" id="DejaVuSans-50"/>
        <path d="M 10.796875 72.90625 
L 49.515625 72.90625 
L 49.515625 64.59375 
L 19.828125 64.59375 
L 19.828125 46.734375 
Q 21.96875 47.46875 24.109375 47.828125 
Q 26.265625 48.1875 28.421875 48.1875 
Q 40.625 48.1875 47.75 41.5 
Q 54.890625 34.8125 54.890625 23.390625 
Q 54.890625 11.625 47.5625 5.09375 
Q 40.234375 -1.421875 26.90625 -1.421875 
Q 22.3125 -1.421875 17.546875 -0.640625 
Q 12.796875 0.140625 7.71875 1.703125 
L 7.71875 11.625 
Q 12.109375 9.234375 16.796875 8.0625 
Q 21.484375 6.890625 26.703125 6.890625 
Q 35.15625 6.890625 40.078125 11.328125 
Q 45.015625 15.765625 45.015625 23.390625 
Q 45.015625 31 40.078125 35.4375 
Q 35.15625 39.890625 26.703125 39.890625 
Q 22.75 39.890625 18.8125 39.015625 
Q 14.890625 38.140625 10.796875 36.28125 
z
" id="DejaVuSans-53"/>
       </defs>
       <use xlink:href="#DejaVuSans-50"/>
       <use x="63.623047" xlink:href="#DejaVuSans-53"/>
       <use x="127.246094" xlink:href="#DejaVuSans-48"/>
      </g>
     </g>
    </g>
    <g id="xtick_3">
     <g id="line2d_3">
      <g>
       <use style="stroke:#000000;stroke-width:0.8;" x="147.58862" xlink:href="#mb4fbf37e82" y="302.3475"/>
      </g>
     </g>
     <g id="text_3">
      <!-- 500 -->
      <g transform="translate(138.04487 316.945937)scale(0.1 -0.1)">
       <use xlink:href="#DejaVuSans-53"/>
       <use x="63.623047" xlink:href="#DejaVuSans-48"/>
       <use x="127.246094" xlink:href="#DejaVuSans-48"/>
      </g>
     </g>
    </g>
    <g id="xtick_4">
     <g id="line2d_4">
      <g>
       <use style="stroke:#000000;stroke-width:0.8;" x="188.190739" xlink:href="#mb4fbf37e82" y="302.3475"/>
      </g>
     </g>
     <g id="text_4">
      <!-- 750 -->
      <g transform="translate(178.646989 316.945937)scale(0.1 -0.1)">
       <defs>
        <path d="M 8.203125 72.90625 
L 55.078125 72.90625 
L 55.078125 68.703125 
L 28.609375 0 
L 18.3125 0 
L 43.21875 64.59375 
L 8.203125 64.59375 
z
" id="DejaVuSans-55"/>
       </defs>
       <use xlink:href="#DejaVuSans-55"/>
       <use x="63.623047" xlink:href="#DejaVuSans-53"/>
       <use x="127.246094" xlink:href="#DejaVuSans-48"/>
      </g>
     </g>
    </g>
    <g id="xtick_5">
     <g id="line2d_5">
      <g>
       <use style="stroke:#000000;stroke-width:0.8;" x="228.792858" xlink:href="#mb4fbf37e82" y="302.3475"/>
      </g>
     </g>
     <g id="text_5">
      <!-- 1000 -->
      <g transform="translate(216.067858 316.945937)scale(0.1 -0.1)">
       <defs>
        <path d="M 12.40625 8.296875 
L 28.515625 8.296875 
L 28.515625 63.921875 
L 10.984375 60.40625 
L 10.984375 69.390625 
L 28.421875 72.90625 
L 38.28125 72.90625 
L 38.28125 8.296875 
L 54.390625 8.296875 
L 54.390625 0 
L 12.40625 0 
z
" id="DejaVuSans-49"/>
       </defs>
       <use xlink:href="#DejaVuSans-49"/>
       <use x="63.623047" xlink:href="#DejaVuSans-48"/>
       <use x="127.246094" xlink:href="#DejaVuSans-48"/>
       <use x="190.869141" xlink:href="#DejaVuSans-48"/>
      </g>
     </g>
    </g>
    <g id="xtick_6">
     <g id="line2d_6">
      <g>
       <use style="stroke:#000000;stroke-width:0.8;" x="269.394978" xlink:href="#mb4fbf37e82" y="302.3475"/>
      </g>
     </g>
     <g id="text_6">
      <!-- 1250 -->
      <g transform="translate(256.669978 316.945937)scale(0.1 -0.1)">
       <use xlink:href="#DejaVuSans-49"/>
       <use x="63.623047" xlink:href="#DejaVuSans-50"/>
       <use x="127.246094" xlink:href="#DejaVuSans-53"/>
       <use x="190.869141" xlink:href="#DejaVuSans-48"/>
      </g>
     </g>
    </g>
    <g id="xtick_7">
     <g id="line2d_7">
      <g>
       <use style="stroke:#000000;stroke-width:0.8;" x="309.997097" xlink:href="#mb4fbf37e82" y="302.3475"/>
      </g>
     </g>
     <g id="text_7">
      <!-- 1500 -->
      <g transform="translate(297.272097 316.945937)scale(0.1 -0.1)">
       <use xlink:href="#DejaVuSans-49"/>
       <use x="63.623047" xlink:href="#DejaVuSans-53"/>
       <use x="127.246094" xlink:href="#DejaVuSans-48"/>
       <use x="190.869141" xlink:href="#DejaVuSans-48"/>
      </g>
     </g>
    </g>
    <g id="xtick_8">
     <g id="line2d_8">
      <g>
       <use style="stroke:#000000;stroke-width:0.8;" x="350.599216" xlink:href="#mb4fbf37e82" y="302.3475"/>
      </g>
     </g>
     <g id="text_8">
      <!-- 1750 -->
      <g transform="translate(337.874216 316.945937)scale(0.1 -0.1)">
       <use xlink:href="#DejaVuSans-49"/>
       <use x="63.623047" xlink:href="#DejaVuSans-55"/>
       <use x="127.246094" xlink:href="#DejaVuSans-53"/>
       <use x="190.869141" xlink:href="#DejaVuSans-48"/>
      </g>
     </g>
    </g>
    <g id="xtick_9">
     <g id="line2d_9">
      <g>
       <use style="stroke:#000000;stroke-width:0.8;" x="391.201335" xlink:href="#mb4fbf37e82" y="302.3475"/>
      </g>
     </g>
     <g id="text_9">
      <!-- 2000 -->
      <g transform="translate(378.476335 316.945937)scale(0.1 -0.1)">
       <use xlink:href="#DejaVuSans-50"/>
       <use x="63.623047" xlink:href="#DejaVuSans-48"/>
       <use x="127.246094" xlink:href="#DejaVuSans-48"/>
       <use x="190.869141" xlink:href="#DejaVuSans-48"/>
      </g>
     </g>
    </g>
    <g id="text_10">
     <!-- Tempo discreto -->
     <g transform="translate(190.944375 330.624062)scale(0.1 -0.1)">
      <defs>
       <path d="M -0.296875 72.90625 
L 61.375 72.90625 
L 61.375 64.59375 
L 35.5 64.59375 
L 35.5 0 
L 25.59375 0 
L 25.59375 64.59375 
L -0.296875 64.59375 
z
" id="DejaVuSans-84"/>
       <path d="M 56.203125 29.59375 
L 56.203125 25.203125 
L 14.890625 25.203125 
Q 15.484375 15.921875 20.484375 11.0625 
Q 25.484375 6.203125 34.421875 6.203125 
Q 39.59375 6.203125 44.453125 7.46875 
Q 49.3125 8.734375 54.109375 11.28125 
L 54.109375 2.78125 
Q 49.265625 0.734375 44.1875 -0.34375 
Q 39.109375 -1.421875 33.890625 -1.421875 
Q 20.796875 -1.421875 13.15625 6.1875 
Q 5.515625 13.8125 5.515625 26.8125 
Q 5.515625 40.234375 12.765625 48.109375 
Q 20.015625 56 32.328125 56 
Q 43.359375 56 49.78125 48.890625 
Q 56.203125 41.796875 56.203125 29.59375 
z
M 47.21875 32.234375 
Q 47.125 39.59375 43.09375 43.984375 
Q 39.0625 48.390625 32.421875 48.390625 
Q 24.90625 48.390625 20.390625 44.140625 
Q 15.875 39.890625 15.1875 32.171875 
z
" id="DejaVuSans-101"/>
       <path d="M 52 44.1875 
Q 55.375 50.25 60.0625 53.125 
Q 64.75 56 71.09375 56 
Q 79.640625 56 84.28125 50.015625 
Q 88.921875 44.046875 88.921875 33.015625 
L 88.921875 0 
L 79.890625 0 
L 79.890625 32.71875 
Q 79.890625 40.578125 77.09375 44.375 
Q 74.3125 48.1875 68.609375 48.1875 
Q 61.625 48.1875 57.5625 43.546875 
Q 53.515625 38.921875 53.515625 30.90625 
L 53.515625 0 
L 44.484375 0 
L 44.484375 32.71875 
Q 44.484375 40.625 41.703125 44.40625 
Q 38.921875 48.1875 33.109375 48.1875 
Q 26.21875 48.1875 22.15625 43.53125 
Q 18.109375 38.875 18.109375 30.90625 
L 18.109375 0 
L 9.078125 0 
L 9.078125 54.6875 
L 18.109375 54.6875 
L 18.109375 46.1875 
Q 21.1875 51.21875 25.484375 53.609375 
Q 29.78125 56 35.6875 56 
Q 41.65625 56 45.828125 52.96875 
Q 50 49.953125 52 44.1875 
z
" id="DejaVuSans-109"/>
       <path d="M 18.109375 8.203125 
L 18.109375 -20.796875 
L 9.078125 -20.796875 
L 9.078125 54.6875 
L 18.109375 54.6875 
L 18.109375 46.390625 
Q 20.953125 51.265625 25.265625 53.625 
Q 29.59375 56 35.59375 56 
Q 45.5625 56 51.78125 48.09375 
Q 58.015625 40.1875 58.015625 27.296875 
Q 58.015625 14.40625 51.78125 6.484375 
Q 45.5625 -1.421875 35.59375 -1.421875 
Q 29.59375 -1.421875 25.265625 0.953125 
Q 20.953125 3.328125 18.109375 8.203125 
z
M 48.6875 27.296875 
Q 48.6875 37.203125 44.609375 42.84375 
Q 40.53125 48.484375 33.40625 48.484375 
Q 26.265625 48.484375 22.1875 42.84375 
Q 18.109375 37.203125 18.109375 27.296875 
Q 18.109375 17.390625 22.1875 11.75 
Q 26.265625 6.109375 33.40625 6.109375 
Q 40.53125 6.109375 44.609375 11.75 
Q 48.6875 17.390625 48.6875 27.296875 
z
" id="DejaVuSans-112"/>
       <path d="M 30.609375 48.390625 
Q 23.390625 48.390625 19.1875 42.75 
Q 14.984375 37.109375 14.984375 27.296875 
Q 14.984375 17.484375 19.15625 11.84375 
Q 23.34375 6.203125 30.609375 6.203125 
Q 37.796875 6.203125 41.984375 11.859375 
Q 46.1875 17.53125 46.1875 27.296875 
Q 46.1875 37.015625 41.984375 42.703125 
Q 37.796875 48.390625 30.609375 48.390625 
z
M 30.609375 56 
Q 42.328125 56 49.015625 48.375 
Q 55.71875 40.765625 55.71875 27.296875 
Q 55.71875 13.875 49.015625 6.21875 
Q 42.328125 -1.421875 30.609375 -1.421875 
Q 18.84375 -1.421875 12.171875 6.21875 
Q 5.515625 13.875 5.515625 27.296875 
Q 5.515625 40.765625 12.171875 48.375 
Q 18.84375 56 30.609375 56 
z
" id="DejaVuSans-111"/>
       <path id="DejaVuSans-32"/>
       <path d="M 45.40625 46.390625 
L 45.40625 75.984375 
L 54.390625 75.984375 
L 54.390625 0 
L 45.40625 0 
L 45.40625 8.203125 
Q 42.578125 3.328125 38.25 0.953125 
Q 33.9375 -1.421875 27.875 -1.421875 
Q 17.96875 -1.421875 11.734375 6.484375 
Q 5.515625 14.40625 5.515625 27.296875 
Q 5.515625 40.1875 11.734375 48.09375 
Q 17.96875 56 27.875 56 
Q 33.9375 56 38.25 53.625 
Q 42.578125 51.265625 45.40625 46.390625 
z
M 14.796875 27.296875 
Q 14.796875 17.390625 18.875 11.75 
Q 22.953125 6.109375 30.078125 6.109375 
Q 37.203125 6.109375 41.296875 11.75 
Q 45.40625 17.390625 45.40625 27.296875 
Q 45.40625 37.203125 41.296875 42.84375 
Q 37.203125 48.484375 30.078125 48.484375 
Q 22.953125 48.484375 18.875 42.84375 
Q 14.796875 37.203125 14.796875 27.296875 
z
" id="DejaVuSans-100"/>
       <path d="M 9.421875 54.6875 
L 18.40625 54.6875 
L 18.40625 0 
L 9.421875 0 
z
M 9.421875 75.984375 
L 18.40625 75.984375 
L 18.40625 64.59375 
L 9.421875 64.59375 
z
" id="DejaVuSans-105"/>
       <path d="M 44.28125 53.078125 
L 44.28125 44.578125 
Q 40.484375 46.53125 36.375 47.5 
Q 32.28125 48.484375 27.875 48.484375 
Q 21.1875 48.484375 17.84375 46.4375 
Q 14.5 44.390625 14.5 40.28125 
Q 14.5 37.15625 16.890625 35.375 
Q 19.28125 33.59375 26.515625 31.984375 
L 29.59375 31.296875 
Q 39.15625 29.25 43.1875 25.515625 
Q 47.21875 21.78125 47.21875 15.09375 
Q 47.21875 7.46875 41.1875 3.015625 
Q 35.15625 -1.421875 24.609375 -1.421875 
Q 20.21875 -1.421875 15.453125 -0.5625 
Q 10.6875 0.296875 5.421875 2 
L 5.421875 11.28125 
Q 10.40625 8.6875 15.234375 7.390625 
Q 20.0625 6.109375 24.8125 6.109375 
Q 31.15625 6.109375 34.5625 8.28125 
Q 37.984375 10.453125 37.984375 14.40625 
Q 37.984375 18.0625 35.515625 20.015625 
Q 33.0625 21.96875 24.703125 23.78125 
L 21.578125 24.515625 
Q 13.234375 26.265625 9.515625 29.90625 
Q 5.8125 33.546875 5.8125 39.890625 
Q 5.8125 47.609375 11.28125 51.796875 
Q 16.75 56 26.8125 56 
Q 31.78125 56 36.171875 55.265625 
Q 40.578125 54.546875 44.28125 53.078125 
z
" id="DejaVuSans-115"/>
       <path d="M 48.78125 52.59375 
L 48.78125 44.1875 
Q 44.96875 46.296875 41.140625 47.34375 
Q 37.3125 48.390625 33.40625 48.390625 
Q 24.65625 48.390625 19.8125 42.84375 
Q 14.984375 37.3125 14.984375 27.296875 
Q 14.984375 17.28125 19.8125 11.734375 
Q 24.65625 6.203125 33.40625 6.203125 
Q 37.3125 6.203125 41.140625 7.25 
Q 44.96875 8.296875 48.78125 10.40625 
L 48.78125 2.09375 
Q 45.015625 0.34375 40.984375 -0.53125 
Q 36.96875 -1.421875 32.421875 -1.421875 
Q 20.0625 -1.421875 12.78125 6.34375 
Q 5.515625 14.109375 5.515625 27.296875 
Q 5.515625 40.671875 12.859375 48.328125 
Q 20.21875 56 33.015625 56 
Q 37.15625 56 41.109375 55.140625 
Q 45.0625 54.296875 48.78125 52.59375 
z
" id="DejaVuSans-99"/>
       <path d="M 41.109375 46.296875 
Q 39.59375 47.171875 37.8125 47.578125 
Q 36.03125 48 33.890625 48 
Q 26.265625 48 22.1875 43.046875 
Q 18.109375 38.09375 18.109375 28.8125 
L 18.109375 0 
L 9.078125 0 
L 9.078125 54.6875 
L 18.109375 54.6875 
L 18.109375 46.1875 
Q 20.953125 51.171875 25.484375 53.578125 
Q 30.03125 56 36.53125 56 
Q 37.453125 56 38.578125 55.875 
Q 39.703125 55.765625 41.0625 55.515625 
z
" id="DejaVuSans-114"/>
       <path d="M 18.3125 70.21875 
L 18.3125 54.6875 
L 36.8125 54.6875 
L 36.8125 47.703125 
L 18.3125 47.703125 
L 18.3125 18.015625 
Q 18.3125 11.328125 20.140625 9.421875 
Q 21.96875 7.515625 27.59375 7.515625 
L 36.8125 7.515625 
L 36.8125 0 
L 27.59375 0 
Q 17.1875 0 13.234375 3.875 
Q 9.28125 7.765625 9.28125 18.015625 
L 9.28125 47.703125 
L 2.6875 47.703125 
L 2.6875 54.6875 
L 9.28125 54.6875 
L 9.28125 70.21875 
z
" id="DejaVuSans-116"/>
      </defs>
      <use xlink:href="#DejaVuSans-84"/>
      <use x="44.083984" xlink:href="#DejaVuSans-101"/>
      <use x="105.607422" xlink:href="#DejaVuSans-109"/>
      <use x="203.019531" xlink:href="#DejaVuSans-112"/>
      <use x="266.496094" xlink:href="#DejaVuSans-111"/>
      <use x="327.677734" xlink:href="#DejaVuSans-32"/>
      <use x="359.464844" xlink:href="#DejaVuSans-100"/>
      <use x="422.941406" xlink:href="#DejaVuSans-105"/>
      <use x="450.724609" xlink:href="#DejaVuSans-115"/>
      <use x="502.824219" xlink:href="#DejaVuSans-99"/>
      <use x="557.804688" xlink:href="#DejaVuSans-114"/>
      <use x="596.667969" xlink:href="#DejaVuSans-101"/>
      <use x="658.191406" xlink:href="#DejaVuSans-116"/>
      <use x="697.400391" xlink:href="#DejaVuSans-111"/>
     </g>
    </g>
   </g>
   <g id="matplotlib.axis_2">
    <g id="ytick_1">
     <g id="line2d_10">
      <defs>
       <path d="M 0 0 
L -3.5 0 
" id="m8f38596477" style="stroke:#000000;stroke-width:0.8;"/>
      </defs>
      <g>
       <use style="stroke:#000000;stroke-width:0.8;" x="50.314063" xlink:href="#m8f38596477" y="270.8979"/>
      </g>
     </g>
     <g id="text_11">
      <!-- 2.5 -->
      <g transform="translate(27.410938 274.697119)scale(0.1 -0.1)">
       <defs>
        <path d="M 10.6875 12.40625 
L 21 12.40625 
L 21 0 
L 10.6875 0 
z
" id="DejaVuSans-46"/>
       </defs>
       <use xlink:href="#DejaVuSans-50"/>
       <use x="63.623047" xlink:href="#DejaVuSans-46"/>
       <use x="95.410156" xlink:href="#DejaVuSans-53"/>
      </g>
     </g>
    </g>
    <g id="ytick_2">
     <g id="line2d_11">
      <g>
       <use style="stroke:#000000;stroke-width:0.8;" x="50.314063" xlink:href="#m8f38596477" y="238.6419"/>
      </g>
     </g>
     <g id="text_12">
      <!-- 5.0 -->
      <g transform="translate(27.410938 242.441119)scale(0.1 -0.1)">
       <use xlink:href="#DejaVuSans-53"/>
       <use x="63.623047" xlink:href="#DejaVuSans-46"/>
       <use x="95.410156" xlink:href="#DejaVuSans-48"/>
      </g>
     </g>
    </g>
    <g id="ytick_3">
     <g id="line2d_12">
      <g>
       <use style="stroke:#000000;stroke-width:0.8;" x="50.314063" xlink:href="#m8f38596477" y="206.3859"/>
      </g>
     </g>
     <g id="text_13">
      <!-- 7.5 -->
      <g transform="translate(27.410938 210.185119)scale(0.1 -0.1)">
       <use xlink:href="#DejaVuSans-55"/>
       <use x="63.623047" xlink:href="#DejaVuSans-46"/>
       <use x="95.410156" xlink:href="#DejaVuSans-53"/>
      </g>
     </g>
    </g>
    <g id="ytick_4">
     <g id="line2d_13">
      <g>
       <use style="stroke:#000000;stroke-width:0.8;" x="50.314063" xlink:href="#m8f38596477" y="174.1299"/>
      </g>
     </g>
     <g id="text_14">
      <!-- 10.0 -->
      <g transform="translate(21.048438 177.929119)scale(0.1 -0.1)">
       <use xlink:href="#DejaVuSans-49"/>
       <use x="63.623047" xlink:href="#DejaVuSans-48"/>
       <use x="127.246094" xlink:href="#DejaVuSans-46"/>
       <use x="159.033203" xlink:href="#DejaVuSans-48"/>
      </g>
     </g>
    </g>
    <g id="ytick_5">
     <g id="line2d_14">
      <g>
       <use style="stroke:#000000;stroke-width:0.8;" x="50.314063" xlink:href="#m8f38596477" y="141.8739"/>
      </g>
     </g>
     <g id="text_15">
      <!-- 12.5 -->
      <g transform="translate(21.048438 145.673119)scale(0.1 -0.1)">
       <use xlink:href="#DejaVuSans-49"/>
       <use x="63.623047" xlink:href="#DejaVuSans-50"/>
       <use x="127.246094" xlink:href="#DejaVuSans-46"/>
       <use x="159.033203" xlink:href="#DejaVuSans-53"/>
      </g>
     </g>
    </g>
    <g id="ytick_6">
     <g id="line2d_15">
      <g>
       <use style="stroke:#000000;stroke-width:0.8;" x="50.314063" xlink:href="#m8f38596477" y="109.6179"/>
      </g>
     </g>
     <g id="text_16">
      <!-- 15.0 -->
      <g transform="translate(21.048438 113.417119)scale(0.1 -0.1)">
       <use xlink:href="#DejaVuSans-49"/>
       <use x="63.623047" xlink:href="#DejaVuSans-53"/>
       <use x="127.246094" xlink:href="#DejaVuSans-46"/>
       <use x="159.033203" xlink:href="#DejaVuSans-48"/>
      </g>
     </g>
    </g>
    <g id="ytick_7">
     <g id="line2d_16">
      <g>
       <use style="stroke:#000000;stroke-width:0.8;" x="50.314063" xlink:href="#m8f38596477" y="77.3619"/>
      </g>
     </g>
     <g id="text_17">
      <!-- 17.5 -->
      <g transform="translate(21.048438 81.161119)scale(0.1 -0.1)">
       <use xlink:href="#DejaVuSans-49"/>
       <use x="63.623047" xlink:href="#DejaVuSans-55"/>
       <use x="127.246094" xlink:href="#DejaVuSans-46"/>
       <use x="159.033203" xlink:href="#DejaVuSans-53"/>
      </g>
     </g>
    </g>
    <g id="ytick_8">
     <g id="line2d_17">
      <g>
       <use style="stroke:#000000;stroke-width:0.8;" x="50.314063" xlink:href="#m8f38596477" y="45.1059"/>
      </g>
     </g>
     <g id="text_18">
      <!-- 20.0 -->
      <g transform="translate(21.048438 48.905119)scale(0.1 -0.1)">
       <use xlink:href="#DejaVuSans-50"/>
       <use x="63.623047" xlink:href="#DejaVuSans-48"/>
       <use x="127.246094" xlink:href="#DejaVuSans-46"/>
       <use x="159.033203" xlink:href="#DejaVuSans-48"/>
      </g>
     </g>
    </g>
    <g id="text_19">
     <!-- Numero de regiões -->
     <g transform="translate(14.96875 216.902437)rotate(-90)scale(0.1 -0.1)">
      <defs>
       <path d="M 9.8125 72.90625 
L 23.09375 72.90625 
L 55.421875 11.921875 
L 55.421875 72.90625 
L 64.984375 72.90625 
L 64.984375 0 
L 51.703125 0 
L 19.390625 60.984375 
L 19.390625 0 
L 9.8125 0 
z
" id="DejaVuSans-78"/>
       <path d="M 8.5 21.578125 
L 8.5 54.6875 
L 17.484375 54.6875 
L 17.484375 21.921875 
Q 17.484375 14.15625 20.5 10.265625 
Q 23.53125 6.390625 29.59375 6.390625 
Q 36.859375 6.390625 41.078125 11.03125 
Q 45.3125 15.671875 45.3125 23.6875 
L 45.3125 54.6875 
L 54.296875 54.6875 
L 54.296875 0 
L 45.3125 0 
L 45.3125 8.40625 
Q 42.046875 3.421875 37.71875 1 
Q 33.40625 -1.421875 27.6875 -1.421875 
Q 18.265625 -1.421875 13.375 4.4375 
Q 8.5 10.296875 8.5 21.578125 
z
M 31.109375 56 
z
" id="DejaVuSans-117"/>
       <path d="M 45.40625 27.984375 
Q 45.40625 37.75 41.375 43.109375 
Q 37.359375 48.484375 30.078125 48.484375 
Q 22.859375 48.484375 18.828125 43.109375 
Q 14.796875 37.75 14.796875 27.984375 
Q 14.796875 18.265625 18.828125 12.890625 
Q 22.859375 7.515625 30.078125 7.515625 
Q 37.359375 7.515625 41.375 12.890625 
Q 45.40625 18.265625 45.40625 27.984375 
z
M 54.390625 6.78125 
Q 54.390625 -7.171875 48.1875 -13.984375 
Q 42 -20.796875 29.203125 -20.796875 
Q 24.46875 -20.796875 20.265625 -20.09375 
Q 16.0625 -19.390625 12.109375 -17.921875 
L 12.109375 -9.1875 
Q 16.0625 -11.328125 19.921875 -12.34375 
Q 23.78125 -13.375 27.78125 -13.375 
Q 36.625 -13.375 41.015625 -8.765625 
Q 45.40625 -4.15625 45.40625 5.171875 
L 45.40625 9.625 
Q 42.625 4.78125 38.28125 2.390625 
Q 33.9375 0 27.875 0 
Q 17.828125 0 11.671875 7.65625 
Q 5.515625 15.328125 5.515625 27.984375 
Q 5.515625 40.671875 11.671875 48.328125 
Q 17.828125 56 27.875 56 
Q 33.9375 56 38.28125 53.609375 
Q 42.625 51.21875 45.40625 46.390625 
L 45.40625 54.6875 
L 54.390625 54.6875 
z
" id="DejaVuSans-103"/>
       <path d="M 30.609375 48.390625 
Q 23.390625 48.390625 19.1875 42.75 
Q 14.984375 37.109375 14.984375 27.296875 
Q 14.984375 17.484375 19.15625 11.84375 
Q 23.34375 6.203125 30.609375 6.203125 
Q 37.796875 6.203125 41.984375 11.859375 
Q 46.1875 17.53125 46.1875 27.296875 
Q 46.1875 37.015625 41.984375 42.703125 
Q 37.796875 48.390625 30.609375 48.390625 
z
M 30.609375 56 
Q 42.328125 56 49.015625 48.375 
Q 55.71875 40.765625 55.71875 27.296875 
Q 55.71875 13.875 49.015625 6.21875 
Q 42.328125 -1.421875 30.609375 -1.421875 
Q 18.84375 -1.421875 12.171875 6.21875 
Q 5.515625 13.875 5.515625 27.296875 
Q 5.515625 40.765625 12.171875 48.375 
Q 18.84375 56 30.609375 56 
z
M 30.4375 66.890625 
L 27.640625 69.578125 
Q 26.578125 70.5625 25.765625 71.015625 
Q 24.96875 71.484375 24.328125 71.484375 
Q 22.46875 71.484375 21.59375 69.703125 
Q 20.71875 67.921875 20.609375 63.921875 
L 14.515625 63.921875 
Q 14.609375 70.515625 17.09375 74.09375 
Q 19.59375 77.6875 24.03125 77.6875 
Q 25.890625 77.6875 27.453125 77 
Q 29.015625 76.3125 30.828125 74.703125 
L 33.609375 72.015625 
Q 34.671875 71.046875 35.484375 70.578125 
Q 36.296875 70.125 36.921875 70.125 
Q 38.78125 70.125 39.65625 71.90625 
Q 40.53125 73.6875 40.640625 77.6875 
L 46.734375 77.6875 
Q 46.640625 71.09375 44.140625 67.5 
Q 41.65625 63.921875 37.21875 63.921875 
Q 35.359375 63.921875 33.796875 64.59375 
Q 32.234375 65.28125 30.4375 66.890625 
z
" id="DejaVuSans-245"/>
      </defs>
      <use xlink:href="#DejaVuSans-78"/>
      <use x="74.804688" xlink:href="#DejaVuSans-117"/>
      <use x="138.183594" xlink:href="#DejaVuSans-109"/>
      <use x="235.595703" xlink:href="#DejaVuSans-101"/>
      <use x="297.119141" xlink:href="#DejaVuSans-114"/>
      <use x="335.982422" xlink:href="#DejaVuSans-111"/>
      <use x="397.164062" xlink:href="#DejaVuSans-32"/>
      <use x="428.951172" xlink:href="#DejaVuSans-100"/>
      <use x="492.427734" xlink:href="#DejaVuSans-101"/>
      <use x="553.951172" xlink:href="#DejaVuSans-32"/>
      <use x="585.738281" xlink:href="#DejaVuSans-114"/>
      <use x="624.601562" xlink:href="#DejaVuSans-101"/>
      <use x="686.125" xlink:href="#DejaVuSans-103"/>
      <use x="749.601562" xlink:href="#DejaVuSans-105"/>
      <use x="777.384766" xlink:href="#DejaVuSans-245"/>
      <use x="838.566406" xlink:href="#DejaVuSans-101"/>
      <use x="900.089844" xlink:href="#DejaVuSans-115"/>
     </g>
    </g>
   </g>
   <g id="line2d_18">
    <path clip-path="url(#pa8733a53ba)" d="M 66.54679 290.2515 
L 66.709198 290.2515 
L 66.871607 277.3491 
L 67.034015 277.3491 
L 67.196424 264.4467 
L 107.311317 264.4467 
L 107.473726 263.8323 
L 107.636134 263.8323 
L 107.798543 263.2179 
L 107.960951 263.2179 
L 108.12336 262.6035 
L 108.610585 262.6035 
L 108.772994 261.9891 
L 108.935402 261.9891 
L 109.097811 260.7603 
L 109.260219 258.3027 
L 109.422628 260.7603 
L 109.585036 257.6883 
L 109.747445 259.5315 
L 109.909853 259.5315 
L 110.072262 257.0739 
L 110.559487 257.0739 
L 110.721896 259.5315 
L 110.884304 256.4595 
L 111.046712 258.9171 
L 111.209121 256.4595 
L 111.371529 258.9171 
L 111.533938 256.4595 
L 111.696346 256.4595 
L 111.858755 258.3027 
L 112.021163 258.3027 
L 112.183572 254.6163 
L 112.34598 256.4595 
L 112.508389 256.4595 
L 112.670797 254.0019 
L 112.833206 254.0019 
L 112.995614 256.4595 
L 113.320431 256.4595 
L 113.48284 255.2307 
L 113.645248 255.2307 
L 113.807657 254.0019 
L 113.970065 255.2307 
L 114.294882 255.2307 
L 114.45729 254.0019 
L 114.619699 254.0019 
L 114.782107 254.6163 
L 114.944516 254.0019 
L 115.269333 252.1587 
L 115.431741 253.3875 
L 115.59415 253.3875 
L 115.756558 252.7731 
L 116.081375 252.7731 
L 116.243784 251.5443 
L 116.568601 251.5443 
L 116.731009 250.9299 
L 116.893418 252.1587 
L 117.055826 251.5443 
L 117.380643 249.7011 
L 117.70546 248.4723 
L 117.867868 249.0867 
L 118.192685 249.0867 
L 118.355094 247.8579 
L 118.517502 247.8579 
L 118.679911 249.0867 
L 119.167136 249.0867 
L 119.329545 247.8579 
L 119.979179 247.8579 
L 120.141587 249.0867 
L 120.303996 247.8579 
L 120.466404 247.8579 
L 120.628813 248.4723 
L 120.791221 247.2435 
L 120.95363 248.4723 
L 121.116038 248.4723 
L 121.278447 247.2435 
L 121.92808 247.2435 
L 122.252897 245.4003 
L 124.526616 245.4003 
L 124.851433 244.1715 
L 125.501067 244.1715 
L 125.663475 243.5571 
L 125.825884 242.3283 
L 127.449969 242.3283 
L 127.937194 240.4851 
L 128.099603 239.2563 
L 129.561279 239.2563 
L 129.723687 238.0275 
L 131.672589 238.0275 
L 131.834998 236.7987 
L 136.382435 236.7987 
L 136.544843 236.1843 
L 138.656154 236.1843 
L 138.818562 235.5699 
L 143.853225 235.5699 
L 144.015633 234.3411 
L 150.349564 234.3411 
L 150.511972 233.1123 
L 151.161606 233.1123 
L 151.324015 231.8835 
L 158.957213 231.8835 
L 159.119622 229.4259 
L 159.28203 231.8835 
L 159.444439 231.8835 
L 159.606847 229.4259 
L 159.769256 229.4259 
L 159.931664 231.8835 
L 160.256481 231.8835 
L 160.418889 229.4259 
L 160.581298 231.8835 
L 161.068523 231.8835 
L 161.230932 229.4259 
L 161.39334 229.4259 
L 161.555749 231.8835 
L 162.042974 231.8835 
L 162.205383 229.4259 
L 162.367791 229.4259 
L 162.5302 231.8835 
L 162.692608 229.4259 
L 162.855017 231.8835 
L 163.017425 229.4259 
L 163.179834 231.8835 
L 163.991876 231.8835 
L 164.154284 229.4259 
L 164.316693 229.4259 
L 164.479101 231.8835 
L 164.64151 229.4259 
L 164.803918 231.8835 
L 164.966327 229.4259 
L 165.128735 231.8835 
L 165.291144 229.4259 
L 165.453552 229.4259 
L 165.615961 231.8835 
L 165.778369 231.8835 
L 165.940778 229.4259 
L 166.103186 231.8835 
L 166.265595 229.4259 
L 166.428003 229.4259 
L 166.590412 231.8835 
L 166.75282 229.4259 
L 166.915229 229.4259 
L 167.077637 231.8835 
L 167.240045 229.4259 
L 167.402454 231.8835 
L 167.564862 229.4259 
L 167.727271 231.8835 
L 167.889679 229.4259 
L 168.052088 231.8835 
L 168.214496 231.8835 
L 168.376905 229.4259 
L 168.539313 231.8835 
L 168.701722 231.8835 
L 168.86413 229.4259 
L 169.026539 231.8835 
L 169.838581 231.8835 
L 170.00099 229.4259 
L 170.325807 229.4259 
L 170.488215 231.8835 
L 170.813032 231.8835 
L 170.97544 229.4259 
L 171.137849 231.8835 
L 171.300257 231.8835 
L 171.462666 229.4259 
L 171.625074 231.8835 
L 171.787483 229.4259 
L 171.949891 229.4259 
L 172.1123 231.8835 
L 172.274708 229.4259 
L 172.437117 231.8835 
L 173.086751 231.8835 
L 173.249159 229.4259 
L 173.411568 229.4259 
L 173.573976 231.8835 
L 173.736385 231.8835 
L 173.898793 229.4259 
L 174.061202 231.8835 
L 174.22361 231.8835 
L 174.386018 229.4259 
L 174.548427 231.8835 
L 174.873244 231.8835 
L 175.035652 229.4259 
L 175.198061 229.4259 
L 175.360469 231.8835 
L 175.685286 231.8835 
L 175.847695 229.4259 
L 176.010103 231.8835 
L 176.659737 231.8835 
L 176.822146 229.4259 
L 177.146963 229.4259 
L 177.309371 231.8835 
L 177.47178 229.4259 
L 177.634188 231.8835 
L 177.796596 231.8835 
L 177.959005 229.4259 
L 178.121413 231.8835 
L 178.283822 229.4259 
L 178.44623 231.8835 
L 178.771047 231.8835 
L 178.933456 228.1971 
L 179.095864 231.8835 
L 179.258273 228.1971 
L 179.420681 231.8835 
L 179.58309 228.1971 
L 179.907907 228.1971 
L 180.070315 231.8835 
L 180.232724 228.1971 
L 180.719949 228.1971 
L 180.882358 231.8835 
L 181.044766 228.1971 
L 181.207175 231.8835 
L 181.531991 231.8835 
L 181.6944 228.1971 
L 181.856808 231.8835 
L 182.993668 231.8835 
L 183.156076 228.1971 
L 183.80571 228.1971 
L 183.968119 231.8835 
L 184.617753 231.8835 
L 184.780161 228.1971 
L 185.104978 228.1971 
L 185.267386 231.8835 
L 185.429795 228.1971 
L 185.754612 228.1971 
L 185.91702 231.8835 
L 186.079429 231.8835 
L 186.241837 230.6547 
L 186.404246 226.9683 
L 186.566654 230.6547 
L 186.891471 230.6547 
L 187.05388 226.9683 
L 187.216288 230.6547 
L 187.378697 226.9683 
L 187.703514 226.9683 
L 187.865922 230.6547 
L 188.028331 226.3539 
L 188.353147 226.3539 
L 188.515556 230.0403 
L 188.677964 230.0403 
L 188.840373 225.1251 
L 189.002781 228.8115 
L 189.16519 228.8115 
L 189.327598 225.1251 
L 189.652415 225.1251 
L 189.814824 226.3539 
L 190.464458 226.3539 
L 190.626866 225.1251 
L 190.951683 225.1251 
L 191.114092 226.3539 
L 191.2765 226.3539 
L 191.438909 225.1251 
L 191.601317 226.3539 
L 191.763726 226.3539 
L 191.926134 225.1251 
L 192.088542 226.3539 
L 192.250951 225.1251 
L 192.413359 226.3539 
L 192.738176 226.3539 
L 192.900585 225.1251 
L 193.550219 225.1251 
L 193.712627 226.3539 
L 194.037444 224.5107 
L 194.362261 224.5107 
L 194.52467 223.2819 
L 194.687078 224.5107 
L 194.849487 223.2819 
L 195.011895 223.2819 
L 195.174304 224.5107 
L 195.336712 223.2819 
L 195.49912 224.5107 
L 195.661529 224.5107 
L 195.823937 222.6675 
L 195.986346 223.8963 
L 196.148754 223.8963 
L 196.311163 222.6675 
L 196.473571 222.6675 
L 196.63598 223.8963 
L 196.960797 223.8963 
L 197.123205 222.6675 
L 197.285614 223.2819 
L 197.448022 222.0531 
L 197.610431 223.2819 
L 197.935248 220.8243 
L 198.260065 220.8243 
L 198.584882 218.9811 
L 198.74729 218.9811 
L 198.909698 220.2099 
L 199.072107 218.9811 
L 199.234515 220.2099 
L 199.396924 220.2099 
L 199.559332 218.3667 
L 199.884149 218.3667 
L 200.046558 219.5955 
L 200.208966 218.3667 
L 200.371375 219.5955 
L 200.696192 219.5955 
L 201.345826 215.2947 
L 201.670643 215.2947 
L 201.833051 217.7523 
L 201.99546 215.2947 
L 202.157868 217.7523 
L 202.320277 215.2947 
L 202.482685 215.2947 
L 202.645093 214.0659 
L 202.807502 214.0659 
L 202.96991 215.9091 
L 203.132319 213.4515 
L 203.294727 213.4515 
L 203.457136 215.2947 
L 203.619544 215.2947 
L 203.781953 212.8371 
L 204.10677 212.8371 
L 204.269178 215.2947 
L 204.431587 214.6803 
L 204.593995 212.2227 
L 204.756404 212.2227 
L 204.918812 214.6803 
L 205.081221 212.2227 
L 205.243629 211.6083 
L 205.406038 214.0659 
L 205.568446 214.0659 
L 205.893263 211.6083 
L 206.21808 211.6083 
L 206.380488 212.8371 
L 206.542897 211.6083 
L 206.705305 211.6083 
L 206.867714 212.8371 
L 207.030122 211.6083 
L 207.192531 211.6083 
L 207.354939 212.8371 
L 207.517348 211.6083 
L 207.679756 212.8371 
L 207.842165 211.6083 
L 208.166982 211.6083 
L 208.32939 212.8371 
L 208.491799 210.9939 
L 208.654207 212.2227 
L 208.816616 212.2227 
L 208.979024 210.9939 
L 209.141433 212.2227 
L 209.303841 210.9939 
L 209.46625 210.9939 
L 209.628658 210.3795 
L 209.791066 210.3795 
L 209.953475 211.6083 
L 210.115883 210.3795 
L 210.278292 211.6083 
L 210.4407 211.6083 
L 210.603109 210.3795 
L 210.765517 210.3795 
L 210.927926 209.1507 
L 211.252743 209.1507 
L 211.415151 210.3795 
L 211.739968 210.3795 
L 211.902377 209.1507 
L 212.064785 210.3795 
L 212.227194 209.1507 
L 212.389602 210.3795 
L 212.552011 210.3795 
L 212.714419 207.9219 
L 212.876828 209.1507 
L 213.039236 207.3075 
L 213.201644 207.3075 
L 213.364053 207.9219 
L 213.526461 206.0787 
L 213.851278 206.0787 
L 214.013687 205.4643 
L 214.176095 206.0787 
L 214.338504 204.2355 
L 214.500912 205.4643 
L 214.663321 204.2355 
L 214.825729 205.4643 
L 214.988138 204.2355 
L 215.150546 205.4643 
L 215.312955 204.8499 
L 215.475363 203.6211 
L 215.637772 204.2355 
L 215.80018 203.0067 
L 215.962589 204.2355 
L 216.124997 203.0067 
L 216.287406 203.0067 
L 216.449814 204.2355 
L 216.612222 203.6211 
L 217.261856 203.6211 
L 217.424265 202.3923 
L 217.749082 202.3923 
L 217.91149 201.7779 
L 218.398716 201.7779 
L 218.561124 203.0067 
L 218.723533 201.1635 
L 218.885941 201.1635 
L 219.04835 200.5491 
L 219.210758 201.7779 
L 219.373167 201.1635 
L 219.535575 199.9347 
L 219.697984 199.9347 
L 220.022801 198.7059 
L 220.185209 199.9347 
L 220.347617 198.7059 
L 220.510026 199.9347 
L 220.672434 199.9347 
L 220.834843 198.7059 
L 221.322068 198.7059 
L 221.646885 196.2483 
L 221.809294 197.4771 
L 222.134111 195.6339 
L 222.621336 195.6339 
L 222.783745 194.4051 
L 222.946153 195.6339 
L 223.27097 195.6339 
L 223.433379 193.7907 
L 223.595787 195.0195 
L 223.758195 193.7907 
L 223.920604 195.0195 
L 224.407829 191.9475 
L 224.570238 191.9475 
L 224.732646 193.1763 
L 224.895055 191.9475 
L 225.057463 191.9475 
L 225.219872 193.1763 
L 225.38228 191.9475 
L 225.544689 191.9475 
L 225.707097 193.1763 
L 225.869506 191.9475 
L 226.031914 191.9475 
L 226.194323 193.1763 
L 226.51914 191.3331 
L 226.681548 191.3331 
L 226.843957 192.5619 
L 227.006365 192.5619 
L 227.49359 189.4899 
L 227.655999 189.4899 
L 227.818407 190.7187 
L 227.980816 189.4899 
L 228.143224 190.7187 
L 228.305633 189.4899 
L 228.468041 190.7187 
L 228.63045 188.8755 
L 228.792858 188.8755 
L 228.955267 190.1043 
L 229.117675 190.1043 
L 229.280084 188.8755 
L 229.442492 188.8755 
L 229.604901 189.4899 
L 229.767309 188.2611 
L 229.929718 189.4899 
L 230.092126 188.2611 
L 230.254535 189.4899 
L 230.416943 187.6467 
L 230.579352 188.8755 
L 230.74176 188.8755 
L 231.066577 183.3459 
L 231.228985 187.0323 
L 231.391394 187.0323 
L 231.553802 183.3459 
L 231.716211 187.0323 
L 231.878619 183.3459 
L 232.041028 186.4179 
L 232.203436 186.4179 
L 232.365845 180.2739 
L 232.528253 186.4179 
L 232.690662 180.2739 
L 232.85307 180.2739 
L 233.015479 185.8035 
L 233.177887 179.0451 
L 233.502704 179.0451 
L 233.665113 185.1891 
L 233.827521 179.0451 
L 233.98993 183.9603 
L 234.152338 177.8163 
L 234.314746 177.8163 
L 234.477155 183.3459 
L 234.639563 182.7315 
L 234.96438 182.7315 
L 235.126789 176.5875 
L 235.289197 182.7315 
L 235.451606 176.5875 
L 235.614014 182.7315 
L 235.776423 176.5875 
L 236.263648 176.5875 
L 236.426057 182.1171 
L 237.075691 182.1171 
L 237.238099 175.9731 
L 237.400508 182.1171 
L 237.562916 175.9731 
L 237.725324 182.1171 
L 237.887733 175.9731 
L 238.050141 182.1171 
L 238.21255 182.1171 
L 238.374958 180.8883 
L 238.537367 174.7443 
L 238.699775 180.8883 
L 238.862184 180.8883 
L 239.024592 174.7443 
L 239.187001 180.8883 
L 239.349409 174.1299 
L 239.836635 174.1299 
L 239.999043 180.2739 
L 240.161452 172.9011 
L 240.32386 179.0451 
L 240.486269 179.0451 
L 240.648677 170.4435 
L 240.811086 169.8291 
L 240.973494 169.8291 
L 241.135903 175.9731 
L 241.298311 175.3587 
L 241.460719 175.3587 
L 241.623128 169.2147 
L 241.785536 175.3587 
L 241.947945 174.7443 
L 242.597579 174.7443 
L 242.759987 168.6003 
L 242.922396 168.6003 
L 243.084804 174.7443 
L 243.247213 174.7443 
L 243.409621 168.6003 
L 243.57203 174.7443 
L 243.734438 174.7443 
L 243.896847 168.6003 
L 244.059255 174.7443 
L 244.384072 174.7443 
L 244.546481 167.9859 
L 244.708889 174.1299 
L 244.871297 167.9859 
L 245.033706 167.3715 
L 245.196114 172.2867 
L 246.170565 172.2867 
L 246.332974 171.6723 
L 246.495382 166.7571 
L 246.657791 166.7571 
L 246.820199 166.1427 
L 247.145016 166.1427 
L 247.307425 169.8291 
L 247.469833 166.1427 
L 247.79465 166.1427 
L 247.957059 169.8291 
L 248.119467 165.5283 
L 248.281875 169.2147 
L 248.931509 169.2147 
L 249.093918 168.6003 
L 249.581143 168.6003 
L 249.743552 164.9139 
L 249.90596 164.9139 
L 250.068369 168.6003 
L 250.393186 168.6003 
L 250.555594 163.6851 
L 250.718003 167.3715 
L 251.04282 167.3715 
L 251.205228 166.7571 
L 251.530045 166.7571 
L 251.692454 163.0707 
L 251.854862 163.0707 
L 252.01727 166.7571 
L 252.179679 166.7571 
L 252.342087 163.0707 
L 252.504496 163.0707 
L 252.666904 166.7571 
L 252.829313 166.7571 
L 252.991721 163.0707 
L 253.15413 163.0707 
L 253.316538 166.7571 
L 253.478947 163.0707 
L 253.641355 163.0707 
L 253.803764 166.7571 
L 253.966172 166.7571 
L 254.128581 161.8419 
L 254.290989 161.8419 
L 254.453398 166.1427 
L 254.615806 165.5283 
L 254.940623 165.5283 
L 255.103032 160.6131 
L 255.26544 165.5283 
L 255.427848 165.5283 
L 255.590257 160.6131 
L 255.752665 165.5283 
L 255.915074 160.6131 
L 256.077482 160.6131 
L 256.239891 165.5283 
L 256.564708 165.5283 
L 256.727116 159.3843 
L 256.889525 164.2995 
L 257.051933 159.3843 
L 257.214342 164.2995 
L 257.37675 164.2995 
L 257.539159 159.3843 
L 257.701567 164.2995 
L 257.863976 164.2995 
L 258.026384 158.7699 
L 258.188793 158.1555 
L 258.351201 163.0707 
L 258.51361 163.0707 
L 258.676018 162.4563 
L 258.838427 162.4563 
L 259.000835 157.5411 
L 259.163243 157.5411 
L 259.325652 162.4563 
L 259.48806 157.5411 
L 259.650469 156.9267 
L 259.812877 161.8419 
L 259.975286 160.6131 
L 260.137694 155.6979 
L 260.300103 160.6131 
L 260.462511 155.6979 
L 260.62492 160.6131 
L 260.787328 155.6979 
L 260.949737 160.6131 
L 261.112145 155.6979 
L 261.436962 155.6979 
L 261.599371 160.6131 
L 261.761779 160.6131 
L 261.924188 154.4691 
L 262.086596 159.3843 
L 262.249005 154.4691 
L 262.411413 159.3843 
L 262.573821 159.3843 
L 262.73623 154.4691 
L 263.385864 154.4691 
L 263.548272 159.3843 
L 263.710681 159.3843 
L 263.873089 154.4691 
L 264.035498 153.8547 
L 264.197906 157.5411 
L 264.360315 152.6259 
L 264.522723 157.5411 
L 264.685132 152.6259 
L 264.84754 157.5411 
L 265.009949 152.6259 
L 265.334766 152.6259 
L 265.497174 157.5411 
L 265.821991 157.5411 
L 265.984399 152.6259 
L 266.146808 157.5411 
L 266.309216 157.5411 
L 266.471625 152.6259 
L 266.634033 152.6259 
L 266.796442 157.5411 
L 266.95885 152.6259 
L 267.121259 152.6259 
L 267.283667 156.9267 
L 267.446076 152.0115 
L 267.608484 156.9267 
L 267.770893 151.3971 
L 267.933301 156.3123 
L 268.09571 150.7827 
L 268.258118 150.7827 
L 268.420527 155.6979 
L 268.582935 155.6979 
L 268.745344 149.5539 
L 269.070161 148.3251 
L 269.232569 153.2403 
L 269.557386 153.2403 
L 269.719794 148.3251 
L 269.882203 153.2403 
L 270.20702 153.2403 
L 270.369428 152.6259 
L 271.019062 152.6259 
L 271.181471 147.7107 
L 271.343879 152.6259 
L 271.506288 152.6259 
L 271.668696 147.7107 
L 271.831105 147.7107 
L 271.993513 152.6259 
L 272.31833 152.6259 
L 272.480739 147.7107 
L 272.643147 152.6259 
L 272.967964 152.6259 
L 273.130372 147.7107 
L 273.292781 152.6259 
L 273.617598 152.6259 
L 273.780006 147.7107 
L 274.104823 147.7107 
L 274.267232 152.6259 
L 274.42964 152.0115 
L 274.916866 152.0115 
L 275.079274 147.0963 
L 275.404091 147.0963 
L 275.5665 152.0115 
L 275.728908 147.0963 
L 275.891317 147.0963 
L 276.053725 152.0115 
L 276.216134 147.0963 
L 276.378542 149.5539 
L 276.54095 144.6387 
L 276.703359 144.6387 
L 276.865767 149.5539 
L 277.515401 149.5539 
L 277.67781 144.6387 
L 277.840218 149.5539 
L 278.002627 144.6387 
L 278.165035 149.5539 
L 278.977078 149.5539 
L 279.301895 142.1811 
L 279.464303 149.5539 
L 279.626712 149.5539 
L 279.78912 141.5667 
L 279.951529 148.9395 
L 280.113937 141.5667 
L 280.276345 148.9395 
L 280.438754 148.9395 
L 280.601162 147.7107 
L 280.763571 141.5667 
L 280.925979 147.7107 
L 281.088388 147.7107 
L 281.250796 146.4819 
L 281.413205 146.4819 
L 281.575613 140.3379 
L 281.738022 146.4819 
L 281.90043 140.3379 
L 282.062839 146.4819 
L 282.225247 146.4819 
L 282.387656 139.1091 
L 282.712473 139.1091 
L 282.874881 144.6387 
L 283.03729 138.4947 
L 283.199698 138.4947 
L 283.362107 143.4099 
L 283.524515 143.4099 
L 283.686923 137.2659 
L 283.849332 137.2659 
L 284.01174 143.4099 
L 284.174149 142.7955 
L 284.661374 142.7955 
L 284.823783 136.6515 
L 284.986191 136.0371 
L 285.1486 142.1811 
L 285.311008 136.0371 
L 285.473417 142.1811 
L 285.635825 142.1811 
L 285.798234 135.4227 
L 285.960642 141.5667 
L 286.123051 135.4227 
L 286.285459 141.5667 
L 286.447868 135.4227 
L 286.610276 135.4227 
L 286.772685 141.5667 
L 287.25991 141.5667 
L 287.422318 140.3379 
L 287.747135 140.3379 
L 287.909544 134.1939 
L 288.234361 134.1939 
L 288.396769 133.5795 
L 288.559178 133.5795 
L 288.721586 139.7235 
L 288.883995 132.9651 
L 289.046403 132.3507 
L 289.208812 132.3507 
L 289.37122 138.4947 
L 289.533629 138.4947 
L 289.696037 131.7363 
L 289.858446 131.7363 
L 290.020854 137.2659 
L 290.183263 137.2659 
L 290.345671 131.1219 
L 290.50808 137.2659 
L 290.670488 137.2659 
L 290.832896 131.1219 
L 290.995305 131.1219 
L 291.157713 137.2659 
L 291.320122 137.2659 
L 291.48253 131.1219 
L 291.644939 137.2659 
L 291.807347 131.1219 
L 291.969756 137.2659 
L 292.132164 131.1219 
L 292.294573 135.4227 
L 292.61939 135.4227 
L 292.781798 128.6643 
L 293.269024 128.6643 
L 293.431432 128.0499 
L 293.593841 134.1939 
L 293.918658 134.1939 
L 294.081066 128.0499 
L 294.568291 128.0499 
L 294.7307 134.1939 
L 294.893108 127.4355 
L 295.055517 132.9651 
L 295.217925 132.9651 
L 295.380334 126.2067 
L 295.542742 131.7363 
L 295.705151 131.7363 
L 295.867559 125.5923 
L 296.029968 125.5923 
L 296.192376 124.9779 
L 296.354785 131.1219 
L 296.517193 124.9779 
L 296.679602 124.9779 
L 296.84201 130.5075 
L 297.004419 130.5075 
L 297.166827 129.2787 
L 297.329236 123.1347 
L 297.491644 129.2787 
L 297.654052 123.1347 
L 297.978869 123.1347 
L 298.141278 129.2787 
L 298.466095 129.2787 
L 298.628503 123.1347 
L 298.790912 129.2787 
L 298.95332 123.1347 
L 299.115729 129.2787 
L 299.278137 128.6643 
L 299.602954 128.6643 
L 299.765363 122.5203 
L 299.927771 122.5203 
L 300.09018 121.9059 
L 300.252588 121.9059 
L 300.414997 120.6771 
L 300.577405 120.6771 
L 300.739814 126.2067 
L 300.902222 126.2067 
L 301.064631 120.0627 
L 301.227039 120.0627 
L 301.389447 126.2067 
L 301.551856 120.0627 
L 301.714264 126.2067 
L 301.876673 126.2067 
L 302.039081 120.0627 
L 302.20149 126.2067 
L 302.363898 126.2067 
L 302.526307 120.0627 
L 302.688715 126.2067 
L 302.851124 120.0627 
L 303.013532 120.0627 
L 303.175941 126.2067 
L 303.338349 120.0627 
L 303.500758 120.0627 
L 303.663166 118.8339 
L 304.150392 118.8339 
L 304.3128 118.2195 
L 304.475209 124.3635 
L 304.637617 124.3635 
L 304.800025 118.2195 
L 304.962434 124.3635 
L 305.124842 118.2195 
L 305.287251 123.7491 
L 305.449659 117.6051 
L 305.612068 123.7491 
L 305.774476 123.1347 
L 306.099293 123.1347 
L 306.261702 116.9907 
L 306.42411 116.9907 
L 306.586519 123.1347 
L 306.748927 123.1347 
L 306.911336 116.9907 
L 307.073744 123.1347 
L 307.236153 116.9907 
L 307.398561 123.1347 
L 307.723378 123.1347 
L 307.885787 116.9907 
L 308.048195 123.1347 
L 308.210603 116.9907 
L 308.373012 116.9907 
L 308.53542 123.1347 
L 308.697829 116.9907 
L 308.860237 116.3763 
L 309.022646 116.3763 
L 309.185054 115.7619 
L 309.347463 121.9059 
L 309.509871 121.2915 
L 309.67228 121.2915 
L 309.834688 115.1475 
L 310.321914 115.1475 
L 310.484322 120.0627 
L 310.646731 120.0627 
L 310.809139 119.4483 
L 310.971548 114.5331 
L 311.133956 114.5331 
L 311.296365 119.4483 
L 311.458773 114.5331 
L 311.621182 119.4483 
L 311.78359 119.4483 
L 312.108407 111.4611 
L 312.433224 111.4611 
L 312.595632 117.6051 
L 312.758041 110.8467 
L 312.920449 110.8467 
L 313.082858 116.9907 
L 313.245266 110.8467 
L 313.407675 116.3763 
L 313.570083 110.2323 
L 313.732492 110.2323 
L 313.8949 115.7619 
L 314.057309 115.7619 
L 314.219717 109.6179 
L 314.382126 109.6179 
L 314.544534 115.7619 
L 315.03176 115.7619 
L 315.194168 109.6179 
L 315.356576 109.6179 
L 315.518985 115.7619 
L 315.681393 108.3891 
L 315.843802 114.5331 
L 316.00621 113.9187 
L 316.493436 113.9187 
L 316.655844 113.3043 
L 316.818253 107.1603 
L 316.980661 113.3043 
L 317.14307 113.3043 
L 317.305478 112.6899 
L 317.467887 112.6899 
L 317.630295 111.4611 
L 317.792704 111.4611 
L 317.955112 105.3171 
L 318.117521 110.8467 
L 318.279929 110.8467 
L 318.442338 109.6179 
L 318.604746 109.6179 
L 318.767155 103.4739 
L 318.929563 109.6179 
L 319.091971 103.4739 
L 319.25438 109.0035 
L 319.579197 109.0035 
L 319.741605 102.8595 
L 319.904014 109.0035 
L 320.066422 102.2451 
L 320.391239 102.2451 
L 320.553648 101.6307 
L 320.716056 107.7747 
L 320.878465 101.0163 
L 321.203282 101.0163 
L 321.36569 107.1603 
L 321.528099 101.0163 
L 321.852916 101.0163 
L 322.015324 100.4019 
L 322.177733 100.4019 
L 322.340141 105.3171 
L 322.502549 99.1731 
L 322.827366 99.1731 
L 322.989775 98.5587 
L 323.152183 104.7027 
L 323.314592 98.5587 
L 323.477 104.7027 
L 323.639409 98.5587 
L 323.801817 98.5587 
L 323.964226 104.7027 
L 324.451451 104.7027 
L 324.61386 98.5587 
L 324.776268 104.7027 
L 324.938677 97.3299 
L 325.101085 96.7155 
L 325.263494 101.6307 
L 325.425902 96.7155 
L 325.588311 101.6307 
L 325.750719 96.7155 
L 325.913127 101.6307 
L 326.237944 101.6307 
L 326.400353 96.7155 
L 326.887578 96.7155 
L 327.049987 101.6307 
L 327.212395 99.7875 
L 327.374804 94.8723 
L 327.537212 94.8723 
L 327.699621 99.7875 
L 327.862029 94.8723 
L 328.024438 99.1731 
L 328.186846 99.1731 
L 328.349255 94.2579 
L 328.511663 94.2579 
L 328.674072 98.5587 
L 328.83648 98.5587 
L 328.998889 93.6435 
L 329.161297 98.5587 
L 329.323706 93.6435 
L 329.486114 97.9443 
L 329.810931 93.0291 
L 329.973339 95.4867 
L 330.135748 93.0291 
L 330.298156 94.78014 
L 330.460565 94.13502 
L 332.247058 94.13502 
L 332.409467 93.4899 
L 332.734284 93.4899 
L 332.896692 92.84478 
L 333.708734 92.84478 
L 333.871143 92.19966 
L 334.19596 92.19966 
L 334.358368 91.55454 
L 335.495228 91.55454 
L 335.657636 90.90942 
L 336.30727 90.90942 
L 336.469678 89.61918 
L 337.444129 89.61918 
L 337.606538 88.97406 
L 339.230623 88.97406 
L 339.55544 87.0387 
L 339.717848 87.0387 
L 339.880257 85.74846 
L 340.52989 85.74846 
L 340.692299 85.10334 
L 341.829158 85.10334 
L 341.991567 84.45822 
L 342.803609 84.45822 
L 343.128426 83.16798 
L 345.564553 83.16798 
L 345.726962 81.87774 
L 346.863821 81.87774 
L 347.026229 80.5875 
L 347.351046 80.5875 
L 347.513455 79.94238 
L 347.675863 79.94238 
L 347.838272 79.29726 
L 348.163089 79.29726 
L 348.325497 77.3619 
L 348.487906 77.3619 
L 348.650314 76.71678 
L 348.812723 76.71678 
L 349.462357 72.20094 
L 349.787174 72.20094 
L 349.949582 71.55582 
L 350.274399 71.55582 
L 350.599216 69.62046 
L 350.761624 68.97534 
L 352.060892 68.97534 
L 352.223301 67.6851 
L 353.522569 67.6851 
L 353.684977 66.39486 
L 354.334611 66.39486 
L 354.497019 65.74974 
L 355.146653 65.74974 
L 355.309062 65.10462 
L 356.770738 65.10462 
L 356.933147 64.4595 
L 357.257964 64.4595 
L 357.420372 63.16926 
L 359.206865 63.16926 
L 359.369274 62.52414 
L 363.754303 62.52414 
L 363.916711 61.2339 
L 364.07912 61.2339 
L 364.241528 59.29854 
L 365.540796 59.29854 
L 365.703204 58.65342 
L 367.327289 58.65342 
L 367.489698 57.36318 
L 367.814515 57.36318 
L 367.976923 56.71806 
L 369.113782 56.71806 
L 369.276191 56.07294 
L 369.601008 56.07294 
L 369.763416 55.42782 
L 371.54991 55.42782 
L 371.712318 54.7827 
L 373.173994 54.7827 
L 373.336403 54.13758 
L 373.498811 54.13758 
L 373.66122 52.84734 
L 373.986037 52.84734 
L 374.148445 52.20222 
L 374.473262 52.20222 
L 374.635671 51.5571 
L 376.097347 51.5571 
L 376.259755 50.91198 
L 376.909389 50.91198 
L 377.071798 49.62174 
L 382.268869 49.62174 
L 382.431277 48.97662 
L 383.568137 48.97662 
L 383.730545 48.3315 
L 391.201335 48.3315 
L 391.201335 48.3315 
" style="fill:none;stroke:#1f77b4;stroke-linecap:square;stroke-width:1.5;"/>
   </g>
   <g id="patch_3">
    <path d="M 50.314063 302.3475 
L 50.314063 36.2355 
" style="fill:none;stroke:#000000;stroke-linecap:square;stroke-linejoin:miter;stroke-width:0.8;"/>
   </g>
   <g id="patch_4">
    <path d="M 407.434062 302.3475 
L 407.434062 36.2355 
" style="fill:none;stroke:#000000;stroke-linecap:square;stroke-linejoin:miter;stroke-width:0.8;"/>
   </g>
   <g id="patch_5">
    <path d="M 50.314063 302.3475 
L 407.434063 302.3475 
" style="fill:none;stroke:#000000;stroke-linecap:square;stroke-linejoin:miter;stroke-width:0.8;"/>
   </g>
   <g id="patch_6">
    <path d="M 50.314063 36.2355 
L 407.434063 36.2355 
" style="fill:none;stroke:#000000;stroke-linecap:square;stroke-linejoin:miter;stroke-width:0.8;"/>
   </g>
   <g id="text_20">
    <!-- Número médio de regiões em função do -->
    <g transform="translate(108.049063 16.798125)scale(0.12 -0.12)">
     <defs>
      <path d="M 8.5 21.578125 
L 8.5 54.6875 
L 17.484375 54.6875 
L 17.484375 21.921875 
Q 17.484375 14.15625 20.5 10.265625 
Q 23.53125 6.390625 29.59375 6.390625 
Q 36.859375 6.390625 41.078125 11.03125 
Q 45.3125 15.671875 45.3125 23.6875 
L 45.3125 54.6875 
L 54.296875 54.6875 
L 54.296875 0 
L 45.3125 0 
L 45.3125 8.40625 
Q 42.046875 3.421875 37.71875 1 
Q 33.40625 -1.421875 27.6875 -1.421875 
Q 18.265625 -1.421875 13.375 4.4375 
Q 8.5 10.296875 8.5 21.578125 
z
M 31.109375 56 
z
M 37.78125 79.984375 
L 47.5 79.984375 
L 31.59375 61.625 
L 24.109375 61.625 
z
" id="DejaVuSans-250"/>
      <path d="M 56.203125 29.59375 
L 56.203125 25.203125 
L 14.890625 25.203125 
Q 15.484375 15.921875 20.484375 11.0625 
Q 25.484375 6.203125 34.421875 6.203125 
Q 39.59375 6.203125 44.453125 7.46875 
Q 49.3125 8.734375 54.109375 11.28125 
L 54.109375 2.78125 
Q 49.265625 0.734375 44.1875 -0.34375 
Q 39.109375 -1.421875 33.890625 -1.421875 
Q 20.796875 -1.421875 13.15625 6.1875 
Q 5.515625 13.8125 5.515625 26.8125 
Q 5.515625 40.234375 12.765625 48.109375 
Q 20.015625 56 32.328125 56 
Q 43.359375 56 49.78125 48.890625 
Q 56.203125 41.796875 56.203125 29.59375 
z
M 47.21875 32.234375 
Q 47.125 39.59375 43.09375 43.984375 
Q 39.0625 48.390625 32.421875 48.390625 
Q 24.90625 48.390625 20.390625 44.140625 
Q 15.875 39.890625 15.1875 32.171875 
z
M 38.53125 79.984375 
L 48.25 79.984375 
L 32.34375 61.625 
L 24.859375 61.625 
z
" id="DejaVuSans-233"/>
      <path d="M 37.109375 75.984375 
L 37.109375 68.5 
L 28.515625 68.5 
Q 23.6875 68.5 21.796875 66.546875 
Q 19.921875 64.59375 19.921875 59.515625 
L 19.921875 54.6875 
L 34.71875 54.6875 
L 34.71875 47.703125 
L 19.921875 47.703125 
L 19.921875 0 
L 10.890625 0 
L 10.890625 47.703125 
L 2.296875 47.703125 
L 2.296875 54.6875 
L 10.890625 54.6875 
L 10.890625 58.5 
Q 10.890625 67.625 15.140625 71.796875 
Q 19.390625 75.984375 28.609375 75.984375 
z
" id="DejaVuSans-102"/>
      <path d="M 54.890625 33.015625 
L 54.890625 0 
L 45.90625 0 
L 45.90625 32.71875 
Q 45.90625 40.484375 42.875 44.328125 
Q 39.84375 48.1875 33.796875 48.1875 
Q 26.515625 48.1875 22.3125 43.546875 
Q 18.109375 38.921875 18.109375 30.90625 
L 18.109375 0 
L 9.078125 0 
L 9.078125 54.6875 
L 18.109375 54.6875 
L 18.109375 46.1875 
Q 21.34375 51.125 25.703125 53.5625 
Q 30.078125 56 35.796875 56 
Q 45.21875 56 50.046875 50.171875 
Q 54.890625 44.34375 54.890625 33.015625 
z
" id="DejaVuSans-110"/>
      <path d="M 48.78125 52.59375 
L 48.78125 44.1875 
Q 44.96875 46.296875 41.140625 47.34375 
Q 37.3125 48.390625 33.40625 48.390625 
Q 24.65625 48.390625 19.8125 42.84375 
Q 14.984375 37.3125 14.984375 27.296875 
Q 14.984375 17.28125 19.8125 11.734375 
Q 24.65625 6.203125 33.40625 6.203125 
Q 37.3125 6.203125 41.140625 7.25 
Q 44.96875 8.296875 48.78125 10.40625 
L 48.78125 2.09375 
Q 45.015625 0.34375 40.984375 -0.53125 
Q 36.96875 -1.421875 32.421875 -1.421875 
Q 20.0625 -1.421875 12.78125 6.34375 
Q 5.515625 14.109375 5.515625 27.296875 
Q 5.515625 40.671875 12.859375 48.328125 
Q 20.21875 56 33.015625 56 
Q 37.15625 56 41.109375 55.140625 
Q 45.0625 54.296875 48.78125 52.59375 
z
M 36.109375 0 
Q 38.78125 -3.03125 40.09375 -5.59375 
Q 41.421875 -8.15625 41.421875 -10.5 
Q 41.421875 -14.84375 38.484375 -17.0625 
Q 35.5625 -19.28125 29.796875 -19.28125 
Q 27.5625 -19.28125 25.4375 -18.984375 
Q 23.3125 -18.703125 21.203125 -18.109375 
L 21.203125 -11.71875 
Q 22.875 -12.546875 24.671875 -12.90625 
Q 26.484375 -13.28125 28.78125 -13.28125 
Q 31.65625 -13.28125 33.125 -12.109375 
Q 34.59375 -10.9375 34.59375 -8.6875 
Q 34.59375 -7.234375 33.53125 -5.109375 
Q 32.484375 -2.984375 30.296875 0 
z
" id="DejaVuSans-231"/>
      <path d="M 34.28125 27.484375 
Q 23.390625 27.484375 19.1875 25 
Q 14.984375 22.515625 14.984375 16.5 
Q 14.984375 11.71875 18.140625 8.90625 
Q 21.296875 6.109375 26.703125 6.109375 
Q 34.1875 6.109375 38.703125 11.40625 
Q 43.21875 16.703125 43.21875 25.484375 
L 43.21875 27.484375 
z
M 52.203125 31.203125 
L 52.203125 0 
L 43.21875 0 
L 43.21875 8.296875 
Q 40.140625 3.328125 35.546875 0.953125 
Q 30.953125 -1.421875 24.3125 -1.421875 
Q 15.921875 -1.421875 10.953125 3.296875 
Q 6 8.015625 6 15.921875 
Q 6 25.140625 12.171875 29.828125 
Q 18.359375 34.515625 30.609375 34.515625 
L 43.21875 34.515625 
L 43.21875 35.40625 
Q 43.21875 41.609375 39.140625 45 
Q 35.0625 48.390625 27.6875 48.390625 
Q 23 48.390625 18.546875 47.265625 
Q 14.109375 46.140625 10.015625 43.890625 
L 10.015625 52.203125 
Q 14.9375 54.109375 19.578125 55.046875 
Q 24.21875 56 28.609375 56 
Q 40.484375 56 46.34375 49.84375 
Q 52.203125 43.703125 52.203125 31.203125 
z
M 28.8125 66.890625 
L 26.015625 69.578125 
Q 24.953125 70.5625 24.140625 71.015625 
Q 23.34375 71.484375 22.703125 71.484375 
Q 20.84375 71.484375 19.96875 69.703125 
Q 19.09375 67.921875 18.984375 63.921875 
L 12.890625 63.921875 
Q 12.984375 70.515625 15.46875 74.09375 
Q 17.96875 77.6875 22.40625 77.6875 
Q 24.265625 77.6875 25.828125 77 
Q 27.390625 76.3125 29.203125 74.703125 
L 31.984375 72.015625 
Q 33.046875 71.046875 33.859375 70.578125 
Q 34.671875 70.125 35.296875 70.125 
Q 37.15625 70.125 38.03125 71.90625 
Q 38.90625 73.6875 39.015625 77.6875 
L 45.109375 77.6875 
Q 45.015625 71.09375 42.515625 67.5 
Q 40.03125 63.921875 35.59375 63.921875 
Q 33.734375 63.921875 32.171875 64.59375 
Q 30.609375 65.28125 28.8125 66.890625 
z
" id="DejaVuSans-227"/>
     </defs>
     <use xlink:href="#DejaVuSans-78"/>
     <use x="74.804688" xlink:href="#DejaVuSans-250"/>
     <use x="138.183594" xlink:href="#DejaVuSans-109"/>
     <use x="235.595703" xlink:href="#DejaVuSans-101"/>
     <use x="297.119141" xlink:href="#DejaVuSans-114"/>
     <use x="335.982422" xlink:href="#DejaVuSans-111"/>
     <use x="397.164062" xlink:href="#DejaVuSans-32"/>
     <use x="428.951172" xlink:href="#DejaVuSans-109"/>
     <use x="526.363281" xlink:href="#DejaVuSans-233"/>
     <use x="587.886719" xlink:href="#DejaVuSans-100"/>
     <use x="651.363281" xlink:href="#DejaVuSans-105"/>
     <use x="679.146484" xlink:href="#DejaVuSans-111"/>
     <use x="740.328125" xlink:href="#DejaVuSans-32"/>
     <use x="772.115234" xlink:href="#DejaVuSans-100"/>
     <use x="835.591797" xlink:href="#DejaVuSans-101"/>
     <use x="897.115234" xlink:href="#DejaVuSans-32"/>
     <use x="928.902344" xlink:href="#DejaVuSans-114"/>
     <use x="967.765625" xlink:href="#DejaVuSans-101"/>
     <use x="1029.289062" xlink:href="#DejaVuSans-103"/>
     <use x="1092.765625" xlink:href="#DejaVuSans-105"/>
     <use x="1120.548828" xlink:href="#DejaVuSans-245"/>
     <use x="1181.730469" xlink:href="#DejaVuSans-101"/>
     <use x="1243.253906" xlink:href="#DejaVuSans-115"/>
     <use x="1295.353516" xlink:href="#DejaVuSans-32"/>
     <use x="1327.140625" xlink:href="#DejaVuSans-101"/>
     <use x="1388.664062" xlink:href="#DejaVuSans-109"/>
     <use x="1486.076172" xlink:href="#DejaVuSans-32"/>
     <use x="1517.863281" xlink:href="#DejaVuSans-102"/>
     <use x="1553.068359" xlink:href="#DejaVuSans-117"/>
     <use x="1616.447266" xlink:href="#DejaVuSans-110"/>
     <use x="1679.826172" xlink:href="#DejaVuSans-231"/>
     <use x="1734.806641" xlink:href="#DejaVuSans-227"/>
     <use x="1796.085938" xlink:href="#DejaVuSans-111"/>
     <use x="1857.267578" xlink:href="#DejaVuSans-32"/>
     <use x="1889.054688" xlink:href="#DejaVuSans-100"/>
     <use x="1952.53125" xlink:href="#DejaVuSans-111"/>
    </g>
    <!-- tempo discreto para o experimento GRASP_ILS_GA_20R -->
    <g transform="translate(61.999063 30.2355)scale(0.12 -0.12)">
     <defs>
      <path d="M 34.28125 27.484375 
Q 23.390625 27.484375 19.1875 25 
Q 14.984375 22.515625 14.984375 16.5 
Q 14.984375 11.71875 18.140625 8.90625 
Q 21.296875 6.109375 26.703125 6.109375 
Q 34.1875 6.109375 38.703125 11.40625 
Q 43.21875 16.703125 43.21875 25.484375 
L 43.21875 27.484375 
z
M 52.203125 31.203125 
L 52.203125 0 
L 43.21875 0 
L 43.21875 8.296875 
Q 40.140625 3.328125 35.546875 0.953125 
Q 30.953125 -1.421875 24.3125 -1.421875 
Q 15.921875 -1.421875 10.953125 3.296875 
Q 6 8.015625 6 15.921875 
Q 6 25.140625 12.171875 29.828125 
Q 18.359375 34.515625 30.609375 34.515625 
L 43.21875 34.515625 
L 43.21875 35.40625 
Q 43.21875 41.609375 39.140625 45 
Q 35.0625 48.390625 27.6875 48.390625 
Q 23 48.390625 18.546875 47.265625 
Q 14.109375 46.140625 10.015625 43.890625 
L 10.015625 52.203125 
Q 14.9375 54.109375 19.578125 55.046875 
Q 24.21875 56 28.609375 56 
Q 40.484375 56 46.34375 49.84375 
Q 52.203125 43.703125 52.203125 31.203125 
z
" id="DejaVuSans-97"/>
      <path d="M 54.890625 54.6875 
L 35.109375 28.078125 
L 55.90625 0 
L 45.3125 0 
L 29.390625 21.484375 
L 13.484375 0 
L 2.875 0 
L 24.125 28.609375 
L 4.6875 54.6875 
L 15.28125 54.6875 
L 29.78125 35.203125 
L 44.28125 54.6875 
z
" id="DejaVuSans-120"/>
      <path d="M 59.515625 10.40625 
L 59.515625 29.984375 
L 43.40625 29.984375 
L 43.40625 38.09375 
L 69.28125 38.09375 
L 69.28125 6.78125 
Q 63.578125 2.734375 56.6875 0.65625 
Q 49.8125 -1.421875 42 -1.421875 
Q 24.90625 -1.421875 15.25 8.5625 
Q 5.609375 18.5625 5.609375 36.375 
Q 5.609375 54.25 15.25 64.234375 
Q 24.90625 74.21875 42 74.21875 
Q 49.125 74.21875 55.546875 72.453125 
Q 61.96875 70.703125 67.390625 67.28125 
L 67.390625 56.78125 
Q 61.921875 61.421875 55.765625 63.765625 
Q 49.609375 66.109375 42.828125 66.109375 
Q 29.4375 66.109375 22.71875 58.640625 
Q 16.015625 51.171875 16.015625 36.375 
Q 16.015625 21.625 22.71875 14.15625 
Q 29.4375 6.6875 42.828125 6.6875 
Q 48.046875 6.6875 52.140625 7.59375 
Q 56.25 8.5 59.515625 10.40625 
z
" id="DejaVuSans-71"/>
      <path d="M 44.390625 34.1875 
Q 47.5625 33.109375 50.5625 29.59375 
Q 53.5625 26.078125 56.59375 19.921875 
L 66.609375 0 
L 56 0 
L 46.6875 18.703125 
Q 43.0625 26.03125 39.671875 28.421875 
Q 36.28125 30.8125 30.421875 30.8125 
L 19.671875 30.8125 
L 19.671875 0 
L 9.8125 0 
L 9.8125 72.90625 
L 32.078125 72.90625 
Q 44.578125 72.90625 50.734375 67.671875 
Q 56.890625 62.453125 56.890625 51.90625 
Q 56.890625 45.015625 53.6875 40.46875 
Q 50.484375 35.9375 44.390625 34.1875 
z
M 19.671875 64.796875 
L 19.671875 38.921875 
L 32.078125 38.921875 
Q 39.203125 38.921875 42.84375 42.21875 
Q 46.484375 45.515625 46.484375 51.90625 
Q 46.484375 58.296875 42.84375 61.546875 
Q 39.203125 64.796875 32.078125 64.796875 
z
" id="DejaVuSans-82"/>
      <path d="M 34.1875 63.1875 
L 20.796875 26.90625 
L 47.609375 26.90625 
z
M 28.609375 72.90625 
L 39.796875 72.90625 
L 67.578125 0 
L 57.328125 0 
L 50.6875 18.703125 
L 17.828125 18.703125 
L 11.1875 0 
L 0.78125 0 
z
" id="DejaVuSans-65"/>
      <path d="M 53.515625 70.515625 
L 53.515625 60.890625 
Q 47.90625 63.578125 42.921875 64.890625 
Q 37.9375 66.21875 33.296875 66.21875 
Q 25.25 66.21875 20.875 63.09375 
Q 16.5 59.96875 16.5 54.203125 
Q 16.5 49.359375 19.40625 46.890625 
Q 22.3125 44.4375 30.421875 42.921875 
L 36.375 41.703125 
Q 47.40625 39.59375 52.65625 34.296875 
Q 57.90625 29 57.90625 20.125 
Q 57.90625 9.515625 50.796875 4.046875 
Q 43.703125 -1.421875 29.984375 -1.421875 
Q 24.8125 -1.421875 18.96875 -0.25 
Q 13.140625 0.921875 6.890625 3.21875 
L 6.890625 13.375 
Q 12.890625 10.015625 18.65625 8.296875 
Q 24.421875 6.59375 29.984375 6.59375 
Q 38.421875 6.59375 43.015625 9.90625 
Q 47.609375 13.234375 47.609375 19.390625 
Q 47.609375 24.75 44.3125 27.78125 
Q 41.015625 30.8125 33.5 32.328125 
L 27.484375 33.5 
Q 16.453125 35.6875 11.515625 40.375 
Q 6.59375 45.0625 6.59375 53.421875 
Q 6.59375 63.09375 13.40625 68.65625 
Q 20.21875 74.21875 32.171875 74.21875 
Q 37.3125 74.21875 42.625 73.28125 
Q 47.953125 72.359375 53.515625 70.515625 
z
" id="DejaVuSans-83"/>
      <path d="M 19.671875 64.796875 
L 19.671875 37.40625 
L 32.078125 37.40625 
Q 38.96875 37.40625 42.71875 40.96875 
Q 46.484375 44.53125 46.484375 51.125 
Q 46.484375 57.671875 42.71875 61.234375 
Q 38.96875 64.796875 32.078125 64.796875 
z
M 9.8125 72.90625 
L 32.078125 72.90625 
Q 44.34375 72.90625 50.609375 67.359375 
Q 56.890625 61.8125 56.890625 51.125 
Q 56.890625 40.328125 50.609375 34.8125 
Q 44.34375 29.296875 32.078125 29.296875 
L 19.671875 29.296875 
L 19.671875 0 
L 9.8125 0 
z
" id="DejaVuSans-80"/>
      <path d="M 50.984375 -16.609375 
L 50.984375 -23.578125 
L -0.984375 -23.578125 
L -0.984375 -16.609375 
z
" id="DejaVuSans-95"/>
      <path d="M 9.8125 72.90625 
L 19.671875 72.90625 
L 19.671875 0 
L 9.8125 0 
z
" id="DejaVuSans-73"/>
      <path d="M 9.8125 72.90625 
L 19.671875 72.90625 
L 19.671875 8.296875 
L 55.171875 8.296875 
L 55.171875 0 
L 9.8125 0 
z
" id="DejaVuSans-76"/>
     </defs>
     <use xlink:href="#DejaVuSans-116"/>
     <use x="39.208984" xlink:href="#DejaVuSans-101"/>
     <use x="100.732422" xlink:href="#DejaVuSans-109"/>
     <use x="198.144531" xlink:href="#DejaVuSans-112"/>
     <use x="261.621094" xlink:href="#DejaVuSans-111"/>
     <use x="322.802734" xlink:href="#DejaVuSans-32"/>
     <use x="354.589844" xlink:href="#DejaVuSans-100"/>
     <use x="418.066406" xlink:href="#DejaVuSans-105"/>
     <use x="445.849609" xlink:href="#DejaVuSans-115"/>
     <use x="497.949219" xlink:href="#DejaVuSans-99"/>
     <use x="552.929688" xlink:href="#DejaVuSans-114"/>
     <use x="591.792969" xlink:href="#DejaVuSans-101"/>
     <use x="653.316406" xlink:href="#DejaVuSans-116"/>
     <use x="692.525391" xlink:href="#DejaVuSans-111"/>
     <use x="753.707031" xlink:href="#DejaVuSans-32"/>
     <use x="785.494141" xlink:href="#DejaVuSans-112"/>
     <use x="848.970703" xlink:href="#DejaVuSans-97"/>
     <use x="910.25" xlink:href="#DejaVuSans-114"/>
     <use x="951.363281" xlink:href="#DejaVuSans-97"/>
     <use x="1012.642578" xlink:href="#DejaVuSans-32"/>
     <use x="1044.429688" xlink:href="#DejaVuSans-111"/>
     <use x="1105.611328" xlink:href="#DejaVuSans-32"/>
     <use x="1137.398438" xlink:href="#DejaVuSans-101"/>
     <use x="1197.171875" xlink:href="#DejaVuSans-120"/>
     <use x="1256.351562" xlink:href="#DejaVuSans-112"/>
     <use x="1319.828125" xlink:href="#DejaVuSans-101"/>
     <use x="1381.351562" xlink:href="#DejaVuSans-114"/>
     <use x="1422.464844" xlink:href="#DejaVuSans-105"/>
     <use x="1450.248047" xlink:href="#DejaVuSans-109"/>
     <use x="1547.660156" xlink:href="#DejaVuSans-101"/>
     <use x="1609.183594" xlink:href="#DejaVuSans-110"/>
     <use x="1672.5625" xlink:href="#DejaVuSans-116"/>
     <use x="1711.771484" xlink:href="#DejaVuSans-111"/>
     <use x="1772.953125" xlink:href="#DejaVuSans-32"/>
     <use x="1804.740234" xlink:href="#DejaVuSans-71"/>
     <use x="1882.230469" xlink:href="#DejaVuSans-82"/>
     <use x="1947.712891" xlink:href="#DejaVuSans-65"/>
     <use x="2016.121094" xlink:href="#DejaVuSans-83"/>
     <use x="2079.597656" xlink:href="#DejaVuSans-80"/>
     <use x="2139.900391" xlink:href="#DejaVuSans-95"/>
     <use x="2189.900391" xlink:href="#DejaVuSans-73"/>
     <use x="2219.392578" xlink:href="#DejaVuSans-76"/>
     <use x="2275.105469" xlink:href="#DejaVuSans-83"/>
     <use x="2338.582031" xlink:href="#DejaVuSans-95"/>
     <use x="2388.582031" xlink:href="#DejaVuSans-71"/>
     <use x="2466.072266" xlink:href="#DejaVuSans-65"/>
     <use x="2534.480469" xlink:href="#DejaVuSans-95"/>
     <use x="2584.480469" xlink:href="#DejaVuSans-50"/>
     <use x="2648.103516" xlink:href="#DejaVuSans-48"/>
     <use x="2711.726562" xlink:href="#DejaVuSans-82"/>
    </g>
   </g>
   <g id="legend_1">
    <g id="patch_7">
     <path d="M 57.314063 58.913625 
L 126.145313 58.913625 
Q 128.145313 58.913625 128.145313 56.913625 
L 128.145313 43.2355 
Q 128.145313 41.2355 126.145313 41.2355 
L 57.314063 41.2355 
Q 55.314063 41.2355 55.314063 43.2355 
L 55.314063 56.913625 
Q 55.314063 58.913625 57.314063 58.913625 
z
" style="fill:#ffffff;opacity:0.8;stroke:#cccccc;stroke-linejoin:miter;"/>
    </g>
    <g id="line2d_19">
     <path d="M 59.314063 49.333937 
L 79.314063 49.333937 
" style="fill:none;stroke:#1f77b4;stroke-linecap:square;stroke-width:1.5;"/>
    </g>
    <g id="line2d_20"/>
    <g id="text_21">
     <!-- regions -->
     <g transform="translate(87.314063 52.833937)scale(0.1 -0.1)">
      <use xlink:href="#DejaVuSans-114"/>
      <use x="38.863281" xlink:href="#DejaVuSans-101"/>
      <use x="100.386719" xlink:href="#DejaVuSans-103"/>
      <use x="163.863281" xlink:href="#DejaVuSans-105"/>
      <use x="191.646484" xlink:href="#DejaVuSans-111"/>
      <use x="252.828125" xlink:href="#DejaVuSans-110"/>
      <use x="316.207031" xlink:href="#DejaVuSans-115"/>
     </g>
    </g>
   </g>
  </g>
 </g>
 <defs>
  <clipPath id="pa8733a53ba">
   <rect height="266.112" width="357.12" x="50.314063" y="36.2355"/>
  </clipPath>
 </defs>
</svg>
