<?xml version="1.0" encoding="utf-8" standalone="no"?>
<!DOCTYPE svg PUBLIC "-//W3C//DTD SVG 1.1//EN"
  "http://www.w3.org/Graphics/SVG/1.1/DTD/svg11.dtd">
<!-- Created with matplotlib (https://matplotlib.org/) -->
<svg height="339.90375pt" version="1.1" viewBox="0 0 405.403125 339.90375" width="405.403125pt" xmlns="http://www.w3.org/2000/svg" xmlns:xlink="http://www.w3.org/1999/xlink">
 <metadata>
  <rdf:RDF xmlns:cc="http://creativecommons.org/ns#" xmlns:dc="http://purl.org/dc/elements/1.1/" xmlns:rdf="http://www.w3.org/1999/02/22-rdf-syntax-ns#">
   <cc:Work>
    <dc:type rdf:resource="http://purl.org/dc/dcmitype/StillImage"/>
    <dc:date>2022-03-16T21:57:18.163893</dc:date>
    <dc:format>image/svg+xml</dc:format>
    <dc:creator>
     <cc:Agent>
      <dc:title>Matplotlib v3.3.2, https://matplotlib.org/</dc:title>
     </cc:Agent>
    </dc:creator>
   </cc:Work>
  </rdf:RDF>
 </metadata>
 <defs>
  <style type="text/css">*{stroke-linecap:butt;stroke-linejoin:round;}</style>
 </defs>
 <g id="figure_1">
  <g id="patch_1">
   <path d="M 0 339.90375 
L 405.403125 339.90375 
L 405.403125 0 
L 0 0 
z
" style="fill:#ffffff;"/>
  </g>
  <g id="axes_1">
   <g id="patch_2">
    <path d="M 34.410938 302.3475 
L 391.530938 302.3475 
L 391.530938 36.2355 
L 34.410938 36.2355 
z
" style="fill:#ffffff;"/>
   </g>
   <g id="matplotlib.axis_1">
    <g id="xtick_1">
     <g id="line2d_1">
      <defs>
       <path d="M 0 0 
L 0 3.5 
" id="m77e9055981" style="stroke:#000000;stroke-width:0.8;"/>
      </defs>
      <g>
       <use style="stroke:#000000;stroke-width:0.8;" x="50.31901" xlink:href="#m77e9055981" y="302.3475"/>
      </g>
     </g>
     <g id="text_1">
      <!-- 0 -->
      <g transform="translate(47.13776 316.945937)scale(0.1 -0.1)">
       <defs>
        <path d="M 31.78125 66.40625 
Q 24.171875 66.40625 20.328125 58.90625 
Q 16.5 51.421875 16.5 36.375 
Q 16.5 21.390625 20.328125 13.890625 
Q 24.171875 6.390625 31.78125 6.390625 
Q 39.453125 6.390625 43.28125 13.890625 
Q 47.125 21.390625 47.125 36.375 
Q 47.125 51.421875 43.28125 58.90625 
Q 39.453125 66.40625 31.78125 66.40625 
z
M 31.78125 74.21875 
Q 44.046875 74.21875 50.515625 64.515625 
Q 56.984375 54.828125 56.984375 36.375 
Q 56.984375 17.96875 50.515625 8.265625 
Q 44.046875 -1.421875 31.78125 -1.421875 
Q 19.53125 -1.421875 13.0625 8.265625 
Q 6.59375 17.96875 6.59375 36.375 
Q 6.59375 54.828125 13.0625 64.515625 
Q 19.53125 74.21875 31.78125 74.21875 
z
" id="DejaVuSans-48"/>
       </defs>
       <use xlink:href="#DejaVuSans-48"/>
      </g>
     </g>
    </g>
    <g id="xtick_2">
     <g id="line2d_2">
      <g>
       <use style="stroke:#000000;stroke-width:0.8;" x="115.249919" xlink:href="#m77e9055981" y="302.3475"/>
      </g>
     </g>
     <g id="text_2">
      <!-- 200 -->
      <g transform="translate(105.706169 316.945937)scale(0.1 -0.1)">
       <defs>
        <path d="M 19.1875 8.296875 
L 53.609375 8.296875 
L 53.609375 0 
L 7.328125 0 
L 7.328125 8.296875 
Q 12.9375 14.109375 22.625 23.890625 
Q 32.328125 33.6875 34.8125 36.53125 
Q 39.546875 41.84375 41.421875 45.53125 
Q 43.3125 49.21875 43.3125 52.78125 
Q 43.3125 58.59375 39.234375 62.25 
Q 35.15625 65.921875 28.609375 65.921875 
Q 23.96875 65.921875 18.8125 64.3125 
Q 13.671875 62.703125 7.8125 59.421875 
L 7.8125 69.390625 
Q 13.765625 71.78125 18.9375 73 
Q 24.125 74.21875 28.421875 74.21875 
Q 39.75 74.21875 46.484375 68.546875 
Q 53.21875 62.890625 53.21875 53.421875 
Q 53.21875 48.921875 51.53125 44.890625 
Q 49.859375 40.875 45.40625 35.40625 
Q 44.1875 33.984375 37.640625 27.21875 
Q 31.109375 20.453125 19.1875 8.296875 
z
" id="DejaVuSans-50"/>
       </defs>
       <use xlink:href="#DejaVuSans-50"/>
       <use x="63.623047" xlink:href="#DejaVuSans-48"/>
       <use x="127.246094" xlink:href="#DejaVuSans-48"/>
      </g>
     </g>
    </g>
    <g id="xtick_3">
     <g id="line2d_3">
      <g>
       <use style="stroke:#000000;stroke-width:0.8;" x="180.180828" xlink:href="#m77e9055981" y="302.3475"/>
      </g>
     </g>
     <g id="text_3">
      <!-- 400 -->
      <g transform="translate(170.637078 316.945937)scale(0.1 -0.1)">
       <defs>
        <path d="M 37.796875 64.3125 
L 12.890625 25.390625 
L 37.796875 25.390625 
z
M 35.203125 72.90625 
L 47.609375 72.90625 
L 47.609375 25.390625 
L 58.015625 25.390625 
L 58.015625 17.1875 
L 47.609375 17.1875 
L 47.609375 0 
L 37.796875 0 
L 37.796875 17.1875 
L 4.890625 17.1875 
L 4.890625 26.703125 
z
" id="DejaVuSans-52"/>
       </defs>
       <use xlink:href="#DejaVuSans-52"/>
       <use x="63.623047" xlink:href="#DejaVuSans-48"/>
       <use x="127.246094" xlink:href="#DejaVuSans-48"/>
      </g>
     </g>
    </g>
    <g id="xtick_4">
     <g id="line2d_4">
      <g>
       <use style="stroke:#000000;stroke-width:0.8;" x="245.111738" xlink:href="#m77e9055981" y="302.3475"/>
      </g>
     </g>
     <g id="text_4">
      <!-- 600 -->
      <g transform="translate(235.567988 316.945937)scale(0.1 -0.1)">
       <defs>
        <path d="M 33.015625 40.375 
Q 26.375 40.375 22.484375 35.828125 
Q 18.609375 31.296875 18.609375 23.390625 
Q 18.609375 15.53125 22.484375 10.953125 
Q 26.375 6.390625 33.015625 6.390625 
Q 39.65625 6.390625 43.53125 10.953125 
Q 47.40625 15.53125 47.40625 23.390625 
Q 47.40625 31.296875 43.53125 35.828125 
Q 39.65625 40.375 33.015625 40.375 
z
M 52.59375 71.296875 
L 52.59375 62.3125 
Q 48.875 64.0625 45.09375 64.984375 
Q 41.3125 65.921875 37.59375 65.921875 
Q 27.828125 65.921875 22.671875 59.328125 
Q 17.53125 52.734375 16.796875 39.40625 
Q 19.671875 43.65625 24.015625 45.921875 
Q 28.375 48.1875 33.59375 48.1875 
Q 44.578125 48.1875 50.953125 41.515625 
Q 57.328125 34.859375 57.328125 23.390625 
Q 57.328125 12.15625 50.6875 5.359375 
Q 44.046875 -1.421875 33.015625 -1.421875 
Q 20.359375 -1.421875 13.671875 8.265625 
Q 6.984375 17.96875 6.984375 36.375 
Q 6.984375 53.65625 15.1875 63.9375 
Q 23.390625 74.21875 37.203125 74.21875 
Q 40.921875 74.21875 44.703125 73.484375 
Q 48.484375 72.75 52.59375 71.296875 
z
" id="DejaVuSans-54"/>
       </defs>
       <use xlink:href="#DejaVuSans-54"/>
       <use x="63.623047" xlink:href="#DejaVuSans-48"/>
       <use x="127.246094" xlink:href="#DejaVuSans-48"/>
      </g>
     </g>
    </g>
    <g id="xtick_5">
     <g id="line2d_5">
      <g>
       <use style="stroke:#000000;stroke-width:0.8;" x="310.042647" xlink:href="#m77e9055981" y="302.3475"/>
      </g>
     </g>
     <g id="text_5">
      <!-- 800 -->
      <g transform="translate(300.498897 316.945937)scale(0.1 -0.1)">
       <defs>
        <path d="M 31.78125 34.625 
Q 24.75 34.625 20.71875 30.859375 
Q 16.703125 27.09375 16.703125 20.515625 
Q 16.703125 13.921875 20.71875 10.15625 
Q 24.75 6.390625 31.78125 6.390625 
Q 38.8125 6.390625 42.859375 10.171875 
Q 46.921875 13.96875 46.921875 20.515625 
Q 46.921875 27.09375 42.890625 30.859375 
Q 38.875 34.625 31.78125 34.625 
z
M 21.921875 38.8125 
Q 15.578125 40.375 12.03125 44.71875 
Q 8.5 49.078125 8.5 55.328125 
Q 8.5 64.0625 14.71875 69.140625 
Q 20.953125 74.21875 31.78125 74.21875 
Q 42.671875 74.21875 48.875 69.140625 
Q 55.078125 64.0625 55.078125 55.328125 
Q 55.078125 49.078125 51.53125 44.71875 
Q 48 40.375 41.703125 38.8125 
Q 48.828125 37.15625 52.796875 32.3125 
Q 56.78125 27.484375 56.78125 20.515625 
Q 56.78125 9.90625 50.3125 4.234375 
Q 43.84375 -1.421875 31.78125 -1.421875 
Q 19.734375 -1.421875 13.25 4.234375 
Q 6.78125 9.90625 6.78125 20.515625 
Q 6.78125 27.484375 10.78125 32.3125 
Q 14.796875 37.15625 21.921875 38.8125 
z
M 18.3125 54.390625 
Q 18.3125 48.734375 21.84375 45.5625 
Q 25.390625 42.390625 31.78125 42.390625 
Q 38.140625 42.390625 41.71875 45.5625 
Q 45.3125 48.734375 45.3125 54.390625 
Q 45.3125 60.0625 41.71875 63.234375 
Q 38.140625 66.40625 31.78125 66.40625 
Q 25.390625 66.40625 21.84375 63.234375 
Q 18.3125 60.0625 18.3125 54.390625 
z
" id="DejaVuSans-56"/>
       </defs>
       <use xlink:href="#DejaVuSans-56"/>
       <use x="63.623047" xlink:href="#DejaVuSans-48"/>
       <use x="127.246094" xlink:href="#DejaVuSans-48"/>
      </g>
     </g>
    </g>
    <g id="xtick_6">
     <g id="line2d_6">
      <g>
       <use style="stroke:#000000;stroke-width:0.8;" x="374.973556" xlink:href="#m77e9055981" y="302.3475"/>
      </g>
     </g>
     <g id="text_6">
      <!-- 1000 -->
      <g transform="translate(362.248556 316.945937)scale(0.1 -0.1)">
       <defs>
        <path d="M 12.40625 8.296875 
L 28.515625 8.296875 
L 28.515625 63.921875 
L 10.984375 60.40625 
L 10.984375 69.390625 
L 28.421875 72.90625 
L 38.28125 72.90625 
L 38.28125 8.296875 
L 54.390625 8.296875 
L 54.390625 0 
L 12.40625 0 
z
" id="DejaVuSans-49"/>
       </defs>
       <use xlink:href="#DejaVuSans-49"/>
       <use x="63.623047" xlink:href="#DejaVuSans-48"/>
       <use x="127.246094" xlink:href="#DejaVuSans-48"/>
       <use x="190.869141" xlink:href="#DejaVuSans-48"/>
      </g>
     </g>
    </g>
    <g id="text_7">
     <!-- Tempo discreto -->
     <g transform="translate(175.04125 330.624062)scale(0.1 -0.1)">
      <defs>
       <path d="M -0.296875 72.90625 
L 61.375 72.90625 
L 61.375 64.59375 
L 35.5 64.59375 
L 35.5 0 
L 25.59375 0 
L 25.59375 64.59375 
L -0.296875 64.59375 
z
" id="DejaVuSans-84"/>
       <path d="M 56.203125 29.59375 
L 56.203125 25.203125 
L 14.890625 25.203125 
Q 15.484375 15.921875 20.484375 11.0625 
Q 25.484375 6.203125 34.421875 6.203125 
Q 39.59375 6.203125 44.453125 7.46875 
Q 49.3125 8.734375 54.109375 11.28125 
L 54.109375 2.78125 
Q 49.265625 0.734375 44.1875 -0.34375 
Q 39.109375 -1.421875 33.890625 -1.421875 
Q 20.796875 -1.421875 13.15625 6.1875 
Q 5.515625 13.8125 5.515625 26.8125 
Q 5.515625 40.234375 12.765625 48.109375 
Q 20.015625 56 32.328125 56 
Q 43.359375 56 49.78125 48.890625 
Q 56.203125 41.796875 56.203125 29.59375 
z
M 47.21875 32.234375 
Q 47.125 39.59375 43.09375 43.984375 
Q 39.0625 48.390625 32.421875 48.390625 
Q 24.90625 48.390625 20.390625 44.140625 
Q 15.875 39.890625 15.1875 32.171875 
z
" id="DejaVuSans-101"/>
       <path d="M 52 44.1875 
Q 55.375 50.25 60.0625 53.125 
Q 64.75 56 71.09375 56 
Q 79.640625 56 84.28125 50.015625 
Q 88.921875 44.046875 88.921875 33.015625 
L 88.921875 0 
L 79.890625 0 
L 79.890625 32.71875 
Q 79.890625 40.578125 77.09375 44.375 
Q 74.3125 48.1875 68.609375 48.1875 
Q 61.625 48.1875 57.5625 43.546875 
Q 53.515625 38.921875 53.515625 30.90625 
L 53.515625 0 
L 44.484375 0 
L 44.484375 32.71875 
Q 44.484375 40.625 41.703125 44.40625 
Q 38.921875 48.1875 33.109375 48.1875 
Q 26.21875 48.1875 22.15625 43.53125 
Q 18.109375 38.875 18.109375 30.90625 
L 18.109375 0 
L 9.078125 0 
L 9.078125 54.6875 
L 18.109375 54.6875 
L 18.109375 46.1875 
Q 21.1875 51.21875 25.484375 53.609375 
Q 29.78125 56 35.6875 56 
Q 41.65625 56 45.828125 52.96875 
Q 50 49.953125 52 44.1875 
z
" id="DejaVuSans-109"/>
       <path d="M 18.109375 8.203125 
L 18.109375 -20.796875 
L 9.078125 -20.796875 
L 9.078125 54.6875 
L 18.109375 54.6875 
L 18.109375 46.390625 
Q 20.953125 51.265625 25.265625 53.625 
Q 29.59375 56 35.59375 56 
Q 45.5625 56 51.78125 48.09375 
Q 58.015625 40.1875 58.015625 27.296875 
Q 58.015625 14.40625 51.78125 6.484375 
Q 45.5625 -1.421875 35.59375 -1.421875 
Q 29.59375 -1.421875 25.265625 0.953125 
Q 20.953125 3.328125 18.109375 8.203125 
z
M 48.6875 27.296875 
Q 48.6875 37.203125 44.609375 42.84375 
Q 40.53125 48.484375 33.40625 48.484375 
Q 26.265625 48.484375 22.1875 42.84375 
Q 18.109375 37.203125 18.109375 27.296875 
Q 18.109375 17.390625 22.1875 11.75 
Q 26.265625 6.109375 33.40625 6.109375 
Q 40.53125 6.109375 44.609375 11.75 
Q 48.6875 17.390625 48.6875 27.296875 
z
" id="DejaVuSans-112"/>
       <path d="M 30.609375 48.390625 
Q 23.390625 48.390625 19.1875 42.75 
Q 14.984375 37.109375 14.984375 27.296875 
Q 14.984375 17.484375 19.15625 11.84375 
Q 23.34375 6.203125 30.609375 6.203125 
Q 37.796875 6.203125 41.984375 11.859375 
Q 46.1875 17.53125 46.1875 27.296875 
Q 46.1875 37.015625 41.984375 42.703125 
Q 37.796875 48.390625 30.609375 48.390625 
z
M 30.609375 56 
Q 42.328125 56 49.015625 48.375 
Q 55.71875 40.765625 55.71875 27.296875 
Q 55.71875 13.875 49.015625 6.21875 
Q 42.328125 -1.421875 30.609375 -1.421875 
Q 18.84375 -1.421875 12.171875 6.21875 
Q 5.515625 13.875 5.515625 27.296875 
Q 5.515625 40.765625 12.171875 48.375 
Q 18.84375 56 30.609375 56 
z
" id="DejaVuSans-111"/>
       <path id="DejaVuSans-32"/>
       <path d="M 45.40625 46.390625 
L 45.40625 75.984375 
L 54.390625 75.984375 
L 54.390625 0 
L 45.40625 0 
L 45.40625 8.203125 
Q 42.578125 3.328125 38.25 0.953125 
Q 33.9375 -1.421875 27.875 -1.421875 
Q 17.96875 -1.421875 11.734375 6.484375 
Q 5.515625 14.40625 5.515625 27.296875 
Q 5.515625 40.1875 11.734375 48.09375 
Q 17.96875 56 27.875 56 
Q 33.9375 56 38.25 53.625 
Q 42.578125 51.265625 45.40625 46.390625 
z
M 14.796875 27.296875 
Q 14.796875 17.390625 18.875 11.75 
Q 22.953125 6.109375 30.078125 6.109375 
Q 37.203125 6.109375 41.296875 11.75 
Q 45.40625 17.390625 45.40625 27.296875 
Q 45.40625 37.203125 41.296875 42.84375 
Q 37.203125 48.484375 30.078125 48.484375 
Q 22.953125 48.484375 18.875 42.84375 
Q 14.796875 37.203125 14.796875 27.296875 
z
" id="DejaVuSans-100"/>
       <path d="M 9.421875 54.6875 
L 18.40625 54.6875 
L 18.40625 0 
L 9.421875 0 
z
M 9.421875 75.984375 
L 18.40625 75.984375 
L 18.40625 64.59375 
L 9.421875 64.59375 
z
" id="DejaVuSans-105"/>
       <path d="M 44.28125 53.078125 
L 44.28125 44.578125 
Q 40.484375 46.53125 36.375 47.5 
Q 32.28125 48.484375 27.875 48.484375 
Q 21.1875 48.484375 17.84375 46.4375 
Q 14.5 44.390625 14.5 40.28125 
Q 14.5 37.15625 16.890625 35.375 
Q 19.28125 33.59375 26.515625 31.984375 
L 29.59375 31.296875 
Q 39.15625 29.25 43.1875 25.515625 
Q 47.21875 21.78125 47.21875 15.09375 
Q 47.21875 7.46875 41.1875 3.015625 
Q 35.15625 -1.421875 24.609375 -1.421875 
Q 20.21875 -1.421875 15.453125 -0.5625 
Q 10.6875 0.296875 5.421875 2 
L 5.421875 11.28125 
Q 10.40625 8.6875 15.234375 7.390625 
Q 20.0625 6.109375 24.8125 6.109375 
Q 31.15625 6.109375 34.5625 8.28125 
Q 37.984375 10.453125 37.984375 14.40625 
Q 37.984375 18.0625 35.515625 20.015625 
Q 33.0625 21.96875 24.703125 23.78125 
L 21.578125 24.515625 
Q 13.234375 26.265625 9.515625 29.90625 
Q 5.8125 33.546875 5.8125 39.890625 
Q 5.8125 47.609375 11.28125 51.796875 
Q 16.75 56 26.8125 56 
Q 31.78125 56 36.171875 55.265625 
Q 40.578125 54.546875 44.28125 53.078125 
z
" id="DejaVuSans-115"/>
       <path d="M 48.78125 52.59375 
L 48.78125 44.1875 
Q 44.96875 46.296875 41.140625 47.34375 
Q 37.3125 48.390625 33.40625 48.390625 
Q 24.65625 48.390625 19.8125 42.84375 
Q 14.984375 37.3125 14.984375 27.296875 
Q 14.984375 17.28125 19.8125 11.734375 
Q 24.65625 6.203125 33.40625 6.203125 
Q 37.3125 6.203125 41.140625 7.25 
Q 44.96875 8.296875 48.78125 10.40625 
L 48.78125 2.09375 
Q 45.015625 0.34375 40.984375 -0.53125 
Q 36.96875 -1.421875 32.421875 -1.421875 
Q 20.0625 -1.421875 12.78125 6.34375 
Q 5.515625 14.109375 5.515625 27.296875 
Q 5.515625 40.671875 12.859375 48.328125 
Q 20.21875 56 33.015625 56 
Q 37.15625 56 41.109375 55.140625 
Q 45.0625 54.296875 48.78125 52.59375 
z
" id="DejaVuSans-99"/>
       <path d="M 41.109375 46.296875 
Q 39.59375 47.171875 37.8125 47.578125 
Q 36.03125 48 33.890625 48 
Q 26.265625 48 22.1875 43.046875 
Q 18.109375 38.09375 18.109375 28.8125 
L 18.109375 0 
L 9.078125 0 
L 9.078125 54.6875 
L 18.109375 54.6875 
L 18.109375 46.1875 
Q 20.953125 51.171875 25.484375 53.578125 
Q 30.03125 56 36.53125 56 
Q 37.453125 56 38.578125 55.875 
Q 39.703125 55.765625 41.0625 55.515625 
z
" id="DejaVuSans-114"/>
       <path d="M 18.3125 70.21875 
L 18.3125 54.6875 
L 36.8125 54.6875 
L 36.8125 47.703125 
L 18.3125 47.703125 
L 18.3125 18.015625 
Q 18.3125 11.328125 20.140625 9.421875 
Q 21.96875 7.515625 27.59375 7.515625 
L 36.8125 7.515625 
L 36.8125 0 
L 27.59375 0 
Q 17.1875 0 13.234375 3.875 
Q 9.28125 7.765625 9.28125 18.015625 
L 9.28125 47.703125 
L 2.6875 47.703125 
L 2.6875 54.6875 
L 9.28125 54.6875 
L 9.28125 70.21875 
z
" id="DejaVuSans-116"/>
      </defs>
      <use xlink:href="#DejaVuSans-84"/>
      <use x="44.083984" xlink:href="#DejaVuSans-101"/>
      <use x="105.607422" xlink:href="#DejaVuSans-109"/>
      <use x="203.019531" xlink:href="#DejaVuSans-112"/>
      <use x="266.496094" xlink:href="#DejaVuSans-111"/>
      <use x="327.677734" xlink:href="#DejaVuSans-32"/>
      <use x="359.464844" xlink:href="#DejaVuSans-100"/>
      <use x="422.941406" xlink:href="#DejaVuSans-105"/>
      <use x="450.724609" xlink:href="#DejaVuSans-115"/>
      <use x="502.824219" xlink:href="#DejaVuSans-99"/>
      <use x="557.804688" xlink:href="#DejaVuSans-114"/>
      <use x="596.667969" xlink:href="#DejaVuSans-101"/>
      <use x="658.191406" xlink:href="#DejaVuSans-116"/>
      <use x="697.400391" xlink:href="#DejaVuSans-111"/>
     </g>
    </g>
   </g>
   <g id="matplotlib.axis_2">
    <g id="ytick_1">
     <g id="line2d_7">
      <defs>
       <path d="M 0 0 
L -3.5 0 
" id="m9875a6803b" style="stroke:#000000;stroke-width:0.8;"/>
      </defs>
      <g>
       <use style="stroke:#000000;stroke-width:0.8;" x="34.410938" xlink:href="#m9875a6803b" y="261.790324"/>
      </g>
     </g>
     <g id="text_8">
      <!-- 2 -->
      <g transform="translate(21.048438 265.589542)scale(0.1 -0.1)">
       <use xlink:href="#DejaVuSans-50"/>
      </g>
     </g>
    </g>
    <g id="ytick_2">
     <g id="line2d_8">
      <g>
       <use style="stroke:#000000;stroke-width:0.8;" x="34.410938" xlink:href="#m9875a6803b" y="204.867971"/>
      </g>
     </g>
     <g id="text_9">
      <!-- 4 -->
      <g transform="translate(21.048438 208.667189)scale(0.1 -0.1)">
       <use xlink:href="#DejaVuSans-52"/>
      </g>
     </g>
    </g>
    <g id="ytick_3">
     <g id="line2d_9">
      <g>
       <use style="stroke:#000000;stroke-width:0.8;" x="34.410938" xlink:href="#m9875a6803b" y="147.945618"/>
      </g>
     </g>
     <g id="text_10">
      <!-- 6 -->
      <g transform="translate(21.048438 151.744836)scale(0.1 -0.1)">
       <use xlink:href="#DejaVuSans-54"/>
      </g>
     </g>
    </g>
    <g id="ytick_4">
     <g id="line2d_10">
      <g>
       <use style="stroke:#000000;stroke-width:0.8;" x="34.410938" xlink:href="#m9875a6803b" y="91.023265"/>
      </g>
     </g>
     <g id="text_11">
      <!-- 8 -->
      <g transform="translate(21.048438 94.822483)scale(0.1 -0.1)">
       <use xlink:href="#DejaVuSans-56"/>
      </g>
     </g>
    </g>
    <g id="text_12">
     <!-- Numero de regiões -->
     <g transform="translate(14.96875 216.902437)rotate(-90)scale(0.1 -0.1)">
      <defs>
       <path d="M 9.8125 72.90625 
L 23.09375 72.90625 
L 55.421875 11.921875 
L 55.421875 72.90625 
L 64.984375 72.90625 
L 64.984375 0 
L 51.703125 0 
L 19.390625 60.984375 
L 19.390625 0 
L 9.8125 0 
z
" id="DejaVuSans-78"/>
       <path d="M 8.5 21.578125 
L 8.5 54.6875 
L 17.484375 54.6875 
L 17.484375 21.921875 
Q 17.484375 14.15625 20.5 10.265625 
Q 23.53125 6.390625 29.59375 6.390625 
Q 36.859375 6.390625 41.078125 11.03125 
Q 45.3125 15.671875 45.3125 23.6875 
L 45.3125 54.6875 
L 54.296875 54.6875 
L 54.296875 0 
L 45.3125 0 
L 45.3125 8.40625 
Q 42.046875 3.421875 37.71875 1 
Q 33.40625 -1.421875 27.6875 -1.421875 
Q 18.265625 -1.421875 13.375 4.4375 
Q 8.5 10.296875 8.5 21.578125 
z
M 31.109375 56 
z
" id="DejaVuSans-117"/>
       <path d="M 45.40625 27.984375 
Q 45.40625 37.75 41.375 43.109375 
Q 37.359375 48.484375 30.078125 48.484375 
Q 22.859375 48.484375 18.828125 43.109375 
Q 14.796875 37.75 14.796875 27.984375 
Q 14.796875 18.265625 18.828125 12.890625 
Q 22.859375 7.515625 30.078125 7.515625 
Q 37.359375 7.515625 41.375 12.890625 
Q 45.40625 18.265625 45.40625 27.984375 
z
M 54.390625 6.78125 
Q 54.390625 -7.171875 48.1875 -13.984375 
Q 42 -20.796875 29.203125 -20.796875 
Q 24.46875 -20.796875 20.265625 -20.09375 
Q 16.0625 -19.390625 12.109375 -17.921875 
L 12.109375 -9.1875 
Q 16.0625 -11.328125 19.921875 -12.34375 
Q 23.78125 -13.375 27.78125 -13.375 
Q 36.625 -13.375 41.015625 -8.765625 
Q 45.40625 -4.15625 45.40625 5.171875 
L 45.40625 9.625 
Q 42.625 4.78125 38.28125 2.390625 
Q 33.9375 0 27.875 0 
Q 17.828125 0 11.671875 7.65625 
Q 5.515625 15.328125 5.515625 27.984375 
Q 5.515625 40.671875 11.671875 48.328125 
Q 17.828125 56 27.875 56 
Q 33.9375 56 38.28125 53.609375 
Q 42.625 51.21875 45.40625 46.390625 
L 45.40625 54.6875 
L 54.390625 54.6875 
z
" id="DejaVuSans-103"/>
       <path d="M 30.609375 48.390625 
Q 23.390625 48.390625 19.1875 42.75 
Q 14.984375 37.109375 14.984375 27.296875 
Q 14.984375 17.484375 19.15625 11.84375 
Q 23.34375 6.203125 30.609375 6.203125 
Q 37.796875 6.203125 41.984375 11.859375 
Q 46.1875 17.53125 46.1875 27.296875 
Q 46.1875 37.015625 41.984375 42.703125 
Q 37.796875 48.390625 30.609375 48.390625 
z
M 30.609375 56 
Q 42.328125 56 49.015625 48.375 
Q 55.71875 40.765625 55.71875 27.296875 
Q 55.71875 13.875 49.015625 6.21875 
Q 42.328125 -1.421875 30.609375 -1.421875 
Q 18.84375 -1.421875 12.171875 6.21875 
Q 5.515625 13.875 5.515625 27.296875 
Q 5.515625 40.765625 12.171875 48.375 
Q 18.84375 56 30.609375 56 
z
M 30.4375 66.890625 
L 27.640625 69.578125 
Q 26.578125 70.5625 25.765625 71.015625 
Q 24.96875 71.484375 24.328125 71.484375 
Q 22.46875 71.484375 21.59375 69.703125 
Q 20.71875 67.921875 20.609375 63.921875 
L 14.515625 63.921875 
Q 14.609375 70.515625 17.09375 74.09375 
Q 19.59375 77.6875 24.03125 77.6875 
Q 25.890625 77.6875 27.453125 77 
Q 29.015625 76.3125 30.828125 74.703125 
L 33.609375 72.015625 
Q 34.671875 71.046875 35.484375 70.578125 
Q 36.296875 70.125 36.921875 70.125 
Q 38.78125 70.125 39.65625 71.90625 
Q 40.53125 73.6875 40.640625 77.6875 
L 46.734375 77.6875 
Q 46.640625 71.09375 44.140625 67.5 
Q 41.65625 63.921875 37.21875 63.921875 
Q 35.359375 63.921875 33.796875 64.59375 
Q 32.234375 65.28125 30.4375 66.890625 
z
" id="DejaVuSans-245"/>
      </defs>
      <use xlink:href="#DejaVuSans-78"/>
      <use x="74.804688" xlink:href="#DejaVuSans-117"/>
      <use x="138.183594" xlink:href="#DejaVuSans-109"/>
      <use x="235.595703" xlink:href="#DejaVuSans-101"/>
      <use x="297.119141" xlink:href="#DejaVuSans-114"/>
      <use x="335.982422" xlink:href="#DejaVuSans-111"/>
      <use x="397.164062" xlink:href="#DejaVuSans-32"/>
      <use x="428.951172" xlink:href="#DejaVuSans-100"/>
      <use x="492.427734" xlink:href="#DejaVuSans-101"/>
      <use x="553.951172" xlink:href="#DejaVuSans-32"/>
      <use x="585.738281" xlink:href="#DejaVuSans-114"/>
      <use x="624.601562" xlink:href="#DejaVuSans-101"/>
      <use x="686.125" xlink:href="#DejaVuSans-103"/>
      <use x="749.601562" xlink:href="#DejaVuSans-105"/>
      <use x="777.384766" xlink:href="#DejaVuSans-245"/>
      <use x="838.566406" xlink:href="#DejaVuSans-101"/>
      <use x="900.089844" xlink:href="#DejaVuSans-115"/>
     </g>
    </g>
   </g>
   <g id="line2d_11">
    <path clip-path="url(#pc7f7a3993a)" d="M 50.643665 290.2515 
L 50.968319 290.2515 
L 51.292974 261.790324 
L 51.617628 261.790324 
L 51.942283 235.916527 
L 52.266938 233.329147 
L 132.131956 233.329147 
L 132.45661 230.741767 
L 136.02781 230.741767 
L 136.352465 228.154388 
L 136.677119 228.154388 
L 137.001774 225.567008 
L 137.651083 225.567008 
L 137.975738 220.392249 
L 138.300392 225.567008 
L 138.625047 220.392249 
L 138.949701 220.392249 
L 139.274356 224.273318 
L 139.59901 219.098559 
L 139.923665 219.098559 
L 140.248319 221.685939 
L 140.572974 213.923799 
L 140.897628 219.098559 
L 141.222283 213.923799 
L 141.546938 213.923799 
L 141.871592 216.511179 
L 142.196247 213.923799 
L 142.520901 208.74904 
L 142.845556 211.33642 
L 143.17021 211.33642 
L 143.494865 200.986901 
L 143.819519 206.16166 
L 144.144174 200.986901 
L 144.468828 206.16166 
L 144.793483 200.986901 
L 145.118138 200.986901 
L 145.442792 203.574281 
L 146.416756 188.050003 
L 146.74141 188.050003 
L 147.066065 198.399521 
L 147.390719 188.050003 
L 147.715374 182.875243 
L 148.040028 182.875243 
L 148.364683 180.287864 
L 148.689338 180.287864 
L 149.013992 188.050003 
L 149.338647 177.700484 
L 149.663301 177.700484 
L 149.987956 188.050003 
L 150.31261 175.113104 
L 150.961919 175.113104 
L 151.611228 166.057275 
L 151.935883 171.232035 
L 152.260538 171.232035 
L 152.585192 160.882516 
L 152.909847 160.882516 
L 153.234501 163.469896 
L 153.559156 163.469896 
L 153.88381 158.295136 
L 154.208465 150.532997 
L 155.507083 150.532997 
L 155.831738 149.239307 
L 156.156392 154.414067 
L 156.481047 151.826687 
L 156.805701 138.889789 
L 157.130356 138.889789 
L 157.779665 147.945618 
L 158.104319 142.770858 
L 158.428974 142.770858 
L 158.753628 147.945618 
L 159.402938 136.302409 
L 159.727592 136.302409 
L 160.052247 141.477168 
L 160.376901 138.889789 
L 160.701556 133.715029 
L 161.350865 133.715029 
L 161.675519 138.889789 
L 162.000174 138.889789 
L 162.324828 133.715029 
L 162.649483 132.42134 
L 162.974138 127.24658 
L 163.623447 137.596099 
L 163.948101 132.42134 
L 164.272756 137.596099 
L 164.59741 129.83396 
L 164.922065 135.008719 
L 165.246719 132.42134 
L 165.571374 127.24658 
L 165.896028 119.484441 
L 166.220683 129.83396 
L 166.545338 129.83396 
L 167.194647 119.484441 
L 167.519301 123.365511 
L 167.843956 120.778131 
L 168.16861 123.365511 
L 168.493265 118.190751 
L 168.817919 115.603372 
L 169.142574 118.190751 
L 169.467228 113.015992 
L 169.791883 118.190751 
L 170.116538 107.841233 
L 170.441192 110.428612 
L 170.765847 105.253853 
L 171.090501 105.253853 
L 171.415156 110.428612 
L 171.73981 105.253853 
L 172.064465 105.253853 
L 172.389119 110.428612 
L 172.713774 107.841233 
L 173.038428 107.841233 
L 173.363083 106.547543 
L 174.337047 106.547543 
L 174.661701 101.372783 
L 174.986356 105.253853 
L 175.31101 105.253853 
L 175.635665 97.491714 
L 175.960319 102.666473 
L 176.284974 92.316955 
L 176.609628 102.666473 
L 176.934283 92.316955 
L 177.258938 97.491714 
L 179.206865 97.491714 
L 179.531519 92.316955 
L 180.180828 102.666473 
L 180.505483 92.316955 
L 180.830138 97.491714 
L 181.154792 97.491714 
L 181.479447 102.666473 
L 182.128756 92.316955 
L 182.45341 102.666473 
L 182.778065 100.079094 
L 183.102719 94.904334 
L 183.427374 100.079094 
L 183.752028 94.904334 
L 184.725992 94.904334 
L 185.050647 100.079094 
L 185.375301 94.904334 
L 185.699956 94.904334 
L 186.02461 89.729575 
L 186.349265 100.079094 
L 186.673919 92.316955 
L 187.647883 92.316955 
L 187.972538 97.491714 
L 188.297192 87.142195 
L 188.621847 92.316955 
L 189.271156 92.316955 
L 189.59581 97.491714 
L 189.920465 92.316955 
L 190.245119 92.316955 
L 190.569774 97.491714 
L 190.894428 87.142195 
L 191.543738 97.491714 
L 191.868392 92.316955 
L 192.193047 92.316955 
L 192.517701 87.142195 
L 192.842356 87.142195 
L 193.16701 92.316955 
L 193.491665 92.316955 
L 193.816319 87.142195 
L 194.140974 97.491714 
L 194.465628 84.554816 
L 194.790283 89.729575 
L 195.114938 84.554816 
L 195.439592 94.904334 
L 195.764247 89.729575 
L 196.413556 89.729575 
L 196.73821 84.554816 
L 197.062865 87.142195 
L 197.387519 87.142195 
L 197.712174 92.316955 
L 198.361483 81.967436 
L 198.686138 87.142195 
L 199.010792 87.142195 
L 199.335447 92.316955 
L 199.660101 87.142195 
L 200.958719 87.142195 
L 201.283374 81.967436 
L 201.608028 87.142195 
L 201.932683 87.142195 
L 202.257338 81.967436 
L 202.581992 81.967436 
L 202.906647 87.142195 
L 203.231301 87.142195 
L 203.555956 92.316955 
L 203.88061 81.967436 
L 204.205265 92.316955 
L 204.529919 92.316955 
L 205.179228 81.967436 
L 205.503883 87.142195 
L 205.828538 81.967436 
L 206.153192 92.316955 
L 206.477847 92.316955 
L 206.802501 81.967436 
L 207.127156 81.967436 
L 207.45181 92.316955 
L 207.776465 92.316955 
L 208.425774 81.967436 
L 208.750428 81.967436 
L 209.075083 92.316955 
L 209.399738 87.142195 
L 209.724392 87.142195 
L 210.049047 92.316955 
L 210.373701 87.142195 
L 210.698356 92.316955 
L 211.02301 81.967436 
L 211.347665 87.142195 
L 211.672319 81.967436 
L 212.321628 81.967436 
L 212.970938 92.316955 
L 213.295592 87.142195 
L 214.269556 87.142195 
L 214.59421 81.967436 
L 214.918865 92.316955 
L 215.243519 81.967436 
L 215.568174 92.316955 
L 216.217483 81.967436 
L 216.542138 87.142195 
L 216.866792 87.142195 
L 217.191447 81.967436 
L 217.516101 92.316955 
L 217.840756 92.316955 
L 218.490065 81.967436 
L 218.814719 92.316955 
L 219.139374 92.316955 
L 219.788683 81.967436 
L 220.113338 87.142195 
L 220.437992 79.380056 
L 220.762647 79.380056 
L 221.411956 89.729575 
L 222.061265 79.380056 
L 222.385919 84.554816 
L 222.710574 84.554816 
L 223.035228 89.729575 
L 223.359883 79.380056 
L 223.684538 79.380056 
L 224.009192 84.554816 
L 224.333847 79.380056 
L 224.658501 79.380056 
L 224.983156 84.554816 
L 225.30781 84.554816 
L 225.632465 79.380056 
L 225.957119 89.729575 
L 226.281774 84.554816 
L 226.606428 84.554816 
L 226.931083 89.729575 
L 227.255738 79.380056 
L 227.580392 84.554816 
L 228.229701 84.554816 
L 228.554356 89.729575 
L 229.203665 79.380056 
L 229.528319 84.554816 
L 229.852974 84.554816 
L 230.177628 79.380056 
L 230.826938 79.380056 
L 231.151592 89.729575 
L 231.476247 84.554816 
L 231.800901 84.554816 
L 232.125556 79.380056 
L 232.45021 89.729575 
L 232.774865 79.380056 
L 233.099519 84.554816 
L 233.424174 79.380056 
L 233.748828 79.380056 
L 234.073483 84.554816 
L 234.398138 79.380056 
L 234.722792 89.729575 
L 235.372101 89.729575 
L 236.02141 79.380056 
L 236.346065 79.380056 
L 236.670719 84.554816 
L 237.320028 84.554816 
L 237.644683 89.729575 
L 237.969338 79.380056 
L 238.293992 79.380056 
L 238.618647 89.729575 
L 238.943301 84.554816 
L 239.267956 89.729575 
L 239.917265 79.380056 
L 240.241919 89.729575 
L 240.566574 89.729575 
L 240.891228 79.380056 
L 241.215883 89.729575 
L 241.540538 79.380056 
L 241.865192 89.729575 
L 242.514501 79.380056 
L 242.839156 79.380056 
L 243.488465 89.729575 
L 243.813119 84.554816 
L 244.137774 84.554816 
L 244.462428 79.380056 
L 244.787083 84.554816 
L 245.111738 79.380056 
L 245.761047 79.380056 
L 246.085701 84.554816 
L 247.059665 84.554816 
L 247.384319 89.729575 
L 247.708974 79.380056 
L 248.033628 84.554816 
L 248.358283 84.554816 
L 248.682938 89.729575 
L 249.332247 79.380056 
L 249.656901 84.554816 
L 250.630865 84.554816 
L 250.955519 89.729575 
L 251.280174 84.554816 
L 251.604828 84.554816 
L 251.929483 79.380056 
L 252.254138 89.729575 
L 252.903447 79.380056 
L 253.228101 84.554816 
L 254.526719 84.554816 
L 254.851374 79.380056 
L 255.176028 84.554816 
L 256.149992 84.554816 
L 256.474647 89.729575 
L 256.799301 79.380056 
L 257.44861 89.729575 
L 258.097919 79.380056 
L 258.422574 84.554816 
L 258.747228 84.554816 
L 259.071883 89.729575 
L 259.396538 89.729575 
L 259.721192 84.554816 
L 260.695156 84.554816 
L 261.01981 89.729575 
L 261.344465 84.554816 
L 261.669119 89.729575 
L 261.993774 84.554816 
L 262.318428 89.729575 
L 263.292392 89.729575 
L 263.617047 79.380056 
L 263.941701 84.554816 
L 264.266356 87.142195 
L 264.915665 76.792676 
L 265.240319 76.792676 
L 265.564974 81.967436 
L 265.889628 81.967436 
L 266.214283 87.142195 
L 266.863592 76.792676 
L 267.188247 76.792676 
L 267.512901 81.967436 
L 267.837556 76.792676 
L 268.486865 76.792676 
L 269.136174 87.142195 
L 269.460828 87.142195 
L 270.110138 76.792676 
L 270.434792 76.792676 
L 270.759447 81.967436 
L 271.084101 81.967436 
L 271.408756 76.792676 
L 271.73341 81.967436 
L 272.058065 76.792676 
L 272.382719 87.142195 
L 272.707374 81.967436 
L 273.032028 87.142195 
L 274.005992 87.142195 
L 274.655301 76.792676 
L 274.979956 87.142195 
L 275.629265 87.142195 
L 275.953919 76.792676 
L 276.278574 81.967436 
L 276.603228 75.498987 
L 276.927883 80.673746 
L 277.252538 80.673746 
L 277.577192 75.498987 
L 278.226501 85.848505 
L 278.551156 75.498987 
L 278.87581 80.673746 
L 279.200465 80.673746 
L 279.525119 75.498987 
L 279.849774 80.673746 
L 280.174428 80.673746 
L 280.499083 75.498987 
L 280.823737 85.848505 
L 281.148392 80.673746 
L 281.797701 80.673746 
L 282.122356 75.498987 
L 282.44701 85.848505 
L 283.096319 75.498987 
L 283.745628 85.848505 
L 284.070283 80.673746 
L 284.394938 80.673746 
L 284.719592 85.848505 
L 285.368901 75.498987 
L 286.01821 85.848505 
L 286.342865 75.498987 
L 286.992174 85.848505 
L 287.316828 85.848505 
L 287.641483 75.498987 
L 287.966138 80.673746 
L 288.290792 80.673746 
L 288.615447 74.205297 
L 288.940101 79.380056 
L 289.264756 74.205297 
L 289.58941 79.380056 
L 290.563374 79.380056 
L 290.888028 84.554816 
L 291.212683 79.380056 
L 291.861992 79.380056 
L 292.186647 74.205297 
L 292.511301 74.205297 
L 293.16061 84.554816 
L 293.809919 74.205297 
L 294.134574 79.380056 
L 294.459228 79.380056 
L 294.783883 74.205297 
L 295.108538 74.205297 
L 295.433192 84.554816 
L 295.757847 79.380056 
L 296.082501 79.380056 
L 296.407156 83.261126 
L 296.73181 72.911607 
L 297.056465 78.086366 
L 297.381119 78.086366 
L 297.705774 72.911607 
L 298.030428 72.911607 
L 298.355083 78.086366 
L 300.30301 78.086366 
L 300.627665 83.261126 
L 300.952319 78.086366 
L 302.575592 78.086366 
L 302.900247 83.261126 
L 303.224901 83.261126 
L 303.87421 72.911607 
L 304.198865 83.261126 
L 304.848174 72.911607 
L 305.172828 78.086366 
L 307.770065 78.086366 
L 308.094719 83.261126 
L 308.744028 72.911607 
L 309.068683 83.261126 
L 309.717992 72.911607 
L 310.042647 72.911607 
L 310.691956 83.261126 
L 311.01661 83.261126 
L 311.341265 78.086366 
L 311.665919 76.792676 
L 312.315228 76.792676 
L 312.639883 71.617917 
L 312.964538 81.967436 
L 313.289192 81.967436 
L 313.613847 71.617917 
L 313.938501 71.617917 
L 314.263156 79.380056 
L 314.58781 74.205297 
L 316.860392 74.205297 
L 317.185047 69.030537 
L 317.509701 74.205297 
L 318.483665 74.205297 
L 318.808319 79.380056 
L 319.132974 74.205297 
L 319.457628 74.205297 
L 319.782283 69.030537 
L 320.106938 74.205297 
L 320.431592 74.205297 
L 320.756247 69.030537 
L 321.080901 74.205297 
L 321.405556 69.030537 
L 321.73021 79.380056 
L 322.054865 74.205297 
L 323.028828 74.205297 
L 323.353483 79.380056 
L 324.002792 69.030537 
L 324.327447 79.380056 
L 324.652101 79.380056 
L 325.30141 69.030537 
L 325.626065 79.380056 
L 325.950719 69.030537 
L 326.275374 69.030537 
L 326.924683 79.380056 
L 327.898647 79.380056 
L 328.223301 74.205297 
L 329.197265 74.205297 
L 329.521919 79.380056 
L 329.846574 74.205297 
L 330.171228 74.205297 
L 330.495883 72.911607 
L 330.820538 67.736848 
L 331.469847 67.736848 
L 331.794501 72.911607 
L 332.119156 72.911607 
L 332.44381 78.086366 
L 332.768465 75.498987 
L 333.093119 67.736848 
L 333.417774 67.983265 
L 333.742428 67.983265 
L 334.067083 73.404441 
L 334.716392 73.404441 
L 335.041047 67.983265 
L 335.365701 67.983265 
L 335.690356 73.404441 
L 336.01501 67.983265 
L 336.339665 73.404441 
L 336.664319 73.404441 
L 336.988974 72.049147 
L 337.313628 72.049147 
L 337.638283 66.627971 
L 338.287592 66.627971 
L 338.612247 72.049147 
L 338.936901 66.627971 
L 339.261556 72.049147 
L 339.58621 66.627971 
L 340.235519 66.627971 
L 340.560174 72.049147 
L 340.884828 66.627971 
L 341.209483 72.049147 
L 341.534138 72.049147 
L 341.858792 66.627971 
L 342.183447 72.049147 
L 342.832756 72.049147 
L 343.15741 66.627971 
L 344.131374 66.627971 
L 344.456028 72.049147 
L 344.780683 72.049147 
L 345.105338 66.627971 
L 345.429992 72.049147 
L 346.079301 72.049147 
L 346.403956 66.627971 
L 346.72861 66.627971 
L 347.053265 72.049147 
L 347.377919 66.627971 
L 347.702574 72.049147 
L 348.351883 72.049147 
L 348.676537 66.627971 
L 349.001192 69.338559 
L 349.325847 63.917382 
L 349.650501 61.206794 
L 349.975156 61.206794 
L 350.29981 66.627971 
L 350.624465 66.627971 
L 350.949119 61.206794 
L 351.273774 66.627971 
L 351.598428 61.206794 
L 351.923083 66.627971 
L 352.247738 66.627971 
L 352.572392 61.206794 
L 352.897047 61.206794 
L 353.221701 66.627971 
L 353.546356 66.627971 
L 353.87101 61.206794 
L 354.195665 66.627971 
L 354.520319 66.627971 
L 354.844974 61.206794 
L 355.169628 66.627971 
L 355.494283 61.206794 
L 355.818938 66.627971 
L 356.468247 66.627971 
L 356.792901 61.206794 
L 357.117556 66.627971 
L 357.44221 61.206794 
L 357.766865 63.917382 
L 358.091519 58.496206 
L 358.416174 63.917382 
L 358.740828 63.917382 
L 359.065483 58.496206 
L 359.390138 63.917382 
L 359.714792 55.785618 
L 360.364101 55.785618 
L 360.688756 61.139029 
L 362.312028 61.139029 
L 362.636683 58.292912 
L 374.973556 58.292912 
L 375.29821 48.3315 
L 375.29821 48.3315 
" style="fill:none;stroke:#1f77b4;stroke-linecap:square;stroke-width:1.5;"/>
   </g>
   <g id="patch_3">
    <path d="M 34.410938 302.3475 
L 34.410938 36.2355 
" style="fill:none;stroke:#000000;stroke-linecap:square;stroke-linejoin:miter;stroke-width:0.8;"/>
   </g>
   <g id="patch_4">
    <path d="M 391.530938 302.3475 
L 391.530938 36.2355 
" style="fill:none;stroke:#000000;stroke-linecap:square;stroke-linejoin:miter;stroke-width:0.8;"/>
   </g>
   <g id="patch_5">
    <path d="M 34.410938 302.3475 
L 391.530938 302.3475 
" style="fill:none;stroke:#000000;stroke-linecap:square;stroke-linejoin:miter;stroke-width:0.8;"/>
   </g>
   <g id="patch_6">
    <path d="M 34.410938 36.2355 
L 391.530938 36.2355 
" style="fill:none;stroke:#000000;stroke-linecap:square;stroke-linejoin:miter;stroke-width:0.8;"/>
   </g>
   <g id="text_13">
    <!-- Número médio de regiões em função do -->
    <g transform="translate(92.145938 16.798125)scale(0.12 -0.12)">
     <defs>
      <path d="M 8.5 21.578125 
L 8.5 54.6875 
L 17.484375 54.6875 
L 17.484375 21.921875 
Q 17.484375 14.15625 20.5 10.265625 
Q 23.53125 6.390625 29.59375 6.390625 
Q 36.859375 6.390625 41.078125 11.03125 
Q 45.3125 15.671875 45.3125 23.6875 
L 45.3125 54.6875 
L 54.296875 54.6875 
L 54.296875 0 
L 45.3125 0 
L 45.3125 8.40625 
Q 42.046875 3.421875 37.71875 1 
Q 33.40625 -1.421875 27.6875 -1.421875 
Q 18.265625 -1.421875 13.375 4.4375 
Q 8.5 10.296875 8.5 21.578125 
z
M 31.109375 56 
z
M 37.78125 79.984375 
L 47.5 79.984375 
L 31.59375 61.625 
L 24.109375 61.625 
z
" id="DejaVuSans-250"/>
      <path d="M 56.203125 29.59375 
L 56.203125 25.203125 
L 14.890625 25.203125 
Q 15.484375 15.921875 20.484375 11.0625 
Q 25.484375 6.203125 34.421875 6.203125 
Q 39.59375 6.203125 44.453125 7.46875 
Q 49.3125 8.734375 54.109375 11.28125 
L 54.109375 2.78125 
Q 49.265625 0.734375 44.1875 -0.34375 
Q 39.109375 -1.421875 33.890625 -1.421875 
Q 20.796875 -1.421875 13.15625 6.1875 
Q 5.515625 13.8125 5.515625 26.8125 
Q 5.515625 40.234375 12.765625 48.109375 
Q 20.015625 56 32.328125 56 
Q 43.359375 56 49.78125 48.890625 
Q 56.203125 41.796875 56.203125 29.59375 
z
M 47.21875 32.234375 
Q 47.125 39.59375 43.09375 43.984375 
Q 39.0625 48.390625 32.421875 48.390625 
Q 24.90625 48.390625 20.390625 44.140625 
Q 15.875 39.890625 15.1875 32.171875 
z
M 38.53125 79.984375 
L 48.25 79.984375 
L 32.34375 61.625 
L 24.859375 61.625 
z
" id="DejaVuSans-233"/>
      <path d="M 37.109375 75.984375 
L 37.109375 68.5 
L 28.515625 68.5 
Q 23.6875 68.5 21.796875 66.546875 
Q 19.921875 64.59375 19.921875 59.515625 
L 19.921875 54.6875 
L 34.71875 54.6875 
L 34.71875 47.703125 
L 19.921875 47.703125 
L 19.921875 0 
L 10.890625 0 
L 10.890625 47.703125 
L 2.296875 47.703125 
L 2.296875 54.6875 
L 10.890625 54.6875 
L 10.890625 58.5 
Q 10.890625 67.625 15.140625 71.796875 
Q 19.390625 75.984375 28.609375 75.984375 
z
" id="DejaVuSans-102"/>
      <path d="M 54.890625 33.015625 
L 54.890625 0 
L 45.90625 0 
L 45.90625 32.71875 
Q 45.90625 40.484375 42.875 44.328125 
Q 39.84375 48.1875 33.796875 48.1875 
Q 26.515625 48.1875 22.3125 43.546875 
Q 18.109375 38.921875 18.109375 30.90625 
L 18.109375 0 
L 9.078125 0 
L 9.078125 54.6875 
L 18.109375 54.6875 
L 18.109375 46.1875 
Q 21.34375 51.125 25.703125 53.5625 
Q 30.078125 56 35.796875 56 
Q 45.21875 56 50.046875 50.171875 
Q 54.890625 44.34375 54.890625 33.015625 
z
" id="DejaVuSans-110"/>
      <path d="M 48.78125 52.59375 
L 48.78125 44.1875 
Q 44.96875 46.296875 41.140625 47.34375 
Q 37.3125 48.390625 33.40625 48.390625 
Q 24.65625 48.390625 19.8125 42.84375 
Q 14.984375 37.3125 14.984375 27.296875 
Q 14.984375 17.28125 19.8125 11.734375 
Q 24.65625 6.203125 33.40625 6.203125 
Q 37.3125 6.203125 41.140625 7.25 
Q 44.96875 8.296875 48.78125 10.40625 
L 48.78125 2.09375 
Q 45.015625 0.34375 40.984375 -0.53125 
Q 36.96875 -1.421875 32.421875 -1.421875 
Q 20.0625 -1.421875 12.78125 6.34375 
Q 5.515625 14.109375 5.515625 27.296875 
Q 5.515625 40.671875 12.859375 48.328125 
Q 20.21875 56 33.015625 56 
Q 37.15625 56 41.109375 55.140625 
Q 45.0625 54.296875 48.78125 52.59375 
z
M 36.109375 0 
Q 38.78125 -3.03125 40.09375 -5.59375 
Q 41.421875 -8.15625 41.421875 -10.5 
Q 41.421875 -14.84375 38.484375 -17.0625 
Q 35.5625 -19.28125 29.796875 -19.28125 
Q 27.5625 -19.28125 25.4375 -18.984375 
Q 23.3125 -18.703125 21.203125 -18.109375 
L 21.203125 -11.71875 
Q 22.875 -12.546875 24.671875 -12.90625 
Q 26.484375 -13.28125 28.78125 -13.28125 
Q 31.65625 -13.28125 33.125 -12.109375 
Q 34.59375 -10.9375 34.59375 -8.6875 
Q 34.59375 -7.234375 33.53125 -5.109375 
Q 32.484375 -2.984375 30.296875 0 
z
" id="DejaVuSans-231"/>
      <path d="M 34.28125 27.484375 
Q 23.390625 27.484375 19.1875 25 
Q 14.984375 22.515625 14.984375 16.5 
Q 14.984375 11.71875 18.140625 8.90625 
Q 21.296875 6.109375 26.703125 6.109375 
Q 34.1875 6.109375 38.703125 11.40625 
Q 43.21875 16.703125 43.21875 25.484375 
L 43.21875 27.484375 
z
M 52.203125 31.203125 
L 52.203125 0 
L 43.21875 0 
L 43.21875 8.296875 
Q 40.140625 3.328125 35.546875 0.953125 
Q 30.953125 -1.421875 24.3125 -1.421875 
Q 15.921875 -1.421875 10.953125 3.296875 
Q 6 8.015625 6 15.921875 
Q 6 25.140625 12.171875 29.828125 
Q 18.359375 34.515625 30.609375 34.515625 
L 43.21875 34.515625 
L 43.21875 35.40625 
Q 43.21875 41.609375 39.140625 45 
Q 35.0625 48.390625 27.6875 48.390625 
Q 23 48.390625 18.546875 47.265625 
Q 14.109375 46.140625 10.015625 43.890625 
L 10.015625 52.203125 
Q 14.9375 54.109375 19.578125 55.046875 
Q 24.21875 56 28.609375 56 
Q 40.484375 56 46.34375 49.84375 
Q 52.203125 43.703125 52.203125 31.203125 
z
M 28.8125 66.890625 
L 26.015625 69.578125 
Q 24.953125 70.5625 24.140625 71.015625 
Q 23.34375 71.484375 22.703125 71.484375 
Q 20.84375 71.484375 19.96875 69.703125 
Q 19.09375 67.921875 18.984375 63.921875 
L 12.890625 63.921875 
Q 12.984375 70.515625 15.46875 74.09375 
Q 17.96875 77.6875 22.40625 77.6875 
Q 24.265625 77.6875 25.828125 77 
Q 27.390625 76.3125 29.203125 74.703125 
L 31.984375 72.015625 
Q 33.046875 71.046875 33.859375 70.578125 
Q 34.671875 70.125 35.296875 70.125 
Q 37.15625 70.125 38.03125 71.90625 
Q 38.90625 73.6875 39.015625 77.6875 
L 45.109375 77.6875 
Q 45.015625 71.09375 42.515625 67.5 
Q 40.03125 63.921875 35.59375 63.921875 
Q 33.734375 63.921875 32.171875 64.59375 
Q 30.609375 65.28125 28.8125 66.890625 
z
" id="DejaVuSans-227"/>
     </defs>
     <use xlink:href="#DejaVuSans-78"/>
     <use x="74.804688" xlink:href="#DejaVuSans-250"/>
     <use x="138.183594" xlink:href="#DejaVuSans-109"/>
     <use x="235.595703" xlink:href="#DejaVuSans-101"/>
     <use x="297.119141" xlink:href="#DejaVuSans-114"/>
     <use x="335.982422" xlink:href="#DejaVuSans-111"/>
     <use x="397.164062" xlink:href="#DejaVuSans-32"/>
     <use x="428.951172" xlink:href="#DejaVuSans-109"/>
     <use x="526.363281" xlink:href="#DejaVuSans-233"/>
     <use x="587.886719" xlink:href="#DejaVuSans-100"/>
     <use x="651.363281" xlink:href="#DejaVuSans-105"/>
     <use x="679.146484" xlink:href="#DejaVuSans-111"/>
     <use x="740.328125" xlink:href="#DejaVuSans-32"/>
     <use x="772.115234" xlink:href="#DejaVuSans-100"/>
     <use x="835.591797" xlink:href="#DejaVuSans-101"/>
     <use x="897.115234" xlink:href="#DejaVuSans-32"/>
     <use x="928.902344" xlink:href="#DejaVuSans-114"/>
     <use x="967.765625" xlink:href="#DejaVuSans-101"/>
     <use x="1029.289062" xlink:href="#DejaVuSans-103"/>
     <use x="1092.765625" xlink:href="#DejaVuSans-105"/>
     <use x="1120.548828" xlink:href="#DejaVuSans-245"/>
     <use x="1181.730469" xlink:href="#DejaVuSans-101"/>
     <use x="1243.253906" xlink:href="#DejaVuSans-115"/>
     <use x="1295.353516" xlink:href="#DejaVuSans-32"/>
     <use x="1327.140625" xlink:href="#DejaVuSans-101"/>
     <use x="1388.664062" xlink:href="#DejaVuSans-109"/>
     <use x="1486.076172" xlink:href="#DejaVuSans-32"/>
     <use x="1517.863281" xlink:href="#DejaVuSans-102"/>
     <use x="1553.068359" xlink:href="#DejaVuSans-117"/>
     <use x="1616.447266" xlink:href="#DejaVuSans-110"/>
     <use x="1679.826172" xlink:href="#DejaVuSans-231"/>
     <use x="1734.806641" xlink:href="#DejaVuSans-227"/>
     <use x="1796.085938" xlink:href="#DejaVuSans-111"/>
     <use x="1857.267578" xlink:href="#DejaVuSans-32"/>
     <use x="1889.054688" xlink:href="#DejaVuSans-100"/>
     <use x="1952.53125" xlink:href="#DejaVuSans-111"/>
    </g>
    <!-- tempo discreto para o experimento GRASP_2ILS_4GA_VP_10R -->
    <g transform="translate(27.73875 30.2355)scale(0.12 -0.12)">
     <defs>
      <path d="M 34.28125 27.484375 
Q 23.390625 27.484375 19.1875 25 
Q 14.984375 22.515625 14.984375 16.5 
Q 14.984375 11.71875 18.140625 8.90625 
Q 21.296875 6.109375 26.703125 6.109375 
Q 34.1875 6.109375 38.703125 11.40625 
Q 43.21875 16.703125 43.21875 25.484375 
L 43.21875 27.484375 
z
M 52.203125 31.203125 
L 52.203125 0 
L 43.21875 0 
L 43.21875 8.296875 
Q 40.140625 3.328125 35.546875 0.953125 
Q 30.953125 -1.421875 24.3125 -1.421875 
Q 15.921875 -1.421875 10.953125 3.296875 
Q 6 8.015625 6 15.921875 
Q 6 25.140625 12.171875 29.828125 
Q 18.359375 34.515625 30.609375 34.515625 
L 43.21875 34.515625 
L 43.21875 35.40625 
Q 43.21875 41.609375 39.140625 45 
Q 35.0625 48.390625 27.6875 48.390625 
Q 23 48.390625 18.546875 47.265625 
Q 14.109375 46.140625 10.015625 43.890625 
L 10.015625 52.203125 
Q 14.9375 54.109375 19.578125 55.046875 
Q 24.21875 56 28.609375 56 
Q 40.484375 56 46.34375 49.84375 
Q 52.203125 43.703125 52.203125 31.203125 
z
" id="DejaVuSans-97"/>
      <path d="M 54.890625 54.6875 
L 35.109375 28.078125 
L 55.90625 0 
L 45.3125 0 
L 29.390625 21.484375 
L 13.484375 0 
L 2.875 0 
L 24.125 28.609375 
L 4.6875 54.6875 
L 15.28125 54.6875 
L 29.78125 35.203125 
L 44.28125 54.6875 
z
" id="DejaVuSans-120"/>
      <path d="M 59.515625 10.40625 
L 59.515625 29.984375 
L 43.40625 29.984375 
L 43.40625 38.09375 
L 69.28125 38.09375 
L 69.28125 6.78125 
Q 63.578125 2.734375 56.6875 0.65625 
Q 49.8125 -1.421875 42 -1.421875 
Q 24.90625 -1.421875 15.25 8.5625 
Q 5.609375 18.5625 5.609375 36.375 
Q 5.609375 54.25 15.25 64.234375 
Q 24.90625 74.21875 42 74.21875 
Q 49.125 74.21875 55.546875 72.453125 
Q 61.96875 70.703125 67.390625 67.28125 
L 67.390625 56.78125 
Q 61.921875 61.421875 55.765625 63.765625 
Q 49.609375 66.109375 42.828125 66.109375 
Q 29.4375 66.109375 22.71875 58.640625 
Q 16.015625 51.171875 16.015625 36.375 
Q 16.015625 21.625 22.71875 14.15625 
Q 29.4375 6.6875 42.828125 6.6875 
Q 48.046875 6.6875 52.140625 7.59375 
Q 56.25 8.5 59.515625 10.40625 
z
" id="DejaVuSans-71"/>
      <path d="M 44.390625 34.1875 
Q 47.5625 33.109375 50.5625 29.59375 
Q 53.5625 26.078125 56.59375 19.921875 
L 66.609375 0 
L 56 0 
L 46.6875 18.703125 
Q 43.0625 26.03125 39.671875 28.421875 
Q 36.28125 30.8125 30.421875 30.8125 
L 19.671875 30.8125 
L 19.671875 0 
L 9.8125 0 
L 9.8125 72.90625 
L 32.078125 72.90625 
Q 44.578125 72.90625 50.734375 67.671875 
Q 56.890625 62.453125 56.890625 51.90625 
Q 56.890625 45.015625 53.6875 40.46875 
Q 50.484375 35.9375 44.390625 34.1875 
z
M 19.671875 64.796875 
L 19.671875 38.921875 
L 32.078125 38.921875 
Q 39.203125 38.921875 42.84375 42.21875 
Q 46.484375 45.515625 46.484375 51.90625 
Q 46.484375 58.296875 42.84375 61.546875 
Q 39.203125 64.796875 32.078125 64.796875 
z
" id="DejaVuSans-82"/>
      <path d="M 34.1875 63.1875 
L 20.796875 26.90625 
L 47.609375 26.90625 
z
M 28.609375 72.90625 
L 39.796875 72.90625 
L 67.578125 0 
L 57.328125 0 
L 50.6875 18.703125 
L 17.828125 18.703125 
L 11.1875 0 
L 0.78125 0 
z
" id="DejaVuSans-65"/>
      <path d="M 53.515625 70.515625 
L 53.515625 60.890625 
Q 47.90625 63.578125 42.921875 64.890625 
Q 37.9375 66.21875 33.296875 66.21875 
Q 25.25 66.21875 20.875 63.09375 
Q 16.5 59.96875 16.5 54.203125 
Q 16.5 49.359375 19.40625 46.890625 
Q 22.3125 44.4375 30.421875 42.921875 
L 36.375 41.703125 
Q 47.40625 39.59375 52.65625 34.296875 
Q 57.90625 29 57.90625 20.125 
Q 57.90625 9.515625 50.796875 4.046875 
Q 43.703125 -1.421875 29.984375 -1.421875 
Q 24.8125 -1.421875 18.96875 -0.25 
Q 13.140625 0.921875 6.890625 3.21875 
L 6.890625 13.375 
Q 12.890625 10.015625 18.65625 8.296875 
Q 24.421875 6.59375 29.984375 6.59375 
Q 38.421875 6.59375 43.015625 9.90625 
Q 47.609375 13.234375 47.609375 19.390625 
Q 47.609375 24.75 44.3125 27.78125 
Q 41.015625 30.8125 33.5 32.328125 
L 27.484375 33.5 
Q 16.453125 35.6875 11.515625 40.375 
Q 6.59375 45.0625 6.59375 53.421875 
Q 6.59375 63.09375 13.40625 68.65625 
Q 20.21875 74.21875 32.171875 74.21875 
Q 37.3125 74.21875 42.625 73.28125 
Q 47.953125 72.359375 53.515625 70.515625 
z
" id="DejaVuSans-83"/>
      <path d="M 19.671875 64.796875 
L 19.671875 37.40625 
L 32.078125 37.40625 
Q 38.96875 37.40625 42.71875 40.96875 
Q 46.484375 44.53125 46.484375 51.125 
Q 46.484375 57.671875 42.71875 61.234375 
Q 38.96875 64.796875 32.078125 64.796875 
z
M 9.8125 72.90625 
L 32.078125 72.90625 
Q 44.34375 72.90625 50.609375 67.359375 
Q 56.890625 61.8125 56.890625 51.125 
Q 56.890625 40.328125 50.609375 34.8125 
Q 44.34375 29.296875 32.078125 29.296875 
L 19.671875 29.296875 
L 19.671875 0 
L 9.8125 0 
z
" id="DejaVuSans-80"/>
      <path d="M 50.984375 -16.609375 
L 50.984375 -23.578125 
L -0.984375 -23.578125 
L -0.984375 -16.609375 
z
" id="DejaVuSans-95"/>
      <path d="M 9.8125 72.90625 
L 19.671875 72.90625 
L 19.671875 0 
L 9.8125 0 
z
" id="DejaVuSans-73"/>
      <path d="M 9.8125 72.90625 
L 19.671875 72.90625 
L 19.671875 8.296875 
L 55.171875 8.296875 
L 55.171875 0 
L 9.8125 0 
z
" id="DejaVuSans-76"/>
      <path d="M 28.609375 0 
L 0.78125 72.90625 
L 11.078125 72.90625 
L 34.1875 11.53125 
L 57.328125 72.90625 
L 67.578125 72.90625 
L 39.796875 0 
z
" id="DejaVuSans-86"/>
     </defs>
     <use xlink:href="#DejaVuSans-116"/>
     <use x="39.208984" xlink:href="#DejaVuSans-101"/>
     <use x="100.732422" xlink:href="#DejaVuSans-109"/>
     <use x="198.144531" xlink:href="#DejaVuSans-112"/>
     <use x="261.621094" xlink:href="#DejaVuSans-111"/>
     <use x="322.802734" xlink:href="#DejaVuSans-32"/>
     <use x="354.589844" xlink:href="#DejaVuSans-100"/>
     <use x="418.066406" xlink:href="#DejaVuSans-105"/>
     <use x="445.849609" xlink:href="#DejaVuSans-115"/>
     <use x="497.949219" xlink:href="#DejaVuSans-99"/>
     <use x="552.929688" xlink:href="#DejaVuSans-114"/>
     <use x="591.792969" xlink:href="#DejaVuSans-101"/>
     <use x="653.316406" xlink:href="#DejaVuSans-116"/>
     <use x="692.525391" xlink:href="#DejaVuSans-111"/>
     <use x="753.707031" xlink:href="#DejaVuSans-32"/>
     <use x="785.494141" xlink:href="#DejaVuSans-112"/>
     <use x="848.970703" xlink:href="#DejaVuSans-97"/>
     <use x="910.25" xlink:href="#DejaVuSans-114"/>
     <use x="951.363281" xlink:href="#DejaVuSans-97"/>
     <use x="1012.642578" xlink:href="#DejaVuSans-32"/>
     <use x="1044.429688" xlink:href="#DejaVuSans-111"/>
     <use x="1105.611328" xlink:href="#DejaVuSans-32"/>
     <use x="1137.398438" xlink:href="#DejaVuSans-101"/>
     <use x="1197.171875" xlink:href="#DejaVuSans-120"/>
     <use x="1256.351562" xlink:href="#DejaVuSans-112"/>
     <use x="1319.828125" xlink:href="#DejaVuSans-101"/>
     <use x="1381.351562" xlink:href="#DejaVuSans-114"/>
     <use x="1422.464844" xlink:href="#DejaVuSans-105"/>
     <use x="1450.248047" xlink:href="#DejaVuSans-109"/>
     <use x="1547.660156" xlink:href="#DejaVuSans-101"/>
     <use x="1609.183594" xlink:href="#DejaVuSans-110"/>
     <use x="1672.5625" xlink:href="#DejaVuSans-116"/>
     <use x="1711.771484" xlink:href="#DejaVuSans-111"/>
     <use x="1772.953125" xlink:href="#DejaVuSans-32"/>
     <use x="1804.740234" xlink:href="#DejaVuSans-71"/>
     <use x="1882.230469" xlink:href="#DejaVuSans-82"/>
     <use x="1947.712891" xlink:href="#DejaVuSans-65"/>
     <use x="2016.121094" xlink:href="#DejaVuSans-83"/>
     <use x="2079.597656" xlink:href="#DejaVuSans-80"/>
     <use x="2139.900391" xlink:href="#DejaVuSans-95"/>
     <use x="2189.900391" xlink:href="#DejaVuSans-50"/>
     <use x="2253.523438" xlink:href="#DejaVuSans-73"/>
     <use x="2283.015625" xlink:href="#DejaVuSans-76"/>
     <use x="2338.728516" xlink:href="#DejaVuSans-83"/>
     <use x="2402.205078" xlink:href="#DejaVuSans-95"/>
     <use x="2452.205078" xlink:href="#DejaVuSans-52"/>
     <use x="2515.828125" xlink:href="#DejaVuSans-71"/>
     <use x="2593.318359" xlink:href="#DejaVuSans-65"/>
     <use x="2661.726562" xlink:href="#DejaVuSans-95"/>
     <use x="2711.726562" xlink:href="#DejaVuSans-86"/>
     <use x="2780.134766" xlink:href="#DejaVuSans-80"/>
     <use x="2840.4375" xlink:href="#DejaVuSans-95"/>
     <use x="2890.4375" xlink:href="#DejaVuSans-49"/>
     <use x="2954.060547" xlink:href="#DejaVuSans-48"/>
     <use x="3017.683594" xlink:href="#DejaVuSans-82"/>
    </g>
   </g>
   <g id="legend_1">
    <g id="patch_7">
     <path d="M 41.410938 58.913625 
L 110.242188 58.913625 
Q 112.242188 58.913625 112.242188 56.913625 
L 112.242188 43.2355 
Q 112.242188 41.2355 110.242188 41.2355 
L 41.410938 41.2355 
Q 39.410938 41.2355 39.410938 43.2355 
L 39.410938 56.913625 
Q 39.410938 58.913625 41.410938 58.913625 
z
" style="fill:#ffffff;opacity:0.8;stroke:#cccccc;stroke-linejoin:miter;"/>
    </g>
    <g id="line2d_12">
     <path d="M 43.410938 49.333937 
L 63.410938 49.333937 
" style="fill:none;stroke:#1f77b4;stroke-linecap:square;stroke-width:1.5;"/>
    </g>
    <g id="line2d_13"/>
    <g id="text_14">
     <!-- regions -->
     <g transform="translate(71.410938 52.833937)scale(0.1 -0.1)">
      <use xlink:href="#DejaVuSans-114"/>
      <use x="38.863281" xlink:href="#DejaVuSans-101"/>
      <use x="100.386719" xlink:href="#DejaVuSans-103"/>
      <use x="163.863281" xlink:href="#DejaVuSans-105"/>
      <use x="191.646484" xlink:href="#DejaVuSans-111"/>
      <use x="252.828125" xlink:href="#DejaVuSans-110"/>
      <use x="316.207031" xlink:href="#DejaVuSans-115"/>
     </g>
    </g>
   </g>
  </g>
 </g>
 <defs>
  <clipPath id="pc7f7a3993a">
   <rect height="266.112" width="357.12" x="34.410938" y="36.2355"/>
  </clipPath>
 </defs>
</svg>
