<?xml version="1.0" encoding="utf-8" standalone="no"?>
<!DOCTYPE svg PUBLIC "-//W3C//DTD SVG 1.1//EN"
  "http://www.w3.org/Graphics/SVG/1.1/DTD/svg11.dtd">
<!-- Created with matplotlib (https://matplotlib.org/) -->
<svg height="339.90375pt" version="1.1" viewBox="0 0 414.634062 339.90375" width="414.634062pt" xmlns="http://www.w3.org/2000/svg" xmlns:xlink="http://www.w3.org/1999/xlink">
 <metadata>
  <rdf:RDF xmlns:cc="http://creativecommons.org/ns#" xmlns:dc="http://purl.org/dc/elements/1.1/" xmlns:rdf="http://www.w3.org/1999/02/22-rdf-syntax-ns#">
   <cc:Work>
    <dc:type rdf:resource="http://purl.org/dc/dcmitype/StillImage"/>
    <dc:date>2022-03-16T21:57:46.269284</dc:date>
    <dc:format>image/svg+xml</dc:format>
    <dc:creator>
     <cc:Agent>
      <dc:title>Matplotlib v3.3.2, https://matplotlib.org/</dc:title>
     </cc:Agent>
    </dc:creator>
   </cc:Work>
  </rdf:RDF>
 </metadata>
 <defs>
  <style type="text/css">*{stroke-linecap:butt;stroke-linejoin:round;}</style>
 </defs>
 <g id="figure_1">
  <g id="patch_1">
   <path d="M 0 339.90375 
L 414.634062 339.90375 
L 414.634062 0 
L 0 0 
z
" style="fill:#ffffff;"/>
  </g>
  <g id="axes_1">
   <g id="patch_2">
    <path d="M 50.314063 302.3475 
L 407.434062 302.3475 
L 407.434062 36.2355 
L 50.314063 36.2355 
z
" style="fill:#ffffff;"/>
   </g>
   <g id="matplotlib.axis_1">
    <g id="xtick_1">
     <g id="line2d_1">
      <defs>
       <path d="M 0 0 
L 0 3.5 
" id="m153eb70e8a" style="stroke:#000000;stroke-width:0.8;"/>
      </defs>
      <g>
       <use style="stroke:#000000;stroke-width:0.8;" x="66.384625" xlink:href="#m153eb70e8a" y="302.3475"/>
      </g>
     </g>
     <g id="text_1">
      <!-- 0 -->
      <g transform="translate(63.203375 316.945937)scale(0.1 -0.1)">
       <defs>
        <path d="M 31.78125 66.40625 
Q 24.171875 66.40625 20.328125 58.90625 
Q 16.5 51.421875 16.5 36.375 
Q 16.5 21.390625 20.328125 13.890625 
Q 24.171875 6.390625 31.78125 6.390625 
Q 39.453125 6.390625 43.28125 13.890625 
Q 47.125 21.390625 47.125 36.375 
Q 47.125 51.421875 43.28125 58.90625 
Q 39.453125 66.40625 31.78125 66.40625 
z
M 31.78125 74.21875 
Q 44.046875 74.21875 50.515625 64.515625 
Q 56.984375 54.828125 56.984375 36.375 
Q 56.984375 17.96875 50.515625 8.265625 
Q 44.046875 -1.421875 31.78125 -1.421875 
Q 19.53125 -1.421875 13.0625 8.265625 
Q 6.59375 17.96875 6.59375 36.375 
Q 6.59375 54.828125 13.0625 64.515625 
Q 19.53125 74.21875 31.78125 74.21875 
z
" id="DejaVuSans-48"/>
       </defs>
       <use xlink:href="#DejaVuSans-48"/>
      </g>
     </g>
    </g>
    <g id="xtick_2">
     <g id="line2d_2">
      <g>
       <use style="stroke:#000000;stroke-width:0.8;" x="106.925902" xlink:href="#m153eb70e8a" y="302.3475"/>
      </g>
     </g>
     <g id="text_2">
      <!-- 250 -->
      <g transform="translate(97.382152 316.945937)scale(0.1 -0.1)">
       <defs>
        <path d="M 19.1875 8.296875 
L 53.609375 8.296875 
L 53.609375 0 
L 7.328125 0 
L 7.328125 8.296875 
Q 12.9375 14.109375 22.625 23.890625 
Q 32.328125 33.6875 34.8125 36.53125 
Q 39.546875 41.84375 41.421875 45.53125 
Q 43.3125 49.21875 43.3125 52.78125 
Q 43.3125 58.59375 39.234375 62.25 
Q 35.15625 65.921875 28.609375 65.921875 
Q 23.96875 65.921875 18.8125 64.3125 
Q 13.671875 62.703125 7.8125 59.421875 
L 7.8125 69.390625 
Q 13.765625 71.78125 18.9375 73 
Q 24.125 74.21875 28.421875 74.21875 
Q 39.75 74.21875 46.484375 68.546875 
Q 53.21875 62.890625 53.21875 53.421875 
Q 53.21875 48.921875 51.53125 44.890625 
Q 49.859375 40.875 45.40625 35.40625 
Q 44.1875 33.984375 37.640625 27.21875 
Q 31.109375 20.453125 19.1875 8.296875 
z
" id="DejaVuSans-50"/>
        <path d="M 10.796875 72.90625 
L 49.515625 72.90625 
L 49.515625 64.59375 
L 19.828125 64.59375 
L 19.828125 46.734375 
Q 21.96875 47.46875 24.109375 47.828125 
Q 26.265625 48.1875 28.421875 48.1875 
Q 40.625 48.1875 47.75 41.5 
Q 54.890625 34.8125 54.890625 23.390625 
Q 54.890625 11.625 47.5625 5.09375 
Q 40.234375 -1.421875 26.90625 -1.421875 
Q 22.3125 -1.421875 17.546875 -0.640625 
Q 12.796875 0.140625 7.71875 1.703125 
L 7.71875 11.625 
Q 12.109375 9.234375 16.796875 8.0625 
Q 21.484375 6.890625 26.703125 6.890625 
Q 35.15625 6.890625 40.078125 11.328125 
Q 45.015625 15.765625 45.015625 23.390625 
Q 45.015625 31 40.078125 35.4375 
Q 35.15625 39.890625 26.703125 39.890625 
Q 22.75 39.890625 18.8125 39.015625 
Q 14.890625 38.140625 10.796875 36.28125 
z
" id="DejaVuSans-53"/>
       </defs>
       <use xlink:href="#DejaVuSans-50"/>
       <use x="63.623047" xlink:href="#DejaVuSans-53"/>
       <use x="127.246094" xlink:href="#DejaVuSans-48"/>
      </g>
     </g>
    </g>
    <g id="xtick_3">
     <g id="line2d_3">
      <g>
       <use style="stroke:#000000;stroke-width:0.8;" x="147.467178" xlink:href="#m153eb70e8a" y="302.3475"/>
      </g>
     </g>
     <g id="text_3">
      <!-- 500 -->
      <g transform="translate(137.923428 316.945937)scale(0.1 -0.1)">
       <use xlink:href="#DejaVuSans-53"/>
       <use x="63.623047" xlink:href="#DejaVuSans-48"/>
       <use x="127.246094" xlink:href="#DejaVuSans-48"/>
      </g>
     </g>
    </g>
    <g id="xtick_4">
     <g id="line2d_4">
      <g>
       <use style="stroke:#000000;stroke-width:0.8;" x="188.008455" xlink:href="#m153eb70e8a" y="302.3475"/>
      </g>
     </g>
     <g id="text_4">
      <!-- 750 -->
      <g transform="translate(178.464705 316.945937)scale(0.1 -0.1)">
       <defs>
        <path d="M 8.203125 72.90625 
L 55.078125 72.90625 
L 55.078125 68.703125 
L 28.609375 0 
L 18.3125 0 
L 43.21875 64.59375 
L 8.203125 64.59375 
z
" id="DejaVuSans-55"/>
       </defs>
       <use xlink:href="#DejaVuSans-55"/>
       <use x="63.623047" xlink:href="#DejaVuSans-53"/>
       <use x="127.246094" xlink:href="#DejaVuSans-48"/>
      </g>
     </g>
    </g>
    <g id="xtick_5">
     <g id="line2d_5">
      <g>
       <use style="stroke:#000000;stroke-width:0.8;" x="228.549732" xlink:href="#m153eb70e8a" y="302.3475"/>
      </g>
     </g>
     <g id="text_5">
      <!-- 1000 -->
      <g transform="translate(215.824732 316.945937)scale(0.1 -0.1)">
       <defs>
        <path d="M 12.40625 8.296875 
L 28.515625 8.296875 
L 28.515625 63.921875 
L 10.984375 60.40625 
L 10.984375 69.390625 
L 28.421875 72.90625 
L 38.28125 72.90625 
L 38.28125 8.296875 
L 54.390625 8.296875 
L 54.390625 0 
L 12.40625 0 
z
" id="DejaVuSans-49"/>
       </defs>
       <use xlink:href="#DejaVuSans-49"/>
       <use x="63.623047" xlink:href="#DejaVuSans-48"/>
       <use x="127.246094" xlink:href="#DejaVuSans-48"/>
       <use x="190.869141" xlink:href="#DejaVuSans-48"/>
      </g>
     </g>
    </g>
    <g id="xtick_6">
     <g id="line2d_6">
      <g>
       <use style="stroke:#000000;stroke-width:0.8;" x="269.091009" xlink:href="#m153eb70e8a" y="302.3475"/>
      </g>
     </g>
     <g id="text_6">
      <!-- 1250 -->
      <g transform="translate(256.366009 316.945937)scale(0.1 -0.1)">
       <use xlink:href="#DejaVuSans-49"/>
       <use x="63.623047" xlink:href="#DejaVuSans-50"/>
       <use x="127.246094" xlink:href="#DejaVuSans-53"/>
       <use x="190.869141" xlink:href="#DejaVuSans-48"/>
      </g>
     </g>
    </g>
    <g id="xtick_7">
     <g id="line2d_7">
      <g>
       <use style="stroke:#000000;stroke-width:0.8;" x="309.632286" xlink:href="#m153eb70e8a" y="302.3475"/>
      </g>
     </g>
     <g id="text_7">
      <!-- 1500 -->
      <g transform="translate(296.907286 316.945937)scale(0.1 -0.1)">
       <use xlink:href="#DejaVuSans-49"/>
       <use x="63.623047" xlink:href="#DejaVuSans-53"/>
       <use x="127.246094" xlink:href="#DejaVuSans-48"/>
       <use x="190.869141" xlink:href="#DejaVuSans-48"/>
      </g>
     </g>
    </g>
    <g id="xtick_8">
     <g id="line2d_8">
      <g>
       <use style="stroke:#000000;stroke-width:0.8;" x="350.173563" xlink:href="#m153eb70e8a" y="302.3475"/>
      </g>
     </g>
     <g id="text_8">
      <!-- 1750 -->
      <g transform="translate(337.448563 316.945937)scale(0.1 -0.1)">
       <use xlink:href="#DejaVuSans-49"/>
       <use x="63.623047" xlink:href="#DejaVuSans-55"/>
       <use x="127.246094" xlink:href="#DejaVuSans-53"/>
       <use x="190.869141" xlink:href="#DejaVuSans-48"/>
      </g>
     </g>
    </g>
    <g id="xtick_9">
     <g id="line2d_9">
      <g>
       <use style="stroke:#000000;stroke-width:0.8;" x="390.71484" xlink:href="#m153eb70e8a" y="302.3475"/>
      </g>
     </g>
     <g id="text_9">
      <!-- 2000 -->
      <g transform="translate(377.98984 316.945937)scale(0.1 -0.1)">
       <use xlink:href="#DejaVuSans-50"/>
       <use x="63.623047" xlink:href="#DejaVuSans-48"/>
       <use x="127.246094" xlink:href="#DejaVuSans-48"/>
       <use x="190.869141" xlink:href="#DejaVuSans-48"/>
      </g>
     </g>
    </g>
    <g id="text_10">
     <!-- Tempo discreto -->
     <g transform="translate(190.944375 330.624062)scale(0.1 -0.1)">
      <defs>
       <path d="M -0.296875 72.90625 
L 61.375 72.90625 
L 61.375 64.59375 
L 35.5 64.59375 
L 35.5 0 
L 25.59375 0 
L 25.59375 64.59375 
L -0.296875 64.59375 
z
" id="DejaVuSans-84"/>
       <path d="M 56.203125 29.59375 
L 56.203125 25.203125 
L 14.890625 25.203125 
Q 15.484375 15.921875 20.484375 11.0625 
Q 25.484375 6.203125 34.421875 6.203125 
Q 39.59375 6.203125 44.453125 7.46875 
Q 49.3125 8.734375 54.109375 11.28125 
L 54.109375 2.78125 
Q 49.265625 0.734375 44.1875 -0.34375 
Q 39.109375 -1.421875 33.890625 -1.421875 
Q 20.796875 -1.421875 13.15625 6.1875 
Q 5.515625 13.8125 5.515625 26.8125 
Q 5.515625 40.234375 12.765625 48.109375 
Q 20.015625 56 32.328125 56 
Q 43.359375 56 49.78125 48.890625 
Q 56.203125 41.796875 56.203125 29.59375 
z
M 47.21875 32.234375 
Q 47.125 39.59375 43.09375 43.984375 
Q 39.0625 48.390625 32.421875 48.390625 
Q 24.90625 48.390625 20.390625 44.140625 
Q 15.875 39.890625 15.1875 32.171875 
z
" id="DejaVuSans-101"/>
       <path d="M 52 44.1875 
Q 55.375 50.25 60.0625 53.125 
Q 64.75 56 71.09375 56 
Q 79.640625 56 84.28125 50.015625 
Q 88.921875 44.046875 88.921875 33.015625 
L 88.921875 0 
L 79.890625 0 
L 79.890625 32.71875 
Q 79.890625 40.578125 77.09375 44.375 
Q 74.3125 48.1875 68.609375 48.1875 
Q 61.625 48.1875 57.5625 43.546875 
Q 53.515625 38.921875 53.515625 30.90625 
L 53.515625 0 
L 44.484375 0 
L 44.484375 32.71875 
Q 44.484375 40.625 41.703125 44.40625 
Q 38.921875 48.1875 33.109375 48.1875 
Q 26.21875 48.1875 22.15625 43.53125 
Q 18.109375 38.875 18.109375 30.90625 
L 18.109375 0 
L 9.078125 0 
L 9.078125 54.6875 
L 18.109375 54.6875 
L 18.109375 46.1875 
Q 21.1875 51.21875 25.484375 53.609375 
Q 29.78125 56 35.6875 56 
Q 41.65625 56 45.828125 52.96875 
Q 50 49.953125 52 44.1875 
z
" id="DejaVuSans-109"/>
       <path d="M 18.109375 8.203125 
L 18.109375 -20.796875 
L 9.078125 -20.796875 
L 9.078125 54.6875 
L 18.109375 54.6875 
L 18.109375 46.390625 
Q 20.953125 51.265625 25.265625 53.625 
Q 29.59375 56 35.59375 56 
Q 45.5625 56 51.78125 48.09375 
Q 58.015625 40.1875 58.015625 27.296875 
Q 58.015625 14.40625 51.78125 6.484375 
Q 45.5625 -1.421875 35.59375 -1.421875 
Q 29.59375 -1.421875 25.265625 0.953125 
Q 20.953125 3.328125 18.109375 8.203125 
z
M 48.6875 27.296875 
Q 48.6875 37.203125 44.609375 42.84375 
Q 40.53125 48.484375 33.40625 48.484375 
Q 26.265625 48.484375 22.1875 42.84375 
Q 18.109375 37.203125 18.109375 27.296875 
Q 18.109375 17.390625 22.1875 11.75 
Q 26.265625 6.109375 33.40625 6.109375 
Q 40.53125 6.109375 44.609375 11.75 
Q 48.6875 17.390625 48.6875 27.296875 
z
" id="DejaVuSans-112"/>
       <path d="M 30.609375 48.390625 
Q 23.390625 48.390625 19.1875 42.75 
Q 14.984375 37.109375 14.984375 27.296875 
Q 14.984375 17.484375 19.15625 11.84375 
Q 23.34375 6.203125 30.609375 6.203125 
Q 37.796875 6.203125 41.984375 11.859375 
Q 46.1875 17.53125 46.1875 27.296875 
Q 46.1875 37.015625 41.984375 42.703125 
Q 37.796875 48.390625 30.609375 48.390625 
z
M 30.609375 56 
Q 42.328125 56 49.015625 48.375 
Q 55.71875 40.765625 55.71875 27.296875 
Q 55.71875 13.875 49.015625 6.21875 
Q 42.328125 -1.421875 30.609375 -1.421875 
Q 18.84375 -1.421875 12.171875 6.21875 
Q 5.515625 13.875 5.515625 27.296875 
Q 5.515625 40.765625 12.171875 48.375 
Q 18.84375 56 30.609375 56 
z
" id="DejaVuSans-111"/>
       <path id="DejaVuSans-32"/>
       <path d="M 45.40625 46.390625 
L 45.40625 75.984375 
L 54.390625 75.984375 
L 54.390625 0 
L 45.40625 0 
L 45.40625 8.203125 
Q 42.578125 3.328125 38.25 0.953125 
Q 33.9375 -1.421875 27.875 -1.421875 
Q 17.96875 -1.421875 11.734375 6.484375 
Q 5.515625 14.40625 5.515625 27.296875 
Q 5.515625 40.1875 11.734375 48.09375 
Q 17.96875 56 27.875 56 
Q 33.9375 56 38.25 53.625 
Q 42.578125 51.265625 45.40625 46.390625 
z
M 14.796875 27.296875 
Q 14.796875 17.390625 18.875 11.75 
Q 22.953125 6.109375 30.078125 6.109375 
Q 37.203125 6.109375 41.296875 11.75 
Q 45.40625 17.390625 45.40625 27.296875 
Q 45.40625 37.203125 41.296875 42.84375 
Q 37.203125 48.484375 30.078125 48.484375 
Q 22.953125 48.484375 18.875 42.84375 
Q 14.796875 37.203125 14.796875 27.296875 
z
" id="DejaVuSans-100"/>
       <path d="M 9.421875 54.6875 
L 18.40625 54.6875 
L 18.40625 0 
L 9.421875 0 
z
M 9.421875 75.984375 
L 18.40625 75.984375 
L 18.40625 64.59375 
L 9.421875 64.59375 
z
" id="DejaVuSans-105"/>
       <path d="M 44.28125 53.078125 
L 44.28125 44.578125 
Q 40.484375 46.53125 36.375 47.5 
Q 32.28125 48.484375 27.875 48.484375 
Q 21.1875 48.484375 17.84375 46.4375 
Q 14.5 44.390625 14.5 40.28125 
Q 14.5 37.15625 16.890625 35.375 
Q 19.28125 33.59375 26.515625 31.984375 
L 29.59375 31.296875 
Q 39.15625 29.25 43.1875 25.515625 
Q 47.21875 21.78125 47.21875 15.09375 
Q 47.21875 7.46875 41.1875 3.015625 
Q 35.15625 -1.421875 24.609375 -1.421875 
Q 20.21875 -1.421875 15.453125 -0.5625 
Q 10.6875 0.296875 5.421875 2 
L 5.421875 11.28125 
Q 10.40625 8.6875 15.234375 7.390625 
Q 20.0625 6.109375 24.8125 6.109375 
Q 31.15625 6.109375 34.5625 8.28125 
Q 37.984375 10.453125 37.984375 14.40625 
Q 37.984375 18.0625 35.515625 20.015625 
Q 33.0625 21.96875 24.703125 23.78125 
L 21.578125 24.515625 
Q 13.234375 26.265625 9.515625 29.90625 
Q 5.8125 33.546875 5.8125 39.890625 
Q 5.8125 47.609375 11.28125 51.796875 
Q 16.75 56 26.8125 56 
Q 31.78125 56 36.171875 55.265625 
Q 40.578125 54.546875 44.28125 53.078125 
z
" id="DejaVuSans-115"/>
       <path d="M 48.78125 52.59375 
L 48.78125 44.1875 
Q 44.96875 46.296875 41.140625 47.34375 
Q 37.3125 48.390625 33.40625 48.390625 
Q 24.65625 48.390625 19.8125 42.84375 
Q 14.984375 37.3125 14.984375 27.296875 
Q 14.984375 17.28125 19.8125 11.734375 
Q 24.65625 6.203125 33.40625 6.203125 
Q 37.3125 6.203125 41.140625 7.25 
Q 44.96875 8.296875 48.78125 10.40625 
L 48.78125 2.09375 
Q 45.015625 0.34375 40.984375 -0.53125 
Q 36.96875 -1.421875 32.421875 -1.421875 
Q 20.0625 -1.421875 12.78125 6.34375 
Q 5.515625 14.109375 5.515625 27.296875 
Q 5.515625 40.671875 12.859375 48.328125 
Q 20.21875 56 33.015625 56 
Q 37.15625 56 41.109375 55.140625 
Q 45.0625 54.296875 48.78125 52.59375 
z
" id="DejaVuSans-99"/>
       <path d="M 41.109375 46.296875 
Q 39.59375 47.171875 37.8125 47.578125 
Q 36.03125 48 33.890625 48 
Q 26.265625 48 22.1875 43.046875 
Q 18.109375 38.09375 18.109375 28.8125 
L 18.109375 0 
L 9.078125 0 
L 9.078125 54.6875 
L 18.109375 54.6875 
L 18.109375 46.1875 
Q 20.953125 51.171875 25.484375 53.578125 
Q 30.03125 56 36.53125 56 
Q 37.453125 56 38.578125 55.875 
Q 39.703125 55.765625 41.0625 55.515625 
z
" id="DejaVuSans-114"/>
       <path d="M 18.3125 70.21875 
L 18.3125 54.6875 
L 36.8125 54.6875 
L 36.8125 47.703125 
L 18.3125 47.703125 
L 18.3125 18.015625 
Q 18.3125 11.328125 20.140625 9.421875 
Q 21.96875 7.515625 27.59375 7.515625 
L 36.8125 7.515625 
L 36.8125 0 
L 27.59375 0 
Q 17.1875 0 13.234375 3.875 
Q 9.28125 7.765625 9.28125 18.015625 
L 9.28125 47.703125 
L 2.6875 47.703125 
L 2.6875 54.6875 
L 9.28125 54.6875 
L 9.28125 70.21875 
z
" id="DejaVuSans-116"/>
      </defs>
      <use xlink:href="#DejaVuSans-84"/>
      <use x="44.083984" xlink:href="#DejaVuSans-101"/>
      <use x="105.607422" xlink:href="#DejaVuSans-109"/>
      <use x="203.019531" xlink:href="#DejaVuSans-112"/>
      <use x="266.496094" xlink:href="#DejaVuSans-111"/>
      <use x="327.677734" xlink:href="#DejaVuSans-32"/>
      <use x="359.464844" xlink:href="#DejaVuSans-100"/>
      <use x="422.941406" xlink:href="#DejaVuSans-105"/>
      <use x="450.724609" xlink:href="#DejaVuSans-115"/>
      <use x="502.824219" xlink:href="#DejaVuSans-99"/>
      <use x="557.804688" xlink:href="#DejaVuSans-114"/>
      <use x="596.667969" xlink:href="#DejaVuSans-101"/>
      <use x="658.191406" xlink:href="#DejaVuSans-116"/>
      <use x="697.400391" xlink:href="#DejaVuSans-111"/>
     </g>
    </g>
   </g>
   <g id="matplotlib.axis_2">
    <g id="ytick_1">
     <g id="line2d_10">
      <defs>
       <path d="M 0 0 
L -3.5 0 
" id="m033cba7fcd" style="stroke:#000000;stroke-width:0.8;"/>
      </defs>
      <g>
       <use style="stroke:#000000;stroke-width:0.8;" x="50.314063" xlink:href="#m033cba7fcd" y="270.0915"/>
      </g>
     </g>
     <g id="text_11">
      <!-- 2.5 -->
      <g transform="translate(27.410938 273.890719)scale(0.1 -0.1)">
       <defs>
        <path d="M 10.6875 12.40625 
L 21 12.40625 
L 21 0 
L 10.6875 0 
z
" id="DejaVuSans-46"/>
       </defs>
       <use xlink:href="#DejaVuSans-50"/>
       <use x="63.623047" xlink:href="#DejaVuSans-46"/>
       <use x="95.410156" xlink:href="#DejaVuSans-53"/>
      </g>
     </g>
    </g>
    <g id="ytick_2">
     <g id="line2d_11">
      <g>
       <use style="stroke:#000000;stroke-width:0.8;" x="50.314063" xlink:href="#m033cba7fcd" y="236.4915"/>
      </g>
     </g>
     <g id="text_12">
      <!-- 5.0 -->
      <g transform="translate(27.410938 240.290719)scale(0.1 -0.1)">
       <use xlink:href="#DejaVuSans-53"/>
       <use x="63.623047" xlink:href="#DejaVuSans-46"/>
       <use x="95.410156" xlink:href="#DejaVuSans-48"/>
      </g>
     </g>
    </g>
    <g id="ytick_3">
     <g id="line2d_12">
      <g>
       <use style="stroke:#000000;stroke-width:0.8;" x="50.314063" xlink:href="#m033cba7fcd" y="202.8915"/>
      </g>
     </g>
     <g id="text_13">
      <!-- 7.5 -->
      <g transform="translate(27.410938 206.690719)scale(0.1 -0.1)">
       <use xlink:href="#DejaVuSans-55"/>
       <use x="63.623047" xlink:href="#DejaVuSans-46"/>
       <use x="95.410156" xlink:href="#DejaVuSans-53"/>
      </g>
     </g>
    </g>
    <g id="ytick_4">
     <g id="line2d_13">
      <g>
       <use style="stroke:#000000;stroke-width:0.8;" x="50.314063" xlink:href="#m033cba7fcd" y="169.2915"/>
      </g>
     </g>
     <g id="text_14">
      <!-- 10.0 -->
      <g transform="translate(21.048438 173.090719)scale(0.1 -0.1)">
       <use xlink:href="#DejaVuSans-49"/>
       <use x="63.623047" xlink:href="#DejaVuSans-48"/>
       <use x="127.246094" xlink:href="#DejaVuSans-46"/>
       <use x="159.033203" xlink:href="#DejaVuSans-48"/>
      </g>
     </g>
    </g>
    <g id="ytick_5">
     <g id="line2d_14">
      <g>
       <use style="stroke:#000000;stroke-width:0.8;" x="50.314063" xlink:href="#m033cba7fcd" y="135.6915"/>
      </g>
     </g>
     <g id="text_15">
      <!-- 12.5 -->
      <g transform="translate(21.048438 139.490719)scale(0.1 -0.1)">
       <use xlink:href="#DejaVuSans-49"/>
       <use x="63.623047" xlink:href="#DejaVuSans-50"/>
       <use x="127.246094" xlink:href="#DejaVuSans-46"/>
       <use x="159.033203" xlink:href="#DejaVuSans-53"/>
      </g>
     </g>
    </g>
    <g id="ytick_6">
     <g id="line2d_15">
      <g>
       <use style="stroke:#000000;stroke-width:0.8;" x="50.314063" xlink:href="#m033cba7fcd" y="102.0915"/>
      </g>
     </g>
     <g id="text_16">
      <!-- 15.0 -->
      <g transform="translate(21.048438 105.890719)scale(0.1 -0.1)">
       <use xlink:href="#DejaVuSans-49"/>
       <use x="63.623047" xlink:href="#DejaVuSans-53"/>
       <use x="127.246094" xlink:href="#DejaVuSans-46"/>
       <use x="159.033203" xlink:href="#DejaVuSans-48"/>
      </g>
     </g>
    </g>
    <g id="ytick_7">
     <g id="line2d_16">
      <g>
       <use style="stroke:#000000;stroke-width:0.8;" x="50.314063" xlink:href="#m033cba7fcd" y="68.4915"/>
      </g>
     </g>
     <g id="text_17">
      <!-- 17.5 -->
      <g transform="translate(21.048438 72.290719)scale(0.1 -0.1)">
       <use xlink:href="#DejaVuSans-49"/>
       <use x="63.623047" xlink:href="#DejaVuSans-55"/>
       <use x="127.246094" xlink:href="#DejaVuSans-46"/>
       <use x="159.033203" xlink:href="#DejaVuSans-53"/>
      </g>
     </g>
    </g>
    <g id="text_18">
     <!-- Numero de regiões -->
     <g transform="translate(14.96875 216.902437)rotate(-90)scale(0.1 -0.1)">
      <defs>
       <path d="M 9.8125 72.90625 
L 23.09375 72.90625 
L 55.421875 11.921875 
L 55.421875 72.90625 
L 64.984375 72.90625 
L 64.984375 0 
L 51.703125 0 
L 19.390625 60.984375 
L 19.390625 0 
L 9.8125 0 
z
" id="DejaVuSans-78"/>
       <path d="M 8.5 21.578125 
L 8.5 54.6875 
L 17.484375 54.6875 
L 17.484375 21.921875 
Q 17.484375 14.15625 20.5 10.265625 
Q 23.53125 6.390625 29.59375 6.390625 
Q 36.859375 6.390625 41.078125 11.03125 
Q 45.3125 15.671875 45.3125 23.6875 
L 45.3125 54.6875 
L 54.296875 54.6875 
L 54.296875 0 
L 45.3125 0 
L 45.3125 8.40625 
Q 42.046875 3.421875 37.71875 1 
Q 33.40625 -1.421875 27.6875 -1.421875 
Q 18.265625 -1.421875 13.375 4.4375 
Q 8.5 10.296875 8.5 21.578125 
z
M 31.109375 56 
z
" id="DejaVuSans-117"/>
       <path d="M 45.40625 27.984375 
Q 45.40625 37.75 41.375 43.109375 
Q 37.359375 48.484375 30.078125 48.484375 
Q 22.859375 48.484375 18.828125 43.109375 
Q 14.796875 37.75 14.796875 27.984375 
Q 14.796875 18.265625 18.828125 12.890625 
Q 22.859375 7.515625 30.078125 7.515625 
Q 37.359375 7.515625 41.375 12.890625 
Q 45.40625 18.265625 45.40625 27.984375 
z
M 54.390625 6.78125 
Q 54.390625 -7.171875 48.1875 -13.984375 
Q 42 -20.796875 29.203125 -20.796875 
Q 24.46875 -20.796875 20.265625 -20.09375 
Q 16.0625 -19.390625 12.109375 -17.921875 
L 12.109375 -9.1875 
Q 16.0625 -11.328125 19.921875 -12.34375 
Q 23.78125 -13.375 27.78125 -13.375 
Q 36.625 -13.375 41.015625 -8.765625 
Q 45.40625 -4.15625 45.40625 5.171875 
L 45.40625 9.625 
Q 42.625 4.78125 38.28125 2.390625 
Q 33.9375 0 27.875 0 
Q 17.828125 0 11.671875 7.65625 
Q 5.515625 15.328125 5.515625 27.984375 
Q 5.515625 40.671875 11.671875 48.328125 
Q 17.828125 56 27.875 56 
Q 33.9375 56 38.28125 53.609375 
Q 42.625 51.21875 45.40625 46.390625 
L 45.40625 54.6875 
L 54.390625 54.6875 
z
" id="DejaVuSans-103"/>
       <path d="M 30.609375 48.390625 
Q 23.390625 48.390625 19.1875 42.75 
Q 14.984375 37.109375 14.984375 27.296875 
Q 14.984375 17.484375 19.15625 11.84375 
Q 23.34375 6.203125 30.609375 6.203125 
Q 37.796875 6.203125 41.984375 11.859375 
Q 46.1875 17.53125 46.1875 27.296875 
Q 46.1875 37.015625 41.984375 42.703125 
Q 37.796875 48.390625 30.609375 48.390625 
z
M 30.609375 56 
Q 42.328125 56 49.015625 48.375 
Q 55.71875 40.765625 55.71875 27.296875 
Q 55.71875 13.875 49.015625 6.21875 
Q 42.328125 -1.421875 30.609375 -1.421875 
Q 18.84375 -1.421875 12.171875 6.21875 
Q 5.515625 13.875 5.515625 27.296875 
Q 5.515625 40.765625 12.171875 48.375 
Q 18.84375 56 30.609375 56 
z
M 30.4375 66.890625 
L 27.640625 69.578125 
Q 26.578125 70.5625 25.765625 71.015625 
Q 24.96875 71.484375 24.328125 71.484375 
Q 22.46875 71.484375 21.59375 69.703125 
Q 20.71875 67.921875 20.609375 63.921875 
L 14.515625 63.921875 
Q 14.609375 70.515625 17.09375 74.09375 
Q 19.59375 77.6875 24.03125 77.6875 
Q 25.890625 77.6875 27.453125 77 
Q 29.015625 76.3125 30.828125 74.703125 
L 33.609375 72.015625 
Q 34.671875 71.046875 35.484375 70.578125 
Q 36.296875 70.125 36.921875 70.125 
Q 38.78125 70.125 39.65625 71.90625 
Q 40.53125 73.6875 40.640625 77.6875 
L 46.734375 77.6875 
Q 46.640625 71.09375 44.140625 67.5 
Q 41.65625 63.921875 37.21875 63.921875 
Q 35.359375 63.921875 33.796875 64.59375 
Q 32.234375 65.28125 30.4375 66.890625 
z
" id="DejaVuSans-245"/>
      </defs>
      <use xlink:href="#DejaVuSans-78"/>
      <use x="74.804688" xlink:href="#DejaVuSans-117"/>
      <use x="138.183594" xlink:href="#DejaVuSans-109"/>
      <use x="235.595703" xlink:href="#DejaVuSans-101"/>
      <use x="297.119141" xlink:href="#DejaVuSans-114"/>
      <use x="335.982422" xlink:href="#DejaVuSans-111"/>
      <use x="397.164062" xlink:href="#DejaVuSans-32"/>
      <use x="428.951172" xlink:href="#DejaVuSans-100"/>
      <use x="492.427734" xlink:href="#DejaVuSans-101"/>
      <use x="553.951172" xlink:href="#DejaVuSans-32"/>
      <use x="585.738281" xlink:href="#DejaVuSans-114"/>
      <use x="624.601562" xlink:href="#DejaVuSans-101"/>
      <use x="686.125" xlink:href="#DejaVuSans-103"/>
      <use x="749.601562" xlink:href="#DejaVuSans-105"/>
      <use x="777.384766" xlink:href="#DejaVuSans-245"/>
      <use x="838.566406" xlink:href="#DejaVuSans-101"/>
      <use x="900.089844" xlink:href="#DejaVuSans-115"/>
     </g>
    </g>
   </g>
   <g id="line2d_17">
    <path clip-path="url(#pd526b7170d)" d="M 66.54679 290.2515 
L 66.708955 290.2515 
L 66.87112 276.8115 
L 67.033285 276.8115 
L 67.19545 263.3715 
L 107.412397 263.3715 
L 107.574562 262.0915 
L 107.898892 262.0915 
L 108.061057 261.4515 
L 109.196213 261.4515 
L 109.520543 258.8915 
L 110.980029 258.8915 
L 111.142194 257.6115 
L 111.95302 257.6115 
L 112.115185 256.3315 
L 112.439515 256.3315 
L 112.60168 253.7715 
L 112.763845 257.6115 
L 112.926011 256.3315 
L 113.250341 256.3315 
L 113.412506 251.2115 
L 113.574671 256.3315 
L 113.736836 255.0515 
L 113.899001 249.9315 
L 114.061166 253.7715 
L 114.223331 247.3715 
L 114.709827 247.3715 
L 114.871992 251.8515 
L 115.034157 246.0915 
L 115.196322 244.8115 
L 115.358487 249.9315 
L 115.520652 249.9315 
L 115.682817 248.6515 
L 115.844982 241.6115 
L 116.007148 246.7315 
L 116.169313 246.7315 
L 116.331478 240.9715 
L 116.493643 245.4515 
L 116.655808 245.4515 
L 116.817973 244.1715 
L 116.980138 237.7715 
L 117.142303 242.8915 
L 117.304468 242.8915 
L 117.466634 237.7715 
L 117.628799 241.6115 
L 117.790964 239.0515 
L 117.953129 232.6515 
L 118.115294 236.4915 
L 118.277459 235.2115 
L 118.439624 235.2115 
L 118.601789 228.8115 
L 118.763954 232.6515 
L 118.92612 232.6515 
L 119.088285 231.3715 
L 119.25045 231.3715 
L 119.412615 224.9715 
L 119.57478 230.0915 
L 119.736945 223.0515 
L 120.061275 223.0515 
L 120.22344 228.1715 
L 120.385606 225.6115 
L 120.547771 220.4915 
L 120.709936 225.6115 
L 120.872101 219.2115 
L 121.034266 224.3315 
L 121.196431 224.3315 
L 121.358596 219.2115 
L 121.520761 218.5715 
L 121.682926 218.5715 
L 121.845091 217.9315 
L 122.007257 223.0515 
L 122.169422 217.9315 
L 122.331587 216.6515 
L 122.493752 221.7715 
L 122.655917 216.6515 
L 122.818082 221.7715 
L 122.980247 216.6515 
L 123.142412 216.6515 
L 123.304577 221.7715 
L 123.466743 216.6515 
L 123.628908 220.4915 
L 123.791073 215.3715 
L 123.953238 215.3715 
L 124.115403 218.5715 
L 124.601898 218.5715 
L 124.764063 213.4515 
L 124.926229 218.5715 
L 125.088394 213.4515 
L 125.250559 218.5715 
L 125.412724 210.8915 
L 125.574889 210.8915 
L 125.737054 216.0115 
L 125.899219 210.8915 
L 126.061384 216.0115 
L 126.223549 216.0115 
L 126.385714 210.8915 
L 126.54788 214.7315 
L 126.710045 209.6115 
L 126.87221 209.6115 
L 127.034375 214.7315 
L 127.19654 209.6115 
L 127.358705 209.6115 
L 127.52087 214.7315 
L 127.8452 214.7315 
L 128.007366 209.6115 
L 128.331696 209.6115 
L 128.493861 214.7315 
L 128.980356 214.7315 
L 129.142521 209.6115 
L 129.304686 214.7315 
L 129.466852 208.3315 
L 129.629017 207.6915 
L 129.791182 212.8115 
L 129.953347 207.6915 
L 130.115512 212.8115 
L 130.277677 207.6915 
L 130.439842 207.6915 
L 130.602007 211.5315 
L 130.764172 206.4115 
L 131.088503 206.4115 
L 131.250668 211.5315 
L 131.412833 211.5315 
L 131.574998 206.4115 
L 131.737163 211.5315 
L 131.899328 211.5315 
L 132.061493 206.4115 
L 132.223658 210.2515 
L 132.385823 205.1315 
L 132.547989 210.2515 
L 132.710154 210.2515 
L 132.872319 205.1315 
L 133.034484 205.1315 
L 133.196649 210.2515 
L 133.358814 205.1315 
L 133.520979 210.2515 
L 133.683144 205.1315 
L 133.845309 203.8515 
L 134.007475 203.8515 
L 134.16964 208.9715 
L 134.49397 208.9715 
L 134.656135 203.8515 
L 134.8183 208.9715 
L 135.304795 208.9715 
L 135.466961 203.8515 
L 135.629126 206.4115 
L 135.953456 206.4115 
L 136.115621 203.8515 
L 136.439951 203.8515 
L 136.602116 206.4115 
L 137.575107 206.4115 
L 137.737272 203.8515 
L 137.899437 206.4115 
L 138.061602 206.4115 
L 138.223767 203.8515 
L 138.385932 203.8515 
L 138.548098 206.4115 
L 138.710263 203.8515 
L 138.872428 206.4115 
L 139.034593 203.8515 
L 139.196758 206.4115 
L 139.358923 206.4115 
L 139.521088 203.8515 
L 139.683253 206.4115 
L 139.845418 203.8515 
L 140.007584 203.8515 
L 140.169749 206.4115 
L 140.331914 203.8515 
L 140.494079 206.4115 
L 140.656244 203.8515 
L 141.304904 203.8515 
L 141.467069 206.4115 
L 141.629235 203.8515 
L 141.7914 206.4115 
L 141.953565 203.8515 
L 142.277895 203.8515 
L 142.44006 206.4115 
L 142.602225 203.8515 
L 142.76439 203.8515 
L 142.926555 206.4115 
L 143.088721 206.4115 
L 143.250886 203.8515 
L 143.575216 203.8515 
L 143.737381 206.4115 
L 143.899546 206.4115 
L 144.061711 203.8515 
L 144.223876 206.4115 
L 144.386041 203.8515 
L 144.548207 206.4115 
L 144.710372 203.8515 
L 144.872537 206.4115 
L 145.359032 206.4115 
L 145.521197 203.8515 
L 146.656353 203.8515 
L 146.818518 206.4115 
L 146.980683 203.8515 
L 147.142848 206.4115 
L 147.467178 206.4115 
L 147.629344 203.8515 
L 147.953674 203.8515 
L 148.115839 206.4115 
L 148.278004 203.8515 
L 148.764499 203.8515 
L 148.926664 206.4115 
L 149.575325 206.4115 
L 149.73749 203.8515 
L 149.899655 206.4115 
L 150.06182 203.8515 
L 150.223985 203.2115 
L 150.548316 203.2115 
L 150.710481 205.7715 
L 150.872646 203.2115 
L 151.196976 203.2115 
L 151.359141 204.4915 
L 151.521306 201.9315 
L 151.683471 201.9315 
L 151.845636 204.4915 
L 152.007801 204.4915 
L 152.169967 201.9315 
L 152.332132 204.4915 
L 152.494297 201.9315 
L 152.656462 201.9315 
L 152.818627 204.4915 
L 152.980792 204.4915 
L 153.142957 201.9315 
L 153.305122 204.4915 
L 153.467287 201.9315 
L 154.926773 201.9315 
L 155.088939 204.4915 
L 155.251104 201.9315 
L 155.575434 201.9315 
L 155.737599 204.4915 
L 155.899764 201.9315 
L 156.061929 201.9315 
L 156.224094 204.4915 
L 156.386259 201.9315 
L 156.548425 204.4915 
L 156.71059 201.9315 
L 156.872755 201.9315 
L 157.03492 204.4915 
L 157.197085 201.9315 
L 157.35925 204.4915 
L 157.521415 204.4915 
L 157.68358 201.9315 
L 157.845745 204.4915 
L 158.00791 201.9315 
L 158.170076 204.4915 
L 158.332241 201.9315 
L 158.656571 201.9315 
L 158.818736 204.4915 
L 158.980901 201.9315 
L 159.143066 204.4915 
L 159.305231 201.9315 
L 159.467396 204.4915 
L 159.629562 201.9315 
L 159.791727 201.9315 
L 159.953892 204.4915 
L 160.278222 204.4915 
L 160.440387 201.9315 
L 160.602552 204.4915 
L 160.926882 204.4915 
L 161.089048 201.9315 
L 161.251213 204.4915 
L 161.575543 204.4915 
L 161.737708 201.9315 
L 162.062038 201.9315 
L 162.224203 204.4915 
L 162.386368 201.9315 
L 162.548533 204.4915 
L 162.710699 201.9315 
L 162.872864 204.4915 
L 163.197194 204.4915 
L 163.359359 201.9315 
L 163.521524 204.4915 
L 163.683689 204.4915 
L 163.845854 201.9315 
L 164.008019 201.9315 
L 164.170185 204.4915 
L 164.33235 201.9315 
L 164.494515 201.9315 
L 164.65668 204.4915 
L 164.818845 201.9315 
L 164.98101 201.9315 
L 165.143175 204.4915 
L 165.30534 204.4915 
L 165.467505 201.9315 
L 165.629671 201.9315 
L 165.791836 200.6515 
L 165.954001 203.2115 
L 166.116166 200.6515 
L 166.440496 200.6515 
L 166.602661 203.2115 
L 166.926991 203.2115 
L 167.089156 200.6515 
L 167.251322 203.2115 
L 167.413487 200.6515 
L 167.737817 200.6515 
L 167.899982 203.2115 
L 168.062147 203.2115 
L 168.224312 200.6515 
L 168.548642 200.6515 
L 168.710808 203.2115 
L 168.872973 200.6515 
L 169.035138 203.2115 
L 169.197303 203.2115 
L 169.359468 199.3715 
L 169.521633 199.3715 
L 169.683798 201.9315 
L 169.845963 201.9315 
L 170.008128 199.3715 
L 170.332459 199.3715 
L 170.494624 201.9315 
L 170.656789 199.3715 
L 170.818954 201.9315 
L 170.981119 199.3715 
L 171.143284 201.9315 
L 171.305449 199.3715 
L 171.467614 199.3715 
L 171.62978 201.9315 
L 171.791945 199.3715 
L 172.27844 199.3715 
L 172.440605 201.9315 
L 172.60277 199.3715 
L 172.764935 201.9315 
L 172.9271 199.3715 
L 173.089265 201.9315 
L 173.251431 201.9315 
L 173.413596 199.3715 
L 173.737926 199.3715 
L 173.900091 201.9315 
L 174.062256 199.3715 
L 174.224421 199.3715 
L 174.386586 201.9315 
L 174.548751 199.3715 
L 175.521742 199.3715 
L 175.683907 201.9315 
L 176.332568 201.9315 
L 176.494733 199.3715 
L 176.656898 199.3715 
L 176.819063 201.9315 
L 176.981228 199.3715 
L 177.143393 199.3715 
L 177.305558 201.9315 
L 177.467723 199.3715 
L 177.629888 201.9315 
L 177.792054 199.3715 
L 177.954219 201.9315 
L 178.116384 199.3715 
L 178.278549 201.9315 
L 178.440714 199.3715 
L 178.602879 199.3715 
L 178.765044 201.9315 
L 179.413705 201.9315 
L 179.57587 199.3715 
L 179.738035 199.3715 
L 179.9002 201.9315 
L 180.062365 199.3715 
L 180.22453 201.9315 
L 180.386695 199.3715 
L 180.54886 201.9315 
L 181.035356 201.9315 
L 181.197521 199.3715 
L 181.359686 199.3715 
L 181.521851 201.9315 
L 181.846181 201.9315 
L 182.008346 199.3715 
L 182.981337 199.3715 
L 183.143502 201.9315 
L 183.305667 199.3715 
L 183.467832 201.9315 
L 183.629997 199.3715 
L 183.792163 201.9315 
L 184.116493 201.9315 
L 184.278658 199.3715 
L 185.089483 199.3715 
L 185.251649 201.9315 
L 185.413814 199.3715 
L 185.575979 201.9315 
L 185.738144 201.9315 
L 185.900309 199.3715 
L 186.062474 201.9315 
L 186.224639 201.9315 
L 186.386804 199.3715 
L 186.711135 199.3715 
L 186.8733 201.9315 
L 187.035465 199.3715 
L 187.84629 199.3715 
L 188.008455 201.9315 
L 188.332786 201.9315 
L 188.494951 199.3715 
L 188.657116 201.9315 
L 188.819281 201.9315 
L 188.981446 199.3715 
L 189.305776 199.3715 
L 189.467941 201.9315 
L 189.630106 201.9315 
L 189.792272 199.3715 
L 189.954437 199.3715 
L 190.116602 201.9315 
L 190.440932 201.9315 
L 190.603097 199.3715 
L 190.765262 199.3715 
L 190.927427 201.9315 
L 191.089592 201.9315 
L 191.251758 199.3715 
L 191.413923 201.9315 
L 191.738253 201.9315 
L 191.900418 199.3715 
L 192.062583 201.9315 
L 192.224748 199.3715 
L 192.549078 199.3715 
L 192.711244 201.9315 
L 192.873409 201.9315 
L 193.035574 199.3715 
L 193.197739 201.9315 
L 193.359904 199.3715 
L 193.522069 201.9315 
L 194.332895 201.9315 
L 194.49506 199.3715 
L 194.657225 201.9315 
L 194.81939 199.3715 
L 194.981555 201.9315 
L 195.954546 201.9315 
L 196.116711 199.3715 
L 196.278876 201.9315 
L 196.441041 201.9315 
L 196.603206 199.3715 
L 196.765371 201.9315 
L 196.927536 199.3715 
L 197.089701 201.9315 
L 197.251867 201.9315 
L 197.414032 199.3715 
L 197.576197 201.9315 
L 197.738362 199.3715 
L 197.900527 199.3715 
L 198.062692 201.9315 
L 198.224857 199.3715 
L 198.387022 199.3715 
L 198.549187 201.9315 
L 198.711352 199.3715 
L 198.873518 201.9315 
L 199.197848 201.9315 
L 199.360013 199.3715 
L 199.522178 201.9315 
L 199.684343 199.3715 
L 200.008673 199.3715 
L 200.170838 201.9315 
L 200.333004 199.3715 
L 200.495169 201.9315 
L 200.657334 199.3715 
L 200.819499 201.9315 
L 200.981664 199.3715 
L 201.143829 201.9315 
L 201.630324 201.9315 
L 201.79249 199.3715 
L 201.954655 201.9315 
L 202.11682 199.3715 
L 202.278985 201.9315 
L 202.44115 199.3715 
L 202.76548 199.3715 
L 202.927645 201.9315 
L 203.738471 201.9315 
L 203.900636 199.3715 
L 204.062801 200.6515 
L 204.387131 200.6515 
L 204.549296 198.0915 
L 204.711461 200.6515 
L 204.873627 198.0915 
L 205.035792 200.6515 
L 205.522287 200.6515 
L 205.684452 198.0915 
L 205.846617 198.0915 
L 206.008782 200.6515 
L 206.170947 198.0915 
L 206.333113 200.6515 
L 207.143938 200.6515 
L 207.306103 198.0915 
L 207.468268 200.6515 
L 207.630433 200.6515 
L 207.954764 196.8115 
L 208.116929 196.8115 
L 208.279094 199.3715 
L 208.441259 199.3715 
L 208.603424 196.8115 
L 208.765589 199.3715 
L 208.927754 196.8115 
L 209.089919 196.8115 
L 209.252084 199.3715 
L 209.41425 196.8115 
L 209.576415 199.3715 
L 209.73858 199.3715 
L 209.900745 196.8115 
L 210.06291 199.3715 
L 210.225075 199.3715 
L 210.38724 196.8115 
L 210.549405 196.8115 
L 210.71157 199.3715 
L 210.873736 196.8115 
L 211.684561 196.8115 
L 211.846726 199.3715 
L 212.171056 199.3715 
L 212.333222 196.8115 
L 212.495387 199.3715 
L 212.657552 196.8115 
L 212.819717 196.8115 
L 212.981882 199.3715 
L 213.144047 196.8115 
L 213.306212 199.3715 
L 213.954873 199.3715 
L 214.117038 196.8115 
L 214.279203 196.8115 
L 214.441368 198.0915 
L 214.603533 195.5315 
L 214.765698 195.5315 
L 214.927863 198.0915 
L 215.090028 198.0915 
L 215.252193 195.5315 
L 215.414359 198.0915 
L 215.576524 196.8115 
L 215.900854 196.8115 
L 216.063019 194.2515 
L 216.225184 194.2515 
L 216.387349 196.8115 
L 216.549514 194.2515 
L 216.873845 194.2515 
L 217.03601 196.8115 
L 217.198175 194.2515 
L 217.36034 196.8115 
L 217.522505 196.8115 
L 217.68467 194.2515 
L 218.171165 194.2515 
L 218.333331 196.8115 
L 218.495496 196.8115 
L 218.981991 192.3315 
L 219.144156 194.8915 
L 219.306321 192.3315 
L 219.468486 193.6115 
L 219.630651 191.0515 
L 220.279312 191.0515 
L 220.441477 193.6115 
L 220.603642 191.0515 
L 220.765807 193.6115 
L 220.927972 191.0515 
L 221.090137 193.6115 
L 221.576633 193.6115 
L 221.900963 188.4915 
L 222.387458 188.4915 
L 222.549623 191.0515 
L 222.873954 191.0515 
L 223.036119 188.4915 
L 223.846944 188.4915 
L 224.009109 191.0515 
L 224.333439 191.0515 
L 224.495605 188.4915 
L 224.65777 191.0515 
L 224.9821 191.0515 
L 225.144265 188.4915 
L 225.30643 191.0515 
L 225.63076 191.0515 
L 225.792925 188.4915 
L 225.955091 191.0515 
L 226.117256 188.4915 
L 226.765916 188.4915 
L 226.928081 191.0515 
L 227.090246 188.4915 
L 227.252411 191.0515 
L 227.414577 191.0515 
L 227.576742 188.4915 
L 228.063237 188.4915 
L 228.225402 191.0515 
L 228.387567 188.4915 
L 228.711897 188.4915 
L 228.874063 189.7715 
L 229.036228 187.2115 
L 229.198393 189.7715 
L 229.847053 189.7715 
L 230.009218 187.2115 
L 230.171383 189.7715 
L 230.495714 189.7715 
L 230.657879 187.2115 
L 230.820044 187.2115 
L 230.982209 189.7715 
L 231.144374 187.2115 
L 231.468704 187.2115 
L 231.630869 189.7715 
L 231.793034 189.7715 
L 231.9552 187.2115 
L 232.117365 189.7715 
L 232.27953 187.2115 
L 232.441695 187.2115 
L 232.60386 188.4915 
L 232.766025 185.9315 
L 232.92819 185.9315 
L 233.090355 188.4915 
L 233.25252 188.4915 
L 233.414686 183.3715 
L 233.576851 188.4915 
L 233.739016 183.3715 
L 233.901181 188.4915 
L 234.063346 188.4915 
L 234.225511 183.3715 
L 234.387676 188.4915 
L 234.549841 188.4915 
L 234.712006 180.8115 
L 234.874171 185.9315 
L 235.360667 185.9315 
L 235.522832 178.2515 
L 235.684997 185.9315 
L 236.009327 185.9315 
L 236.171492 178.2515 
L 236.333657 185.9315 
L 237.306648 185.9315 
L 237.468813 178.2515 
L 237.630978 185.9315 
L 237.793143 178.2515 
L 237.955309 185.9315 
L 238.117474 184.6515 
L 238.279639 176.9715 
L 238.441804 184.6515 
L 238.603969 176.9715 
L 238.766134 184.6515 
L 238.928299 184.6515 
L 239.090464 176.9715 
L 239.252629 184.6515 
L 239.739125 184.6515 
L 239.90129 176.9715 
L 240.063455 176.9715 
L 240.22562 184.6515 
L 240.387785 176.9715 
L 240.54995 184.6515 
L 240.712115 184.6515 
L 240.87428 176.9715 
L 241.036446 184.6515 
L 241.522941 184.6515 
L 241.685106 183.3715 
L 241.847271 183.3715 
L 242.009436 175.6915 
L 242.171601 183.3715 
L 242.333766 183.3715 
L 242.495932 182.0915 
L 242.658097 174.4115 
L 242.820262 174.4115 
L 242.982427 182.0915 
L 243.306757 182.0915 
L 243.468922 174.4115 
L 243.631087 182.0915 
L 243.955418 182.0915 
L 244.117583 174.4115 
L 244.279748 179.5315 
L 244.441913 173.1315 
L 244.604078 173.1315 
L 244.766243 178.2515 
L 244.928408 173.1315 
L 245.090573 173.1315 
L 245.252738 178.2515 
L 245.414903 173.1315 
L 245.577069 173.1315 
L 245.739234 178.2515 
L 245.901399 173.1315 
L 246.063564 178.2515 
L 246.225729 173.1315 
L 246.712224 173.1315 
L 246.874389 178.2515 
L 247.52305 178.2515 
L 247.685215 173.1315 
L 247.84738 171.8515 
L 248.009545 176.9715 
L 248.17171 176.9715 
L 248.333875 171.8515 
L 248.496041 176.9715 
L 248.658206 171.8515 
L 248.820371 176.9715 
L 248.982536 176.9715 
L 249.144701 171.8515 
L 249.955526 171.8515 
L 250.117692 176.9715 
L 250.279857 175.6915 
L 250.442022 170.5715 
L 250.604187 170.5715 
L 250.766352 175.6915 
L 250.928517 175.6915 
L 251.090682 170.5715 
L 251.252847 170.5715 
L 251.415012 174.4115 
L 251.577178 174.4115 
L 251.739343 173.1315 
L 251.901508 168.0115 
L 252.063673 171.8515 
L 252.225838 171.8515 
L 252.388003 166.7315 
L 252.550168 171.8515 
L 252.712333 166.7315 
L 252.874498 166.7315 
L 253.036664 171.8515 
L 253.198829 166.7315 
L 253.685324 166.7315 
L 253.847489 171.8515 
L 254.009654 165.4515 
L 254.171819 170.5715 
L 254.333984 165.4515 
L 254.49615 165.4515 
L 254.658315 170.5715 
L 254.82048 165.4515 
L 254.982645 170.5715 
L 255.14481 165.4515 
L 255.306975 170.5715 
L 255.46914 165.4515 
L 255.631305 165.4515 
L 255.79347 170.5715 
L 255.955635 170.5715 
L 256.117801 165.4515 
L 256.604296 165.4515 
L 256.766461 170.5715 
L 257.415121 170.5715 
L 257.577287 165.4515 
L 257.901617 165.4515 
L 258.063782 170.5715 
L 258.225947 165.4515 
L 258.388112 170.5715 
L 259.036773 170.5715 
L 259.198938 169.2915 
L 259.361103 169.2915 
L 259.523268 164.1715 
L 259.685433 169.2915 
L 259.847598 169.2915 
L 260.009763 162.8915 
L 260.658424 162.8915 
L 260.820589 166.7315 
L 261.144919 166.7315 
L 261.307084 161.6115 
L 261.469249 166.7315 
L 261.631414 161.6115 
L 261.793579 161.6115 
L 261.955744 166.7315 
L 262.11791 166.7315 
L 262.280075 161.6115 
L 262.44224 166.7315 
L 262.76657 166.7315 
L 262.928735 161.6115 
L 263.0909 165.4515 
L 263.253065 165.4515 
L 263.41523 160.3315 
L 263.577396 165.4515 
L 263.739561 160.3315 
L 263.901726 165.4515 
L 264.063891 160.3315 
L 264.226056 165.4515 
L 264.388221 160.3315 
L 264.550386 160.3315 
L 264.712551 165.4515 
L 264.874716 165.4515 
L 265.036881 160.3315 
L 265.199047 165.4515 
L 265.361212 165.4515 
L 265.523377 159.0515 
L 265.685542 164.1715 
L 265.847707 159.0515 
L 266.172037 159.0515 
L 266.334202 164.1715 
L 266.496367 164.1715 
L 266.658533 159.0515 
L 266.820698 157.7715 
L 266.982863 162.8915 
L 267.145028 157.7715 
L 267.307193 157.7715 
L 267.469358 162.8915 
L 267.631523 162.8915 
L 267.793688 161.6115 
L 267.955853 156.4915 
L 268.118019 161.6115 
L 268.442349 161.6115 
L 268.604514 156.4915 
L 268.766679 161.6115 
L 268.928844 161.6115 
L 269.091009 156.4915 
L 269.253174 156.4915 
L 269.415339 161.6115 
L 270.064 161.6115 
L 270.226165 156.4915 
L 270.550495 156.4915 
L 270.71266 161.6115 
L 271.03699 161.6115 
L 271.199156 156.4915 
L 271.361321 156.4915 
L 271.523486 155.2115 
L 271.685651 159.0515 
L 271.847816 153.9315 
L 272.009981 159.0515 
L 272.172146 153.9315 
L 272.334311 159.0515 
L 272.496476 153.9315 
L 272.658642 157.7715 
L 273.631632 157.7715 
L 273.793797 152.6515 
L 273.955962 157.7715 
L 274.118128 156.4915 
L 274.280293 151.3715 
L 274.442458 156.4915 
L 274.604623 151.3715 
L 274.766788 156.4915 
L 274.928953 151.3715 
L 275.091118 151.3715 
L 275.253283 156.4915 
L 275.415448 156.4915 
L 275.577613 151.3715 
L 275.739779 156.4915 
L 275.901944 151.3715 
L 276.064109 156.4915 
L 276.226274 151.3715 
L 276.388439 156.4915 
L 276.550604 151.3715 
L 276.712769 156.4915 
L 276.874934 156.4915 
L 277.037099 155.2115 
L 277.199265 155.2115 
L 277.36143 148.8115 
L 277.523595 153.9315 
L 277.68576 148.8115 
L 277.847925 148.8115 
L 278.01009 153.9315 
L 278.172255 148.8115 
L 278.33442 153.9315 
L 278.496585 148.8115 
L 278.658751 153.9315 
L 278.820916 153.9315 
L 278.983081 148.8115 
L 279.145246 148.8115 
L 279.307411 153.9315 
L 279.469576 148.8115 
L 279.631741 153.9315 
L 279.793906 153.9315 
L 279.956071 148.8115 
L 280.118237 153.9315 
L 280.280402 153.9315 
L 280.442567 148.8115 
L 280.604732 148.8115 
L 280.766897 153.9315 
L 280.929062 153.9315 
L 281.091227 148.8115 
L 281.253392 153.9315 
L 281.415557 148.8115 
L 282.064218 148.8115 
L 282.226383 153.9315 
L 282.388548 153.9315 
L 282.550713 148.8115 
L 282.712878 148.8115 
L 282.875043 152.6515 
L 283.037208 147.5315 
L 283.523704 147.5315 
L 283.685869 144.9715 
L 284.010199 144.9715 
L 284.172364 150.0915 
L 284.65886 150.0915 
L 284.821025 144.9715 
L 284.98319 150.0915 
L 285.145355 144.9715 
L 285.30752 143.6915 
L 285.469685 143.6915 
L 285.63185 148.8115 
L 285.794015 143.6915 
L 285.95618 148.8115 
L 286.118345 143.6915 
L 286.280511 143.6915 
L 286.442676 148.8115 
L 286.604841 143.6915 
L 286.767006 143.6915 
L 286.929171 148.8115 
L 287.091336 148.8115 
L 287.253501 143.6915 
L 287.415666 146.2515 
L 287.739997 146.2515 
L 287.902162 143.6915 
L 288.064327 146.2515 
L 288.226492 143.6915 
L 288.388657 143.6915 
L 288.550822 146.2515 
L 288.712987 143.6915 
L 288.875152 143.6915 
L 289.037317 142.4115 
L 289.199483 144.9715 
L 289.361648 143.6915 
L 289.685978 143.6915 
L 289.848143 141.1315 
L 290.010308 143.6915 
L 290.334638 139.8515 
L 290.496803 139.8515 
L 290.658969 142.4115 
L 290.821134 141.1315 
L 290.983299 138.5715 
L 291.145464 138.5715 
L 291.307629 141.1315 
L 291.631959 141.1315 
L 291.794124 138.5715 
L 291.956289 141.1315 
L 292.118454 141.1315 
L 292.28062 138.5715 
L 292.442785 138.5715 
L 292.60495 141.1315 
L 292.767115 138.5715 
L 292.92928 141.1315 
L 293.091445 141.1315 
L 293.25361 138.5715 
L 293.415775 138.5715 
L 293.57794 141.1315 
L 293.740106 141.1315 
L 294.064436 137.2915 
L 294.226601 139.8515 
L 294.388766 136.0115 
L 294.875261 136.0115 
L 295.037426 138.5715 
L 295.199592 136.0115 
L 295.523922 136.0115 
L 295.686087 138.5715 
L 296.010417 134.7315 
L 296.172582 134.7315 
L 296.334747 137.2915 
L 296.496912 134.7315 
L 296.659077 134.7315 
L 296.821243 137.2915 
L 296.983408 134.7315 
L 297.145573 136.0115 
L 298.929389 136.0115 
L 299.253719 132.1715 
L 299.578049 132.1715 
L 299.740215 129.6115 
L 300.064545 129.6115 
L 300.22671 132.1715 
L 300.388875 130.8915 
L 300.55104 130.8915 
L 300.713205 128.3315 
L 300.87537 130.8915 
L 301.037535 128.3315 
L 301.1997 130.8915 
L 301.361866 128.3315 
L 301.524031 129.6115 
L 301.686196 129.6115 
L 301.848361 128.3315 
L 302.010526 125.7715 
L 302.172691 128.3315 
L 302.334856 128.3315 
L 302.497021 124.4915 
L 302.659186 124.4915 
L 302.821352 125.7715 
L 302.983517 123.2115 
L 303.307847 123.2115 
L 303.470012 125.7715 
L 303.794342 125.7715 
L 303.956507 123.2115 
L 304.118672 125.7715 
L 304.443003 125.7715 
L 304.605168 123.2115 
L 304.767333 123.2115 
L 304.929498 125.7715 
L 305.091663 123.2115 
L 305.415993 123.2115 
L 305.578158 125.7715 
L 305.740324 123.2115 
L 305.902489 125.7715 
L 306.064654 123.2115 
L 306.226819 123.2115 
L 306.388984 120.6515 
L 306.551149 123.2115 
L 306.713314 119.3715 
L 306.875479 121.9315 
L 307.037644 121.9315 
L 307.199809 119.3715 
L 307.361975 121.9315 
L 307.52414 121.9315 
L 307.686305 119.3715 
L 307.84847 121.9315 
L 308.010635 121.9315 
L 308.1728 119.3715 
L 308.334965 119.3715 
L 308.49713 121.9315 
L 308.821461 121.9315 
L 308.983626 119.3715 
L 309.145791 121.9315 
L 309.307956 121.9315 
L 309.470121 119.3715 
L 310.929607 119.3715 
L 311.091772 121.9315 
L 311.253937 119.3715 
L 311.416102 121.9315 
L 311.578267 119.3715 
L 311.740432 119.3715 
L 311.902598 121.9315 
L 312.064763 121.9315 
L 312.226928 119.3715 
L 312.389093 121.9315 
L 312.713423 121.9315 
L 312.875588 119.3715 
L 313.037753 119.3715 
L 313.199918 121.9315 
L 313.362084 119.3715 
L 313.524249 121.9315 
L 313.686414 119.3715 
L 313.848579 121.9315 
L 314.659404 121.9315 
L 314.983735 116.8115 
L 315.308065 116.8115 
L 315.47023 121.9315 
L 315.632395 121.9315 
L 315.79456 116.8115 
L 315.956725 116.8115 
L 316.11889 121.9315 
L 316.281056 121.9315 
L 316.443221 116.8115 
L 316.605386 121.9315 
L 316.929716 121.9315 
L 317.091881 116.8115 
L 317.578376 116.8115 
L 317.740541 121.9315 
L 317.902707 121.9315 
L 318.064872 116.8115 
L 318.551367 116.8115 
L 318.713532 121.9315 
L 318.875697 116.8115 
L 319.037862 121.9315 
L 319.362193 114.2515 
L 319.524358 121.9315 
L 319.686523 114.2515 
L 319.848688 121.9315 
L 320.010853 114.2515 
L 320.173018 121.9315 
L 320.335183 120.6515 
L 320.497348 120.6515 
L 320.659513 112.9715 
L 321.308174 112.9715 
L 321.470339 120.6515 
L 321.632504 112.9715 
L 321.794669 120.6515 
L 321.956834 120.6515 
L 322.118999 112.9715 
L 322.281164 112.9715 
L 322.44333 111.6915 
L 322.605495 111.6915 
L 322.76766 119.3715 
L 322.929825 111.6915 
L 323.09199 111.6915 
L 323.254155 119.3715 
L 323.41632 111.6915 
L 323.578485 119.3715 
L 323.902816 119.3715 
L 324.064981 118.0915 
L 324.227146 110.4115 
L 324.389311 110.4115 
L 324.551476 118.0915 
L 324.713641 110.4115 
L 324.875806 118.0915 
L 325.037971 118.0915 
L 325.200136 110.4115 
L 325.362302 118.0915 
L 325.686632 118.0915 
L 325.848797 110.4115 
L 326.335292 110.4115 
L 326.497457 118.0915 
L 326.659622 118.0915 
L 326.821788 110.4115 
L 327.146118 110.4115 
L 327.308283 118.0915 
L 327.470448 110.4115 
L 327.632613 118.0915 
L 327.794778 110.4115 
L 327.956943 110.4115 
L 328.119108 118.0915 
L 328.281273 110.4115 
L 328.443439 118.0915 
L 328.605604 110.4115 
L 328.767769 118.0915 
L 328.929934 110.4115 
L 329.092099 110.4115 
L 329.254264 118.0915 
L 329.416429 110.4115 
L 329.740759 110.4115 
L 329.902925 118.0915 
L 330.06509 116.8115 
L 330.227255 116.8115 
L 330.38942 109.1315 
L 330.551585 116.8115 
L 330.71375 109.1315 
L 330.875915 116.8115 
L 331.03808 109.1315 
L 331.200245 116.8115 
L 331.362411 109.1315 
L 331.524576 109.1315 
L 331.686741 116.8115 
L 332.011071 116.8115 
L 332.173236 109.1315 
L 332.335401 116.8115 
L 332.497566 109.1315 
L 332.659731 116.8115 
L 332.984062 116.8115 
L 333.146227 109.1315 
L 333.308392 109.1315 
L 333.470557 116.8115 
L 333.632722 109.1315 
L 333.794887 109.1315 
L 333.957052 107.8515 
L 334.281382 107.8515 
L 334.443548 115.5315 
L 334.605713 107.8515 
L 335.092208 107.8515 
L 335.254373 115.5315 
L 335.416538 107.8515 
L 335.578703 107.8515 
L 335.740868 115.5315 
L 335.903034 115.5315 
L 336.065199 107.8515 
L 336.227364 107.8515 
L 336.389529 115.5315 
L 336.551694 107.8515 
L 336.713859 107.8515 
L 336.876024 115.5315 
L 337.038189 107.8515 
L 337.200354 107.8515 
L 337.362519 115.5315 
L 337.524685 107.8515 
L 337.68685 107.8515 
L 337.849015 115.5315 
L 338.01118 107.8515 
L 338.173345 106.5715 
L 338.822005 106.5715 
L 338.984171 114.2515 
L 339.308501 114.2515 
L 339.470666 104.0115 
L 339.794996 104.0115 
L 339.957161 110.8275 
L 341.254482 110.8275 
L 341.416647 109.4835 
L 343.524794 109.4835 
L 343.686959 108.1395 
L 348.389747 108.1395 
L 348.714077 105.4515 
L 350.497893 105.4515 
L 350.660058 104.1075 
L 354.389856 104.1075 
L 354.552021 102.7635 
L 357.470993 102.7635 
L 357.633158 101.4195 
L 359.741304 101.4195 
L 359.903469 100.0755 
L 362.822441 100.0755 
L 362.984607 98.7315 
L 363.633267 98.7315 
L 363.795432 97.3875 
L 365.579248 97.3875 
L 365.741413 96.0435 
L 366.065744 96.0435 
L 366.227909 94.6995 
L 367.200899 94.6995 
L 367.363064 93.3555 
L 369.471211 93.3555 
L 369.633376 92.0115 
L 372.714513 92.0115 
L 372.876678 91.3395 
L 374.011834 91.3395 
L 374.173999 89.9955 
L 375.633485 89.9955 
L 375.79565 88.6515 
L 377.903796 88.6515 
L 378.228127 85.9635 
L 383.74174 85.9635 
L 383.903905 84.6195 
L 385.849887 84.6195 
L 386.012052 83.2755 
L 386.822877 83.2755 
L 386.985042 81.9315 
L 387.471538 81.9315 
L 387.633703 80.5875 
L 390.71484 80.5875 
L 391.03917 48.3315 
L 391.201335 48.3315 
L 391.201335 48.3315 
" style="fill:none;stroke:#1f77b4;stroke-linecap:square;stroke-width:1.5;"/>
   </g>
   <g id="patch_3">
    <path d="M 50.314063 302.3475 
L 50.314063 36.2355 
" style="fill:none;stroke:#000000;stroke-linecap:square;stroke-linejoin:miter;stroke-width:0.8;"/>
   </g>
   <g id="patch_4">
    <path d="M 407.434062 302.3475 
L 407.434062 36.2355 
" style="fill:none;stroke:#000000;stroke-linecap:square;stroke-linejoin:miter;stroke-width:0.8;"/>
   </g>
   <g id="patch_5">
    <path d="M 50.314063 302.3475 
L 407.434062 302.3475 
" style="fill:none;stroke:#000000;stroke-linecap:square;stroke-linejoin:miter;stroke-width:0.8;"/>
   </g>
   <g id="patch_6">
    <path d="M 50.314063 36.2355 
L 407.434062 36.2355 
" style="fill:none;stroke:#000000;stroke-linecap:square;stroke-linejoin:miter;stroke-width:0.8;"/>
   </g>
   <g id="text_19">
    <!-- Número médio de regiões em função do -->
    <g transform="translate(108.049063 16.798125)scale(0.12 -0.12)">
     <defs>
      <path d="M 8.5 21.578125 
L 8.5 54.6875 
L 17.484375 54.6875 
L 17.484375 21.921875 
Q 17.484375 14.15625 20.5 10.265625 
Q 23.53125 6.390625 29.59375 6.390625 
Q 36.859375 6.390625 41.078125 11.03125 
Q 45.3125 15.671875 45.3125 23.6875 
L 45.3125 54.6875 
L 54.296875 54.6875 
L 54.296875 0 
L 45.3125 0 
L 45.3125 8.40625 
Q 42.046875 3.421875 37.71875 1 
Q 33.40625 -1.421875 27.6875 -1.421875 
Q 18.265625 -1.421875 13.375 4.4375 
Q 8.5 10.296875 8.5 21.578125 
z
M 31.109375 56 
z
M 37.78125 79.984375 
L 47.5 79.984375 
L 31.59375 61.625 
L 24.109375 61.625 
z
" id="DejaVuSans-250"/>
      <path d="M 56.203125 29.59375 
L 56.203125 25.203125 
L 14.890625 25.203125 
Q 15.484375 15.921875 20.484375 11.0625 
Q 25.484375 6.203125 34.421875 6.203125 
Q 39.59375 6.203125 44.453125 7.46875 
Q 49.3125 8.734375 54.109375 11.28125 
L 54.109375 2.78125 
Q 49.265625 0.734375 44.1875 -0.34375 
Q 39.109375 -1.421875 33.890625 -1.421875 
Q 20.796875 -1.421875 13.15625 6.1875 
Q 5.515625 13.8125 5.515625 26.8125 
Q 5.515625 40.234375 12.765625 48.109375 
Q 20.015625 56 32.328125 56 
Q 43.359375 56 49.78125 48.890625 
Q 56.203125 41.796875 56.203125 29.59375 
z
M 47.21875 32.234375 
Q 47.125 39.59375 43.09375 43.984375 
Q 39.0625 48.390625 32.421875 48.390625 
Q 24.90625 48.390625 20.390625 44.140625 
Q 15.875 39.890625 15.1875 32.171875 
z
M 38.53125 79.984375 
L 48.25 79.984375 
L 32.34375 61.625 
L 24.859375 61.625 
z
" id="DejaVuSans-233"/>
      <path d="M 37.109375 75.984375 
L 37.109375 68.5 
L 28.515625 68.5 
Q 23.6875 68.5 21.796875 66.546875 
Q 19.921875 64.59375 19.921875 59.515625 
L 19.921875 54.6875 
L 34.71875 54.6875 
L 34.71875 47.703125 
L 19.921875 47.703125 
L 19.921875 0 
L 10.890625 0 
L 10.890625 47.703125 
L 2.296875 47.703125 
L 2.296875 54.6875 
L 10.890625 54.6875 
L 10.890625 58.5 
Q 10.890625 67.625 15.140625 71.796875 
Q 19.390625 75.984375 28.609375 75.984375 
z
" id="DejaVuSans-102"/>
      <path d="M 54.890625 33.015625 
L 54.890625 0 
L 45.90625 0 
L 45.90625 32.71875 
Q 45.90625 40.484375 42.875 44.328125 
Q 39.84375 48.1875 33.796875 48.1875 
Q 26.515625 48.1875 22.3125 43.546875 
Q 18.109375 38.921875 18.109375 30.90625 
L 18.109375 0 
L 9.078125 0 
L 9.078125 54.6875 
L 18.109375 54.6875 
L 18.109375 46.1875 
Q 21.34375 51.125 25.703125 53.5625 
Q 30.078125 56 35.796875 56 
Q 45.21875 56 50.046875 50.171875 
Q 54.890625 44.34375 54.890625 33.015625 
z
" id="DejaVuSans-110"/>
      <path d="M 48.78125 52.59375 
L 48.78125 44.1875 
Q 44.96875 46.296875 41.140625 47.34375 
Q 37.3125 48.390625 33.40625 48.390625 
Q 24.65625 48.390625 19.8125 42.84375 
Q 14.984375 37.3125 14.984375 27.296875 
Q 14.984375 17.28125 19.8125 11.734375 
Q 24.65625 6.203125 33.40625 6.203125 
Q 37.3125 6.203125 41.140625 7.25 
Q 44.96875 8.296875 48.78125 10.40625 
L 48.78125 2.09375 
Q 45.015625 0.34375 40.984375 -0.53125 
Q 36.96875 -1.421875 32.421875 -1.421875 
Q 20.0625 -1.421875 12.78125 6.34375 
Q 5.515625 14.109375 5.515625 27.296875 
Q 5.515625 40.671875 12.859375 48.328125 
Q 20.21875 56 33.015625 56 
Q 37.15625 56 41.109375 55.140625 
Q 45.0625 54.296875 48.78125 52.59375 
z
M 36.109375 0 
Q 38.78125 -3.03125 40.09375 -5.59375 
Q 41.421875 -8.15625 41.421875 -10.5 
Q 41.421875 -14.84375 38.484375 -17.0625 
Q 35.5625 -19.28125 29.796875 -19.28125 
Q 27.5625 -19.28125 25.4375 -18.984375 
Q 23.3125 -18.703125 21.203125 -18.109375 
L 21.203125 -11.71875 
Q 22.875 -12.546875 24.671875 -12.90625 
Q 26.484375 -13.28125 28.78125 -13.28125 
Q 31.65625 -13.28125 33.125 -12.109375 
Q 34.59375 -10.9375 34.59375 -8.6875 
Q 34.59375 -7.234375 33.53125 -5.109375 
Q 32.484375 -2.984375 30.296875 0 
z
" id="DejaVuSans-231"/>
      <path d="M 34.28125 27.484375 
Q 23.390625 27.484375 19.1875 25 
Q 14.984375 22.515625 14.984375 16.5 
Q 14.984375 11.71875 18.140625 8.90625 
Q 21.296875 6.109375 26.703125 6.109375 
Q 34.1875 6.109375 38.703125 11.40625 
Q 43.21875 16.703125 43.21875 25.484375 
L 43.21875 27.484375 
z
M 52.203125 31.203125 
L 52.203125 0 
L 43.21875 0 
L 43.21875 8.296875 
Q 40.140625 3.328125 35.546875 0.953125 
Q 30.953125 -1.421875 24.3125 -1.421875 
Q 15.921875 -1.421875 10.953125 3.296875 
Q 6 8.015625 6 15.921875 
Q 6 25.140625 12.171875 29.828125 
Q 18.359375 34.515625 30.609375 34.515625 
L 43.21875 34.515625 
L 43.21875 35.40625 
Q 43.21875 41.609375 39.140625 45 
Q 35.0625 48.390625 27.6875 48.390625 
Q 23 48.390625 18.546875 47.265625 
Q 14.109375 46.140625 10.015625 43.890625 
L 10.015625 52.203125 
Q 14.9375 54.109375 19.578125 55.046875 
Q 24.21875 56 28.609375 56 
Q 40.484375 56 46.34375 49.84375 
Q 52.203125 43.703125 52.203125 31.203125 
z
M 28.8125 66.890625 
L 26.015625 69.578125 
Q 24.953125 70.5625 24.140625 71.015625 
Q 23.34375 71.484375 22.703125 71.484375 
Q 20.84375 71.484375 19.96875 69.703125 
Q 19.09375 67.921875 18.984375 63.921875 
L 12.890625 63.921875 
Q 12.984375 70.515625 15.46875 74.09375 
Q 17.96875 77.6875 22.40625 77.6875 
Q 24.265625 77.6875 25.828125 77 
Q 27.390625 76.3125 29.203125 74.703125 
L 31.984375 72.015625 
Q 33.046875 71.046875 33.859375 70.578125 
Q 34.671875 70.125 35.296875 70.125 
Q 37.15625 70.125 38.03125 71.90625 
Q 38.90625 73.6875 39.015625 77.6875 
L 45.109375 77.6875 
Q 45.015625 71.09375 42.515625 67.5 
Q 40.03125 63.921875 35.59375 63.921875 
Q 33.734375 63.921875 32.171875 64.59375 
Q 30.609375 65.28125 28.8125 66.890625 
z
" id="DejaVuSans-227"/>
     </defs>
     <use xlink:href="#DejaVuSans-78"/>
     <use x="74.804688" xlink:href="#DejaVuSans-250"/>
     <use x="138.183594" xlink:href="#DejaVuSans-109"/>
     <use x="235.595703" xlink:href="#DejaVuSans-101"/>
     <use x="297.119141" xlink:href="#DejaVuSans-114"/>
     <use x="335.982422" xlink:href="#DejaVuSans-111"/>
     <use x="397.164062" xlink:href="#DejaVuSans-32"/>
     <use x="428.951172" xlink:href="#DejaVuSans-109"/>
     <use x="526.363281" xlink:href="#DejaVuSans-233"/>
     <use x="587.886719" xlink:href="#DejaVuSans-100"/>
     <use x="651.363281" xlink:href="#DejaVuSans-105"/>
     <use x="679.146484" xlink:href="#DejaVuSans-111"/>
     <use x="740.328125" xlink:href="#DejaVuSans-32"/>
     <use x="772.115234" xlink:href="#DejaVuSans-100"/>
     <use x="835.591797" xlink:href="#DejaVuSans-101"/>
     <use x="897.115234" xlink:href="#DejaVuSans-32"/>
     <use x="928.902344" xlink:href="#DejaVuSans-114"/>
     <use x="967.765625" xlink:href="#DejaVuSans-101"/>
     <use x="1029.289062" xlink:href="#DejaVuSans-103"/>
     <use x="1092.765625" xlink:href="#DejaVuSans-105"/>
     <use x="1120.548828" xlink:href="#DejaVuSans-245"/>
     <use x="1181.730469" xlink:href="#DejaVuSans-101"/>
     <use x="1243.253906" xlink:href="#DejaVuSans-115"/>
     <use x="1295.353516" xlink:href="#DejaVuSans-32"/>
     <use x="1327.140625" xlink:href="#DejaVuSans-101"/>
     <use x="1388.664062" xlink:href="#DejaVuSans-109"/>
     <use x="1486.076172" xlink:href="#DejaVuSans-32"/>
     <use x="1517.863281" xlink:href="#DejaVuSans-102"/>
     <use x="1553.068359" xlink:href="#DejaVuSans-117"/>
     <use x="1616.447266" xlink:href="#DejaVuSans-110"/>
     <use x="1679.826172" xlink:href="#DejaVuSans-231"/>
     <use x="1734.806641" xlink:href="#DejaVuSans-227"/>
     <use x="1796.085938" xlink:href="#DejaVuSans-111"/>
     <use x="1857.267578" xlink:href="#DejaVuSans-32"/>
     <use x="1889.054688" xlink:href="#DejaVuSans-100"/>
     <use x="1952.53125" xlink:href="#DejaVuSans-111"/>
    </g>
    <!-- tempo discreto para o experimento GRASP_2ILS_4GA_20R -->
    <g transform="translate(54.364063 30.2355)scale(0.12 -0.12)">
     <defs>
      <path d="M 34.28125 27.484375 
Q 23.390625 27.484375 19.1875 25 
Q 14.984375 22.515625 14.984375 16.5 
Q 14.984375 11.71875 18.140625 8.90625 
Q 21.296875 6.109375 26.703125 6.109375 
Q 34.1875 6.109375 38.703125 11.40625 
Q 43.21875 16.703125 43.21875 25.484375 
L 43.21875 27.484375 
z
M 52.203125 31.203125 
L 52.203125 0 
L 43.21875 0 
L 43.21875 8.296875 
Q 40.140625 3.328125 35.546875 0.953125 
Q 30.953125 -1.421875 24.3125 -1.421875 
Q 15.921875 -1.421875 10.953125 3.296875 
Q 6 8.015625 6 15.921875 
Q 6 25.140625 12.171875 29.828125 
Q 18.359375 34.515625 30.609375 34.515625 
L 43.21875 34.515625 
L 43.21875 35.40625 
Q 43.21875 41.609375 39.140625 45 
Q 35.0625 48.390625 27.6875 48.390625 
Q 23 48.390625 18.546875 47.265625 
Q 14.109375 46.140625 10.015625 43.890625 
L 10.015625 52.203125 
Q 14.9375 54.109375 19.578125 55.046875 
Q 24.21875 56 28.609375 56 
Q 40.484375 56 46.34375 49.84375 
Q 52.203125 43.703125 52.203125 31.203125 
z
" id="DejaVuSans-97"/>
      <path d="M 54.890625 54.6875 
L 35.109375 28.078125 
L 55.90625 0 
L 45.3125 0 
L 29.390625 21.484375 
L 13.484375 0 
L 2.875 0 
L 24.125 28.609375 
L 4.6875 54.6875 
L 15.28125 54.6875 
L 29.78125 35.203125 
L 44.28125 54.6875 
z
" id="DejaVuSans-120"/>
      <path d="M 59.515625 10.40625 
L 59.515625 29.984375 
L 43.40625 29.984375 
L 43.40625 38.09375 
L 69.28125 38.09375 
L 69.28125 6.78125 
Q 63.578125 2.734375 56.6875 0.65625 
Q 49.8125 -1.421875 42 -1.421875 
Q 24.90625 -1.421875 15.25 8.5625 
Q 5.609375 18.5625 5.609375 36.375 
Q 5.609375 54.25 15.25 64.234375 
Q 24.90625 74.21875 42 74.21875 
Q 49.125 74.21875 55.546875 72.453125 
Q 61.96875 70.703125 67.390625 67.28125 
L 67.390625 56.78125 
Q 61.921875 61.421875 55.765625 63.765625 
Q 49.609375 66.109375 42.828125 66.109375 
Q 29.4375 66.109375 22.71875 58.640625 
Q 16.015625 51.171875 16.015625 36.375 
Q 16.015625 21.625 22.71875 14.15625 
Q 29.4375 6.6875 42.828125 6.6875 
Q 48.046875 6.6875 52.140625 7.59375 
Q 56.25 8.5 59.515625 10.40625 
z
" id="DejaVuSans-71"/>
      <path d="M 44.390625 34.1875 
Q 47.5625 33.109375 50.5625 29.59375 
Q 53.5625 26.078125 56.59375 19.921875 
L 66.609375 0 
L 56 0 
L 46.6875 18.703125 
Q 43.0625 26.03125 39.671875 28.421875 
Q 36.28125 30.8125 30.421875 30.8125 
L 19.671875 30.8125 
L 19.671875 0 
L 9.8125 0 
L 9.8125 72.90625 
L 32.078125 72.90625 
Q 44.578125 72.90625 50.734375 67.671875 
Q 56.890625 62.453125 56.890625 51.90625 
Q 56.890625 45.015625 53.6875 40.46875 
Q 50.484375 35.9375 44.390625 34.1875 
z
M 19.671875 64.796875 
L 19.671875 38.921875 
L 32.078125 38.921875 
Q 39.203125 38.921875 42.84375 42.21875 
Q 46.484375 45.515625 46.484375 51.90625 
Q 46.484375 58.296875 42.84375 61.546875 
Q 39.203125 64.796875 32.078125 64.796875 
z
" id="DejaVuSans-82"/>
      <path d="M 34.1875 63.1875 
L 20.796875 26.90625 
L 47.609375 26.90625 
z
M 28.609375 72.90625 
L 39.796875 72.90625 
L 67.578125 0 
L 57.328125 0 
L 50.6875 18.703125 
L 17.828125 18.703125 
L 11.1875 0 
L 0.78125 0 
z
" id="DejaVuSans-65"/>
      <path d="M 53.515625 70.515625 
L 53.515625 60.890625 
Q 47.90625 63.578125 42.921875 64.890625 
Q 37.9375 66.21875 33.296875 66.21875 
Q 25.25 66.21875 20.875 63.09375 
Q 16.5 59.96875 16.5 54.203125 
Q 16.5 49.359375 19.40625 46.890625 
Q 22.3125 44.4375 30.421875 42.921875 
L 36.375 41.703125 
Q 47.40625 39.59375 52.65625 34.296875 
Q 57.90625 29 57.90625 20.125 
Q 57.90625 9.515625 50.796875 4.046875 
Q 43.703125 -1.421875 29.984375 -1.421875 
Q 24.8125 -1.421875 18.96875 -0.25 
Q 13.140625 0.921875 6.890625 3.21875 
L 6.890625 13.375 
Q 12.890625 10.015625 18.65625 8.296875 
Q 24.421875 6.59375 29.984375 6.59375 
Q 38.421875 6.59375 43.015625 9.90625 
Q 47.609375 13.234375 47.609375 19.390625 
Q 47.609375 24.75 44.3125 27.78125 
Q 41.015625 30.8125 33.5 32.328125 
L 27.484375 33.5 
Q 16.453125 35.6875 11.515625 40.375 
Q 6.59375 45.0625 6.59375 53.421875 
Q 6.59375 63.09375 13.40625 68.65625 
Q 20.21875 74.21875 32.171875 74.21875 
Q 37.3125 74.21875 42.625 73.28125 
Q 47.953125 72.359375 53.515625 70.515625 
z
" id="DejaVuSans-83"/>
      <path d="M 19.671875 64.796875 
L 19.671875 37.40625 
L 32.078125 37.40625 
Q 38.96875 37.40625 42.71875 40.96875 
Q 46.484375 44.53125 46.484375 51.125 
Q 46.484375 57.671875 42.71875 61.234375 
Q 38.96875 64.796875 32.078125 64.796875 
z
M 9.8125 72.90625 
L 32.078125 72.90625 
Q 44.34375 72.90625 50.609375 67.359375 
Q 56.890625 61.8125 56.890625 51.125 
Q 56.890625 40.328125 50.609375 34.8125 
Q 44.34375 29.296875 32.078125 29.296875 
L 19.671875 29.296875 
L 19.671875 0 
L 9.8125 0 
z
" id="DejaVuSans-80"/>
      <path d="M 50.984375 -16.609375 
L 50.984375 -23.578125 
L -0.984375 -23.578125 
L -0.984375 -16.609375 
z
" id="DejaVuSans-95"/>
      <path d="M 9.8125 72.90625 
L 19.671875 72.90625 
L 19.671875 0 
L 9.8125 0 
z
" id="DejaVuSans-73"/>
      <path d="M 9.8125 72.90625 
L 19.671875 72.90625 
L 19.671875 8.296875 
L 55.171875 8.296875 
L 55.171875 0 
L 9.8125 0 
z
" id="DejaVuSans-76"/>
      <path d="M 37.796875 64.3125 
L 12.890625 25.390625 
L 37.796875 25.390625 
z
M 35.203125 72.90625 
L 47.609375 72.90625 
L 47.609375 25.390625 
L 58.015625 25.390625 
L 58.015625 17.1875 
L 47.609375 17.1875 
L 47.609375 0 
L 37.796875 0 
L 37.796875 17.1875 
L 4.890625 17.1875 
L 4.890625 26.703125 
z
" id="DejaVuSans-52"/>
     </defs>
     <use xlink:href="#DejaVuSans-116"/>
     <use x="39.208984" xlink:href="#DejaVuSans-101"/>
     <use x="100.732422" xlink:href="#DejaVuSans-109"/>
     <use x="198.144531" xlink:href="#DejaVuSans-112"/>
     <use x="261.621094" xlink:href="#DejaVuSans-111"/>
     <use x="322.802734" xlink:href="#DejaVuSans-32"/>
     <use x="354.589844" xlink:href="#DejaVuSans-100"/>
     <use x="418.066406" xlink:href="#DejaVuSans-105"/>
     <use x="445.849609" xlink:href="#DejaVuSans-115"/>
     <use x="497.949219" xlink:href="#DejaVuSans-99"/>
     <use x="552.929688" xlink:href="#DejaVuSans-114"/>
     <use x="591.792969" xlink:href="#DejaVuSans-101"/>
     <use x="653.316406" xlink:href="#DejaVuSans-116"/>
     <use x="692.525391" xlink:href="#DejaVuSans-111"/>
     <use x="753.707031" xlink:href="#DejaVuSans-32"/>
     <use x="785.494141" xlink:href="#DejaVuSans-112"/>
     <use x="848.970703" xlink:href="#DejaVuSans-97"/>
     <use x="910.25" xlink:href="#DejaVuSans-114"/>
     <use x="951.363281" xlink:href="#DejaVuSans-97"/>
     <use x="1012.642578" xlink:href="#DejaVuSans-32"/>
     <use x="1044.429688" xlink:href="#DejaVuSans-111"/>
     <use x="1105.611328" xlink:href="#DejaVuSans-32"/>
     <use x="1137.398438" xlink:href="#DejaVuSans-101"/>
     <use x="1197.171875" xlink:href="#DejaVuSans-120"/>
     <use x="1256.351562" xlink:href="#DejaVuSans-112"/>
     <use x="1319.828125" xlink:href="#DejaVuSans-101"/>
     <use x="1381.351562" xlink:href="#DejaVuSans-114"/>
     <use x="1422.464844" xlink:href="#DejaVuSans-105"/>
     <use x="1450.248047" xlink:href="#DejaVuSans-109"/>
     <use x="1547.660156" xlink:href="#DejaVuSans-101"/>
     <use x="1609.183594" xlink:href="#DejaVuSans-110"/>
     <use x="1672.5625" xlink:href="#DejaVuSans-116"/>
     <use x="1711.771484" xlink:href="#DejaVuSans-111"/>
     <use x="1772.953125" xlink:href="#DejaVuSans-32"/>
     <use x="1804.740234" xlink:href="#DejaVuSans-71"/>
     <use x="1882.230469" xlink:href="#DejaVuSans-82"/>
     <use x="1947.712891" xlink:href="#DejaVuSans-65"/>
     <use x="2016.121094" xlink:href="#DejaVuSans-83"/>
     <use x="2079.597656" xlink:href="#DejaVuSans-80"/>
     <use x="2139.900391" xlink:href="#DejaVuSans-95"/>
     <use x="2189.900391" xlink:href="#DejaVuSans-50"/>
     <use x="2253.523438" xlink:href="#DejaVuSans-73"/>
     <use x="2283.015625" xlink:href="#DejaVuSans-76"/>
     <use x="2338.728516" xlink:href="#DejaVuSans-83"/>
     <use x="2402.205078" xlink:href="#DejaVuSans-95"/>
     <use x="2452.205078" xlink:href="#DejaVuSans-52"/>
     <use x="2515.828125" xlink:href="#DejaVuSans-71"/>
     <use x="2593.318359" xlink:href="#DejaVuSans-65"/>
     <use x="2661.726562" xlink:href="#DejaVuSans-95"/>
     <use x="2711.726562" xlink:href="#DejaVuSans-50"/>
     <use x="2775.349609" xlink:href="#DejaVuSans-48"/>
     <use x="2838.972656" xlink:href="#DejaVuSans-82"/>
    </g>
   </g>
   <g id="legend_1">
    <g id="patch_7">
     <path d="M 57.314063 58.913625 
L 126.145313 58.913625 
Q 128.145313 58.913625 128.145313 56.913625 
L 128.145313 43.2355 
Q 128.145313 41.2355 126.145313 41.2355 
L 57.314063 41.2355 
Q 55.314063 41.2355 55.314063 43.2355 
L 55.314063 56.913625 
Q 55.314063 58.913625 57.314063 58.913625 
z
" style="fill:#ffffff;opacity:0.8;stroke:#cccccc;stroke-linejoin:miter;"/>
    </g>
    <g id="line2d_18">
     <path d="M 59.314063 49.333937 
L 79.314063 49.333937 
" style="fill:none;stroke:#1f77b4;stroke-linecap:square;stroke-width:1.5;"/>
    </g>
    <g id="line2d_19"/>
    <g id="text_20">
     <!-- regions -->
     <g transform="translate(87.314063 52.833937)scale(0.1 -0.1)">
      <use xlink:href="#DejaVuSans-114"/>
      <use x="38.863281" xlink:href="#DejaVuSans-101"/>
      <use x="100.386719" xlink:href="#DejaVuSans-103"/>
      <use x="163.863281" xlink:href="#DejaVuSans-105"/>
      <use x="191.646484" xlink:href="#DejaVuSans-111"/>
      <use x="252.828125" xlink:href="#DejaVuSans-110"/>
      <use x="316.207031" xlink:href="#DejaVuSans-115"/>
     </g>
    </g>
   </g>
  </g>
 </g>
 <defs>
  <clipPath id="pd526b7170d">
   <rect height="266.112" width="357.12" x="50.314063" y="36.2355"/>
  </clipPath>
 </defs>
</svg>
