<?xml version="1.0" encoding="utf-8" standalone="no"?>
<!DOCTYPE svg PUBLIC "-//W3C//DTD SVG 1.1//EN"
  "http://www.w3.org/Graphics/SVG/1.1/DTD/svg11.dtd">
<!-- Created with matplotlib (https://matplotlib.org/) -->
<svg height="339.90375pt" version="1.1" viewBox="0 0 437.145312 339.90375" width="437.145312pt" xmlns="http://www.w3.org/2000/svg" xmlns:xlink="http://www.w3.org/1999/xlink">
 <metadata>
  <rdf:RDF xmlns:cc="http://creativecommons.org/ns#" xmlns:dc="http://purl.org/dc/elements/1.1/" xmlns:rdf="http://www.w3.org/1999/02/22-rdf-syntax-ns#">
   <cc:Work>
    <dc:type rdf:resource="http://purl.org/dc/dcmitype/StillImage"/>
    <dc:date>2022-03-16T21:58:41.732883</dc:date>
    <dc:format>image/svg+xml</dc:format>
    <dc:creator>
     <cc:Agent>
      <dc:title>Matplotlib v3.3.2, https://matplotlib.org/</dc:title>
     </cc:Agent>
    </dc:creator>
   </cc:Work>
  </rdf:RDF>
 </metadata>
 <defs>
  <style type="text/css">*{stroke-linecap:butt;stroke-linejoin:round;}</style>
 </defs>
 <g id="figure_1">
  <g id="patch_1">
   <path d="M 0 339.90375 
L 437.145312 339.90375 
L 437.145312 0 
L 0 0 
z
" style="fill:#ffffff;"/>
  </g>
  <g id="axes_1">
   <g id="patch_2">
    <path d="M 50.314063 302.3475 
L 407.434062 302.3475 
L 407.434062 36.2355 
L 50.314063 36.2355 
z
" style="fill:#ffffff;"/>
   </g>
   <g id="matplotlib.axis_1">
    <g id="xtick_1">
     <g id="line2d_1">
      <defs>
       <path d="M 0 0 
L 0 3.5 
" id="mc2b9011e57" style="stroke:#000000;stroke-width:0.8;"/>
      </defs>
      <g>
       <use style="stroke:#000000;stroke-width:0.8;" x="66.386546" xlink:href="#mc2b9011e57" y="302.3475"/>
      </g>
     </g>
     <g id="text_1">
      <!-- 0 -->
      <g transform="translate(63.205296 316.945937)scale(0.1 -0.1)">
       <defs>
        <path d="M 31.78125 66.40625 
Q 24.171875 66.40625 20.328125 58.90625 
Q 16.5 51.421875 16.5 36.375 
Q 16.5 21.390625 20.328125 13.890625 
Q 24.171875 6.390625 31.78125 6.390625 
Q 39.453125 6.390625 43.28125 13.890625 
Q 47.125 21.390625 47.125 36.375 
Q 47.125 51.421875 43.28125 58.90625 
Q 39.453125 66.40625 31.78125 66.40625 
z
M 31.78125 74.21875 
Q 44.046875 74.21875 50.515625 64.515625 
Q 56.984375 54.828125 56.984375 36.375 
Q 56.984375 17.96875 50.515625 8.265625 
Q 44.046875 -1.421875 31.78125 -1.421875 
Q 19.53125 -1.421875 13.0625 8.265625 
Q 6.59375 17.96875 6.59375 36.375 
Q 6.59375 54.828125 13.0625 64.515625 
Q 19.53125 74.21875 31.78125 74.21875 
z
" id="DejaVuSans-48"/>
       </defs>
       <use xlink:href="#DejaVuSans-48"/>
      </g>
     </g>
    </g>
    <g id="xtick_2">
     <g id="line2d_2">
      <g>
       <use style="stroke:#000000;stroke-width:0.8;" x="106.447571" xlink:href="#mc2b9011e57" y="302.3475"/>
      </g>
     </g>
     <g id="text_2">
      <!-- 250 -->
      <g transform="translate(96.903821 316.945937)scale(0.1 -0.1)">
       <defs>
        <path d="M 19.1875 8.296875 
L 53.609375 8.296875 
L 53.609375 0 
L 7.328125 0 
L 7.328125 8.296875 
Q 12.9375 14.109375 22.625 23.890625 
Q 32.328125 33.6875 34.8125 36.53125 
Q 39.546875 41.84375 41.421875 45.53125 
Q 43.3125 49.21875 43.3125 52.78125 
Q 43.3125 58.59375 39.234375 62.25 
Q 35.15625 65.921875 28.609375 65.921875 
Q 23.96875 65.921875 18.8125 64.3125 
Q 13.671875 62.703125 7.8125 59.421875 
L 7.8125 69.390625 
Q 13.765625 71.78125 18.9375 73 
Q 24.125 74.21875 28.421875 74.21875 
Q 39.75 74.21875 46.484375 68.546875 
Q 53.21875 62.890625 53.21875 53.421875 
Q 53.21875 48.921875 51.53125 44.890625 
Q 49.859375 40.875 45.40625 35.40625 
Q 44.1875 33.984375 37.640625 27.21875 
Q 31.109375 20.453125 19.1875 8.296875 
z
" id="DejaVuSans-50"/>
        <path d="M 10.796875 72.90625 
L 49.515625 72.90625 
L 49.515625 64.59375 
L 19.828125 64.59375 
L 19.828125 46.734375 
Q 21.96875 47.46875 24.109375 47.828125 
Q 26.265625 48.1875 28.421875 48.1875 
Q 40.625 48.1875 47.75 41.5 
Q 54.890625 34.8125 54.890625 23.390625 
Q 54.890625 11.625 47.5625 5.09375 
Q 40.234375 -1.421875 26.90625 -1.421875 
Q 22.3125 -1.421875 17.546875 -0.640625 
Q 12.796875 0.140625 7.71875 1.703125 
L 7.71875 11.625 
Q 12.109375 9.234375 16.796875 8.0625 
Q 21.484375 6.890625 26.703125 6.890625 
Q 35.15625 6.890625 40.078125 11.328125 
Q 45.015625 15.765625 45.015625 23.390625 
Q 45.015625 31 40.078125 35.4375 
Q 35.15625 39.890625 26.703125 39.890625 
Q 22.75 39.890625 18.8125 39.015625 
Q 14.890625 38.140625 10.796875 36.28125 
z
" id="DejaVuSans-53"/>
       </defs>
       <use xlink:href="#DejaVuSans-50"/>
       <use x="63.623047" xlink:href="#DejaVuSans-53"/>
       <use x="127.246094" xlink:href="#DejaVuSans-48"/>
      </g>
     </g>
    </g>
    <g id="xtick_3">
     <g id="line2d_3">
      <g>
       <use style="stroke:#000000;stroke-width:0.8;" x="146.508595" xlink:href="#mc2b9011e57" y="302.3475"/>
      </g>
     </g>
     <g id="text_3">
      <!-- 500 -->
      <g transform="translate(136.964845 316.945937)scale(0.1 -0.1)">
       <use xlink:href="#DejaVuSans-53"/>
       <use x="63.623047" xlink:href="#DejaVuSans-48"/>
       <use x="127.246094" xlink:href="#DejaVuSans-48"/>
      </g>
     </g>
    </g>
    <g id="xtick_4">
     <g id="line2d_4">
      <g>
       <use style="stroke:#000000;stroke-width:0.8;" x="186.56962" xlink:href="#mc2b9011e57" y="302.3475"/>
      </g>
     </g>
     <g id="text_4">
      <!-- 750 -->
      <g transform="translate(177.02587 316.945937)scale(0.1 -0.1)">
       <defs>
        <path d="M 8.203125 72.90625 
L 55.078125 72.90625 
L 55.078125 68.703125 
L 28.609375 0 
L 18.3125 0 
L 43.21875 64.59375 
L 8.203125 64.59375 
z
" id="DejaVuSans-55"/>
       </defs>
       <use xlink:href="#DejaVuSans-55"/>
       <use x="63.623047" xlink:href="#DejaVuSans-53"/>
       <use x="127.246094" xlink:href="#DejaVuSans-48"/>
      </g>
     </g>
    </g>
    <g id="xtick_5">
     <g id="line2d_5">
      <g>
       <use style="stroke:#000000;stroke-width:0.8;" x="226.630645" xlink:href="#mc2b9011e57" y="302.3475"/>
      </g>
     </g>
     <g id="text_5">
      <!-- 1000 -->
      <g transform="translate(213.905645 316.945937)scale(0.1 -0.1)">
       <defs>
        <path d="M 12.40625 8.296875 
L 28.515625 8.296875 
L 28.515625 63.921875 
L 10.984375 60.40625 
L 10.984375 69.390625 
L 28.421875 72.90625 
L 38.28125 72.90625 
L 38.28125 8.296875 
L 54.390625 8.296875 
L 54.390625 0 
L 12.40625 0 
z
" id="DejaVuSans-49"/>
       </defs>
       <use xlink:href="#DejaVuSans-49"/>
       <use x="63.623047" xlink:href="#DejaVuSans-48"/>
       <use x="127.246094" xlink:href="#DejaVuSans-48"/>
       <use x="190.869141" xlink:href="#DejaVuSans-48"/>
      </g>
     </g>
    </g>
    <g id="xtick_6">
     <g id="line2d_6">
      <g>
       <use style="stroke:#000000;stroke-width:0.8;" x="266.69167" xlink:href="#mc2b9011e57" y="302.3475"/>
      </g>
     </g>
     <g id="text_6">
      <!-- 1250 -->
      <g transform="translate(253.96667 316.945937)scale(0.1 -0.1)">
       <use xlink:href="#DejaVuSans-49"/>
       <use x="63.623047" xlink:href="#DejaVuSans-50"/>
       <use x="127.246094" xlink:href="#DejaVuSans-53"/>
       <use x="190.869141" xlink:href="#DejaVuSans-48"/>
      </g>
     </g>
    </g>
    <g id="xtick_7">
     <g id="line2d_7">
      <g>
       <use style="stroke:#000000;stroke-width:0.8;" x="306.752695" xlink:href="#mc2b9011e57" y="302.3475"/>
      </g>
     </g>
     <g id="text_7">
      <!-- 1500 -->
      <g transform="translate(294.027695 316.945937)scale(0.1 -0.1)">
       <use xlink:href="#DejaVuSans-49"/>
       <use x="63.623047" xlink:href="#DejaVuSans-53"/>
       <use x="127.246094" xlink:href="#DejaVuSans-48"/>
       <use x="190.869141" xlink:href="#DejaVuSans-48"/>
      </g>
     </g>
    </g>
    <g id="xtick_8">
     <g id="line2d_8">
      <g>
       <use style="stroke:#000000;stroke-width:0.8;" x="346.81372" xlink:href="#mc2b9011e57" y="302.3475"/>
      </g>
     </g>
     <g id="text_8">
      <!-- 1750 -->
      <g transform="translate(334.08872 316.945937)scale(0.1 -0.1)">
       <use xlink:href="#DejaVuSans-49"/>
       <use x="63.623047" xlink:href="#DejaVuSans-55"/>
       <use x="127.246094" xlink:href="#DejaVuSans-53"/>
       <use x="190.869141" xlink:href="#DejaVuSans-48"/>
      </g>
     </g>
    </g>
    <g id="xtick_9">
     <g id="line2d_9">
      <g>
       <use style="stroke:#000000;stroke-width:0.8;" x="386.874745" xlink:href="#mc2b9011e57" y="302.3475"/>
      </g>
     </g>
     <g id="text_9">
      <!-- 2000 -->
      <g transform="translate(374.149745 316.945937)scale(0.1 -0.1)">
       <use xlink:href="#DejaVuSans-50"/>
       <use x="63.623047" xlink:href="#DejaVuSans-48"/>
       <use x="127.246094" xlink:href="#DejaVuSans-48"/>
       <use x="190.869141" xlink:href="#DejaVuSans-48"/>
      </g>
     </g>
    </g>
    <g id="text_10">
     <!-- Tempo discreto -->
     <g transform="translate(190.944375 330.624062)scale(0.1 -0.1)">
      <defs>
       <path d="M -0.296875 72.90625 
L 61.375 72.90625 
L 61.375 64.59375 
L 35.5 64.59375 
L 35.5 0 
L 25.59375 0 
L 25.59375 64.59375 
L -0.296875 64.59375 
z
" id="DejaVuSans-84"/>
       <path d="M 56.203125 29.59375 
L 56.203125 25.203125 
L 14.890625 25.203125 
Q 15.484375 15.921875 20.484375 11.0625 
Q 25.484375 6.203125 34.421875 6.203125 
Q 39.59375 6.203125 44.453125 7.46875 
Q 49.3125 8.734375 54.109375 11.28125 
L 54.109375 2.78125 
Q 49.265625 0.734375 44.1875 -0.34375 
Q 39.109375 -1.421875 33.890625 -1.421875 
Q 20.796875 -1.421875 13.15625 6.1875 
Q 5.515625 13.8125 5.515625 26.8125 
Q 5.515625 40.234375 12.765625 48.109375 
Q 20.015625 56 32.328125 56 
Q 43.359375 56 49.78125 48.890625 
Q 56.203125 41.796875 56.203125 29.59375 
z
M 47.21875 32.234375 
Q 47.125 39.59375 43.09375 43.984375 
Q 39.0625 48.390625 32.421875 48.390625 
Q 24.90625 48.390625 20.390625 44.140625 
Q 15.875 39.890625 15.1875 32.171875 
z
" id="DejaVuSans-101"/>
       <path d="M 52 44.1875 
Q 55.375 50.25 60.0625 53.125 
Q 64.75 56 71.09375 56 
Q 79.640625 56 84.28125 50.015625 
Q 88.921875 44.046875 88.921875 33.015625 
L 88.921875 0 
L 79.890625 0 
L 79.890625 32.71875 
Q 79.890625 40.578125 77.09375 44.375 
Q 74.3125 48.1875 68.609375 48.1875 
Q 61.625 48.1875 57.5625 43.546875 
Q 53.515625 38.921875 53.515625 30.90625 
L 53.515625 0 
L 44.484375 0 
L 44.484375 32.71875 
Q 44.484375 40.625 41.703125 44.40625 
Q 38.921875 48.1875 33.109375 48.1875 
Q 26.21875 48.1875 22.15625 43.53125 
Q 18.109375 38.875 18.109375 30.90625 
L 18.109375 0 
L 9.078125 0 
L 9.078125 54.6875 
L 18.109375 54.6875 
L 18.109375 46.1875 
Q 21.1875 51.21875 25.484375 53.609375 
Q 29.78125 56 35.6875 56 
Q 41.65625 56 45.828125 52.96875 
Q 50 49.953125 52 44.1875 
z
" id="DejaVuSans-109"/>
       <path d="M 18.109375 8.203125 
L 18.109375 -20.796875 
L 9.078125 -20.796875 
L 9.078125 54.6875 
L 18.109375 54.6875 
L 18.109375 46.390625 
Q 20.953125 51.265625 25.265625 53.625 
Q 29.59375 56 35.59375 56 
Q 45.5625 56 51.78125 48.09375 
Q 58.015625 40.1875 58.015625 27.296875 
Q 58.015625 14.40625 51.78125 6.484375 
Q 45.5625 -1.421875 35.59375 -1.421875 
Q 29.59375 -1.421875 25.265625 0.953125 
Q 20.953125 3.328125 18.109375 8.203125 
z
M 48.6875 27.296875 
Q 48.6875 37.203125 44.609375 42.84375 
Q 40.53125 48.484375 33.40625 48.484375 
Q 26.265625 48.484375 22.1875 42.84375 
Q 18.109375 37.203125 18.109375 27.296875 
Q 18.109375 17.390625 22.1875 11.75 
Q 26.265625 6.109375 33.40625 6.109375 
Q 40.53125 6.109375 44.609375 11.75 
Q 48.6875 17.390625 48.6875 27.296875 
z
" id="DejaVuSans-112"/>
       <path d="M 30.609375 48.390625 
Q 23.390625 48.390625 19.1875 42.75 
Q 14.984375 37.109375 14.984375 27.296875 
Q 14.984375 17.484375 19.15625 11.84375 
Q 23.34375 6.203125 30.609375 6.203125 
Q 37.796875 6.203125 41.984375 11.859375 
Q 46.1875 17.53125 46.1875 27.296875 
Q 46.1875 37.015625 41.984375 42.703125 
Q 37.796875 48.390625 30.609375 48.390625 
z
M 30.609375 56 
Q 42.328125 56 49.015625 48.375 
Q 55.71875 40.765625 55.71875 27.296875 
Q 55.71875 13.875 49.015625 6.21875 
Q 42.328125 -1.421875 30.609375 -1.421875 
Q 18.84375 -1.421875 12.171875 6.21875 
Q 5.515625 13.875 5.515625 27.296875 
Q 5.515625 40.765625 12.171875 48.375 
Q 18.84375 56 30.609375 56 
z
" id="DejaVuSans-111"/>
       <path id="DejaVuSans-32"/>
       <path d="M 45.40625 46.390625 
L 45.40625 75.984375 
L 54.390625 75.984375 
L 54.390625 0 
L 45.40625 0 
L 45.40625 8.203125 
Q 42.578125 3.328125 38.25 0.953125 
Q 33.9375 -1.421875 27.875 -1.421875 
Q 17.96875 -1.421875 11.734375 6.484375 
Q 5.515625 14.40625 5.515625 27.296875 
Q 5.515625 40.1875 11.734375 48.09375 
Q 17.96875 56 27.875 56 
Q 33.9375 56 38.25 53.625 
Q 42.578125 51.265625 45.40625 46.390625 
z
M 14.796875 27.296875 
Q 14.796875 17.390625 18.875 11.75 
Q 22.953125 6.109375 30.078125 6.109375 
Q 37.203125 6.109375 41.296875 11.75 
Q 45.40625 17.390625 45.40625 27.296875 
Q 45.40625 37.203125 41.296875 42.84375 
Q 37.203125 48.484375 30.078125 48.484375 
Q 22.953125 48.484375 18.875 42.84375 
Q 14.796875 37.203125 14.796875 27.296875 
z
" id="DejaVuSans-100"/>
       <path d="M 9.421875 54.6875 
L 18.40625 54.6875 
L 18.40625 0 
L 9.421875 0 
z
M 9.421875 75.984375 
L 18.40625 75.984375 
L 18.40625 64.59375 
L 9.421875 64.59375 
z
" id="DejaVuSans-105"/>
       <path d="M 44.28125 53.078125 
L 44.28125 44.578125 
Q 40.484375 46.53125 36.375 47.5 
Q 32.28125 48.484375 27.875 48.484375 
Q 21.1875 48.484375 17.84375 46.4375 
Q 14.5 44.390625 14.5 40.28125 
Q 14.5 37.15625 16.890625 35.375 
Q 19.28125 33.59375 26.515625 31.984375 
L 29.59375 31.296875 
Q 39.15625 29.25 43.1875 25.515625 
Q 47.21875 21.78125 47.21875 15.09375 
Q 47.21875 7.46875 41.1875 3.015625 
Q 35.15625 -1.421875 24.609375 -1.421875 
Q 20.21875 -1.421875 15.453125 -0.5625 
Q 10.6875 0.296875 5.421875 2 
L 5.421875 11.28125 
Q 10.40625 8.6875 15.234375 7.390625 
Q 20.0625 6.109375 24.8125 6.109375 
Q 31.15625 6.109375 34.5625 8.28125 
Q 37.984375 10.453125 37.984375 14.40625 
Q 37.984375 18.0625 35.515625 20.015625 
Q 33.0625 21.96875 24.703125 23.78125 
L 21.578125 24.515625 
Q 13.234375 26.265625 9.515625 29.90625 
Q 5.8125 33.546875 5.8125 39.890625 
Q 5.8125 47.609375 11.28125 51.796875 
Q 16.75 56 26.8125 56 
Q 31.78125 56 36.171875 55.265625 
Q 40.578125 54.546875 44.28125 53.078125 
z
" id="DejaVuSans-115"/>
       <path d="M 48.78125 52.59375 
L 48.78125 44.1875 
Q 44.96875 46.296875 41.140625 47.34375 
Q 37.3125 48.390625 33.40625 48.390625 
Q 24.65625 48.390625 19.8125 42.84375 
Q 14.984375 37.3125 14.984375 27.296875 
Q 14.984375 17.28125 19.8125 11.734375 
Q 24.65625 6.203125 33.40625 6.203125 
Q 37.3125 6.203125 41.140625 7.25 
Q 44.96875 8.296875 48.78125 10.40625 
L 48.78125 2.09375 
Q 45.015625 0.34375 40.984375 -0.53125 
Q 36.96875 -1.421875 32.421875 -1.421875 
Q 20.0625 -1.421875 12.78125 6.34375 
Q 5.515625 14.109375 5.515625 27.296875 
Q 5.515625 40.671875 12.859375 48.328125 
Q 20.21875 56 33.015625 56 
Q 37.15625 56 41.109375 55.140625 
Q 45.0625 54.296875 48.78125 52.59375 
z
" id="DejaVuSans-99"/>
       <path d="M 41.109375 46.296875 
Q 39.59375 47.171875 37.8125 47.578125 
Q 36.03125 48 33.890625 48 
Q 26.265625 48 22.1875 43.046875 
Q 18.109375 38.09375 18.109375 28.8125 
L 18.109375 0 
L 9.078125 0 
L 9.078125 54.6875 
L 18.109375 54.6875 
L 18.109375 46.1875 
Q 20.953125 51.171875 25.484375 53.578125 
Q 30.03125 56 36.53125 56 
Q 37.453125 56 38.578125 55.875 
Q 39.703125 55.765625 41.0625 55.515625 
z
" id="DejaVuSans-114"/>
       <path d="M 18.3125 70.21875 
L 18.3125 54.6875 
L 36.8125 54.6875 
L 36.8125 47.703125 
L 18.3125 47.703125 
L 18.3125 18.015625 
Q 18.3125 11.328125 20.140625 9.421875 
Q 21.96875 7.515625 27.59375 7.515625 
L 36.8125 7.515625 
L 36.8125 0 
L 27.59375 0 
Q 17.1875 0 13.234375 3.875 
Q 9.28125 7.765625 9.28125 18.015625 
L 9.28125 47.703125 
L 2.6875 47.703125 
L 2.6875 54.6875 
L 9.28125 54.6875 
L 9.28125 70.21875 
z
" id="DejaVuSans-116"/>
      </defs>
      <use xlink:href="#DejaVuSans-84"/>
      <use x="44.083984" xlink:href="#DejaVuSans-101"/>
      <use x="105.607422" xlink:href="#DejaVuSans-109"/>
      <use x="203.019531" xlink:href="#DejaVuSans-112"/>
      <use x="266.496094" xlink:href="#DejaVuSans-111"/>
      <use x="327.677734" xlink:href="#DejaVuSans-32"/>
      <use x="359.464844" xlink:href="#DejaVuSans-100"/>
      <use x="422.941406" xlink:href="#DejaVuSans-105"/>
      <use x="450.724609" xlink:href="#DejaVuSans-115"/>
      <use x="502.824219" xlink:href="#DejaVuSans-99"/>
      <use x="557.804688" xlink:href="#DejaVuSans-114"/>
      <use x="596.667969" xlink:href="#DejaVuSans-101"/>
      <use x="658.191406" xlink:href="#DejaVuSans-116"/>
      <use x="697.400391" xlink:href="#DejaVuSans-111"/>
     </g>
    </g>
   </g>
   <g id="matplotlib.axis_2">
    <g id="ytick_1">
     <g id="line2d_10">
      <defs>
       <path d="M 0 0 
L -3.5 0 
" id="m2e4c174d2d" style="stroke:#000000;stroke-width:0.8;"/>
      </defs>
      <g>
       <use style="stroke:#000000;stroke-width:0.8;" x="50.314063" xlink:href="#m2e4c174d2d" y="271.152553"/>
      </g>
     </g>
     <g id="text_11">
      <!-- 2.5 -->
      <g transform="translate(27.410938 274.951771)scale(0.1 -0.1)">
       <defs>
        <path d="M 10.6875 12.40625 
L 21 12.40625 
L 21 0 
L 10.6875 0 
z
" id="DejaVuSans-46"/>
       </defs>
       <use xlink:href="#DejaVuSans-50"/>
       <use x="63.623047" xlink:href="#DejaVuSans-46"/>
       <use x="95.410156" xlink:href="#DejaVuSans-53"/>
      </g>
     </g>
    </g>
    <g id="ytick_2">
     <g id="line2d_11">
      <g>
       <use style="stroke:#000000;stroke-width:0.8;" x="50.314063" xlink:href="#m2e4c174d2d" y="239.320974"/>
      </g>
     </g>
     <g id="text_12">
      <!-- 5.0 -->
      <g transform="translate(27.410938 243.120192)scale(0.1 -0.1)">
       <use xlink:href="#DejaVuSans-53"/>
       <use x="63.623047" xlink:href="#DejaVuSans-46"/>
       <use x="95.410156" xlink:href="#DejaVuSans-48"/>
      </g>
     </g>
    </g>
    <g id="ytick_3">
     <g id="line2d_12">
      <g>
       <use style="stroke:#000000;stroke-width:0.8;" x="50.314063" xlink:href="#m2e4c174d2d" y="207.489395"/>
      </g>
     </g>
     <g id="text_13">
      <!-- 7.5 -->
      <g transform="translate(27.410938 211.288613)scale(0.1 -0.1)">
       <use xlink:href="#DejaVuSans-55"/>
       <use x="63.623047" xlink:href="#DejaVuSans-46"/>
       <use x="95.410156" xlink:href="#DejaVuSans-53"/>
      </g>
     </g>
    </g>
    <g id="ytick_4">
     <g id="line2d_13">
      <g>
       <use style="stroke:#000000;stroke-width:0.8;" x="50.314063" xlink:href="#m2e4c174d2d" y="175.657816"/>
      </g>
     </g>
     <g id="text_14">
      <!-- 10.0 -->
      <g transform="translate(21.048438 179.457035)scale(0.1 -0.1)">
       <use xlink:href="#DejaVuSans-49"/>
       <use x="63.623047" xlink:href="#DejaVuSans-48"/>
       <use x="127.246094" xlink:href="#DejaVuSans-46"/>
       <use x="159.033203" xlink:href="#DejaVuSans-48"/>
      </g>
     </g>
    </g>
    <g id="ytick_5">
     <g id="line2d_14">
      <g>
       <use style="stroke:#000000;stroke-width:0.8;" x="50.314063" xlink:href="#m2e4c174d2d" y="143.826237"/>
      </g>
     </g>
     <g id="text_15">
      <!-- 12.5 -->
      <g transform="translate(21.048438 147.625456)scale(0.1 -0.1)">
       <use xlink:href="#DejaVuSans-49"/>
       <use x="63.623047" xlink:href="#DejaVuSans-50"/>
       <use x="127.246094" xlink:href="#DejaVuSans-46"/>
       <use x="159.033203" xlink:href="#DejaVuSans-53"/>
      </g>
     </g>
    </g>
    <g id="ytick_6">
     <g id="line2d_15">
      <g>
       <use style="stroke:#000000;stroke-width:0.8;" x="50.314063" xlink:href="#m2e4c174d2d" y="111.994658"/>
      </g>
     </g>
     <g id="text_16">
      <!-- 15.0 -->
      <g transform="translate(21.048438 115.793877)scale(0.1 -0.1)">
       <use xlink:href="#DejaVuSans-49"/>
       <use x="63.623047" xlink:href="#DejaVuSans-53"/>
       <use x="127.246094" xlink:href="#DejaVuSans-46"/>
       <use x="159.033203" xlink:href="#DejaVuSans-48"/>
      </g>
     </g>
    </g>
    <g id="ytick_7">
     <g id="line2d_16">
      <g>
       <use style="stroke:#000000;stroke-width:0.8;" x="50.314063" xlink:href="#m2e4c174d2d" y="80.163079"/>
      </g>
     </g>
     <g id="text_17">
      <!-- 17.5 -->
      <g transform="translate(21.048438 83.962298)scale(0.1 -0.1)">
       <use xlink:href="#DejaVuSans-49"/>
       <use x="63.623047" xlink:href="#DejaVuSans-55"/>
       <use x="127.246094" xlink:href="#DejaVuSans-46"/>
       <use x="159.033203" xlink:href="#DejaVuSans-53"/>
      </g>
     </g>
    </g>
    <g id="ytick_8">
     <g id="line2d_17">
      <g>
       <use style="stroke:#000000;stroke-width:0.8;" x="50.314063" xlink:href="#m2e4c174d2d" y="48.3315"/>
      </g>
     </g>
     <g id="text_18">
      <!-- 20.0 -->
      <g transform="translate(21.048438 52.130719)scale(0.1 -0.1)">
       <use xlink:href="#DejaVuSans-50"/>
       <use x="63.623047" xlink:href="#DejaVuSans-48"/>
       <use x="127.246094" xlink:href="#DejaVuSans-46"/>
       <use x="159.033203" xlink:href="#DejaVuSans-48"/>
      </g>
     </g>
    </g>
    <g id="text_19">
     <!-- Numero de regiões -->
     <g transform="translate(14.96875 216.902437)rotate(-90)scale(0.1 -0.1)">
      <defs>
       <path d="M 9.8125 72.90625 
L 23.09375 72.90625 
L 55.421875 11.921875 
L 55.421875 72.90625 
L 64.984375 72.90625 
L 64.984375 0 
L 51.703125 0 
L 19.390625 60.984375 
L 19.390625 0 
L 9.8125 0 
z
" id="DejaVuSans-78"/>
       <path d="M 8.5 21.578125 
L 8.5 54.6875 
L 17.484375 54.6875 
L 17.484375 21.921875 
Q 17.484375 14.15625 20.5 10.265625 
Q 23.53125 6.390625 29.59375 6.390625 
Q 36.859375 6.390625 41.078125 11.03125 
Q 45.3125 15.671875 45.3125 23.6875 
L 45.3125 54.6875 
L 54.296875 54.6875 
L 54.296875 0 
L 45.3125 0 
L 45.3125 8.40625 
Q 42.046875 3.421875 37.71875 1 
Q 33.40625 -1.421875 27.6875 -1.421875 
Q 18.265625 -1.421875 13.375 4.4375 
Q 8.5 10.296875 8.5 21.578125 
z
M 31.109375 56 
z
" id="DejaVuSans-117"/>
       <path d="M 45.40625 27.984375 
Q 45.40625 37.75 41.375 43.109375 
Q 37.359375 48.484375 30.078125 48.484375 
Q 22.859375 48.484375 18.828125 43.109375 
Q 14.796875 37.75 14.796875 27.984375 
Q 14.796875 18.265625 18.828125 12.890625 
Q 22.859375 7.515625 30.078125 7.515625 
Q 37.359375 7.515625 41.375 12.890625 
Q 45.40625 18.265625 45.40625 27.984375 
z
M 54.390625 6.78125 
Q 54.390625 -7.171875 48.1875 -13.984375 
Q 42 -20.796875 29.203125 -20.796875 
Q 24.46875 -20.796875 20.265625 -20.09375 
Q 16.0625 -19.390625 12.109375 -17.921875 
L 12.109375 -9.1875 
Q 16.0625 -11.328125 19.921875 -12.34375 
Q 23.78125 -13.375 27.78125 -13.375 
Q 36.625 -13.375 41.015625 -8.765625 
Q 45.40625 -4.15625 45.40625 5.171875 
L 45.40625 9.625 
Q 42.625 4.78125 38.28125 2.390625 
Q 33.9375 0 27.875 0 
Q 17.828125 0 11.671875 7.65625 
Q 5.515625 15.328125 5.515625 27.984375 
Q 5.515625 40.671875 11.671875 48.328125 
Q 17.828125 56 27.875 56 
Q 33.9375 56 38.28125 53.609375 
Q 42.625 51.21875 45.40625 46.390625 
L 45.40625 54.6875 
L 54.390625 54.6875 
z
" id="DejaVuSans-103"/>
       <path d="M 30.609375 48.390625 
Q 23.390625 48.390625 19.1875 42.75 
Q 14.984375 37.109375 14.984375 27.296875 
Q 14.984375 17.484375 19.15625 11.84375 
Q 23.34375 6.203125 30.609375 6.203125 
Q 37.796875 6.203125 41.984375 11.859375 
Q 46.1875 17.53125 46.1875 27.296875 
Q 46.1875 37.015625 41.984375 42.703125 
Q 37.796875 48.390625 30.609375 48.390625 
z
M 30.609375 56 
Q 42.328125 56 49.015625 48.375 
Q 55.71875 40.765625 55.71875 27.296875 
Q 55.71875 13.875 49.015625 6.21875 
Q 42.328125 -1.421875 30.609375 -1.421875 
Q 18.84375 -1.421875 12.171875 6.21875 
Q 5.515625 13.875 5.515625 27.296875 
Q 5.515625 40.765625 12.171875 48.375 
Q 18.84375 56 30.609375 56 
z
M 30.4375 66.890625 
L 27.640625 69.578125 
Q 26.578125 70.5625 25.765625 71.015625 
Q 24.96875 71.484375 24.328125 71.484375 
Q 22.46875 71.484375 21.59375 69.703125 
Q 20.71875 67.921875 20.609375 63.921875 
L 14.515625 63.921875 
Q 14.609375 70.515625 17.09375 74.09375 
Q 19.59375 77.6875 24.03125 77.6875 
Q 25.890625 77.6875 27.453125 77 
Q 29.015625 76.3125 30.828125 74.703125 
L 33.609375 72.015625 
Q 34.671875 71.046875 35.484375 70.578125 
Q 36.296875 70.125 36.921875 70.125 
Q 38.78125 70.125 39.65625 71.90625 
Q 40.53125 73.6875 40.640625 77.6875 
L 46.734375 77.6875 
Q 46.640625 71.09375 44.140625 67.5 
Q 41.65625 63.921875 37.21875 63.921875 
Q 35.359375 63.921875 33.796875 64.59375 
Q 32.234375 65.28125 30.4375 66.890625 
z
" id="DejaVuSans-245"/>
      </defs>
      <use xlink:href="#DejaVuSans-78"/>
      <use x="74.804688" xlink:href="#DejaVuSans-117"/>
      <use x="138.183594" xlink:href="#DejaVuSans-109"/>
      <use x="235.595703" xlink:href="#DejaVuSans-101"/>
      <use x="297.119141" xlink:href="#DejaVuSans-114"/>
      <use x="335.982422" xlink:href="#DejaVuSans-111"/>
      <use x="397.164062" xlink:href="#DejaVuSans-32"/>
      <use x="428.951172" xlink:href="#DejaVuSans-100"/>
      <use x="492.427734" xlink:href="#DejaVuSans-101"/>
      <use x="553.951172" xlink:href="#DejaVuSans-32"/>
      <use x="585.738281" xlink:href="#DejaVuSans-114"/>
      <use x="624.601562" xlink:href="#DejaVuSans-101"/>
      <use x="686.125" xlink:href="#DejaVuSans-103"/>
      <use x="749.601562" xlink:href="#DejaVuSans-105"/>
      <use x="777.384766" xlink:href="#DejaVuSans-245"/>
      <use x="838.566406" xlink:href="#DejaVuSans-101"/>
      <use x="900.089844" xlink:href="#DejaVuSans-115"/>
     </g>
    </g>
   </g>
   <g id="line2d_18">
    <path clip-path="url(#pfcdc03ad4d)" d="M 66.54679 290.2515 
L 66.707034 290.2515 
L 66.867278 277.518868 
L 67.027522 277.518868 
L 67.187766 267.101261 
L 67.34801 264.786237 
L 104.043909 264.786237 
L 104.204153 264.207481 
L 104.364397 264.207481 
L 104.524641 263.628725 
L 107.409035 263.628725 
L 107.569279 262.471213 
L 107.729523 262.471213 
L 107.889767 263.628725 
L 108.050012 262.471213 
L 108.210256 263.628725 
L 108.530744 263.628725 
L 108.690988 262.471213 
L 108.851232 263.628725 
L 109.011476 262.471213 
L 109.17172 262.471213 
L 109.331964 263.049969 
L 109.652453 263.049969 
L 109.812697 261.313701 
L 109.972941 262.471213 
L 110.133185 261.313701 
L 110.293429 262.471213 
L 110.453673 262.471213 
L 110.613917 261.313701 
L 110.774161 262.471213 
L 110.934405 261.313701 
L 111.094649 262.471213 
L 111.254894 260.156189 
L 112.056114 260.156189 
L 112.216358 261.313701 
L 112.376602 259.577433 
L 112.69709 259.577433 
L 112.857335 260.156189 
L 113.017579 258.998677 
L 113.177823 258.998677 
L 113.338067 260.156189 
L 113.658555 260.156189 
L 113.818799 258.998677 
L 113.979043 259.577433 
L 114.139287 259.577433 
L 114.299531 258.419921 
L 114.62002 258.419921 
L 114.780264 257.262409 
L 115.100752 259.577433 
L 115.260996 259.329395 
L 115.42124 258.116763 
L 115.581484 259.329395 
L 115.741728 259.329395 
L 115.901972 258.723079 
L 116.062216 257.510447 
L 116.222461 257.510447 
L 116.382705 256.904132 
L 116.542949 256.904132 
L 116.703193 258.116763 
L 116.863437 258.116763 
L 117.023681 256.904132 
L 117.985146 256.904132 
L 118.14539 258.116763 
L 118.465878 258.116763 
L 118.626122 257.510447 
L 118.786366 257.510447 
L 118.94661 254.478868 
L 119.267098 254.478868 
L 119.427343 256.904132 
L 119.587587 253.872553 
L 119.747831 253.872553 
L 119.908075 256.297816 
L 120.068319 256.297816 
L 120.228563 253.872553 
L 120.388807 253.872553 
L 120.549051 256.297816 
L 120.709295 253.266237 
L 120.869539 252.659921 
L 121.029784 252.659921 
L 121.190028 255.085184 
L 121.350272 252.659921 
L 121.510516 252.053605 
L 121.991248 252.053605 
L 122.151492 251.447289 
L 122.311736 253.872553 
L 122.47198 253.266237 
L 122.632225 253.266237 
L 122.792469 252.659921 
L 124.39491 252.659921 
L 124.555154 250.234658 
L 124.715398 252.659921 
L 125.19613 252.659921 
L 125.356374 249.022026 
L 125.516618 249.022026 
L 125.676862 251.447289 
L 125.837107 251.447289 
L 125.997351 250.840974 
L 126.157595 248.415711 
L 126.317839 247.809395 
L 126.478083 250.234658 
L 126.638327 250.234658 
L 126.798571 247.203079 
L 126.958815 247.203079 
L 127.119059 249.628342 
L 127.279303 247.203079 
L 127.439548 248.415711 
L 127.599792 247.203079 
L 127.760036 248.415711 
L 127.92028 248.415711 
L 128.080524 246.596763 
L 128.401012 246.596763 
L 128.561256 247.809395 
L 128.7215 247.809395 
L 128.881744 246.596763 
L 129.041989 247.809395 
L 129.202233 245.990447 
L 130.163697 245.990447 
L 130.323941 247.203079 
L 130.484185 245.384132 
L 130.64443 246.596763 
L 130.804674 244.1715 
L 130.964918 244.1715 
L 131.125162 246.596763 
L 131.766138 246.596763 
L 131.926382 244.1715 
L 132.086626 246.596763 
L 132.246871 246.596763 
L 132.407115 244.1715 
L 132.567359 244.1715 
L 132.727603 246.596763 
L 132.887847 246.596763 
L 133.048091 244.1715 
L 133.849312 244.1715 
L 134.009556 246.596763 
L 134.1698 244.1715 
L 134.330044 246.596763 
L 134.490288 245.990447 
L 134.650532 243.565184 
L 134.810776 245.990447 
L 134.97102 243.565184 
L 135.131264 245.990447 
L 135.291508 243.565184 
L 135.611997 243.565184 
L 135.772241 245.990447 
L 135.932485 243.565184 
L 136.893949 243.565184 
L 137.054194 245.990447 
L 137.534926 245.990447 
L 137.69517 243.565184 
L 137.855414 245.990447 
L 138.336146 245.990447 
L 138.49639 243.565184 
L 138.656635 243.565184 
L 138.816879 245.990447 
L 138.977123 243.565184 
L 139.137367 245.990447 
L 139.297611 243.565184 
L 139.457855 245.990447 
L 139.778343 245.990447 
L 139.938587 243.565184 
L 140.098831 245.990447 
L 140.259076 245.990447 
L 140.41932 243.565184 
L 140.579564 245.990447 
L 140.739808 243.565184 
L 140.900052 245.990447 
L 141.380784 245.990447 
L 141.541028 243.565184 
L 141.701272 245.990447 
L 141.861517 243.565184 
L 142.021761 245.990447 
L 142.182005 245.990447 
L 142.342249 243.565184 
L 142.502493 245.990447 
L 142.662737 243.565184 
L 142.822981 245.990447 
L 143.143469 245.990447 
L 143.303713 243.565184 
L 143.94469 243.565184 
L 144.104934 245.990447 
L 144.265178 243.565184 
L 144.425422 245.990447 
L 144.585666 245.990447 
L 144.74591 243.565184 
L 144.906154 245.990447 
L 145.226643 245.990447 
L 145.386887 243.565184 
L 145.547131 245.990447 
L 145.707375 243.565184 
L 145.867619 245.990447 
L 146.027863 245.990447 
L 146.188107 243.565184 
L 146.348351 242.958868 
L 146.508595 245.384132 
L 146.829084 245.384132 
L 146.989328 242.958868 
L 147.149572 245.384132 
L 147.47006 245.384132 
L 147.630304 242.958868 
L 147.790548 245.384132 
L 147.950792 242.958868 
L 148.27128 242.958868 
L 148.431525 245.384132 
L 148.591769 242.958868 
L 148.752013 245.384132 
L 149.072501 245.384132 
L 149.232745 242.958868 
L 149.392989 242.958868 
L 149.553233 245.384132 
L 150.19421 245.384132 
L 150.354454 242.958868 
L 150.514698 245.384132 
L 150.835186 245.384132 
L 150.99543 242.958868 
L 151.155674 242.958868 
L 151.315918 245.384132 
L 151.476162 242.958868 
L 151.636407 245.384132 
L 151.796651 245.384132 
L 151.956895 242.958868 
L 152.117139 245.384132 
L 152.277383 242.958868 
L 152.437627 242.958868 
L 152.597871 245.384132 
L 152.758115 245.384132 
L 152.918359 242.958868 
L 153.399092 242.958868 
L 153.559336 245.384132 
L 153.71958 242.958868 
L 153.879824 245.384132 
L 154.200312 245.384132 
L 154.360556 242.958868 
L 154.5208 245.384132 
L 154.681044 242.958868 
L 154.841289 242.958868 
L 155.001533 245.384132 
L 155.322021 245.384132 
L 155.482265 242.958868 
L 155.642509 245.384132 
L 156.603974 245.384132 
L 156.764218 242.958868 
L 156.924462 245.384132 
L 157.24495 245.384132 
L 157.405194 242.958868 
L 157.565438 245.384132 
L 157.725682 242.958868 
L 157.885926 242.958868 
L 158.046171 245.384132 
L 158.206415 242.958868 
L 158.366659 242.958868 
L 158.526903 245.384132 
L 158.687147 242.958868 
L 159.328123 242.958868 
L 159.488367 245.384132 
L 159.648612 242.958868 
L 159.808856 242.958868 
L 159.9691 245.384132 
L 160.129344 242.958868 
L 160.289588 245.384132 
L 160.449832 244.777816 
L 160.610076 242.352553 
L 160.77032 243.565184 
L 160.930564 241.139921 
L 161.090808 243.565184 
L 161.251053 243.565184 
L 161.411297 241.139921 
L 161.571541 243.565184 
L 161.731785 243.565184 
L 161.892029 241.139921 
L 162.052273 243.565184 
L 162.212517 243.565184 
L 162.372761 241.139921 
L 162.533005 243.565184 
L 162.693249 241.139921 
L 163.173982 241.139921 
L 163.334226 243.565184 
L 163.49447 241.139921 
L 163.654714 241.139921 
L 163.814958 243.565184 
L 163.975202 241.139921 
L 164.29569 241.139921 
L 164.455935 243.565184 
L 164.936667 243.565184 
L 165.096911 241.139921 
L 165.257155 241.139921 
L 165.417399 243.565184 
L 165.577643 241.139921 
L 167.500572 241.139921 
L 167.660817 243.565184 
L 167.821061 241.139921 
L 167.981305 243.565184 
L 168.301793 243.565184 
L 168.462037 241.139921 
L 168.782525 241.139921 
L 168.942769 243.565184 
L 169.103013 241.139921 
L 169.583746 241.139921 
L 169.74399 243.565184 
L 169.904234 241.139921 
L 170.064478 241.139921 
L 170.224722 243.565184 
L 170.384966 243.565184 
L 170.54521 241.139921 
L 170.865699 241.139921 
L 171.025943 243.565184 
L 171.186187 241.139921 
L 171.346431 243.565184 
L 171.506675 241.139921 
L 171.666919 243.565184 
L 171.827163 241.139921 
L 171.987407 243.565184 
L 172.147651 241.139921 
L 172.307895 243.565184 
L 172.788628 243.565184 
L 172.948872 241.139921 
L 173.109116 243.565184 
L 173.26936 243.565184 
L 173.429604 241.139921 
L 173.589848 243.565184 
L 173.750092 241.139921 
L 174.230825 241.139921 
L 174.391069 242.352553 
L 174.551313 242.352553 
L 174.711557 239.927289 
L 174.871801 242.352553 
L 175.032045 239.927289 
L 175.192289 242.352553 
L 175.352533 242.352553 
L 175.512777 239.927289 
L 175.833266 239.927289 
L 175.99351 242.352553 
L 176.153754 239.927289 
L 176.313998 242.352553 
L 176.474242 242.352553 
L 176.634486 239.927289 
L 176.79473 242.352553 
L 176.954974 239.927289 
L 177.115218 242.352553 
L 178.236927 242.352553 
L 178.397171 239.927289 
L 178.557415 242.352553 
L 178.717659 239.927289 
L 179.198392 239.927289 
L 179.358636 242.352553 
L 179.679124 242.352553 
L 179.839368 239.927289 
L 179.999612 242.352553 
L 180.159856 239.927289 
L 180.3201 242.352553 
L 180.480344 239.927289 
L 180.640589 242.352553 
L 180.800833 239.927289 
L 180.961077 242.352553 
L 181.441809 242.352553 
L 181.602053 239.927289 
L 181.762297 242.352553 
L 181.922541 242.352553 
L 182.082785 239.927289 
L 182.24303 239.927289 
L 182.403274 242.352553 
L 182.563518 239.927289 
L 182.723762 242.352553 
L 182.884006 239.927289 
L 183.04425 242.352553 
L 183.204494 242.352553 
L 183.364738 239.320974 
L 183.524982 241.746237 
L 183.845471 241.746237 
L 184.005715 239.320974 
L 184.165959 240.533605 
L 184.326203 239.957605 
L 184.967179 239.957605 
L 185.127423 239.320974 
L 187.691329 239.320974 
L 187.851573 238.684342 
L 188.332305 238.684342 
L 188.492549 238.047711 
L 189.774502 238.047711 
L 189.934746 237.411079 
L 190.735967 237.411079 
L 190.896211 236.137816 
L 192.658896 236.137816 
L 192.81914 234.864553 
L 193.780605 234.864553 
L 193.940849 233.591289 
L 194.261337 233.591289 
L 194.421581 232.954658 
L 195.222802 232.954658 
L 195.383046 232.318026 
L 199.389148 232.318026 
L 199.549392 231.681395 
L 199.869881 231.681395 
L 200.030125 231.044763 
L 201.312077 231.044763 
L 201.472321 229.134868 
L 201.79281 229.134868 
L 201.953054 228.498237 
L 203.395251 228.498237 
L 203.555495 227.861605 
L 204.036227 227.861605 
L 204.196471 227.224974 
L 204.677203 227.224974 
L 204.837448 226.588342 
L 207.721841 226.588342 
L 208.04233 224.678447 
L 208.362818 224.678447 
L 208.683306 223.405184 
L 209.484526 223.405184 
L 209.644771 222.131921 
L 209.965259 222.131921 
L 210.125503 221.495289 
L 210.445991 221.495289 
L 210.606235 220.222026 
L 212.048432 220.222026 
L 212.208676 219.585395 
L 214.291849 219.585395 
L 214.452094 218.948763 
L 215.573802 218.948763 
L 215.734046 218.312132 
L 216.695511 218.312132 
L 216.855755 217.6755 
L 220.861858 217.6755 
L 221.022102 217.038868 
L 221.34259 215.128974 
L 222.945031 215.128974 
L 223.105275 214.492342 
L 225.028204 214.492342 
L 225.348692 213.219079 
L 225.669181 213.219079 
L 225.829425 212.582447 
L 228.233086 212.582447 
L 228.39333 211.309184 
L 228.874062 211.309184 
L 229.034307 210.035921 
L 230.316259 210.035921 
L 230.476503 209.399289 
L 231.437968 209.399289 
L 231.598212 208.762658 
L 233.681385 208.762658 
L 233.84163 208.126026 
L 234.001874 208.126026 
L 234.162118 207.489395 
L 236.726023 207.489395 
L 236.886267 206.852763 
L 237.206756 206.852763 
L 237.367 206.216132 
L 237.847732 206.216132 
L 238.007976 205.5795 
L 239.450173 205.5795 
L 239.610417 204.942868 
L 240.411638 204.942868 
L 240.571882 204.306237 
L 240.732126 204.306237 
L 240.89237 203.669605 
L 241.212858 203.669605 
L 241.373102 203.032974 
L 244.898472 203.032974 
L 245.058717 202.396342 
L 246.821402 202.396342 
L 247.14189 201.123079 
L 247.462378 201.123079 
L 247.622622 200.486447 
L 247.94311 200.486447 
L 248.103354 199.849816 
L 248.263599 199.849816 
L 248.423843 199.213184 
L 248.584087 197.939921 
L 248.744331 197.939921 
L 248.904575 197.303289 
L 249.225063 197.303289 
L 249.385307 196.666658 
L 251.468481 196.666658 
L 251.628725 196.030026 
L 252.750433 196.030026 
L 253.070922 194.756763 
L 253.711898 194.756763 
L 253.872142 193.4835 
L 254.352874 193.4835 
L 254.513118 192.846868 
L 254.833607 192.846868 
L 254.993851 192.210237 
L 255.154095 192.210237 
L 255.474583 190.936974 
L 258.519221 190.936974 
L 258.679465 189.663711 
L 259.480685 189.663711 
L 259.64093 189.027079 
L 259.801174 189.027079 
L 259.961418 188.390447 
L 261.243371 188.390447 
L 261.563859 187.117184 
L 262.204835 187.117184 
L 262.365079 186.480553 
L 263.96752 186.480553 
L 264.127764 185.843921 
L 265.249473 185.843921 
L 265.409717 185.207289 
L 266.371182 185.207289 
L 266.531426 184.570658 
L 266.69167 184.570658 
L 266.851914 183.934026 
L 267.813379 183.934026 
L 267.973623 183.297395 
L 268.294111 183.297395 
L 268.454355 182.660763 
L 268.614599 182.660763 
L 268.774843 182.024132 
L 271.178505 182.024132 
L 271.498993 180.114237 
L 271.979725 180.114237 
L 272.139969 179.477605 
L 272.94119 179.477605 
L 273.261678 178.204342 
L 273.582166 178.204342 
L 273.74241 177.567711 
L 274.062899 177.567711 
L 274.223143 176.931079 
L 275.505095 176.931079 
L 275.66534 176.294447 
L 276.146072 176.294447 
L 276.306316 175.657816 
L 277.107536 175.657816 
L 277.428025 174.384553 
L 278.069001 174.384553 
L 278.229245 173.747921 
L 278.549733 173.747921 
L 278.709977 173.111289 
L 278.870222 173.111289 
L 279.030466 171.838026 
L 280.472663 171.838026 
L 280.632907 171.201395 
L 281.594371 171.201395 
L 281.754615 169.928132 
L 282.395592 169.928132 
L 282.555836 169.2915 
L 282.71608 169.2915 
L 283.036568 168.018237 
L 284.478765 168.018237 
L 284.639009 167.381605 
L 285.44023 167.381605 
L 285.600474 166.744974 
L 286.401694 166.744974 
L 286.722182 165.471711 
L 287.202915 165.471711 
L 287.363159 164.835079 
L 287.523403 164.835079 
L 287.683647 164.198447 
L 289.76682 164.198447 
L 289.927064 163.561816 
L 290.247553 161.651921 
L 290.407797 161.015289 
L 291.369261 161.015289 
L 291.689749 159.742026 
L 292.170482 159.742026 
L 292.330726 159.105395 
L 293.933167 159.105395 
L 294.093411 158.468763 
L 294.413899 158.468763 
L 294.574143 157.832132 
L 294.734387 157.832132 
L 294.894631 157.1955 
L 295.695852 157.1955 
L 295.856096 155.922237 
L 296.176584 155.922237 
L 296.336828 155.285605 
L 296.497072 155.285605 
L 296.657317 154.648974 
L 297.138049 154.648974 
L 297.298293 154.012342 
L 297.458537 154.012342 
L 297.618781 153.375711 
L 300.182687 153.375711 
L 300.342931 152.739079 
L 300.503175 152.739079 
L 300.663419 152.102447 
L 300.823663 152.102447 
L 300.983907 150.829184 
L 301.304395 150.829184 
L 301.46464 149.555921 
L 302.26586 149.555921 
L 302.426104 148.919289 
L 302.586348 148.919289 
L 302.746592 148.282658 
L 303.067081 148.282658 
L 303.227325 147.009395 
L 303.708057 147.009395 
L 303.868301 146.372763 
L 304.028545 146.372763 
L 304.188789 145.736132 
L 305.150254 145.736132 
L 305.310498 145.0995 
L 305.470742 145.0995 
L 305.630986 144.462868 
L 306.111718 144.462868 
L 306.271963 143.826237 
L 306.432207 143.826237 
L 306.592451 143.189605 
L 306.752695 143.189605 
L 306.912939 141.916342 
L 307.553915 141.916342 
L 307.714159 141.279711 
L 307.874404 141.279711 
L 308.034648 140.643079 
L 308.51538 140.643079 
L 308.675624 140.006447 
L 310.758797 140.006447 
L 310.919041 139.369816 
L 311.23953 139.369816 
L 311.560018 138.096553 
L 312.361238 138.096553 
L 312.521482 137.459921 
L 313.002215 137.459921 
L 313.162459 136.823289 
L 313.963679 136.823289 
L 314.444412 134.913395 
L 314.925144 134.913395 
L 315.085388 134.276763 
L 316.527585 134.276763 
L 316.687829 133.0035 
L 317.809538 133.0035 
L 317.969782 132.366868 
L 318.931246 132.366868 
L 319.09149 131.730237 
L 319.732467 131.730237 
L 319.892711 131.093605 
L 320.213199 131.093605 
L 320.533687 129.820342 
L 320.854176 129.820342 
L 321.01442 129.183711 
L 321.495152 129.183711 
L 321.655396 128.547079 
L 322.616861 128.547079 
L 322.777105 127.273816 
L 323.578325 127.273816 
L 323.898813 126.000553 
L 324.379546 126.000553 
L 324.53979 125.363921 
L 324.700034 125.363921 
L 324.860278 124.727289 
L 325.020522 123.454026 
L 325.821743 123.454026 
L 325.981987 122.817395 
L 326.302475 122.817395 
L 326.462719 122.180763 
L 326.622963 122.180763 
L 326.783207 121.544132 
L 327.424184 121.544132 
L 327.584428 120.270868 
L 328.06516 120.270868 
L 328.385648 118.997605 
L 329.827845 118.997605 
L 329.988089 118.360974 
L 331.270042 118.360974 
L 331.430286 117.724342 
L 332.712239 117.724342 
L 332.872483 117.087711 
L 333.192971 115.177816 
L 333.353215 115.177816 
L 333.513459 114.541184 
L 333.833948 114.541184 
L 333.994192 113.267921 
L 334.154436 113.267921 
L 334.31468 112.631289 
L 334.955656 112.631289 
L 335.1159 111.994658 
L 336.397853 111.994658 
L 336.558097 111.358026 
L 337.359318 111.358026 
L 337.519562 110.721395 
L 338.160538 110.721395 
L 338.481027 109.448132 
L 338.961759 109.448132 
L 339.122003 108.8115 
L 340.403956 108.8115 
L 340.5642 108.174868 
L 341.205176 108.174868 
L 341.36542 107.538237 
L 343.128105 107.538237 
L 343.288349 106.264974 
L 344.89079 106.264974 
L 345.051035 105.628342 
L 345.371523 105.628342 
L 345.531767 104.355079 
L 346.012499 104.355079 
L 346.172743 103.718447 
L 346.493231 103.718447 
L 346.653476 103.081816 
L 347.294452 103.081816 
L 347.454696 102.445184 
L 349.217381 102.445184 
L 349.377625 101.808553 
L 350.018602 101.808553 
L 350.499334 98.625395 
L 350.659578 98.625395 
L 350.819822 97.988763 
L 350.980066 97.988763 
L 351.14031 96.7155 
L 351.941531 96.7155 
L 352.101775 96.078868 
L 352.262019 94.805605 
L 352.902995 94.805605 
L 353.06324 94.168974 
L 353.704216 94.168974 
L 353.86446 93.532342 
L 354.184948 93.532342 
L 354.505436 92.259079 
L 354.665681 92.259079 
L 354.825925 91.622447 
L 357.069342 91.622447 
L 357.38983 90.349184 
L 358.191051 90.349184 
L 358.351295 89.712553 
L 358.992271 89.712553 
L 359.152515 89.075921 
L 362.677886 89.075921 
L 362.83813 88.439289 
L 363.318862 88.439289 
L 363.479106 87.802658 
L 363.63935 87.802658 
L 363.799594 87.166026 
L 366.203256 87.166026 
L 366.3635 86.529395 
L 366.844232 86.529395 
L 367.004476 85.892763 
L 367.805697 85.892763 
L 367.965941 84.6195 
L 368.286429 84.6195 
L 368.446673 83.982868 
L 370.209358 83.982868 
L 370.369602 83.346237 
L 371.651555 83.346237 
L 371.811799 82.709605 
L 372.61302 82.709605 
L 372.773264 82.072974 
L 373.253996 82.072974 
L 373.41424 81.436342 
L 373.574484 80.163079 
L 375.176925 80.163079 
L 375.337169 78.889816 
L 378.86254 78.889816 
L 379.022784 78.253184 
L 380.144492 78.253184 
L 380.304736 77.616553 
L 380.785469 77.616553 
L 380.945713 76.979921 
L 381.746933 76.979921 
L 382.067422 75.706658 
L 383.509618 75.706658 
L 383.669863 75.070026 
L 384.150595 75.070026 
L 384.310839 74.433395 
L 384.631327 74.433395 
L 384.791571 72.5235 
L 386.073524 72.5235 
L 386.233768 71.886868 
L 386.874745 71.886868 
L 387.355477 50.878026 
L 387.515721 51.514658 
L 388.156697 51.514658 
L 388.316941 54.697816 
L 388.477186 54.697816 
L 388.63743 48.3315 
L 391.201335 48.3315 
L 391.201335 48.3315 
" style="fill:none;stroke:#1f77b4;stroke-linecap:square;stroke-width:1.5;"/>
   </g>
   <g id="patch_3">
    <path d="M 50.314063 302.3475 
L 50.314063 36.2355 
" style="fill:none;stroke:#000000;stroke-linecap:square;stroke-linejoin:miter;stroke-width:0.8;"/>
   </g>
   <g id="patch_4">
    <path d="M 407.434062 302.3475 
L 407.434062 36.2355 
" style="fill:none;stroke:#000000;stroke-linecap:square;stroke-linejoin:miter;stroke-width:0.8;"/>
   </g>
   <g id="patch_5">
    <path d="M 50.314063 302.3475 
L 407.434062 302.3475 
" style="fill:none;stroke:#000000;stroke-linecap:square;stroke-linejoin:miter;stroke-width:0.8;"/>
   </g>
   <g id="patch_6">
    <path d="M 50.314063 36.2355 
L 407.434062 36.2355 
" style="fill:none;stroke:#000000;stroke-linecap:square;stroke-linejoin:miter;stroke-width:0.8;"/>
   </g>
   <g id="text_20">
    <!-- Número médio de regiões em função do -->
    <g transform="translate(108.049063 16.798125)scale(0.12 -0.12)">
     <defs>
      <path d="M 8.5 21.578125 
L 8.5 54.6875 
L 17.484375 54.6875 
L 17.484375 21.921875 
Q 17.484375 14.15625 20.5 10.265625 
Q 23.53125 6.390625 29.59375 6.390625 
Q 36.859375 6.390625 41.078125 11.03125 
Q 45.3125 15.671875 45.3125 23.6875 
L 45.3125 54.6875 
L 54.296875 54.6875 
L 54.296875 0 
L 45.3125 0 
L 45.3125 8.40625 
Q 42.046875 3.421875 37.71875 1 
Q 33.40625 -1.421875 27.6875 -1.421875 
Q 18.265625 -1.421875 13.375 4.4375 
Q 8.5 10.296875 8.5 21.578125 
z
M 31.109375 56 
z
M 37.78125 79.984375 
L 47.5 79.984375 
L 31.59375 61.625 
L 24.109375 61.625 
z
" id="DejaVuSans-250"/>
      <path d="M 56.203125 29.59375 
L 56.203125 25.203125 
L 14.890625 25.203125 
Q 15.484375 15.921875 20.484375 11.0625 
Q 25.484375 6.203125 34.421875 6.203125 
Q 39.59375 6.203125 44.453125 7.46875 
Q 49.3125 8.734375 54.109375 11.28125 
L 54.109375 2.78125 
Q 49.265625 0.734375 44.1875 -0.34375 
Q 39.109375 -1.421875 33.890625 -1.421875 
Q 20.796875 -1.421875 13.15625 6.1875 
Q 5.515625 13.8125 5.515625 26.8125 
Q 5.515625 40.234375 12.765625 48.109375 
Q 20.015625 56 32.328125 56 
Q 43.359375 56 49.78125 48.890625 
Q 56.203125 41.796875 56.203125 29.59375 
z
M 47.21875 32.234375 
Q 47.125 39.59375 43.09375 43.984375 
Q 39.0625 48.390625 32.421875 48.390625 
Q 24.90625 48.390625 20.390625 44.140625 
Q 15.875 39.890625 15.1875 32.171875 
z
M 38.53125 79.984375 
L 48.25 79.984375 
L 32.34375 61.625 
L 24.859375 61.625 
z
" id="DejaVuSans-233"/>
      <path d="M 37.109375 75.984375 
L 37.109375 68.5 
L 28.515625 68.5 
Q 23.6875 68.5 21.796875 66.546875 
Q 19.921875 64.59375 19.921875 59.515625 
L 19.921875 54.6875 
L 34.71875 54.6875 
L 34.71875 47.703125 
L 19.921875 47.703125 
L 19.921875 0 
L 10.890625 0 
L 10.890625 47.703125 
L 2.296875 47.703125 
L 2.296875 54.6875 
L 10.890625 54.6875 
L 10.890625 58.5 
Q 10.890625 67.625 15.140625 71.796875 
Q 19.390625 75.984375 28.609375 75.984375 
z
" id="DejaVuSans-102"/>
      <path d="M 54.890625 33.015625 
L 54.890625 0 
L 45.90625 0 
L 45.90625 32.71875 
Q 45.90625 40.484375 42.875 44.328125 
Q 39.84375 48.1875 33.796875 48.1875 
Q 26.515625 48.1875 22.3125 43.546875 
Q 18.109375 38.921875 18.109375 30.90625 
L 18.109375 0 
L 9.078125 0 
L 9.078125 54.6875 
L 18.109375 54.6875 
L 18.109375 46.1875 
Q 21.34375 51.125 25.703125 53.5625 
Q 30.078125 56 35.796875 56 
Q 45.21875 56 50.046875 50.171875 
Q 54.890625 44.34375 54.890625 33.015625 
z
" id="DejaVuSans-110"/>
      <path d="M 48.78125 52.59375 
L 48.78125 44.1875 
Q 44.96875 46.296875 41.140625 47.34375 
Q 37.3125 48.390625 33.40625 48.390625 
Q 24.65625 48.390625 19.8125 42.84375 
Q 14.984375 37.3125 14.984375 27.296875 
Q 14.984375 17.28125 19.8125 11.734375 
Q 24.65625 6.203125 33.40625 6.203125 
Q 37.3125 6.203125 41.140625 7.25 
Q 44.96875 8.296875 48.78125 10.40625 
L 48.78125 2.09375 
Q 45.015625 0.34375 40.984375 -0.53125 
Q 36.96875 -1.421875 32.421875 -1.421875 
Q 20.0625 -1.421875 12.78125 6.34375 
Q 5.515625 14.109375 5.515625 27.296875 
Q 5.515625 40.671875 12.859375 48.328125 
Q 20.21875 56 33.015625 56 
Q 37.15625 56 41.109375 55.140625 
Q 45.0625 54.296875 48.78125 52.59375 
z
M 36.109375 0 
Q 38.78125 -3.03125 40.09375 -5.59375 
Q 41.421875 -8.15625 41.421875 -10.5 
Q 41.421875 -14.84375 38.484375 -17.0625 
Q 35.5625 -19.28125 29.796875 -19.28125 
Q 27.5625 -19.28125 25.4375 -18.984375 
Q 23.3125 -18.703125 21.203125 -18.109375 
L 21.203125 -11.71875 
Q 22.875 -12.546875 24.671875 -12.90625 
Q 26.484375 -13.28125 28.78125 -13.28125 
Q 31.65625 -13.28125 33.125 -12.109375 
Q 34.59375 -10.9375 34.59375 -8.6875 
Q 34.59375 -7.234375 33.53125 -5.109375 
Q 32.484375 -2.984375 30.296875 0 
z
" id="DejaVuSans-231"/>
      <path d="M 34.28125 27.484375 
Q 23.390625 27.484375 19.1875 25 
Q 14.984375 22.515625 14.984375 16.5 
Q 14.984375 11.71875 18.140625 8.90625 
Q 21.296875 6.109375 26.703125 6.109375 
Q 34.1875 6.109375 38.703125 11.40625 
Q 43.21875 16.703125 43.21875 25.484375 
L 43.21875 27.484375 
z
M 52.203125 31.203125 
L 52.203125 0 
L 43.21875 0 
L 43.21875 8.296875 
Q 40.140625 3.328125 35.546875 0.953125 
Q 30.953125 -1.421875 24.3125 -1.421875 
Q 15.921875 -1.421875 10.953125 3.296875 
Q 6 8.015625 6 15.921875 
Q 6 25.140625 12.171875 29.828125 
Q 18.359375 34.515625 30.609375 34.515625 
L 43.21875 34.515625 
L 43.21875 35.40625 
Q 43.21875 41.609375 39.140625 45 
Q 35.0625 48.390625 27.6875 48.390625 
Q 23 48.390625 18.546875 47.265625 
Q 14.109375 46.140625 10.015625 43.890625 
L 10.015625 52.203125 
Q 14.9375 54.109375 19.578125 55.046875 
Q 24.21875 56 28.609375 56 
Q 40.484375 56 46.34375 49.84375 
Q 52.203125 43.703125 52.203125 31.203125 
z
M 28.8125 66.890625 
L 26.015625 69.578125 
Q 24.953125 70.5625 24.140625 71.015625 
Q 23.34375 71.484375 22.703125 71.484375 
Q 20.84375 71.484375 19.96875 69.703125 
Q 19.09375 67.921875 18.984375 63.921875 
L 12.890625 63.921875 
Q 12.984375 70.515625 15.46875 74.09375 
Q 17.96875 77.6875 22.40625 77.6875 
Q 24.265625 77.6875 25.828125 77 
Q 27.390625 76.3125 29.203125 74.703125 
L 31.984375 72.015625 
Q 33.046875 71.046875 33.859375 70.578125 
Q 34.671875 70.125 35.296875 70.125 
Q 37.15625 70.125 38.03125 71.90625 
Q 38.90625 73.6875 39.015625 77.6875 
L 45.109375 77.6875 
Q 45.015625 71.09375 42.515625 67.5 
Q 40.03125 63.921875 35.59375 63.921875 
Q 33.734375 63.921875 32.171875 64.59375 
Q 30.609375 65.28125 28.8125 66.890625 
z
" id="DejaVuSans-227"/>
     </defs>
     <use xlink:href="#DejaVuSans-78"/>
     <use x="74.804688" xlink:href="#DejaVuSans-250"/>
     <use x="138.183594" xlink:href="#DejaVuSans-109"/>
     <use x="235.595703" xlink:href="#DejaVuSans-101"/>
     <use x="297.119141" xlink:href="#DejaVuSans-114"/>
     <use x="335.982422" xlink:href="#DejaVuSans-111"/>
     <use x="397.164062" xlink:href="#DejaVuSans-32"/>
     <use x="428.951172" xlink:href="#DejaVuSans-109"/>
     <use x="526.363281" xlink:href="#DejaVuSans-233"/>
     <use x="587.886719" xlink:href="#DejaVuSans-100"/>
     <use x="651.363281" xlink:href="#DejaVuSans-105"/>
     <use x="679.146484" xlink:href="#DejaVuSans-111"/>
     <use x="740.328125" xlink:href="#DejaVuSans-32"/>
     <use x="772.115234" xlink:href="#DejaVuSans-100"/>
     <use x="835.591797" xlink:href="#DejaVuSans-101"/>
     <use x="897.115234" xlink:href="#DejaVuSans-32"/>
     <use x="928.902344" xlink:href="#DejaVuSans-114"/>
     <use x="967.765625" xlink:href="#DejaVuSans-101"/>
     <use x="1029.289062" xlink:href="#DejaVuSans-103"/>
     <use x="1092.765625" xlink:href="#DejaVuSans-105"/>
     <use x="1120.548828" xlink:href="#DejaVuSans-245"/>
     <use x="1181.730469" xlink:href="#DejaVuSans-101"/>
     <use x="1243.253906" xlink:href="#DejaVuSans-115"/>
     <use x="1295.353516" xlink:href="#DejaVuSans-32"/>
     <use x="1327.140625" xlink:href="#DejaVuSans-101"/>
     <use x="1388.664062" xlink:href="#DejaVuSans-109"/>
     <use x="1486.076172" xlink:href="#DejaVuSans-32"/>
     <use x="1517.863281" xlink:href="#DejaVuSans-102"/>
     <use x="1553.068359" xlink:href="#DejaVuSans-117"/>
     <use x="1616.447266" xlink:href="#DejaVuSans-110"/>
     <use x="1679.826172" xlink:href="#DejaVuSans-231"/>
     <use x="1734.806641" xlink:href="#DejaVuSans-227"/>
     <use x="1796.085938" xlink:href="#DejaVuSans-111"/>
     <use x="1857.267578" xlink:href="#DejaVuSans-32"/>
     <use x="1889.054688" xlink:href="#DejaVuSans-100"/>
     <use x="1952.53125" xlink:href="#DejaVuSans-111"/>
    </g>
    <!-- tempo discreto para o experimento GRASP_2ILS_2GA_DE_PSO_20R -->
    <g transform="translate(27.802813 30.2355)scale(0.12 -0.12)">
     <defs>
      <path d="M 34.28125 27.484375 
Q 23.390625 27.484375 19.1875 25 
Q 14.984375 22.515625 14.984375 16.5 
Q 14.984375 11.71875 18.140625 8.90625 
Q 21.296875 6.109375 26.703125 6.109375 
Q 34.1875 6.109375 38.703125 11.40625 
Q 43.21875 16.703125 43.21875 25.484375 
L 43.21875 27.484375 
z
M 52.203125 31.203125 
L 52.203125 0 
L 43.21875 0 
L 43.21875 8.296875 
Q 40.140625 3.328125 35.546875 0.953125 
Q 30.953125 -1.421875 24.3125 -1.421875 
Q 15.921875 -1.421875 10.953125 3.296875 
Q 6 8.015625 6 15.921875 
Q 6 25.140625 12.171875 29.828125 
Q 18.359375 34.515625 30.609375 34.515625 
L 43.21875 34.515625 
L 43.21875 35.40625 
Q 43.21875 41.609375 39.140625 45 
Q 35.0625 48.390625 27.6875 48.390625 
Q 23 48.390625 18.546875 47.265625 
Q 14.109375 46.140625 10.015625 43.890625 
L 10.015625 52.203125 
Q 14.9375 54.109375 19.578125 55.046875 
Q 24.21875 56 28.609375 56 
Q 40.484375 56 46.34375 49.84375 
Q 52.203125 43.703125 52.203125 31.203125 
z
" id="DejaVuSans-97"/>
      <path d="M 54.890625 54.6875 
L 35.109375 28.078125 
L 55.90625 0 
L 45.3125 0 
L 29.390625 21.484375 
L 13.484375 0 
L 2.875 0 
L 24.125 28.609375 
L 4.6875 54.6875 
L 15.28125 54.6875 
L 29.78125 35.203125 
L 44.28125 54.6875 
z
" id="DejaVuSans-120"/>
      <path d="M 59.515625 10.40625 
L 59.515625 29.984375 
L 43.40625 29.984375 
L 43.40625 38.09375 
L 69.28125 38.09375 
L 69.28125 6.78125 
Q 63.578125 2.734375 56.6875 0.65625 
Q 49.8125 -1.421875 42 -1.421875 
Q 24.90625 -1.421875 15.25 8.5625 
Q 5.609375 18.5625 5.609375 36.375 
Q 5.609375 54.25 15.25 64.234375 
Q 24.90625 74.21875 42 74.21875 
Q 49.125 74.21875 55.546875 72.453125 
Q 61.96875 70.703125 67.390625 67.28125 
L 67.390625 56.78125 
Q 61.921875 61.421875 55.765625 63.765625 
Q 49.609375 66.109375 42.828125 66.109375 
Q 29.4375 66.109375 22.71875 58.640625 
Q 16.015625 51.171875 16.015625 36.375 
Q 16.015625 21.625 22.71875 14.15625 
Q 29.4375 6.6875 42.828125 6.6875 
Q 48.046875 6.6875 52.140625 7.59375 
Q 56.25 8.5 59.515625 10.40625 
z
" id="DejaVuSans-71"/>
      <path d="M 44.390625 34.1875 
Q 47.5625 33.109375 50.5625 29.59375 
Q 53.5625 26.078125 56.59375 19.921875 
L 66.609375 0 
L 56 0 
L 46.6875 18.703125 
Q 43.0625 26.03125 39.671875 28.421875 
Q 36.28125 30.8125 30.421875 30.8125 
L 19.671875 30.8125 
L 19.671875 0 
L 9.8125 0 
L 9.8125 72.90625 
L 32.078125 72.90625 
Q 44.578125 72.90625 50.734375 67.671875 
Q 56.890625 62.453125 56.890625 51.90625 
Q 56.890625 45.015625 53.6875 40.46875 
Q 50.484375 35.9375 44.390625 34.1875 
z
M 19.671875 64.796875 
L 19.671875 38.921875 
L 32.078125 38.921875 
Q 39.203125 38.921875 42.84375 42.21875 
Q 46.484375 45.515625 46.484375 51.90625 
Q 46.484375 58.296875 42.84375 61.546875 
Q 39.203125 64.796875 32.078125 64.796875 
z
" id="DejaVuSans-82"/>
      <path d="M 34.1875 63.1875 
L 20.796875 26.90625 
L 47.609375 26.90625 
z
M 28.609375 72.90625 
L 39.796875 72.90625 
L 67.578125 0 
L 57.328125 0 
L 50.6875 18.703125 
L 17.828125 18.703125 
L 11.1875 0 
L 0.78125 0 
z
" id="DejaVuSans-65"/>
      <path d="M 53.515625 70.515625 
L 53.515625 60.890625 
Q 47.90625 63.578125 42.921875 64.890625 
Q 37.9375 66.21875 33.296875 66.21875 
Q 25.25 66.21875 20.875 63.09375 
Q 16.5 59.96875 16.5 54.203125 
Q 16.5 49.359375 19.40625 46.890625 
Q 22.3125 44.4375 30.421875 42.921875 
L 36.375 41.703125 
Q 47.40625 39.59375 52.65625 34.296875 
Q 57.90625 29 57.90625 20.125 
Q 57.90625 9.515625 50.796875 4.046875 
Q 43.703125 -1.421875 29.984375 -1.421875 
Q 24.8125 -1.421875 18.96875 -0.25 
Q 13.140625 0.921875 6.890625 3.21875 
L 6.890625 13.375 
Q 12.890625 10.015625 18.65625 8.296875 
Q 24.421875 6.59375 29.984375 6.59375 
Q 38.421875 6.59375 43.015625 9.90625 
Q 47.609375 13.234375 47.609375 19.390625 
Q 47.609375 24.75 44.3125 27.78125 
Q 41.015625 30.8125 33.5 32.328125 
L 27.484375 33.5 
Q 16.453125 35.6875 11.515625 40.375 
Q 6.59375 45.0625 6.59375 53.421875 
Q 6.59375 63.09375 13.40625 68.65625 
Q 20.21875 74.21875 32.171875 74.21875 
Q 37.3125 74.21875 42.625 73.28125 
Q 47.953125 72.359375 53.515625 70.515625 
z
" id="DejaVuSans-83"/>
      <path d="M 19.671875 64.796875 
L 19.671875 37.40625 
L 32.078125 37.40625 
Q 38.96875 37.40625 42.71875 40.96875 
Q 46.484375 44.53125 46.484375 51.125 
Q 46.484375 57.671875 42.71875 61.234375 
Q 38.96875 64.796875 32.078125 64.796875 
z
M 9.8125 72.90625 
L 32.078125 72.90625 
Q 44.34375 72.90625 50.609375 67.359375 
Q 56.890625 61.8125 56.890625 51.125 
Q 56.890625 40.328125 50.609375 34.8125 
Q 44.34375 29.296875 32.078125 29.296875 
L 19.671875 29.296875 
L 19.671875 0 
L 9.8125 0 
z
" id="DejaVuSans-80"/>
      <path d="M 50.984375 -16.609375 
L 50.984375 -23.578125 
L -0.984375 -23.578125 
L -0.984375 -16.609375 
z
" id="DejaVuSans-95"/>
      <path d="M 9.8125 72.90625 
L 19.671875 72.90625 
L 19.671875 0 
L 9.8125 0 
z
" id="DejaVuSans-73"/>
      <path d="M 9.8125 72.90625 
L 19.671875 72.90625 
L 19.671875 8.296875 
L 55.171875 8.296875 
L 55.171875 0 
L 9.8125 0 
z
" id="DejaVuSans-76"/>
      <path d="M 19.671875 64.796875 
L 19.671875 8.109375 
L 31.59375 8.109375 
Q 46.6875 8.109375 53.6875 14.9375 
Q 60.6875 21.78125 60.6875 36.53125 
Q 60.6875 51.171875 53.6875 57.984375 
Q 46.6875 64.796875 31.59375 64.796875 
z
M 9.8125 72.90625 
L 30.078125 72.90625 
Q 51.265625 72.90625 61.171875 64.09375 
Q 71.09375 55.28125 71.09375 36.53125 
Q 71.09375 17.671875 61.125 8.828125 
Q 51.171875 0 30.078125 0 
L 9.8125 0 
z
" id="DejaVuSans-68"/>
      <path d="M 9.8125 72.90625 
L 55.90625 72.90625 
L 55.90625 64.59375 
L 19.671875 64.59375 
L 19.671875 43.015625 
L 54.390625 43.015625 
L 54.390625 34.71875 
L 19.671875 34.71875 
L 19.671875 8.296875 
L 56.78125 8.296875 
L 56.78125 0 
L 9.8125 0 
z
" id="DejaVuSans-69"/>
      <path d="M 39.40625 66.21875 
Q 28.65625 66.21875 22.328125 58.203125 
Q 16.015625 50.203125 16.015625 36.375 
Q 16.015625 22.609375 22.328125 14.59375 
Q 28.65625 6.59375 39.40625 6.59375 
Q 50.140625 6.59375 56.421875 14.59375 
Q 62.703125 22.609375 62.703125 36.375 
Q 62.703125 50.203125 56.421875 58.203125 
Q 50.140625 66.21875 39.40625 66.21875 
z
M 39.40625 74.21875 
Q 54.734375 74.21875 63.90625 63.9375 
Q 73.09375 53.65625 73.09375 36.375 
Q 73.09375 19.140625 63.90625 8.859375 
Q 54.734375 -1.421875 39.40625 -1.421875 
Q 24.03125 -1.421875 14.8125 8.828125 
Q 5.609375 19.09375 5.609375 36.375 
Q 5.609375 53.65625 14.8125 63.9375 
Q 24.03125 74.21875 39.40625 74.21875 
z
" id="DejaVuSans-79"/>
     </defs>
     <use xlink:href="#DejaVuSans-116"/>
     <use x="39.208984" xlink:href="#DejaVuSans-101"/>
     <use x="100.732422" xlink:href="#DejaVuSans-109"/>
     <use x="198.144531" xlink:href="#DejaVuSans-112"/>
     <use x="261.621094" xlink:href="#DejaVuSans-111"/>
     <use x="322.802734" xlink:href="#DejaVuSans-32"/>
     <use x="354.589844" xlink:href="#DejaVuSans-100"/>
     <use x="418.066406" xlink:href="#DejaVuSans-105"/>
     <use x="445.849609" xlink:href="#DejaVuSans-115"/>
     <use x="497.949219" xlink:href="#DejaVuSans-99"/>
     <use x="552.929688" xlink:href="#DejaVuSans-114"/>
     <use x="591.792969" xlink:href="#DejaVuSans-101"/>
     <use x="653.316406" xlink:href="#DejaVuSans-116"/>
     <use x="692.525391" xlink:href="#DejaVuSans-111"/>
     <use x="753.707031" xlink:href="#DejaVuSans-32"/>
     <use x="785.494141" xlink:href="#DejaVuSans-112"/>
     <use x="848.970703" xlink:href="#DejaVuSans-97"/>
     <use x="910.25" xlink:href="#DejaVuSans-114"/>
     <use x="951.363281" xlink:href="#DejaVuSans-97"/>
     <use x="1012.642578" xlink:href="#DejaVuSans-32"/>
     <use x="1044.429688" xlink:href="#DejaVuSans-111"/>
     <use x="1105.611328" xlink:href="#DejaVuSans-32"/>
     <use x="1137.398438" xlink:href="#DejaVuSans-101"/>
     <use x="1197.171875" xlink:href="#DejaVuSans-120"/>
     <use x="1256.351562" xlink:href="#DejaVuSans-112"/>
     <use x="1319.828125" xlink:href="#DejaVuSans-101"/>
     <use x="1381.351562" xlink:href="#DejaVuSans-114"/>
     <use x="1422.464844" xlink:href="#DejaVuSans-105"/>
     <use x="1450.248047" xlink:href="#DejaVuSans-109"/>
     <use x="1547.660156" xlink:href="#DejaVuSans-101"/>
     <use x="1609.183594" xlink:href="#DejaVuSans-110"/>
     <use x="1672.5625" xlink:href="#DejaVuSans-116"/>
     <use x="1711.771484" xlink:href="#DejaVuSans-111"/>
     <use x="1772.953125" xlink:href="#DejaVuSans-32"/>
     <use x="1804.740234" xlink:href="#DejaVuSans-71"/>
     <use x="1882.230469" xlink:href="#DejaVuSans-82"/>
     <use x="1947.712891" xlink:href="#DejaVuSans-65"/>
     <use x="2016.121094" xlink:href="#DejaVuSans-83"/>
     <use x="2079.597656" xlink:href="#DejaVuSans-80"/>
     <use x="2139.900391" xlink:href="#DejaVuSans-95"/>
     <use x="2189.900391" xlink:href="#DejaVuSans-50"/>
     <use x="2253.523438" xlink:href="#DejaVuSans-73"/>
     <use x="2283.015625" xlink:href="#DejaVuSans-76"/>
     <use x="2338.728516" xlink:href="#DejaVuSans-83"/>
     <use x="2402.205078" xlink:href="#DejaVuSans-95"/>
     <use x="2452.205078" xlink:href="#DejaVuSans-50"/>
     <use x="2515.828125" xlink:href="#DejaVuSans-71"/>
     <use x="2593.318359" xlink:href="#DejaVuSans-65"/>
     <use x="2661.726562" xlink:href="#DejaVuSans-95"/>
     <use x="2711.726562" xlink:href="#DejaVuSans-68"/>
     <use x="2788.728516" xlink:href="#DejaVuSans-69"/>
     <use x="2851.912109" xlink:href="#DejaVuSans-95"/>
     <use x="2901.912109" xlink:href="#DejaVuSans-80"/>
     <use x="2962.214844" xlink:href="#DejaVuSans-83"/>
     <use x="3025.691406" xlink:href="#DejaVuSans-79"/>
     <use x="3104.402344" xlink:href="#DejaVuSans-95"/>
     <use x="3154.402344" xlink:href="#DejaVuSans-50"/>
     <use x="3218.025391" xlink:href="#DejaVuSans-48"/>
     <use x="3281.648438" xlink:href="#DejaVuSans-82"/>
    </g>
   </g>
   <g id="legend_1">
    <g id="patch_7">
     <path d="M 57.314063 58.913625 
L 126.145313 58.913625 
Q 128.145313 58.913625 128.145313 56.913625 
L 128.145313 43.2355 
Q 128.145313 41.2355 126.145313 41.2355 
L 57.314063 41.2355 
Q 55.314063 41.2355 55.314063 43.2355 
L 55.314063 56.913625 
Q 55.314063 58.913625 57.314063 58.913625 
z
" style="fill:#ffffff;opacity:0.8;stroke:#cccccc;stroke-linejoin:miter;"/>
    </g>
    <g id="line2d_19">
     <path d="M 59.314063 49.333937 
L 79.314063 49.333937 
" style="fill:none;stroke:#1f77b4;stroke-linecap:square;stroke-width:1.5;"/>
    </g>
    <g id="line2d_20"/>
    <g id="text_21">
     <!-- regions -->
     <g transform="translate(87.314063 52.833937)scale(0.1 -0.1)">
      <use xlink:href="#DejaVuSans-114"/>
      <use x="38.863281" xlink:href="#DejaVuSans-101"/>
      <use x="100.386719" xlink:href="#DejaVuSans-103"/>
      <use x="163.863281" xlink:href="#DejaVuSans-105"/>
      <use x="191.646484" xlink:href="#DejaVuSans-111"/>
      <use x="252.828125" xlink:href="#DejaVuSans-110"/>
      <use x="316.207031" xlink:href="#DejaVuSans-115"/>
     </g>
    </g>
   </g>
  </g>
 </g>
 <defs>
  <clipPath id="pfcdc03ad4d">
   <rect height="266.112" width="357.12" x="50.314063" y="36.2355"/>
  </clipPath>
 </defs>
</svg>
